<?xml version="1.0" encoding="utf-8"?>
<svg version="1.1" xmlns:xlink="http://www.w3.org/1999/xlink" width="15px" height="16px" xmlns="http://www.w3.org/2000/svg">
  <g transform="matrix(1 0 0 1 -241 -210 )">
    <path d="M 0.363636363636374 4  L 7.27272727272728 0  L 14.1818181818182 4  L 14.1818181818182 12  L 7.27272727272728 16  L 0.363636363636374 12  L 0.363636363636374 4  Z M 12.7272727272727 4.83854545454545  L 7.27272727272728 1.68072727272727  L 1.81818181818181 4.83854545454545  L 1.81818181818181 11.1614545454545  L 7.27272727272728 14.3192727272727  L 12.7272727272727 11.1614545454545  L 12.7272727272727 4.83854545454545  Z M 7.27272727272728 10.9090909090909  C 5.66608072776498 10.9090909090909  4.36363636363637 9.6066465449623  4.36363636363637 8  C 4.36363636363637 6.3933534550377  5.66608072776498 5.09090909090909  7.27272727272728 5.09090909090909  C 8.87937381768958 5.09090909090909  10.1818181818182 6.3933534550377  10.1818181818182 8  C 10.1818181818182 9.6066465449623  8.87937381768958 10.9090909090909  7.27272727272728 10.9090909090909  Z M 7.27272727272728 9.45454545454547  C 8.07605054520843 9.45454545454547  8.72727272727275 8.80332327248115  8.72727272727275 8  C 8.72727272727275 7.19667672751885  8.07605054520843 6.54545454545453  7.27272727272728 6.54545454545453  C 6.46940400024613 6.54545454545453  5.81818181818181 7.19667672751885  5.81818181818181 8  C 5.81818181818181 8.80332327248115  6.46940400024613 9.45454545454547  7.27272727272728 9.45454545454547  Z " fill-rule="nonzero" fill="#2561ef" stroke="none" transform="matrix(1 0 0 1 241 210 )" />
  </g>
</svg>