<?xml version="1.0" encoding="utf-8"?>
<svg version="1.1" xmlns:xlink="http://www.w3.org/1999/xlink" width="11px" height="6px" xmlns="http://www.w3.org/2000/svg">
  <g transform="matrix(1 0 0 1 1 -13 )">
    <path d="M 10.314453125 5.31527777777779  C 10.4381510416667 5.19212962962962  10.5 5.0462962962963  10.5 4.87777777777779  C 10.5 4.70925925925928  10.4381510416667 4.56342592592591  10.314453125 4.44027777777777  L 5.93945312500009 0.0847222222221831  C 5.81575520833334 -0.0384259259259352  5.66927083333334 -0.100000000000023  5.50000000000009 -0.100000000000023  C 5.33072916666666 -0.100000000000023  5.18424479166666 -0.0384259259259352  5.06054687499992 0.0847222222221831  L 0.685546875000028 4.44027777777777  C 0.561848958333371 4.56342592592591  0.5 4.70925925925928  0.5 4.87777777777779  C 0.5 5.0462962962963  0.561848958333371 5.19212962962962  0.685546875000028 5.31527777777779  C 0.809244791666643 5.43842592592594  0.955729166666641 5.5  1.12500000000003 5.5  L 9.87499999999997 5.5  C 10.0442708333333 5.5  10.1907552083333 5.43842592592594  10.314453125 5.31527777777779  Z " fill-rule="nonzero" fill="#333333" stroke="none" fill-opacity="0.8" transform="matrix(1 0 0 1 -1 13 )" />
  </g>
</svg>