<?xml version="1.0" encoding="utf-8"?>
<svg version="1.1" xmlns:xlink="http://www.w3.org/1999/xlink" width="214px" height="88px" xmlns="http://www.w3.org/2000/svg">
  <g transform="matrix(1 0 0 1 -214 -146 )">
    <path d="M 41 44  L 67 44  L 67 73  L 41 73  L 41 44  Z M 81 15  L 107 15  L 107 73  L 81 73  L 81 15  Z M 14 80  L 214 80  L 214 88  L 0 88  L 0 0  L 14 0  L 14 80  Z M 120 30  L 147 30  L 147 73  L 120 73  L 120 30  Z M 160 8  L 187 8  L 187 73  L 160 73  L 160 8  Z " fill-rule="nonzero" fill="#000000" stroke="none" transform="matrix(1 0 0 1 214 146 )" />
  </g>
</svg>