<?xml version="1.0" encoding="utf-8"?>
<svg version="1.1" xmlns:xlink="http://www.w3.org/1999/xlink" width="50px" height="48px" xmlns="http://www.w3.org/2000/svg">
  <g transform="matrix(1 0 0 1 -725 -163 )">
    <path d="M 23 3.69230769230769  L 23 25.6730769230769  L 38.0208333333333 41.4230769230769  C 35.9760802469136 43.5  33.5889274691358 45.1153846153846  30.859375 46.2692307692308  C 28.1298225308642 47.4230769230769  25.2507716049383 48  22.2222222222222 48  C 18.1905864197531 48  14.4724151234568 47.0096153846154  11.0677083333333 45.0288461538462  C 7.66300154320988 43.0480769230769  4.96720679012346 40.3605769230769  2.98032407407407 36.9663461538462  C 0.993441358024691 33.5721153846154  0 29.8653846153846  0 25.8461538461538  C 0 21.8269230769231  0.993441358024691 18.1201923076923  2.98032407407407 14.7259615384615  C 4.96720679012346 11.3317307692308  7.66300154320988 8.64423076923077  11.0677083333333 6.66346153846154  C 14.4724151234568 4.6826923076923  18.1905864197531 3.69230769230769  23 3.69230769230769  Z M 43.4027777777778 41.5961538461538  L 27.6331018518519 25  L 50 25  C 50 28.8653846153846  49.4212962962963 31.7355769230769  48.2638888888889 34.4567307692308  C 47.1064814814815 37.1778846153846  45.4861111111111 39.5576923076923  43.4027777777778 41.5961538461538  Z M 45.1678240740741 11.0336538461538  C 47.1547067901235 14.4278846153846  48.1481481481481 18.1346153846154  48.1481481481481 23  L 26 23  L 26 0  C 29.9575617283951 0  33.6757330246914 0.990384615384619  37.0804398148148 2.97115384615384  C 40.4851466049383 4.95192307692307  43.1809413580247 7.63942307692307  45.1678240740741 11.0336538461538  Z " fill-rule="nonzero" fill="#000000" stroke="none" transform="matrix(1 0 0 1 725 163 )" />
  </g>
</svg>