<?xml version="1.0" encoding="utf-8"?>
<svg version="1.1" xmlns:xlink="http://www.w3.org/1999/xlink" width="181px" height="88px" xmlns="http://www.w3.org/2000/svg">
  <g transform="matrix(1 0 0 1 -887 -135 )">
    <path d="M 34 44  L 57 44  L 57 73  L 34 73  L 34 44  Z M 68 15  L 90 15  L 90 73  L 68 73  L 68 15  Z M 12 80  L 181 80  L 181 88  L 0 88  L 0 0  L 12 0  L 12 80  Z M 101 30  L 124 30  L 124 73  L 101 73  L 101 30  Z M 135 8  L 158 8  L 158 73  L 135 73  L 135 8  Z " fill-rule="nonzero" fill="#000000" stroke="none" transform="matrix(1 0 0 1 887 135 )" />
  </g>
</svg>