<?xml version="1.0" encoding="utf-8"?>
<svg version="1.1" xmlns:xlink="http://www.w3.org/1999/xlink" width="5px" height="5px" xmlns="http://www.w3.org/2000/svg">
  <g transform="matrix(1 0 0 1 -199 -16 )">
    <path d="M 4.54372829861111 0.153935185185183  C 4.60099585262349 0.256558641975303  4.62962962962965 0.378086419753082  4.62962962962965 0.518518518518519  C 4.62962962962965 0.658950617283949  4.60099585262349 0.780478395061724  4.54372829861111 0.883101851851848  L 2.51826533564819 4.51273148148149  C 2.46099778163581 4.61535493827161  2.39318094135803 4.66666666666667  2.31481481481486 4.66666666666667  C 2.23644868827162 4.66666666666667  2.16863184799384 4.61535493827161  2.11136429398146 4.51273148148149  L 0.0859013310185396 0.883101851851848  C 0.0286337770061904 0.780478395061724  0 0.658950617283949  0 0.518518518518519  C 0 0.378086419753082  0.0286337770061904 0.256558641975303  0.0859013310185396 0.153935185185183  C 0.143168885030857 0.0513117283950635  0.210985725308635 0  0.289351851851873 0  L 4.34027777777778 0  C 4.41864390432098 0  4.48646074459876 0.0513117283950635  4.54372829861111 0.153935185185183  Z " fill-rule="nonzero" fill="#cccccc" stroke="none" transform="matrix(1 0 0 1 199 16 )" />
  </g>
</svg>