<?xml version="1.0" encoding="utf-8"?>
<svg version="1.1" xmlns:xlink="http://www.w3.org/1999/xlink" width="1192px" height="112px" xmlns="http://www.w3.org/2000/svg">
  <g transform="matrix(1 0 0 1 -10 0 )">
    <path d="M 11 5  A 4 4 0 0 1 15 1 L 1197 1  A 4 4 0 0 1 1201 5 L 1201 107  A 4 4 0 0 1 1197 111 L 15 111  A 4 4 0 0 1 11 107 L 11 5  Z " fill-rule="nonzero" fill="#7f7f7f" stroke="none" fill-opacity="0.270588235294118" />
    <path d="M 10.5 5  A 4.5 4.5 0 0 1 15 0.5 L 1197 0.5  A 4.5 4.5 0 0 1 1201.5 5 L 1201.5 107  A 4.5 4.5 0 0 1 1197 111.5 L 15 111.5  A 4.5 4.5 0 0 1 10.5 107 L 10.5 5  Z " stroke-width="1" stroke="#7f7f7f" fill="none" stroke-opacity="0.270588235294118" />
  </g>
</svg>