<?xml version="1.0" encoding="utf-8"?>
<svg version="1.1" xmlns:xlink="http://www.w3.org/1999/xlink" width="16px" height="16px" viewBox="288 379  16 16" xmlns="http://www.w3.org/2000/svg">
  <path d="M 296 379  C 300.48 379  304 382.52  304 387  C 304 391.48  300.48 395  296 395  C 291.52 395  288 391.48  288 387  C 288 382.52  291.52 379  296 379  Z " fill-rule="nonzero" fill="#f0f0f0" stroke="none" />
  <path d="M 296 379.5  C 300.2 379.5  303.5 382.8  303.5 387  C 303.5 391.2  300.2 394.5  296 394.5  C 291.8 394.5  288.5 391.2  288.5 387  C 288.5 382.8  291.8 379.5  296 379.5  Z " stroke-width="1" stroke="#8c8c8c" fill="none" />
  <path d="M 296 391  C 293.76 391  292 389.24  292 387  C 292 384.76  293.76 383  296 383  C 298.24 383  300 384.76  300 387  C 300 389.24  298.24 391  296 391  " fill-rule="nonzero" fill="#8c8c8c" stroke="none" />
</svg>