<?xml version="1.0" encoding="utf-8"?>
<svg version="1.1" xmlns:xlink="http://www.w3.org/1999/xlink" width="8px" height="5px" xmlns="http://www.w3.org/2000/svg">
  <g transform="matrix(1 0 0 1 -343 -16 )">
    <path d="M 7.26996527777778 0.153935185185183  C 7.36159336419759 0.256558641975303  7.40740740740744 0.378086419753082  7.40740740740744 0.518518518518519  C 7.40740740740744 0.658950617283949  7.36159336419759 0.780478395061724  7.26996527777778 0.883101851851848  L 4.0292245370371 4.51273148148149  C 3.9375964506173 4.61535493827161  3.82908950617285 4.66666666666667  3.70370370370377 4.66666666666667  C 3.57831790123459 4.66666666666667  3.46981095679015 4.61535493827161  3.37818287037034 4.51273148148149  L 0.137442129629663 0.883101851851848  C 0.0458140432099046 0.780478395061724  0 0.658950617283949  0 0.518518518518519  C 0 0.378086419753082  0.0458140432099046 0.256558641975303  0.137442129629663 0.153935185185183  C 0.229070216049372 0.0513117283950635  0.337577160493816 0  0.462962962962997 0  L 6.94444444444444 0  C 7.06983024691357 0  7.17833719135802 0.0513117283950635  7.26996527777778 0.153935185185183  Z " fill-rule="nonzero" fill="#cccccc" stroke="none" transform="matrix(1 0 0 1 343 16 )" />
  </g>
</svg>