<?xml version="1.0" encoding="utf-8"?>
<svg version="1.1" xmlns:xlink="http://www.w3.org/1999/xlink" width="16px" height="16px" xmlns="http://www.w3.org/2000/svg">
  <g transform="matrix(1 0 0 1 -52 -150 )">
    <path d="M 7.2 12  L 7.2 10.4  L 8.8 10.4  L 8.8 12  L 7.2 12  Z M 7.2 8.80000000000001  L 7.2 4  L 8.8 4  L 8.8 8.80000000000001  L 7.2 8.80000000000001  Z M 16 8  C 16 3.58000000000001  12.416 0  7.996 0  C 3.57600000000001 0  0 3.58000000000001  0 8  C 0 12.42  3.57600000000001 16  7.996 16  C 12.416 16  16 12.42  16 8  Z M 14.4 8  C 14.4 11.536  11.536 14.4  8 14.4  C 4.464 14.4  1.6 11.536  1.6 8  C 1.6 4.464  4.464 1.59999999999999  8 1.59999999999999  C 11.536 1.59999999999999  14.4 4.464  14.4 8  Z " fill-rule="nonzero" fill="#666ee8" stroke="none" fill-opacity="0.898039215686275" transform="matrix(1 0 0 1 52 150 )" />
  </g>
</svg>