<?xml version="1.0" encoding="utf-8"?>
<svg version="1.1" xmlns:xlink="http://www.w3.org/1999/xlink" width="230px" height="89px" xmlns="http://www.w3.org/2000/svg">
  <defs>
    <filter x="66px" y="229px" width="230px" height="89px" filterUnits="userSpaceOnUse" id="filter173">
      <feOffset dx="0" dy="0" in="SourceAlpha" result="shadowOffsetInner" />
      <feGaussianBlur stdDeviation="2.5" in="shadowOffsetInner" result="shadowGaussian" />
      <feComposite in2="shadowGaussian" operator="atop" in="SourceAlpha" result="shadowComposite" />
      <feColorMatrix type="matrix" values="0 0 0 0 0.949019607843137  0 0 0 0 0.949019607843137  0 0 0 0 0.949019607843137  0 0 0 1 0  " in="shadowComposite" />
    </filter>
    <g id="widget174">
      <path d="M 71.5 238  A 3.5 3.5 0 0 1 75 234.5 L 287 234.5  A 3.5 3.5 0 0 1 290.5 238 L 290.5 309  A 3.5 3.5 0 0 1 287 312.5 L 75 312.5  A 3.5 3.5 0 0 1 71.5 309 L 71.5 238  Z " fill-rule="nonzero" fill="#ffffff" stroke="none" />
      <path d="M 71.5 238  A 3.5 3.5 0 0 1 75 234.5 L 287 234.5  A 3.5 3.5 0 0 1 290.5 238 L 290.5 309  A 3.5 3.5 0 0 1 287 312.5 L 75 312.5  A 3.5 3.5 0 0 1 71.5 309 L 71.5 238  Z " stroke-width="1" stroke="#f2f2f2" fill="none" />
    </g>
  </defs>
  <g transform="matrix(1 0 0 1 -66 -229 )">
    <use xlink:href="#widget174" filter="url(#filter173)" />
    <use xlink:href="#widget174" />
  </g>
</svg>