<?xml version="1.0" encoding="utf-8"?>
<svg version="1.1" xmlns:xlink="http://www.w3.org/1999/xlink" width="16px" height="16px" viewBox="166 91  16 16" xmlns="http://www.w3.org/2000/svg">
  <path d="M 174 91  C 178.48 91  182 94.52  182 99  C 182 103.48  178.48 107  174 107  C 169.52 107  166 103.48  166 99  C 166 94.52  169.52 91  174 91  Z " fill-rule="nonzero" fill="#f0f0f0" stroke="none" />
  <path d="M 174 91.5  C 178.2 91.5  181.5 94.8  181.5 99  C 181.5 103.2  178.2 106.5  174 106.5  C 169.8 106.5  166.5 103.2  166.5 99  C 166.5 94.8  169.8 91.5  174 91.5  Z " stroke-width="1" stroke="#8c8c8c" fill="none" />
  <path d="M 174 103  C 171.76 103  170 101.24  170 99  C 170 96.76  171.76 95  174 95  C 176.24 95  178 96.76  178 99  C 178 101.24  176.24 103  174 103  " fill-rule="nonzero" fill="#8c8c8c" stroke="none" />
</svg>