<?xml version="1.0" encoding="utf-8"?>
<svg version="1.1" xmlns:xlink="http://www.w3.org/1999/xlink" width="16px" height="16px" viewBox="186 90  16 16" xmlns="http://www.w3.org/2000/svg">
  <path d="M 194 90  C 198.48 90  202 93.52  202 98  C 202 102.48  198.48 106  194 106  C 189.52 106  186 102.48  186 98  C 186 93.52  189.52 90  194 90  Z " fill-rule="nonzero" fill="#f0f0f0" stroke="none" />
  <path d="M 194 90.5  C 198.2 90.5  201.5 93.8  201.5 98  C 201.5 102.2  198.2 105.5  194 105.5  C 189.8 105.5  186.5 102.2  186.5 98  C 186.5 93.8  189.8 90.5  194 90.5  Z " stroke-width="1" stroke="#8c8c8c" fill="none" />
  <path d="M 194 102  C 191.76 102  190 100.24  190 98  C 190 95.76  191.76 94  194 94  C 196.24 94  198 95.76  198 98  C 198 100.24  196.24 102  194 102  " fill-rule="nonzero" fill="#8c8c8c" stroke="none" />
</svg>