<?xml version="1.0" encoding="utf-8"?>
<svg version="1.1" xmlns:xlink="http://www.w3.org/1999/xlink" width="16px" height="16px" viewBox="309 95  16 16" xmlns="http://www.w3.org/2000/svg">
  <path d="M 317 95  C 321.48 95  325 98.52  325 103  C 325 107.48  321.48 111  317 111  C 312.52 111  309 107.48  309 103  C 309 98.52  312.52 95  317 95  Z " fill-rule="nonzero" fill="#f0f0f0" stroke="none" />
  <path d="M 317 95.5  C 321.2 95.5  324.5 98.8  324.5 103  C 324.5 107.2  321.2 110.5  317 110.5  C 312.8 110.5  309.5 107.2  309.5 103  C 309.5 98.8  312.8 95.5  317 95.5  Z " stroke-width="1" stroke="#8c8c8c" fill="none" />
  <path d="M 317 107  C 314.76 107  313 105.24  313 103  C 313 100.76  314.76 99  317 99  C 319.24 99  321 100.76  321 103  C 321 105.24  319.24 107  317 107  " fill-rule="nonzero" fill="#8c8c8c" stroke="none" />
</svg>