<?xml version="1.0" encoding="utf-8"?>
<svg version="1.1" xmlns:xlink="http://www.w3.org/1999/xlink" width="340px" height="180px" xmlns="http://www.w3.org/2000/svg">
  <defs>
    <filter x="-20px" y="87px" width="340px" height="180px" filterUnits="userSpaceOnUse" id="filter205">
      <feOffset dx="0" dy="10" in="SourceAlpha" result="shadowOffsetInner" />
      <feGaussianBlur stdDeviation="20" in="shadowOffsetInner" result="shadowGaussian" />
      <feComposite in2="shadowGaussian" operator="atop" in="SourceAlpha" result="shadowComposite" />
      <feColorMatrix type="matrix" values="0 0 0 0 0.949019607843137  0 0 0 0 0.949019607843137  0 0 0 0 0.949019607843137  0 0 0 1 0  " in="shadowComposite" />
    </filter>
    <g id="widget206">
      <path d="M 21 125  A 7 7 0 0 1 28 118 L 272 118  A 7 7 0 0 1 279 125 L 279 209  A 7 7 0 0 1 272 216 L 28 216  A 7 7 0 0 1 21 209 L 21 125  Z " fill-rule="nonzero" fill="#ffffff" stroke="none" />
      <path d="M 20.5 125  A 7.5 7.5 0 0 1 28 117.5 L 272 117.5  A 7.5 7.5 0 0 1 279.5 125 L 279.5 209  A 7.5 7.5 0 0 1 272 216.5 L 28 216.5  A 7.5 7.5 0 0 1 20.5 209 L 20.5 125  Z " stroke-width="1" stroke="#2561ef" fill="none" stroke-opacity="0.0980392156862745" />
    </g>
  </defs>
  <g transform="matrix(1 0 0 1 20 -87 )">
    <use xlink:href="#widget206" filter="url(#filter205)" />
    <use xlink:href="#widget206" />
  </g>
</svg>