<?xml version="1.0" encoding="utf-8"?>
<svg version="1.1" xmlns:xlink="http://www.w3.org/1999/xlink" width="1440px" height="445px" xmlns="http://www.w3.org/2000/svg">
  <defs>
    <filter x="-20px" y="207px" width="1440px" height="445px" filterUnits="userSpaceOnUse" id="filter226">
      <feOffset dx="0" dy="10" in="SourceAlpha" result="shadowOffsetInner" />
      <feGaussianBlur stdDeviation="20" in="shadowOffsetInner" result="shadowGaussian" />
      <feComposite in2="shadowGaussian" operator="atop" in="SourceAlpha" result="shadowComposite" />
      <feColorMatrix type="matrix" values="0 0 0 0 0.949019607843137  0 0 0 0 0.949019607843137  0 0 0 0 0.949019607843137  0 0 0 1 0  " in="shadowComposite" />
    </filter>
    <g id="widget227">
      <path d="M 21 245  A 7 7 0 0 1 28 238 L 1372 238  A 7 7 0 0 1 1379 245 L 1379 594  A 7 7 0 0 1 1372 601 L 28 601  A 7 7 0 0 1 21 594 L 21 245  Z " fill-rule="nonzero" fill="#ffffff" stroke="none" />
      <path d="M 20.5 245  A 7.5 7.5 0 0 1 28 237.5 L 1372 237.5  A 7.5 7.5 0 0 1 1379.5 245 L 1379.5 594  A 7.5 7.5 0 0 1 1372 601.5 L 28 601.5  A 7.5 7.5 0 0 1 20.5 594 L 20.5 245  Z " stroke-width="1" stroke="#6c76f4" fill="none" stroke-opacity="0.0980392156862745" />
    </g>
  </defs>
  <g transform="matrix(1 0 0 1 20 -207 )">
    <use xlink:href="#widget227" filter="url(#filter226)" />
    <use xlink:href="#widget227" />
  </g>
</svg>