<?xml version="1.0" encoding="utf-8"?>
<svg version="1.1" xmlns:xlink="http://www.w3.org/1999/xlink" width="16px" height="16px" xmlns="http://www.w3.org/2000/svg">
  <g transform="matrix(1 0 0 1 -506 -159 )">
    <path d="M 12.1904761918934 16  L 0 16  C 0 12.633692953021  2.72893104896764 9.90476190405332  6.09523809594668 9.90476190405332  C 9.46154514292573 9.90476190405332  12.1904761918934 12.633692953021  12.1904761918934 16  Z M 10.6666666746032 4.57142857568027  C 10.6666666746032 7.09714286045494  8.62095238964991 9.14285714540819  6.09523810487531 9.14285714540819  C 3.56952382010058 9.14285714540819  1.52380953514739 7.09714286045494  1.52380953514739 4.57142857568027  C 1.52380953514739 2.04571429090561  3.56952382010058 0  6.09523810487531 0  C 8.62095238964991 0  10.6666666746032 2.04571429090561  10.6666666746032 4.57142857568027  Z M 13.7142857091836 16  C 13.7142857091836 14.0114285721684  12.9523809416099 12.2011428585561  11.7051428527883 10.8441904662038  C 14.0955781495866 11.4585777087478  15.8220377454015 13.5373948076117  15.9870476190524 16  L 13.7142857091836 16  Z M 10.6674288407092 9.14353796894784  C 10.4990009557047 9.14353796894784  10.3307585403023 9.13236586674992  10.1638095319331 9.11009523470608  C 11.455173626839 7.95506607920112  12.1924420413429 6.30397286403615  12.1904761918934 4.57142857568027  C 12.1920962811556 3.53025914673333  11.9257800721101 2.50618805717261  11.4171428528954 1.59771429107229  C 13.1964950003206 1.95525313731855  14.4765471183404 3.51841515536034  14.4761904767573 5.33333332539684  C 14.4761906589235 5.33381423679316  14.4761907500066 5.33429514821967  14.4761907500066 5.33477605965049  C 14.4761907500066 7.43829717789185  12.7709499589506 9.14353796894784  10.6674288407092 9.14353796894784  Z " fill-rule="nonzero" fill="#28d094" stroke="none" transform="matrix(1 0 0 1 506 159 )" />
  </g>
</svg>