<?xml version="1.0" encoding="utf-8"?>
<svg version="1.1" xmlns:xlink="http://www.w3.org/1999/xlink" width="750px" height="464px" xmlns="http://www.w3.org/2000/svg">
  <defs>
    <filter x="670px" y="593px" width="750px" height="464px" filterUnits="userSpaceOnUse" id="filter268">
      <feOffset dx="0" dy="10" in="SourceAlpha" result="shadowOffsetInner" />
      <feGaussianBlur stdDeviation="20" in="shadowOffsetInner" result="shadowGaussian" />
      <feComposite in2="shadowGaussian" operator="atop" in="SourceAlpha" result="shadowComposite" />
      <feColorMatrix type="matrix" values="0 0 0 0 0.949019607843137  0 0 0 0 0.949019607843137  0 0 0 0 0.949019607843137  0 0 0 1 0  " in="shadowComposite" />
    </filter>
    <g id="widget269">
      <path d="M 711 631  A 7 7 0 0 1 718 624 L 1372 624  A 7 7 0 0 1 1379 631 L 1379 999  A 7 7 0 0 1 1372 1006 L 718 1006  A 7 7 0 0 1 711 999 L 711 631  Z " fill-rule="nonzero" fill="#ffffff" stroke="none" />
      <path d="M 710.5 631  A 7.5 7.5 0 0 1 718 623.5 L 1372 623.5  A 7.5 7.5 0 0 1 1379.5 631 L 1379.5 999  A 7.5 7.5 0 0 1 1372 1006.5 L 718 1006.5  A 7.5 7.5 0 0 1 710.5 999 L 710.5 631  Z " stroke-width="1" stroke="#6c76f4" fill="none" stroke-opacity="0.0980392156862745" />
    </g>
  </defs>
  <g transform="matrix(1 0 0 1 -670 -593 )">
    <use xlink:href="#widget269" filter="url(#filter268)" />
    <use xlink:href="#widget269" />
  </g>
</svg>