<?xml version="1.0" encoding="utf-8"?>
<svg version="1.1" xmlns:xlink="http://www.w3.org/1999/xlink" width="355px" height="414px" xmlns="http://www.w3.org/2000/svg">
  <defs>
    <filter x="5px" y="607px" width="355px" height="414px" filterUnits="userSpaceOnUse" id="filter266">
      <feOffset dx="0" dy="0" in="SourceAlpha" result="shadowOffsetInner" />
      <feGaussianBlur stdDeviation="7.5" in="shadowOffsetInner" result="shadowGaussian" />
      <feComposite in2="shadowGaussian" operator="atop" in="SourceAlpha" result="shadowComposite" />
      <feColorMatrix type="matrix" values="0 0 0 0 0.949019607843137  0 0 0 0 0.949019607843137  0 0 0 0 0.949019607843137  0 0 0 1 0  " in="shadowComposite" />
    </filter>
    <g id="widget267">
      <path d="M 21 630  A 7 7 0 0 1 28 623 L 337 623  A 7 7 0 0 1 344 630 L 344 998  A 7 7 0 0 1 337 1005 L 28 1005  A 7 7 0 0 1 21 998 L 21 630  Z " fill-rule="nonzero" fill="#ffffff" stroke="none" />
      <path d="M 20.5 630  A 7.5 7.5 0 0 1 28 622.5 L 337 622.5  A 7.5 7.5 0 0 1 344.5 630 L 344.5 998  A 7.5 7.5 0 0 1 337 1005.5 L 28 1005.5  A 7.5 7.5 0 0 1 20.5 998 L 20.5 630  Z " stroke-width="1" stroke="#2561ef" fill="none" stroke-opacity="0.0470588235294118" />
    </g>
  </defs>
  <g transform="matrix(1 0 0 1 -5 -607 )">
    <use xlink:href="#widget267" filter="url(#filter266)" />
    <use xlink:href="#widget267" />
  </g>
</svg>