<?xml version="1.0" encoding="utf-8"?>
<svg version="1.1" xmlns:xlink="http://www.w3.org/1999/xlink" width="40px" height="40px" xmlns="http://www.w3.org/2000/svg">
  <defs>
    <filter x="472px" y="135px" width="40px" height="40px" filterUnits="userSpaceOnUse" id="filter69">
      <feOffset dx="1" dy="1" in="SourceAlpha" result="shadowOffsetInner" />
      <feGaussianBlur stdDeviation="2.5" in="shadowOffsetInner" result="shadowGaussian" />
      <feComposite in2="shadowGaussian" operator="atop" in="SourceAlpha" result="shadowComposite" />
      <feColorMatrix type="matrix" values="0 0 0 0 0  0 0 0 0 0  0 0 0 0 0  0 0 0 0.698039215686274 0  " in="shadowComposite" />
    </filter>
    <g id="widget70">
      <path d="M 491 139  C 499.4 139  506 145.6  506 154  C 506 162.4  499.4 169  491 169  C 482.6 169  476 162.4  476 154  C 476 145.6  482.6 139  491 139  Z " fill-rule="nonzero" fill="#009dd9" stroke="none" />
      <path d="M 491 139.5  C 499.12 139.5  505.5 145.88  505.5 154  C 505.5 162.12  499.12 168.5  491 168.5  C 482.88 168.5  476.5 162.12  476.5 154  C 476.5 145.88  482.88 139.5  491 139.5  Z " stroke-width="1" stroke="#ffffff" fill="none" />
    </g>
  </defs>
  <g transform="matrix(1 0 0 1 -472 -135 )">
    <use xlink:href="#widget70" filter="url(#filter69)" />
    <use xlink:href="#widget70" />
  </g>
</svg>