<?xml version="1.0" encoding="utf-8"?>
<svg version="1.1" xmlns:xlink="http://www.w3.org/1999/xlink" width="12px" height="12px" viewBox="212 109  12 12" xmlns="http://www.w3.org/2000/svg">
  <path d="M 218 109  C 221.36 109  224 111.64  224 115  C 224 118.36  221.36 121  218 121  C 214.64 121  212 118.36  212 115  C 212 111.64  214.64 109  218 109  Z " fill-rule="nonzero" fill="#f0f0f0" stroke="none" />
  <path d="M 218 109.5  C 221.08 109.5  223.5 111.92  223.5 115  C 223.5 118.08  221.08 120.5  218 120.5  C 214.92 120.5  212.5 118.08  212.5 115  C 212.5 111.92  214.92 109.5  218 109.5  Z " stroke-width="1" stroke="#797979" fill="none" />
  <path d="M 218 118  C 216.32 118  215 116.68  215 115  C 215 113.32  216.32 112  218 112  C 219.68 112  221 113.32  221 115  C 221 116.68  219.68 118  218 118  " fill-rule="nonzero" fill="#797979" stroke="none" />
</svg>