<?xml version="1.0" encoding="utf-8"?>
<svg version="1.1" xmlns:xlink="http://www.w3.org/1999/xlink" width="12px" height="12px" viewBox="242 417  12 12" xmlns="http://www.w3.org/2000/svg">
  <path d="M 248 417  C 251.36 417  254 419.64  254 423  C 254 426.36  251.36 429  248 429  C 244.64 429  242 426.36  242 423  C 242 419.64  244.64 417  248 417  Z " fill-rule="nonzero" fill="#f0f0f0" stroke="none" />
  <path d="M 248 417.5  C 251.08 417.5  253.5 419.92  253.5 423  C 253.5 426.08  251.08 428.5  248 428.5  C 244.92 428.5  242.5 426.08  242.5 423  C 242.5 419.92  244.92 417.5  248 417.5  Z " stroke-width="1" stroke="#797979" fill="none" />
  <path d="M 248 426  C 246.32 426  245 424.68  245 423  C 245 421.32  246.32 420  248 420  C 249.68 420  251 421.32  251 423  C 251 424.68  249.68 426  248 426  " fill-rule="nonzero" fill="#797979" stroke="none" />
</svg>