<?xml version="1.0" encoding="utf-8"?>
<svg version="1.1" xmlns:xlink="http://www.w3.org/1999/xlink" width="13px" height="18px" xmlns="http://www.w3.org/2000/svg">
  <g transform="matrix(1 0 0 1 -231 -157 )">
    <path d="M 0 7.71428571428578  C 0 3.45600000000002  2.49599999999997 0  5.57142857142856 0  C 8.64685714285712 0  11.1428571428572 3.45600000000002  11.1428571428572 7.71428571428578  C 11.1428571428572 11.9725714285714  8.64685714285712 15.4285714285714  5.57142857142856 15.4285714285714  C 2.49599999999997 15.4285714285714  0 11.9725714285714  0 7.71428571428578  Z M 1.23809523809524 7.71428571428578  C 1.23809523809524 11.0288571428571  3.1769523809524 13.7142857142857  5.57142857142856 13.7142857142857  C 7.96528571428571 13.7142857142857  9.90476190476191 11.0288571428571  9.90476190476191 7.71428571428578  C 9.90476190476191 4.39885714285708  7.96528571428571 1.71428571428572  5.57142857142856 1.71428571428572  C 3.1769523809524 1.71428571428572  1.23809523809524 4.39885714285708  1.23809523809524 7.71428571428578  Z M 9.94871428571427 14.9871428571429  L 10.8240476190476 13.7751428571428  L 12.5753333333333 16.1991428571429  L 11.699380952381 17.412  L 9.94871428571427 14.9871428571429  Z " fill-rule="nonzero" fill="#2561ef" stroke="none" transform="matrix(1 0 0 1 231 157 )" />
  </g>
</svg>