<?xml version="1.0" encoding="utf-8"?>
<svg version="1.1" xmlns:xlink="http://www.w3.org/1999/xlink" width="24px" height="24px" xmlns="http://www.w3.org/2000/svg">
  <g transform="matrix(1 0 0 1 -20 -24 )">
    <path d="M 13.609375 16.390625  C 13.703125 16.484375  13.75 16.6041666666667  13.75 16.75  L 13.75 19.25  C 13.75 19.3958333333333  13.703125 19.515625  13.609375 19.609375  C 13.515625 19.703125  13.3958333333333 19.75  13.25 19.75  L 10.75 19.75  C 10.6041666666667 19.75  10.484375 19.703125  10.390625 19.609375  C 10.296875 19.515625  10.25 19.3958333333333  10.25 19.25  L 10.25 16.75  C 10.25 16.6041666666667  10.296875 16.484375  10.390625 16.390625  C 10.484375 16.296875  10.6041666666667 16.25  10.75 16.25  L 13.25 16.25  C 13.3958333333333 16.25  13.515625 16.296875  13.609375 16.390625  Z M 16.0390625 5.6484375  C 17.1796875 6.58072916666669  17.75 7.69791666666669  17.75 9  C 17.75 9.52083333333331  17.671875 9.98958333333331  17.515625 10.40625  C 17.359375 10.8229166666667  17.1223958333333 11.1822916666667  16.8046875 11.484375  C 16.4869791666667 11.7864583333333  16.2161458333333 12.015625  15.9921875 12.171875  C 15.7682291666667 12.328125  15.4583333333333 12.515625  15.0625 12.734375  C 14.7291666666667 12.921875  14.4869791666667 13.0677083333333  14.3359375 13.171875  C 14.1848958333333 13.2760416666667  14.0494791666667 13.4010416666667  13.9296875 13.546875  C 13.8098958333333 13.6927083333333  13.75 13.84375  13.75 14  L 13.75 14.5  C 13.75 14.6458333333333  13.703125 14.765625  13.609375 14.859375  C 13.515625 14.953125  13.3958333333333 15  13.25 15  L 10.75 15  C 10.6041666666667 15  10.484375 14.953125  10.390625 14.859375  C 10.296875 14.765625  10.25 14.6458333333333  10.25 14.5  L 10.25 13.4375  C 10.25 13.0729166666667  10.3046875 12.7369791666667  10.4140625 12.4296875  C 10.5234375 12.1223958333333  10.6484375 11.875  10.7890625 11.6875  C 10.9296875 11.5  11.1328125 11.3151041666667  11.3984375 11.1328125  C 11.6640625 10.9505208333333  11.8776041666667 10.8177083333333  12.0390625 10.734375  C 12.2005208333333 10.6510416666667  12.4322916666667 10.5416666666667  12.734375 10.40625  C 13.2864583333333 10.1458333333333  13.6770833333333 9.921875  13.90625 9.734375  C 14.1354166666667 9.546875  14.25 9.29166666666669  14.25 8.96875  C 14.25 8.53125  14.0234375 8.15885416666669  13.5703125 7.8515625  C 13.1171875 7.54427083333331  12.6197916666667 7.390625  12.078125 7.390625  C 11.4947916666667 7.390625  11 7.53125  10.59375 7.8125  C 10.2916666666667 8.02083333333331  9.875 8.453125  9.34375 9.109375  C 9.25 9.234375  9.11979166666666 9.296875  8.953125 9.296875  C 8.83854166666666 9.296875  8.73958333333334 9.265625  8.65625 9.203125  L 6.96875 7.921875  C 6.86458333333334 7.84895833333331  6.80208333333334 7.74479166666669  6.78125 7.609375  C 6.76041666666666 7.47395833333331  6.78645833333334 7.35416666666669  6.859375 7.25  C 8.13020833333334 5.25  9.94791666666666 4.25  12.3125 4.25  C 13.65625 4.25  14.8984375 4.71614583333331  16.0390625 5.6484375  Z M 15.8828125 2.796875  C 14.6484375 2.265625  13.3541666666667 2  12 2  C 10.6458333333333 2  9.3515625 2.265625  8.1171875 2.796875  C 6.8828125 3.328125  5.8203125 4.0390625  4.9296875 4.9296875  C 4.0390625 5.8203125  3.328125 6.8828125  2.796875 8.1171875  C 2.265625 9.3515625  2 10.6458333333333  2 12  C 2 13.3541666666667  2.265625 14.6484375  2.796875 15.8828125  C 3.328125 17.1171875  4.0390625 18.1796875  4.9296875 19.0703125  C 5.8203125 19.9609375  6.8828125 20.671875  8.1171875 21.203125  C 9.3515625 21.734375  10.6458333333333 22  12 22  C 13.3541666666667 22  14.6484375 21.734375  15.8828125 21.203125  C 17.1171875 20.671875  18.1796875 19.9609375  19.0703125 19.0703125  C 19.9609375 18.1796875  20.671875 17.1171875  21.203125 15.8828125  C 21.734375 14.6484375  22 13.3541666666667  22 12  C 22 10.6458333333333  21.734375 9.3515625  21.203125 8.1171875  C 20.671875 6.8828125  19.9609375 5.8203125  19.0703125 4.9296875  C 18.1796875 4.0390625  17.1171875 3.328125  15.8828125 2.796875  Z M 22.390625 5.9765625  C 23.4635416666667 7.81510416666669  24 9.82291666666669  24 12  C 24 14.1770833333333  23.4635416666667 16.1848958333333  22.390625 18.0234375  C 21.3177083333333 19.8619791666667  19.8619791666667 21.3177083333333  18.0234375 22.390625  C 16.1848958333333 23.4635416666667  14.1770833333333 24  12 24  C 9.82291666666666 24  7.81510416666666 23.4635416666667  5.9765625 22.390625  C 4.13802083333334 21.3177083333333  2.68229166666666 19.8619791666667  1.609375 18.0234375  C 0.536458333333343 16.1848958333333  0 14.1770833333333  0 12  C 0 9.82291666666669  0.536458333333343 7.81510416666669  1.609375 5.9765625  C 2.68229166666666 4.13802083333331  4.13802083333334 2.68229166666669  5.9765625 1.609375  C 7.81510416666666 0.536458333333314  9.82291666666666 0  12 0  C 14.1770833333333 0  16.1848958333333 0.536458333333314  18.0234375 1.609375  C 19.8619791666667 2.68229166666669  21.3177083333333 4.13802083333331  22.390625 5.9765625  Z " fill-rule="nonzero" fill="#ffc71c" stroke="none" transform="matrix(1 0 0 1 20 24 )" />
  </g>
</svg>