<?xml version="1.0" encoding="utf-8"?>
<svg version="1.1" xmlns:xlink="http://www.w3.org/1999/xlink" width="12px" height="18px" xmlns="http://www.w3.org/2000/svg">
  <g transform="matrix(1 0 0 1 -848 -157 )">
    <path d="M 0 7.71428571428578  C 0 3.45600000000002  2.30399999999997 0  5.14285714285713 0  C 7.98171428571427 0  10.2857142857143 3.45600000000002  10.2857142857143 7.71428571428578  C 10.2857142857143 11.9725714285714  7.98171428571427 15.4285714285714  5.14285714285713 15.4285714285714  C 2.30399999999997 15.4285714285714  0 11.9725714285714  0 7.71428571428578  Z M 1.14285714285715 7.71428571428578  C 1.14285714285715 11.0288571428571  2.93257142857145 13.7142857142857  5.14285714285713 13.7142857142857  C 7.35257142857142 13.7142857142857  9.14285714285715 11.0288571428571  9.14285714285715 7.71428571428578  C 9.14285714285715 4.39885714285708  7.35257142857142 1.71428571428572  5.14285714285713 1.71428571428572  C 2.93257142857145 1.71428571428572  1.14285714285715 4.39885714285708  1.14285714285715 7.71428571428578  Z M 9.18342857142856 14.9871428571429  L 9.99142857142859 13.7751428571428  L 11.608 16.1991428571429  L 10.7994285714286 17.412  L 9.18342857142856 14.9871428571429  Z " fill-rule="nonzero" fill="#cccccc" stroke="none" transform="matrix(1 0 0 1 848 157 )" />
  </g>
</svg>