<?xml version="1.0" encoding="utf-8"?>
<svg version="1.1" xmlns:xlink="http://www.w3.org/1999/xlink" width="16px" height="16px" xmlns="http://www.w3.org/2000/svg">
  <g transform="matrix(1 0 0 1 -32 0 )">
    <path d="M 16 8  C 16 12.4184  12.4184 16  8 16  C 3.58160000000001 16  0 12.4184  0 8  C 0 3.58159999999998  3.58160000000001 0  8 0  C 12.4184 0  16 3.58159999999998  16 8  Z M 10.2624 4.60559999999998  L 8 6.86879999999996  L 5.73759999999999 4.60559999999998  L 4.60560000000001 5.73760000000004  L 6.86879999999999 8  L 4.60560000000001 10.2624  L 5.73759999999999 11.3944  L 8 9.13120000000004  L 10.2624 11.3944  L 11.3944 10.2624  L 9.13120000000001 8  L 11.3944 5.73760000000004  L 10.2624 4.60559999999998  Z " fill-rule="nonzero" fill="#fa746b" stroke="none" transform="matrix(1 0 0 1 32 0 )" />
  </g>
</svg>