<?xml version="1.0" encoding="utf-8"?>
<svg version="1.1" xmlns:xlink="http://www.w3.org/1999/xlink" width="14px" height="14px" xmlns="http://www.w3.org/2000/svg">
  <g transform="matrix(1 0 0 1 -102 -680 )">
    <path d="M 109 680  C 112.92 680  116 683.08  116 687  C 116 690.92  112.92 694  109 694  C 105.08 694  102 690.92  102 687  C 102 683.08  105.08 680  109 680  Z " fill-rule="nonzero" fill="#e4e4e4" stroke="none" />
    <path d="M 109 680.5  C 112.64 680.5  115.5 683.36  115.5 687  C 115.5 690.64  112.64 693.5  109 693.5  C 105.36 693.5  102.5 690.64  102.5 687  C 102.5 683.36  105.36 680.5  109 680.5  Z " stroke-width="1" stroke="#ffffff" fill="none" />
  </g>
</svg>