<?xml version="1.0" encoding="utf-8"?>
<svg version="1.1" xmlns:xlink="http://www.w3.org/1999/xlink" width="16px" height="16px" xmlns="http://www.w3.org/2000/svg">
  <g transform="matrix(1 0 0 1 -476 -484 )">
    <path d="M 8.79999999999995 7.19999999999999  L 8.79999999999995 4  L 7.20000000000005 4  L 7.20000000000005 7.19999999999999  L 4 7.19999999999999  L 4 8.80000000000001  L 7.20000000000005 8.80000000000001  L 7.20000000000005 12  L 8.79999999999995 12  L 8.79999999999995 8.80000000000001  L 12 8.80000000000001  L 12 7.19999999999999  L 8.79999999999995 7.19999999999999  Z M 16 8  C 16 3.57999999999998  12.42 0  8 0  C 3.58000000000004 0  0 3.57999999999998  0 8  C 0 12.42  3.58000000000004 16  8 16  C 12.42 16  16 12.42  16 8  Z M 14.4 8  C 14.4 11.528  11.528 14.4  8 14.4  C 4.47199999999998 14.4  1.60000000000002 11.528  1.60000000000002 8  C 1.60000000000002 4.47199999999998  4.47199999999998 1.60000000000002  8 1.60000000000002  C 11.528 1.60000000000002  14.4 4.47199999999998  14.4 8  Z " fill-rule="nonzero" fill="#2561ef" stroke="none" transform="matrix(1 0 0 1 476 484 )" />
  </g>
</svg>