<?xml version="1.0" encoding="utf-8"?>
<svg version="1.1" xmlns:xlink="http://www.w3.org/1999/xlink" width="1319px" height="631px" xmlns="http://www.w3.org/2000/svg">
  <g transform="matrix(1 0 0 1 -40 -211 )">
    <path d="M 41 219  A 7 7 0 0 1 48 212 L 1351 212  A 7 7 0 0 1 1358 219 L 1358 834  A 7 7 0 0 1 1351 841 L 48 841  A 7 7 0 0 1 41 834 L 41 219  Z " fill-rule="nonzero" fill="#2561ef" stroke="none" fill-opacity="0.0392156862745098" />
    <path d="M 40.5 219  A 7.5 7.5 0 0 1 48 211.5 L 1351 211.5  A 7.5 7.5 0 0 1 1358.5 219 L 1358.5 834  A 7.5 7.5 0 0 1 1351 841.5 L 48 841.5  A 7.5 7.5 0 0 1 40.5 834 L 40.5 219  Z " stroke-width="1" stroke-dasharray="9,4" stroke="#2561ef" fill="none" stroke-opacity="0.0980392156862745" stroke-dashoffset="0.5" />
  </g>
</svg>