<?xml version="1.0" encoding="utf-8"?>
<svg version="1.1" xmlns:xlink="http://www.w3.org/1999/xlink" width="16px" height="16px" xmlns="http://www.w3.org/2000/svg">
  <g transform="matrix(1 0 0 1 -476 -510 )">
    <path d="M 8.04442352941169 1.52772031359069  C 7.87321397391202 1.51303397064669  7.70145437668816 1.50568070980199  7.52961607872021 1.50568070980199  C 4.20291264444541 1.50568070980199  1.50608666695553 4.20250615583689  1.50608666695553 7.52920893452892  C 1.50608666695553 10.855911713221  4.20291264444541 13.5527371592559  7.52961607872021 13.5527371592559  C 10.8563195129951 13.5527371592559  13.5531454904849 10.855911713221  13.5531454904849 7.52920893452892  C 13.5531454904849 7.35737067042464  13.5457922281911 7.18561110704894  13.5311058823529 7.01440158528885  C 13.4783164223601 6.38177983270748  13.3250535431641 5.76161175386341  13.077082352941 5.17722547674714  L 14.206494117647 4.04630805255465  C 14.768854219588 5.12104686806214  15.0613714060136 6.31643930422541  15.0588235294117 7.52941324850303  C 15.0588235294117 11.6879065466489  11.687905882353 15.0588235294118  7.52941176470586 15.0588235294118  C 3.37091764705883 15.0588235294118  0 11.6879065466489  0 7.52941324850303  C 0 3.37091995035718  3.37091764705883 0  7.52941176470586 0  C 8.74220979090921 -0.00107466759988029  9.93725597705929 0.291357674841038  11.0125176470588 0.852332211393218  L 9.88235294117646 1.98174375352954  C 9.29794621238182 1.73383361906247  8.67778792544925 1.58057322015833  8.04517647058822 1.52772031359069  Z M 6.99783529411764 6.99708394164281  L 13.9181176470588 0.075297070403451  L 14.9835294117647 1.140708625152  L 8.06249411764702 8.06174255536325  L 6.99934117647058 8.06400137844759  L 6.99783529411764 6.99708394164281  Z " fill-rule="nonzero" fill="#0033cc" stroke="none" transform="matrix(1 0 0 1 476 510 )" />
  </g>
</svg>