<?xml version="1.0" encoding="utf-8"?>
<svg version="1.1" xmlns:xlink="http://www.w3.org/1999/xlink" width="16px" height="16px" xmlns="http://www.w3.org/2000/svg">
  <g transform="matrix(1 0 0 1 -476 -536 )">
    <path d="M 16 8  C 16 12.4184  12.4184 16  8 16  C 3.58159999999998 16  0 12.4184  0 8  C 0 3.58159999999998  3.58159999999998 0  8 0  C 12.4184 0  16 3.58159999999998  16 8  Z M 8 14.4  C 11.5346223989171 14.4  14.4 11.5346223989171  14.4 8  C 14.4 4.46537760108293  11.5346223989171 1.60000000000002  8 1.60000000000002  C 4.46537760108288 1.60000000000002  1.60000000000002 4.46537760108293  1.60000000000002 8  C 1.60000000000002 11.5346223989171  4.46537760108288 14.4  8 14.4  Z M 5.73760000000004 4.60559999999998  L 8 6.86880000000002  L 10.2624 4.60559999999998  L 11.3944 5.73759999999999  L 9.13120000000004 8  L 11.3944 10.2624  L 10.2624 11.3944  L 8 9.13119999999998  L 5.73760000000004 11.3944  L 4.60559999999998 10.2624  L 6.86879999999996 8  L 4.60559999999998 5.73759999999999  L 5.73760000000004 4.60559999999998  Z " fill-rule="nonzero" fill="#2561ef" stroke="none" transform="matrix(1 0 0 1 476 536 )" />
  </g>
</svg>