<?xml version="1.0" encoding="utf-8"?>
<svg version="1.1" xmlns:xlink="http://www.w3.org/1999/xlink" width="16px" height="16px" viewBox="295 112  16 16" xmlns="http://www.w3.org/2000/svg">
  <path d="M 303 112  C 307.48 112  311 115.52  311 120  C 311 124.48  307.48 128  303 128  C 298.52 128  295 124.48  295 120  C 295 115.52  298.52 112  303 112  Z " fill-rule="nonzero" fill="#f0f0f0" stroke="none" />
  <path d="M 303 112.5  C 307.2 112.5  310.5 115.8  310.5 120  C 310.5 124.2  307.2 127.5  303 127.5  C 298.8 127.5  295.5 124.2  295.5 120  C 295.5 115.8  298.8 112.5  303 112.5  Z " stroke-width="1" stroke="#8c8c8c" fill="none" />
  <path d="M 303 124  C 300.76 124  299 122.24  299 120  C 299 117.76  300.76 116  303 116  C 305.24 116  307 117.76  307 120  C 307 122.24  305.24 124  303 124  " fill-rule="nonzero" fill="#8c8c8c" stroke="none" />
</svg>