<?xml version="1.0" encoding="utf-8"?>
<svg version="1.1" xmlns:xlink="http://www.w3.org/1999/xlink" width="16px" height="16px" viewBox="165 112  16 16" xmlns="http://www.w3.org/2000/svg">
  <path d="M 173 112  C 177.48 112  181 115.52  181 120  C 181 124.48  177.48 128  173 128  C 168.52 128  165 124.48  165 120  C 165 115.52  168.52 112  173 112  Z " fill-rule="nonzero" fill="#ffffff" stroke="none" />
  <path d="M 173 112.5  C 177.2 112.5  180.5 115.8  180.5 120  C 180.5 124.2  177.2 127.5  173 127.5  C 168.8 127.5  165.5 124.2  165.5 120  C 165.5 115.8  168.8 112.5  173 112.5  Z " stroke-width="1" stroke="#8c8c8c" fill="none" />
  <path d="M 173 124  C 170.76 124  169 122.24  169 120  C 169 117.76  170.76 116  173 116  C 175.24 116  177 117.76  177 120  C 177 122.24  175.24 124  173 124  " fill-rule="nonzero" fill="#8c8c8c" stroke="none" />
</svg>