<?xml version="1.0" encoding="utf-8"?>
<svg version="1.1" xmlns:xlink="http://www.w3.org/1999/xlink" width="12px" height="12px" viewBox="242 355  12 12" xmlns="http://www.w3.org/2000/svg">
  <path d="M 248 355  C 251.36 355  254 357.64  254 361  C 254 364.36  251.36 367  248 367  C 244.64 367  242 364.36  242 361  C 242 357.64  244.64 355  248 355  Z " fill-rule="nonzero" fill="#ffffff" stroke="none" />
  <path d="M 248 355.5  C 251.08 355.5  253.5 357.92  253.5 361  C 253.5 364.08  251.08 366.5  248 366.5  C 244.92 366.5  242.5 364.08  242.5 361  C 242.5 357.92  244.92 355.5  248 355.5  Z " stroke-width="1" stroke="#797979" fill="none" />
  <path d="M 248 364  C 246.32 364  245 362.68  245 361  C 245 359.32  246.32 358  248 358  C 249.68 358  251 359.32  251 361  C 251 362.68  249.68 364  248 364  " fill-rule="nonzero" fill="#797979" stroke="none" />
</svg>