<?xml version="1.0" encoding="utf-8"?>
<svg version="1.1" xmlns:xlink="http://www.w3.org/1999/xlink" width="15px" height="15px" xmlns="http://www.w3.org/2000/svg">
  <g transform="matrix(1 0 0 1 -20 -31 )">
    <path d="M 3.5625 0.375  C 5.32290764008565 0.375  6.75 1.80209235991435  6.75 3.5625  L 6.75 6.75  L 3.5625 6.75  C 1.80209235991435 6.75  0.375 5.32290764008565  0.375 3.5625  C 0.375 1.80209235991435  1.80209235991435 0.375  3.5625 0.375  Z M 3.5625 5.25  L 5.25 5.25  L 5.25 3.5625  C 5.25 2.63051948466051  4.49448051533949 1.875  3.5625 1.875  C 2.63051948466051 1.875  1.875 2.63051948466051  1.875 3.5625  C 1.875 4.49448051533949  2.63051948466051 5.25  3.5625 5.25  Z M 3.5625 8.25  L 6.75 8.25  L 6.75 11.4375  C 6.75 13.1979076400856  5.32290764008565 14.625  3.5625 14.625  C 1.80209235991435 14.625  0.375 13.1979076400856  0.375 11.4375  C 0.375 9.67709235991435  1.80209235991435 8.25  3.5625 8.25  Z M 5.25 9.75  L 3.5625 9.75  C 2.63051948466051 9.75  1.875 10.5055194846605  1.875 11.4375  C 1.875 12.3694805153395  2.63051948466051 13.125  3.5625 13.125  C 4.49448051533949 13.125  5.25 12.3694805153395  5.25 11.4375  L 5.25 9.75  Z M 8.25 3.5625  C 8.25 1.80209235991435  9.67709235991435 0.375  11.4375 0.375  C 13.1979076400856 0.375  14.625 1.80209235991435  14.625 3.5625  C 14.625 5.32290764008565  13.1979076400856 6.75  11.4375 6.75  L 8.25 6.75  L 8.25 3.5625  Z M 9.75 5.25  L 11.4375 5.25  C 12.3694805153395 5.25  13.125 4.49448051533949  13.125 3.5625  C 13.125 2.63051948466051  12.3694805153395 1.875  11.4375 1.875  C 10.5055194846605 1.875  9.75 2.63051948466051  9.75 3.5625  L 9.75 5.25  Z M 8.25 11.4375  L 8.25 8.25  L 11.4375 8.25  C 13.1979076400856 8.25  14.625 9.67709235991435  14.625 11.4375  C 14.625 13.1979076400856  13.1979076400856 14.625  11.4375 14.625  C 9.67709235991435 14.625  8.25 13.1979076400856  8.25 11.4375  Z M 11.4375 9.75  L 9.75 9.75  L 9.75 11.4375  C 9.75 12.3694805153395  10.5055194846605 13.125  11.4375 13.125  C 12.3694805153395 13.125  13.125 12.3694805153395  13.125 11.4375  C 13.125 10.5055194846605  12.3694805153395 9.75  11.4375 9.75  Z " fill-rule="nonzero" fill="#ffffff" stroke="none" transform="matrix(1 0 0 1 20 31 )" />
  </g>
</svg>