<?xml version="1.0" encoding="utf-8"?>
<svg version="1.1" xmlns:xlink="http://www.w3.org/1999/xlink" width="14px" height="14px" xmlns="http://www.w3.org/2000/svg">
  <g transform="matrix(1 0 0 1 -20 -11 )">
    <path d="M 4.66666666666669 0  L 9.33333333333331 0  C 9.76266666666669 0  10.1111111111111 0.348444444444453  10.1111111111111 0.777777777777771  L 10.1111111111111 3.88888888888891  C 10.1111111111111 4.31822222222223  9.76266666666669 4.66666666666669  9.33333333333331 4.66666666666669  L 7.77777777777777 4.66666666666669  L 7.77777777777777 6.22222222222223  L 10.8888888888889 6.22222222222223  C 11.3182222222222 6.22222222222223  11.6666666666667 6.57066666666668  11.6666666666667 7  L 11.6666666666667 9.33333333333331  L 13.2222222222222 9.33333333333331  C 13.6515555555555 9.33333333333331  14 9.68177777777777  14 10.1111111111111  L 14 13.2222222222222  C 14 13.6515555555555  13.6515555555555 14  13.2222222222222 14  L 8.55555555555554 14  C 8.12622222222222 14  7.77777777777777 13.6515555555555  7.77777777777777 13.2222222222222  L 7.77777777777777 10.1111111111111  C 7.77777777777777 9.68177777777777  8.12622222222222 9.33333333333331  8.55555555555554 9.33333333333331  L 10.1111111111111 9.33333333333331  L 10.1111111111111 7.77777777777777  L 3.88888888888891 7.77777777777777  L 3.88888888888891 9.33333333333331  L 5.44444444444446 9.33333333333331  C 5.87377777777778 9.33333333333331  6.22222222222223 9.68177777777777  6.22222222222223 10.1111111111111  L 6.22222222222223 13.2222222222222  C 6.22222222222223 13.6515555555555  5.87377777777778 14  5.44444444444446 14  L 0.777777777777771 14  C 0.348444444444453 14  0 13.6515555555555  0 13.2222222222222  L 0 10.1111111111111  C 0 9.68177777777777  0.348444444444453 9.33333333333331  0.777777777777771 9.33333333333331  L 2.33333333333331 9.33333333333331  L 2.33333333333331 7  C 2.33333333333331 6.57066666666668  2.68177777777777 6.22222222222223  3.11111111111109 6.22222222222223  L 6.22222222222223 6.22222222222223  L 6.22222222222223 4.66666666666669  L 4.66666666666669 4.66666666666669  C 4.23733333333331 4.66666666666669  3.88888888888891 4.31822222222223  3.88888888888891 3.88888888888891  L 3.88888888888891 0.777777777777771  C 3.88888888888891 0.348444444444453  4.23733333333331 0  4.66666666666669 0  Z M 4.66666666666669 12.4444444444445  L 4.66666666666669 10.8888888888889  L 1.55555555555554 10.8888888888889  L 1.55555555555554 12.4444444444445  L 4.66666666666669 12.4444444444445  Z M 12.4444444444445 12.4444444444445  L 12.4444444444445 10.8888888888889  L 9.33333333333331 10.8888888888889  L 9.33333333333331 12.4444444444445  L 12.4444444444445 12.4444444444445  Z M 8.55555555555554 3.11111111111109  L 8.55555555555554 1.55555555555554  L 5.44444444444446 1.55555555555554  L 5.44444444444446 3.11111111111109  L 8.55555555555554 3.11111111111109  Z " fill-rule="nonzero" fill="#999999" stroke="none" transform="matrix(1 0 0 1 20 11 )" />
  </g>
</svg>