<?xml version="1.0" encoding="utf-8"?>
<svg version="1.1" xmlns:xlink="http://www.w3.org/1999/xlink" width="14px" height="15px" xmlns="http://www.w3.org/2000/svg">
  <g transform="matrix(1 0 0 1 -20 -11 )">
    <path d="M 7 13.335  L 12.6581 9.94  L 13.4995 10.4447  C 13.605089831419 10.5079123353852  13.6697226098754 10.6219349284161  13.6697226098754 10.745  C 13.6697226098754 10.8680650715839  13.605089831419 10.9820876646147  13.4995 11.0453  L 7.3605 14.7287  C 7.13864725155816 14.8619891678858  6.86135274844185 14.8619891678858  6.6395 14.7287  L 0.500499999999988 11.0453  C 0.394910168581021 10.9820876646147  0.330277390124536 10.8680650715839  0.330277390124536 10.745  C 0.330277390124536 10.6219349284161  0.394910168581021 10.5079123353852  0.500499999999988 10.4447  L 1.34190000000001 9.94  L 7 13.335  Z M 7 10.045  L 12.6581 6.64999999999998  L 13.4995 7.15469999999999  C 13.605089831419 7.21791233538528  13.6697226098754 7.3319349284161  13.6697226098754 7.45499999999998  C 13.6697226098754 7.57806507158386  13.605089831419 7.69208766461469  13.4995 7.75529999999998  L 7 11.655  L 0.500499999999988 7.75529999999998  C 0.394910168581021 7.69208766461469  0.330277390124593 7.57806507158386  0.330277390124593 7.45499999999998  C 0.330277390124593 7.3319349284161  0.394910168581021 7.21791233538528  0.500499999999988 7.15469999999999  L 1.34190000000001 6.64999999999998  L 7 10.045  Z M 7.35980000000001 0.21629999999999  L 13.4995 3.8997  C 13.605089831419 3.96291233538528  13.6697226098754 4.07693492841611  13.6697226098754 4.19999999999999  C 13.6697226098754 4.32306507158387  13.605089831419 4.43708766461469  13.4995 4.50029999999998  L 7 8.39999999999998  L 0.500499999999988 4.50029999999998  C 0.394910168581021 4.43708766461469  0.330277390124593 4.32306507158387  0.330277390124593 4.19999999999999  C 0.330277390124593 4.07693492841611  0.394910168581021 3.96291233538528  0.500499999999988 3.8997  L 6.6395 0.21629999999999  C 6.86135274844185 0.083010832114212  7.13864725155816 0.083010832114212  7.3605 0.21629999999999  Z M 11.2791 4.19999999999999  L 7 1.63240000000002  L 2.72089999999997 4.19999999999999  L 7 6.76760000000002  L 11.2791 4.19999999999999  Z " fill-rule="nonzero" fill="#999999" stroke="none" transform="matrix(1 0 0 1 20 11 )" />
  </g>
</svg>