<?xml version="1.0" encoding="utf-8"?>
<svg version="1.1" xmlns:xlink="http://www.w3.org/1999/xlink" width="14px" height="16px" xmlns="http://www.w3.org/2000/svg">
  <g transform="matrix(1 0 0 1 -20 -10 )">
    <path d="M 0.350000000000023 3.85000000000002  L 7 0  L 13.65 3.85000000000002  L 13.65 11.55  L 7 15.4  L 0.350000000000023 11.55  L 0.350000000000023 3.85000000000002  Z M 12.25 4.65710000000001  L 7 1.61770000000001  L 1.75 4.65710000000001  L 1.75 10.7429  L 7 13.7823  L 12.25 10.7429  L 12.25 4.65710000000001  Z M 7 10.5  C 5.45360270047377 10.5  4.19999999999999 9.24639729952622  4.19999999999999 7.69999999999999  C 4.19999999999999 6.15360270047375  5.45360270047377 4.89999999999998  7 4.89999999999998  C 8.54639729952623 4.89999999999998  9.80000000000001 6.15360270047375  9.80000000000001 7.69999999999999  C 9.80000000000001 9.24639729952622  8.54639729952623 10.5  7 10.5  Z M 7 9.09999999999997  C 7.77319864976312 9.09999999999997  8.39999999999998 8.47319864976311  8.39999999999998 7.69999999999999  C 8.39999999999998 6.92680135023687  7.77319864976312 6.30000000000001  7 6.30000000000001  C 6.22680135023688 6.30000000000001  5.60000000000002 6.92680135023687  5.60000000000002 7.69999999999999  C 5.60000000000002 8.47319864976311  6.22680135023688 9.09999999999997  7 9.09999999999997  Z " fill-rule="nonzero" fill="#999999" stroke="none" transform="matrix(1 0 0 1 20 10 )" />
  </g>
</svg>