<?xml version="1.0" encoding="utf-8"?>
<svg version="1.1" xmlns:xlink="http://www.w3.org/1999/xlink" width="14px" height="14px" xmlns="http://www.w3.org/2000/svg">
  <g transform="matrix(1 0 0 1 -20 -11 )">
    <path d="M 3.5 9.80000000000001  C 3.5 7.86700337559222  5.06700337559221 6.30000000000001  7 6.30000000000001  C 8.93299662440779 6.30000000000001  10.5 7.86700337559222  10.5 9.80000000000001  L 10.5 14  L 9.10000000000002 14  L 9.10000000000002 9.80000000000001  C 9.10006194388166 8.68800967274171  8.23327506788695 7.76873676424174  7.1232 7.70350000000002  L 7 7.69999999999999  C 5.88800967274176 7.69993805611836  4.96873676424173 8.56672493211306  4.90350000000001 9.67680000000001  L 4.89999999999998 9.80000000000001  L 4.89999999999998 14  L 3.5 14  L 3.5 9.80000000000001  Z M 0 10.85  C 0 9.49690236291457  1.09690236291453 8.39999999999998  2.44999999999999 8.39999999999998  C 2.64530000000002 8.39999999999998  2.83499999999998 8.42309999999998  3.017 8.4658  C 2.89731656970713 8.82210277079957  2.82643910925424 9.19297320340195  2.80630000000002 9.56830000000002  L 2.80000000000001 9.80000000000001  L 2.80000000000001 9.86020000000002  C 2.71953730104349 9.83140814144963  2.63584494355138 9.8126008701031  2.55079999999998 9.80419999999998  L 2.44999999999999 9.80000000000001  C 1.90916466211689 9.80002596049633  1.45682019187353 10.2108625992438  1.4049 10.7492  L 1.39999999999998 10.85  L 1.39999999999998 14  L 0 14  L 0 10.85  Z M 10.9837 8.46719999999999  C 11.165 8.42309999999998  11.3547 8.39999999999998  11.55 8.39999999999998  C 12.9030976370855 8.39999999999998  14 9.49690236291457  14 10.85  L 14 14  L 12.6 14  L 12.6 10.85  C 12.5999740395036 10.3091646621169  12.1891374007562 9.85682019187351  11.6508 9.80489999999998  L 11.55 9.80000000000001  C 11.4275 9.80000000000001  11.3099 9.82100000000003  11.2 9.85950000000003  L 11.2 9.80000000000001  C 11.2 9.3338  11.1244 8.88580000000002  10.9837 8.46719999999999  Z M 2.44999999999999 4.19999999999999  C 3.41649831220388 4.19999999999999  4.19999999999999 4.98350168779609  4.19999999999999 5.94999999999999  C 4.19999999999999 6.91649831220388  3.41649831220388 7.69999999999999  2.44999999999999 7.69999999999999  C 1.48350168779609 7.69999999999999  0.699999999999989 6.91649831220388  0.699999999999989 5.94999999999999  C 0.699999999999989 4.98350168779609  1.48350168779609 4.19999999999999  2.44999999999999 4.19999999999999  Z M 11.55 4.19999999999999  C 12.5164983122039 4.19999999999999  13.3 4.98350168779609  13.3 5.94999999999999  C 13.3 6.91649831220388  12.5164983122039 7.69999999999999  11.55 7.69999999999999  C 10.5835016877961 7.69999999999999  9.80000000000001 6.91649831220388  9.80000000000001 5.94999999999999  C 9.80000000000001 4.98350168779609  10.5835016877961 4.19999999999999  11.55 4.19999999999999  Z M 2.44999999999999 5.60000000000002  C 2.25670033755921 5.60000000000002  2.10000000000002 5.75670033755921  2.10000000000002 5.94999999999999  C 2.10000000000002 6.14329966244077  2.25670033755921 6.30000000000001  2.44999999999999 6.30000000000001  C 2.64329966244077 6.30000000000001  2.80000000000001 6.14329966244077  2.80000000000001 5.94999999999999  C 2.80000000000001 5.75670033755921  2.64329966244077 5.60000000000002  2.44999999999999 5.60000000000002  Z M 11.55 5.60000000000002  C 11.3567003375592 5.60000000000002  11.2 5.75670033755921  11.2 5.94999999999999  C 11.2 6.14329966244077  11.3567003375592 6.30000000000001  11.55 6.30000000000001  C 11.7432996624408 6.30000000000001  11.9 6.14329966244077  11.9 5.94999999999999  C 11.9 5.75670033755921  11.7432996624408 5.60000000000002  11.55 5.60000000000002  Z M 7 0  C 8.54639729952623 0  9.80000000000001 1.25360270047378  9.80000000000001 2.80000000000001  C 9.80000000000001 4.34639729952625  8.54639729952623 5.60000000000002  7 5.60000000000002  C 5.45360270047377 5.60000000000002  4.19999999999999 4.34639729952625  4.19999999999999 2.80000000000001  C 4.19999999999999 1.25360270047378  5.45360270047377 0  7 0  Z M 7 1.39999999999998  C 6.22680135023688 1.39999999999998  5.60000000000002 2.02680135023689  5.60000000000002 2.80000000000001  C 5.60000000000002 3.57319864976313  6.22680135023688 4.19999999999999  7 4.19999999999999  C 7.77319864976312 4.19999999999999  8.39999999999998 3.57319864976313  8.39999999999998 2.80000000000001  C 8.39999999999998 2.02680135023689  7.77319864976312 1.39999999999998  7 1.39999999999998  Z " fill-rule="nonzero" fill="#999999" stroke="none" transform="matrix(1 0 0 1 20 11 )" />
  </g>
</svg>