<?xml version="1.0" encoding="utf-8"?>
<svg version="1.1" xmlns:xlink="http://www.w3.org/1999/xlink" width="14px" height="14px" xmlns="http://www.w3.org/2000/svg">
  <g transform="matrix(1 0 0 1 -20 -11 )">
    <path d="M 9.65363636363634 12.0909090909091  L 4.34636363636366 12.0909090909091  C 4.07650777555511 12.8537828217928  3.35515502781203 13.3637684602334  2.54595881249389 13.3637684602334  C 1.49124556343065 13.3637684602334  0.636231539766641 12.5087544365693  0.636231539766641 11.4540411875061  C 0.636231539766641 10.644844972188  1.14621717820717 9.92349222444489  1.90909090909093 9.65363636363634  L 1.90909090909093 4.34636363636366  C 1.14621717820717 4.07650777555511  0.636231539766641 3.35515502781203  0.636231539766641 2.54595881249389  C 0.636231539766641 1.49124556343065  1.49124556343065 0.636231539766641  2.54595881249389 0.636231539766641  C 3.35515502781203 0.636231539766641  4.07650777555511 1.14621717820717  4.34636363636366 1.90909090909093  L 9.65363636363639 1.90909090909093  C 9.92349222444489 1.14621717820717  10.644844972188 0.636231539766641  11.4540411875061 0.636231539766641  C 12.5087544365693 0.636231539766641  13.3637684602334 1.49124556343065  13.3637684602334 2.54595881249389  C 13.3637684602334 3.35515502781203  12.8537828217928 4.07650777555511  12.0909090909091 4.34636363636366  L 12.0909090909091 9.65363636363639  C 12.8537828217928 9.92349222444489  13.3637684602334 10.644844972188  13.3637684602334 11.4540411875061  C 13.3637684602334 12.5087544365693  12.5087544365693 13.3637684602334  11.4540411875061 13.3637684602334  C 10.644844972188 13.3637684602334  9.92349222444489 12.8537828217928  9.65363636363634 12.0909090909091  Z M 3.18181818181819 9.65363636363634  C 3.72568473779262 9.84644874311192  4.15355125688808 10.2743152622074  4.34636363636366 10.8181818181818  L 9.65363636363634 10.8181818181818  C 9.84644874311192 10.2743152622074  10.2743152622074 9.84644874311192  10.8181818181818 9.65363636363634  L 10.8181818181818 4.34636363636366  C 10.2743152622074 4.15355125688808  9.84644874311192 3.72568473779262  9.65363636363634 3.18181818181819  L 4.34636363636366 3.18181818181819  C 4.15355125688808 3.72568473779262  3.72568473779262 4.15355125688808  3.18181818181819 4.34636363636366  L 3.18181818181819 9.65363636363634  Z M 2.54545454545456 3.18181818181819  C 2.89690847716503 3.18181818181819  3.18181818181819 2.89690847716503  3.18181818181819 2.54545454545456  C 3.18181818181819 2.19400061374404  2.89690847716503 1.90909090909093  2.54545454545456 1.90909090909093  C 2.19400061374404 1.90909090909093  1.90909090909093 2.19400061374404  1.90909090909093 2.54545454545456  C 1.90909090909093 2.89690847716503  2.19400061374404 3.18181818181819  2.54545454545456 3.18181818181819  Z M 11.4545454545454 3.18181818181819  C 11.805999386256 3.18181818181819  12.0909090909091 2.89690847716503  12.0909090909091 2.54545454545456  C 12.0909090909091 2.19400061374404  11.805999386256 1.90909090909093  11.4545454545454 1.90909090909093  C 11.103091522835 1.90909090909093  10.8181818181818 2.19400061374404  10.8181818181818 2.54545454545456  C 10.8181818181818 2.89690847716503  11.103091522835 3.18181818181819  11.4545454545454 3.18181818181819  Z M 11.4545454545454 12.0909090909091  C 11.805999386256 12.0909090909091  12.0909090909091 11.805999386256  12.0909090909091 11.4545454545454  C 12.0909090909091 11.103091522835  11.805999386256 10.8181818181818  11.4545454545454 10.8181818181818  C 11.103091522835 10.8181818181818  10.8181818181818 11.103091522835  10.8181818181818 11.4545454545454  C 10.8181818181818 11.805999386256  11.103091522835 12.0909090909091  11.4545454545454 12.0909090909091  Z M 2.54545454545456 12.0909090909091  C 2.89690847716503 12.0909090909091  3.18181818181819 11.805999386256  3.18181818181819 11.4545454545454  C 3.18181818181819 11.103091522835  2.89690847716503 10.8181818181818  2.54545454545456 10.8181818181818  C 2.19400061374404 10.8181818181818  1.90909090909093 11.103091522835  1.90909090909093 11.4545454545454  C 1.90909090909093 11.805999386256  2.19400061374404 12.0909090909091  2.54545454545456 12.0909090909091  Z " fill-rule="nonzero" fill="#999999" stroke="none" transform="matrix(1 0 0 1 20 11 )" />
  </g>
</svg>