<?xml version="1.0" encoding="utf-8"?>
<svg version="1.1" xmlns:xlink="http://www.w3.org/1999/xlink" width="14px" height="14px" xmlns="http://www.w3.org/2000/svg">
  <g transform="matrix(1 0 0 1 -20 -11 )">
    <path d="M 4.12631578947369 5.50175438596491  L 4.12631578947369 11.0035087719298  L 0.687719298245632 11.0035087719298  L 0.687719298245632 5.50175438596491  L 4.12631578947369 5.50175438596491  Z M 2.06315789473685 9.62807017543861  L 2.75087719298248 9.62807017543861  L 2.75087719298248 6.87719298245612  L 2.06315789473685 6.87719298245612  L 2.06315789473685 9.62807017543861  Z M 6.18947368421054 9.62807017543861  L 6.87719298245612 9.62807017543861  L 6.87719298245612 4.1263157894737  L 6.18947368421054 4.1263157894737  L 6.18947368421054 9.62807017543861  Z M 8.25263157894739 2.75087719298248  L 8.25263157894739 11.0035087719298  L 4.81403508771928 11.0035087719298  L 4.81403508771928 2.75087719298248  L 8.25263157894739 2.75087719298248  Z M 10.3157894736842 9.62807017543861  L 11.0035087719298 9.62807017543861  L 11.0035087719298 1.37543859649121  L 10.3157894736842 1.37543859649121  L 10.3157894736842 9.62807017543861  Z M 12.378947368421 0  L 12.378947368421 11.0035087719298  L 9 11.0035087719298  L 9 0  L 12.378947368421 0  Z M 13.0666666666667 12.3789473684211  L 13.0666666666667 13.7543859649123  L 0 13.7543859649123  L 0 12.3789473684211  L 13.0666666666667 12.3789473684211  Z " fill-rule="nonzero" fill="#999999" stroke="none" transform="matrix(1 0 0 1 20 11 )" />
  </g>
</svg>