<?xml version="1.0" encoding="utf-8"?>
<svg version="1.1" xmlns:xlink="http://www.w3.org/1999/xlink" width="16px" height="14px" xmlns="http://www.w3.org/2000/svg">
  <g transform="matrix(1 0 0 1 -20 -11 )">
    <path d="M 0 13.2276666666667  L 0 0.772333333333336  C 0.00296164019914613 0.347320978564824  0.346546400536681 0.00338986262215712  0.771555555555665 0  L 14.784 0  C 15.2102222222222 0  15.5555555555555 0.346111111111099  15.5555555555555 0.772333333333336  L 15.5555555555555 13.2276666666667  C 15.5525939153565 13.6526790214352  15.209009155019 13.9966101373778  14.784 14  L 0.771555555555665 14  C 0.345311406499604 13.9995707508911  0 13.6539110318602  0 13.2276666666667  Z M 14 1.55555555555554  L 1.55555555555566 1.55555555555554  L 1.55555555555566 12.4444444444445  L 14 12.4444444444445  L 14 1.55555555555554  Z M 3.1111111111112 7.77777777777777  L 3.1111111111112 3.11111111111109  L 7.77777777777783 3.11111111111109  L 7.77777777777783 7.77777777777777  L 3.1111111111112 7.77777777777777  Z M 6.22222222222229 4.66666666666669  L 4.66666666666674 4.66666666666669  L 4.66666666666674 6.22222222222223  L 6.22222222222229 6.22222222222223  L 6.22222222222229 4.66666666666669  Z M 3.1111111111112 10.8888888888889  L 3.1111111111112 9.33333333333331  L 12.4444444444445 9.33333333333331  L 12.4444444444445 10.8888888888889  L 3.1111111111112 10.8888888888889  Z M 9.33333333333337 4.66666666666669  L 9.33333333333337 3.11111111111109  L 12.4444444444445 3.11111111111109  L 12.4444444444445 4.66666666666669  L 9.33333333333337 4.66666666666669  Z M 9.33333333333337 7.77777777777777  L 9.33333333333337 6.22222222222223  L 12.4444444444445 6.22222222222223  L 12.4444444444445 7.77777777777777  L 9.33333333333337 7.77777777777777  Z " fill-rule="nonzero" fill="#999999" stroke="none" transform="matrix(1 0 0 1 20 11 )" />
  </g>
</svg>