<?xml version="1.0" encoding="utf-8"?>
<svg version="1.1" xmlns:xlink="http://www.w3.org/1999/xlink" width="15px" height="15px" xmlns="http://www.w3.org/2000/svg">
  <g transform="matrix(1 0 0 1 -20 -10 )">
    <path d="M 14.6565 9.75  C 13.701 12.79275  10.8585 15  7.5 15  C 3.35775000000001 15  0 11.64225  0 7.5  C 0 4.14150000000001  2.20724999999999 1.29899999999998  5.25 0.343500000000006  L 5.25 1.93649999999997  C 2.98654286099242 2.85559566446011  1.50594425371503 5.05481166022986  1.50594425371503 7.49775559338792  C 1.50594425371503 10.8095071291437  4.18825155040543 13.4954788067266  7.5 13.5  C 9.94522106873512 13.4999325334749  12.1459692159493 12.016548772883  13.0635 9.75  L 14.6565 9.75  Z M 15 7.5  C 15 7.75274999999999  14.98725 8.00324999999998  14.9625 8.25  L 6.75 8.25  L 6.75 0.0375000000000227  C 6.99675000000002 0.0127500000000396  7.24725000000001 0  7.5 0  C 11.64225 0  15 3.35775000000001  15 7.5  Z M 13.4535 6.75  C 13.1101069473719 4.03107678939926  10.9689232106007 1.88989305262805  8.25 1.54649999999998  L 8.25 6.75  L 13.4535 6.75  Z " fill-rule="nonzero" fill="#999999" stroke="none" transform="matrix(1 0 0 1 20 10 )" />
  </g>
</svg>