<?xml version="1.0" encoding="utf-8"?>
<svg version="1.1" xmlns:xlink="http://www.w3.org/1999/xlink" width="15px" height="15px" xmlns="http://www.w3.org/2000/svg">
  <g transform="matrix(1 0 0 1 -20 -11 )">
    <path d="M 11.25 0  L 11.25 1.5  L 14.25 1.5  C 14.6642135623731 1.5  15 1.83578643762689  15 2.25  L 15 14.25  C 15 14.6642135623731  14.6642135623731 15  14.25 15  L 0.75 15  C 0.335786437626894 15  0 14.6642135623731  0 14.25  L 0 2.25  C 0 1.83578643762689  0.335786437626894 1.5  0.75 1.5  L 3.75 1.5  L 3.75 0  L 5.25 0  L 5.25 1.5  L 9.75 1.5  L 9.75 0  L 11.25 0  Z M 9.75 4.5  L 9.75 3  L 5.25 3  L 5.25 4.5  L 3.75 4.5  L 3.75 3  L 1.5 3  L 1.5 6  L 13.5 6  L 13.5 3  L 11.25 3  L 11.25 4.5  L 9.75 4.5  Z M 13.5 13.5  L 13.5 7.5  L 1.5 7.5  L 1.5 13.5  L 13.5 13.5  Z " fill-rule="nonzero" fill="#999999" stroke="none" transform="matrix(1 0 0 1 20 11 )" />
  </g>
</svg>