<?xml version="1.0" encoding="utf-8"?>
<svg version="1.1" xmlns:xlink="http://www.w3.org/1999/xlink" width="16px" height="16px" xmlns="http://www.w3.org/2000/svg">
  <g transform="matrix(1 0 0 1 -20 -260 )">
    <path d="M 0.0746666666666584 11.4857142857143  L 2.86780952380953 4.57142857142856  L 2.64304761904762 4.01523809523812  C 2.60639782881857 3.92453609375497  2.58755836339981 3.8276247707295  2.58755836339981 3.72979808624683  C 2.58755836339981 3.41908388297142  2.77623703249816 3.13949813803731  3.06438095238094 3.0232380952381  L 10.1287619047619 0.169142857142845  C 10.5186196607268 0.0118641908047721  10.9621961431256 0.200068816695733  11.12 0.58971428571428  L 15.4019047619047 11.1862857142857  C 15.4385545521338 11.2769877157688  15.4573940175526 11.3738990387943  15.4573940175526 11.471725723277  C 15.4573940175526 11.7824399265524  15.2687153484542 12.0620256714865  14.9805714285714 12.1782857142857  L 7.91619047619048 15.0323809523809  C 7.82548847470741 15.06903074261  7.72857715168193 15.0878702080288  7.63075046719926 15.0878702080288  C 7.32003626392379 15.0878702080288  7.04045051898969 14.8991915389304  6.92419047619047 14.6110476190476  L 6.85714285714288 14.4457142857143  L 6.85714285714288 14.4761904761905  L 3.80952380952379 14.4761904761905  C 3.38873542870036 14.4761904761905  3.04761904761902 14.1350740951092  3.04761904761902 13.7142857142857  L 3.04761904761902 13.5085714285714  L 0.495238095238104 12.4777142857143  C 0.105174611675405 12.3199111746772  -0.0831185012832059 11.8757850278074  0.0746666666666584 11.4857142857143  Z M 4.57142857142856 8.7870476190476  L 4.57142857142856 12.9523809523809  L 6.25447619047621 12.9523809523809  L 4.57142857142856 8.7870476190476  Z M 3.04761904761902 11.8918095238095  L 3.04761904761902 8.19504761904761  L 1.77295238095236 11.3500952380953  L 3.04761904761902 11.8918095238095  Z M 9.99314285714287 1.8674285714286  L 4.34133333333332 4.15009523809525  L 8.05180952380955 13.3340952380952  L 13.703619047619 11.0506666666667  L 9.99314285714287 1.8674285714286  Z M 6.61028571428572 5.69904761904763  C 6.51961167170357 5.73565940227891  6.42273890696476 5.75447864224026  6.32495238095241 5.75447864224026  C 5.90405744896179 5.75447864224026  5.5628546910931 5.4132758843715  5.5628546910931 4.99238095238096  C 5.5628546910931 4.68165842149841  5.75149685793294 4.40205041513474  6.03961904761903 4.28571428571431  C 6.13040326554237 4.24900907631132  6.22740965580197 4.23014055011996  6.32533333333334 4.23014055011996  C 6.74630708320698 4.23014055011996  7.08757373559432 4.57140720250729  7.08757373559432 4.99238095238096  C 7.08757373559432 5.30303291624503  6.89905044223318 5.58260442908036  6.61104761904759 5.69904761904763  Z " fill-rule="nonzero" fill="#ffffff" stroke="none" transform="matrix(1 0 0 1 20 260 )" />
  </g>
</svg>