<?xml version="1.0" encoding="utf-8"?>
<svg version="1.1" xmlns:xlink="http://www.w3.org/1999/xlink" width="14px" height="16px" xmlns="http://www.w3.org/2000/svg">
  <g transform="matrix(1 0 0 1 -20 -10 )">
    <path d="M 0 0.753846153846142  C 0 0.33750841935831  0.337508419358308 0  0.753846153846141 0  L 12.8153846153847 0  C 13.2317223498725 0  13.5692307692308 0.33750841935831  13.5692307692308 0.753846153846142  L 13.5692307692308 14.3230769230769  C 13.5692307692308 14.7394146575648  13.2317223498725 15.0769230769231  12.8153846153847 15  L 0.753846153846141 15  C 0.337508419358308 15.0769230769231  0 14.7394146575648  0 14.3230769230769  L 0 0.753846153846142  Z M 12 1.50769230769228  L 1.50769230769228 1.50769230769228  L 1.50769230769228 13.5692307692308  L 12 13.5692307692308  L 12 1.50769230769228  Z M 3.01538461538463 6.03076923076926  L 3.01538461538463 3.01538461538463  L 10.5538461538462 3.01538461538463  L 10.5538461538462 6.03076923076926  L 3.01538461538463 6.03076923076926  Z M 3.01538461538463 9.04615384615382  L 3.01538461538463 7.53846153846154  L 4.52307692307691 7.53846153846154  L 4.52307692307691 9.04615384615382  L 3.01538461538463 9.04615384615382  Z M 3.01538461538463 12.0615384615384  L 3.01538461538463 10.5538461538462  L 4.52307692307691 10.5538461538462  L 4.52307692307691 12.0615384615384  L 3.01538461538463 12.0615384615384  Z M 6.03076923076926 9.04615384615382  L 6.03076923076926 7.53846153846154  L 7.53846153846154 7.53846153846154  L 7.53846153846154 9.04615384615382  L 6.03076923076926 9.04615384615382  Z M 6.03076923076926 12.0615384615384  L 6.03076923076926 10.5538461538462  L 7.53846153846154 10.5538461538462  L 7.53846153846154 12.0615384615384  L 6.03076923076926 12.0615384615384  Z M 9.04615384615388 12.0615384615384  L 9.04615384615388 7.53846153846154  L 10.5538461538462 7.53846153846154  L 10.5538461538462 12.0615384615384  L 9.04615384615388 12.0615384615384  Z " fill-rule="nonzero" fill="#999999" stroke="none" transform="matrix(1 0 0 1 20 10 )" />
  </g>
</svg>