<?xml version="1.0" encoding="utf-8"?>
<svg version="1.1" xmlns:xlink="http://www.w3.org/1999/xlink" width="15px" height="14px" xmlns="http://www.w3.org/2000/svg">
  <g transform="matrix(1 0 0 1 -20 -215 )">
    <path d="M 0 0.729166666666657  C 0 0.326459036581696  0.32645903658171 0  0.729166666666661 0  L 13.8541666666667 0  C 14.2568742967516 0  14.5833333333333 0.326459036581696  14.5833333333333 0.729166666666657  L 14.5833333333333 12.3958333333333  C 14.5833333333333 12.7985409634183  14.2568742967516 13.125  13.8541666666667 13  L 0.729166666666661 13  C 0.32645903658171 13.125  0 12.7985409634183  0 12.3958333333333  L 0 0.729166666666657  Z M 13.125 11.6666666666667  L 13.125 8.02083333333331  L 10.6341666666667 8.02083333333331  C 10.0543881213144 9.35019350566293  8.74195685467283 10.2096195074156  7.29166666666666 10.2096195074156  C 5.84137647866049 10.2096195074156  4.52894521201893 9.35019350566293  3.94916666666665 8.02083333333331  L 1.45833333333332 8.02083333333331  L 1.45833333333332 11.6666666666667  L 13.125 11.6666666666667  Z M 9.47916666666664 6.5625  L 13.125 6.5625  L 13.125 1.45833333333331  L 1.45833333333332 1.45833333333331  L 1.45833333333332 6.5625  L 5.10416666666668 6.5625  C 5.10416666666668 7.77062289025486  6.08354377641181 8.74999999999997  7.29166666666666 8.74999999999997  C 8.49978955692151 8.74999999999997  9.47916666666664 7.77062289025486  9.47916666666664 6.5625  Z " fill-rule="nonzero" fill="#999999" stroke="none" transform="matrix(1 0 0 1 20 215 )" />
  </g>
</svg>