<?xml version="1.0" encoding="utf-8"?>
<svg version="1.1" xmlns:xlink="http://www.w3.org/1999/xlink" width="15px" height="15px" xmlns="http://www.w3.org/2000/svg">
  <g transform="matrix(1 0 0 1 -20 -31 )">
    <path d="M 14.25 13.5  L 8.25 13.5  L 8.25 15  L 6.75 15  L 6.75 13.5  L 0.75 13.5  C 0.335786437626894 13.5  0 13.1642135623731  0 12.75  L 0 2.25  L 15 2.25  L 15 12.75  C 15 13.1642135623731  14.6642135623731 13.5  14.25 13.5  Z M 1.5 4  L 1.5 12  L 13.5 12  L 13.5 4  L 1.5 4  Z M 8.25 6.75  L 8.25 5.25  L 12 5.25  L 12 6.75  L 8.25 6.75  Z M 8.25 9.75  L 8.25 8.25  L 12 8.25  L 12 9.75  L 8.25 9.75  Z M 5.25 5.25  L 5.25 7.5  L 7.5 7.5  C 7.5 8.74264068711926  6.49264068711926 9.75  5.25 9.75  C 4.00735931288074 9.75  3 8.74264068711926  3 7.5  C 3 6.25735931288074  4.00735931288074 5.25  5.25 5.25  Z M 0 1.5  L 0 0  L 15 0  L 15 1.5  L 0 1.5  Z " fill-rule="nonzero" fill="#ffffff" stroke="none" transform="matrix(1 0 0 1 20 31 )" />
  </g>
</svg>