<?xml version="1.0" encoding="utf-8"?>
<svg version="1.1" xmlns:xlink="http://www.w3.org/1999/xlink" width="14px" height="13px" xmlns="http://www.w3.org/2000/svg">
  <g transform="matrix(1 0 0 1 -20 -77 )">
    <path d="M 0.70000000000001 0  L 13.3 0  C 13.6865993248816 0  14 0.31340067511843  14 0.700000000000017  L 14 11.9  C 14 12.2865993248815  13.6865993248816 12.6  13.3 12.6  L 0.70000000000001 12.6  C 0.313400675118437 12.6  0 12.2865993248815  0 11.9  L 0 0.700000000000017  C 0 0.31340067511843  0.313400675118437 0  0.70000000000001 0  Z M 12.6 11  L 12.6 1.40000000000002  L 1.40000000000002 1.40000000000002  L 1.40000000000002 11  L 12.6 11  Z M 2.79999999999999 2.79999999999998  L 4.20000000000001 2.79999999999998  L 4.20000000000001 9.79999999999998  L 2.79999999999999 9.79999999999998  L 2.79999999999999 2.79999999999998  Z " fill-rule="nonzero" fill="#ffffff" stroke="none" transform="matrix(1 0 0 1 20 77 )" />
  </g>
</svg>