<?xml version="1.0" encoding="utf-8"?>
<svg version="1.1" xmlns:xlink="http://www.w3.org/1999/xlink" width="16px" height="14px" xmlns="http://www.w3.org/2000/svg">
  <g transform="matrix(1 0 0 1 -20 -31 )">
    <path d="M 12.8153846153846 12.8153846487398  L 12.8153846153846 12  L 2.26153846153849 12  L 2.26153846153849 12.8153846487398  C 2.26153846153849 13.2317223648061  1.92403004218012 13.5692307692308  1.50769230769228 13.5692307692308  L 0.753846153846141 13.5692307692308  C 0.337508419358308 13.5692307692308  0 13.2317223648061  0 12.8153846487398  L 0 5.27692344382941  L 1.86953846153845 0.913662098427302  C 2.10734034105209 0.358924940954527  2.65305694762719 -0.000536199210650068  3.25661538461539 0  L 11.8203076923077 0  C 12.423318397567 6.71981676099165E-05  12.9682907074334 0.359428683658777  13.2058769230769 0.913662098427302  L 15.0769230769231 5.27692344382941  L 15.0769230769231 12.8153846487398  C 15.0769230769231 13.2317223648061  14.7394146575648 13.5692307692308  14.3230769230769 13.5692307692308  L 13.5692307692308 13.5692307692308  C 13.152893034743 13.5692307692308  12.8153846153846 13.2317223648061  12.8153846153846 12.8153846487398  Z M 13.5692307692308 10.5538462872667  L 13.5692307692308 7  L 1.50769230769228 7  L 1.50769230769228 10.5538462872667  L 13.5692307692308 10.5538462872667  Z M 1.6403692307692 5.27692344382941  L 13.4365538461539 5.27692344382941  L 11.8210615384615 1.50769284137426  L 3.25661538461539 1.50769284137426  L 1.6411230769231 5.27692344382941  Z M 3.39230769230767 9.80000016677564  C 2.76780109057592 9.80000016677564  2.26153846153849 9.29373756013855  2.26153846153849 8.66923098603909  C 2.26153846153849 8.04472441193962  2.76780109057592 7.53846180530252  3.39230769230767 7.53846180530252  C 4.01681429403942 7.53846180530252  4.52307692307691 8.04472441193962  4.52307692307691 8.66923098603909  C 4.52307692307691 9.29373756013855  4.01681429403942 9.80000016677564  3.39230769230767 9.80000016677564  Z M 11.6846153846154 9.80000016677564  C 11.0601087828837 9.80000016677564  10.5538461538462 9.29373756013855  10.5538461538462 8.66923098603909  C 10.5538461538462 8.04472441193962  11.0601087828837 7.53846180530252  11.6846153846154 7.53846180530252  C 12.3091219863471 7.53846180530252  12.8153846153846 8.04472441193962  12.8153846153846 8.66923098603909  C 12.8153846153846 9.29373756013855  12.3091219863471 9.80000016677564  11.6846153846154 9.80000016677564  Z " fill-rule="nonzero" fill="#999999" stroke="none" transform="matrix(1 0 0 1 20 31 )" />
  </g>
</svg>