<?xml version="1.0" encoding="utf-8"?>
<svg version="1.1" xmlns:xlink="http://www.w3.org/1999/xlink" width="14px" height="15px" xmlns="http://www.w3.org/2000/svg">
  <g transform="matrix(1 0 0 1 -20 -76 )">
    <path d="M 2.91666666666667 0  L 10.2083333333333 0  L 10.2083333333333 1.45833333333333  L 12.4009375 1.45833333333333  C 12.8005208333333 1.45833333333333  13.125 1.78281250000001  13 2.18239583333333  L 13 13.8592708333333  C 13.125 14.2588541666667  12.8005208333333 14.5833333333333  12.4009375 14.5833333333333  L 0.724062500000002 14.5833333333333  C 0.32447916666667 14.5833333333333  0 14.2588541666667  0 13.8592708333333  L 0 2.18239583333333  C 0 1.78281250000001  0.32447916666667 1.45833333333333  0.724062500000002 1.45833333333333  L 2.91666666666667 1.45833333333333  L 2.91666666666667 0  Z M 2.91666666666667 4.37499999999999  L 2.91666666666667 2.91666666666667  L 1.45833333333334 2.91666666666667  L 1.45833333333334 13  L 11.6666666666667 13  L 11.6666666666667 2.91666666666667  L 10.2083333333333 2.91666666666667  L 10.2083333333333 4.37499999999999  L 2.91666666666667 4.37499999999999  Z M 2.91666666666667 10.2083333333333  L 4.375 10.2083333333333  L 4.375 11.6666666666667  L 2.91666666666667 11.6666666666667  L 2.91666666666667 10.2083333333333  Z M 2.91666666666667 8.02083333333331  L 4.375 8.02083333333331  L 4.375 9.47916666666666  L 2.91666666666667 9.47916666666666  L 2.91666666666667 8.02083333333331  Z M 2.91666666666667 5.83333333333333  L 4.375 5.83333333333333  L 4.375 7.29166666666666  L 2.91666666666667 7.29166666666666  L 2.91666666666667 5.83333333333333  Z M 8.74999999999999 2.91666666666667  L 8.74999999999999 1.45833333333333  L 4.375 1.45833333333333  L 4.375 2.91666666666667  L 8.74999999999999 2.91666666666667  Z " fill-rule="nonzero" fill="#ffffff" stroke="none" transform="matrix(1 0 0 1 20 76 )" />
  </g>
</svg>