<?xml version="1.0" encoding="utf-8"?>
<svg version="1.1" xmlns:xlink="http://www.w3.org/1999/xlink" width="14px" height="14px" xmlns="http://www.w3.org/2000/svg">
  <g transform="matrix(1 0 0 1 -20 -31 )">
    <path d="M 13.3 10.5  L 7.7 10.5  L 7.7 11.9  L 10.5 11.9  L 10.5 13.3  L 3.5 13.3  L 3.5 11.9  L 6.3 11.9  L 6.3 10.5  L 0.699999999999999 10.5  C 0.313400675118434 10.5  0 10.1865993248816  0 9.8  L 0 0.699999999999999  C 0 0.313400675118434  0.313400675118434 0  0.699999999999999 0  L 13.3 0  C 13.6865993248816 0  14 0.313400675118434  14 0.699999999999999  L 14 9.8  C 14 10.1865993248816  13.6865993248816 10.5  13.3 10.5  Z M 12.6 1.4  L 1.4 1.4  L 1.4 9  L 12.6 9  L 12.6 1.4  Z M 5.6 7.35  L 5.6 3.15  L 9.1 5.25  L 5.6 7.35  Z " fill-rule="nonzero" fill="#999999" stroke="none" transform="matrix(1 0 0 1 20 31 )" />
  </g>
</svg>