<?xml version="1.0" encoding="utf-8"?>
<svg version="1.1" xmlns:xlink="http://www.w3.org/1999/xlink" width="14px" height="13px" xmlns="http://www.w3.org/2000/svg">
  <g transform="matrix(1 0 0 1 -20 -76 )">
    <path d="M 0 11.9049  L 0 0.695100000000025  C 0.00266547617923152 0.312588880708347  0.311891760482979 0.00305087635990731  0.694400000000087 0  L 13.3056 0  C 13.6892 0  14 0.311500000000024  14 0.695100000000025  L 14 11.9049  C 13.9973345238208 12.2874111192917  13.6881082395171 12.5969491236401  13.3056 12.6  L 0.694400000000087 12.6  C 0.310780265849644 12.599613675802  0 12.2885199286742  0 11.9049  Z M 12.6 1.39999999999998  L 1.40000000000009 1.39999999999998  L 1.40000000000009 11  L 12.6 11  L 12.6 1.39999999999998  Z M 2.80000000000007 7  L 2.80000000000007 2.80000000000001  L 7.00000000000006 2.80000000000001  L 7.00000000000006 7  L 2.80000000000007 7  Z M 5.60000000000008 4.19999999999999  L 4.20000000000005 4.19999999999999  L 4.20000000000005 5.60000000000002  L 5.60000000000008 5.60000000000002  L 5.60000000000008 4.19999999999999  Z M 2.80000000000007 9.80000000000001  L 2.80000000000007 8.40000000000003  L 11.2 8.40000000000003  L 11.2 9.80000000000001  L 2.80000000000007 9.80000000000001  Z M 8.40000000000003 4.19999999999999  L 8.40000000000003 2.80000000000001  L 11.2 2.80000000000001  L 11.2 4.19999999999999  L 8.40000000000003 4.19999999999999  Z M 8.40000000000003 7  L 8.40000000000003 5.60000000000002  L 11.2 5.60000000000002  L 11.2 7  L 8.40000000000003 7  Z " fill-rule="nonzero" fill="#ffffff" stroke="none" transform="matrix(1 0 0 1 20 76 )" />
  </g>
</svg>