<?xml version="1.0" encoding="utf-8"?>
<svg version="1.1" xmlns:xlink="http://www.w3.org/1999/xlink" width="13px" height="15px" xmlns="http://www.w3.org/2000/svg">
  <g transform="matrix(1 0 0 1 -20 -31 )">
    <path d="M 0 13.8888888888889  L 0 4.16666666666667  L 5.86458333333335 0.256944444444446  C 6.09794227080044 0.10125032140536  6.40205772919956 0.10125032140536  6.63541666666665 0.256944444444446  L 12.5 4.16666666666667  L 12.5 13.8888888888889  C 12.5 14.2724199651603  12.1890866318269 14.5833333333333  11.8055555555556 14.5833333333333  L 0.694444444444429 14.5833333333333  C 0.310913368173072 14.5833333333333  0 14.2724199651603  0 13.8888888888889  Z M 6.25 1.66944444444444  L 1.3888888888889 4.90972222222221  L 1.3888888888889 13.1944444444444  L 11.1111111111111 13.1944444444444  L 11.1111111111111 4.90972222222221  L 6.25 1.66944444444444  Z M 3.47222222222224 11.8055555555556  L 3.47222222222224 10.4166666666667  L 9.02777777777776 10.4166666666667  L 9.02777777777776 11.8055555555556  L 3.47222222222224 11.8055555555556  Z M 3.47222222222224 9.72222222222224  L 3.47222222222224 8.33333333333334  L 9.02777777777776 8.33333333333334  L 9.02777777777776 9.72222222222224  L 3.47222222222224 9.72222222222224  Z M 6.25 6.94444444444443  C 5.48293784745724 6.94444444444443  4.8611111111111 6.32261770809833  4.8611111111111 5.55555555555557  C 4.8611111111111 4.78849340301281  5.48293784745724 4.16666666666667  6.25 4.16666666666667  C 7.01706215254276 4.16666666666667  7.6388888888889 4.78849340301281  7.6388888888889 5.55555555555557  C 7.6388888888889 6.32261770809833  7.01706215254276 6.94444444444443  6.25 6.94444444444443  Z " fill-rule="nonzero" fill="#ffffff" stroke="none" transform="matrix(1 0 0 1 20 31 )" />
  </g>
</svg>