<?xml version="1.0" encoding="utf-8"?>
<svg version="1.1" xmlns:xlink="http://www.w3.org/1999/xlink" width="14px" height="15px" xmlns="http://www.w3.org/2000/svg">
  <g transform="matrix(1 0 0 1 -20 -122 )">
    <path d="M 8.84210526315792 4.42105263157896  L 8.84210526315792 1.4736842105263  L 1.4736842105263 1.4736842105263  L 1.4736842105263 13  L 11.7894736842105 13  L 11.7894736842105 4.42105263157896  L 8.84210526315792 4.42105263157896  Z M 0 14.0058947368422  L 0 0.730947368421027  C 0 0.327157894736843  0.329368421052607 0  0.736105263157867 0  L 9.57894736842104 0  L 13 3.68421052631578  L 13 13.9948421052632  C 13.2631700137359 13.9965673521805  13.2631760732915 13.9982926363422  13.2631760732915 14.000017925824  C 13.2631760732915 14.4049588300676  12.9364047370907 14.7340175091882  12.5314736842105 14.7368421052632  L 0.731684210526339 14.7368421052632  C 0.329040927061385 14.7340363408641  0.00321144879990243 14.4085349889654  0 14.0058947368422  Z M 3.68421052631578 6.63157894736844  L 6.63157894736844 6.63157894736844  L 6.63157894736844 4.42105263157896  L 9.57894736842104 7.36842105263156  L 6.63157894736844 10.3157894736842  L 6.63157894736844 8.10526315789474  L 3.68421052631578 8.10526315789474  L 3.68421052631578 6.63157894736844  Z " fill-rule="nonzero" fill="#ffffff" stroke="none" transform="matrix(1 0 0 1 20 122 )" />
  </g>
</svg>