<?xml version="1.0" encoding="utf-8"?>
<svg version="1.1" xmlns:xlink="http://www.w3.org/1999/xlink" width="14px" height="14px" xmlns="http://www.w3.org/2000/svg">
  <g transform="matrix(1 0 0 1 -20 -122 )">
    <path d="M 14 11.9  C 14 13.0597979746447  13.0597979746447 14  11.9 14  L 2.10000000000002 14  C 0.940202025355347 14  0 13.0597979746447  0 11.9  L 0 0.699999999999989  C 0 0.31340067511843  0.31340067511843 0  0.699999999999989 0  L 10.5 0  C 10.8865993248816 0  11.2 0.31340067511843  11.2 0.699999999999989  L 11.2 9.10000000000002  L 14 9.10000000000002  L 14 11.9  Z M 12.6 10.5  L 11.2 10.5  L 11.2 11.9  C 11.2 12.2865993248815  11.5134006751184 12.6  11.9 12.6  C 12.2865993248815 12.6  12.6 12.2865993248815  12.6 11.9  L 12.6 10.5  Z M 2.10000000000002 12.6  L 9.80000000000001 12.6  L 9.80000000000001 1.39999999999998  L 1.39999999999998 1.39999999999998  L 1.39999999999998 11.9  C 1.39999999999998 12.2865993248815  1.71340067511846 12.6  2.10000000000002 12.6  Z M 2.80000000000001 4.89999999999998  L 2.80000000000001 3.5  L 8.39999999999998 3.5  L 8.39999999999998 4.89999999999998  L 2.80000000000001 4.89999999999998  Z M 2.80000000000001 7.69999999999999  L 2.80000000000001 6.30000000000001  L 8.39999999999998 6.30000000000001  L 8.39999999999998 7.69999999999999  L 2.80000000000001 7.69999999999999  Z M 2.80000000000001 10.5  L 2.80000000000001 9.10000000000002  L 6.30000000000001 9.10000000000002  L 6.30000000000001 10.5  L 2.80000000000001 10.5  Z " fill-rule="nonzero" fill="#999999" stroke="none" transform="matrix(1 0 0 1 20 122 )" />
  </g>
</svg>