<?xml version="1.0" encoding="utf-8"?>
<svg version="1.1" xmlns:xlink="http://www.w3.org/1999/xlink" width="13px" height="14px" xmlns="http://www.w3.org/2000/svg">
  <g transform="matrix(1 0 0 1 -20 -76 )">
    <path d="M 12.544 13.2408888888889  C 12.544 13.6257699945488  12.231992216771 13.9377777777778  11.8471111111111 14  L 0.6968888888889 14  C 0.312007783229021 13.9377777777778  0 13.6257699945488  0 13.2408888888889  L 0 0.696888888888907  C 0 0.312007783229021  0.312007783229021 0  0.6968888888889 0  L 11.8471111111111 0  C 12.231992216771 0  12.544 0.312007783229021  12.544 0.696888888888907  L 12.544 13.2408888888889  Z M 2.78755555555555 7.66577777777778  L 2.78755555555555 1.3937777777778  L 1.3937777777778 1.3937777777778  L 1.3937777777778 12.544  L 11 12.544  L 11 1.3937777777778  L 7.66577777777779 1.3937777777778  L 7.66577777777779 7.66577777777778  L 5.22666666666667 6.27199999999999  L 2.78755555555555 7.66577777777778  Z " fill-rule="nonzero" fill="#999999" stroke="none" transform="matrix(1 0 0 1 20 76 )" />
  </g>
</svg>