<?xml version="1.0" encoding="utf-8"?>
<svg version="1.1" xmlns:xlink="http://www.w3.org/1999/xlink" width="14px" height="13px" xmlns="http://www.w3.org/2000/svg">
  <g transform="matrix(1 0 0 1 -20 -123 )">
    <path d="M 5.8898 0  L 7.28980000000002 1.40000000000002  L 13.3 1.40000000000002  C 13.6865993248816 1.40000000000002  14 1.71340067511846  14 2.09999999999998  L 14 11.9  C 14 12.2865993248815  13.6865993248816 12.6  13.3 12.6  L 0.70000000000001 12.6  C 0.313400675118437 12.6  0 12.2865993248815  0 11.9  L 0 0.700000000000017  C 0 0.31340067511843  0.313400675118437 0  0.70000000000001 0  L 5.8898 0  Z M 4.20000000000001 5.59999999999998  L 4.20000000000001 11.2  L 12.6 11.2  L 12.6 5.59999999999998  L 4.20000000000001 5.59999999999998  Z M 1.40000000000002 11.2  L 2.79999999999999 11.2  L 2.79999999999999 4.89999999999998  C 2.79999999999999 4.51340067511845  3.11340067511843 4.20000000000002  3.5 4.20000000000002  L 12.6 4.20000000000002  L 12.6 2.79999999999998  L 6.71019999999998 2.79999999999998  L 5.31020000000001 1.40000000000002  L 1.40000000000002 1.40000000000002  L 1.40000000000002 11.2  Z " fill-rule="nonzero" fill="#999999" stroke="none" transform="matrix(1 0 0 1 20 123 )" />
  </g>
</svg>