<?xml version="1.0" encoding="utf-8"?>
<svg version="1.1" xmlns:xlink="http://www.w3.org/1999/xlink" width="16px" height="16px" xmlns="http://www.w3.org/2000/svg">
  <g transform="matrix(1 0 0 1 -20 -75 )">
    <path d="M 12.4574545454546 9.73381818181815  L 13.3636363636364 10.2567272727273  C 13.6643688593408 9.54217925184378  13.8192845389293 8.77474071373354  13.8192845389293 7.99948662111547  C 13.8192845389293 4.7857918695546  11.214070199581 2.18057753020639  8.00037544802024 2.18057753020639  C 6.98747048965231 2.18057753020639  5.99210931750389 2.44497974723623  5.11272727272728 2.94763636363638  L 4.39127272727274 1.68436363636363  C 6.6373744425091 0.400631079736741  9.39647337881604 0.407278176150214  11.6363636363636 1.70181818181817  C 14.9018181818182 3.5869090909091  16.1527272727272 7.62327272727271  14.6305454545454 10.9890909090909  L 15.6065454545455 11.552  L 12.5774545454545 13.1621818181819  L 12.4574545454546 9.73381818181815  Z M 2.63563636363637 5.74400000000003  L 2.63636363636363 5.74327272727271  C 2.33563114065925 6.45782074815622  2.18071546107069 7.22525928626646  2.18071546107069 8.00051337888453  C 2.18071546107069 11.2142081304454  4.78592980041896 13.8194224697936  7.99962455197976 13.8194224697936  C 9.01252951034769 13.8194224697936  10.0078906824961 13.5550202527638  10.8872727272727 13.0523636363636  L 11.6087272727273 14.3156363636364  C 9.3626255574909 15.5993689202633  6.60352662118396 15.5927218238498  4.36363636363637 14.2981818181818  C 1.09818181818179 12.4130909090909  -0.152727272727248 8.37672727272729  1.36945454545457 5.01090909090908  L 0.392727272727257 4.4487272727273  L 3.4218181818182 2.83854545454545  L 3.5418181818182 6.26690909090905  L 2.63563636363637 5.74400000000003  Z M 9.02909090909088 10.0567272727272  L 6.97018181818186 8  L 4.91345454545456 10.0567272727272  L 3.88509090909093 9.02836363636368  L 6.97090909090912 5.94327272727276  L 9.02836363636368 8  L 11.0858181818182 5.94327272727276  L 12.1141818181818 6.97163636363632  L 9.02836363636368 10.0567272727272  Z " fill-rule="nonzero" fill="#ffffff" stroke="none" transform="matrix(1 0 0 1 20 75 )" />
  </g>
</svg>