<?xml version="1.0" encoding="utf-8"?>
<svg version="1.1" xmlns:xlink="http://www.w3.org/1999/xlink" width="14px" height="13px" xmlns="http://www.w3.org/2000/svg">
  <g transform="matrix(1 0 0 1 -20 -31 )">
    <path d="M 0 11.5742083333333  L 0 0.675791666666669  C 0.00259143517425287 0.303905856244221  0.303228100469596 0.00296612979438748  0.675111111111207 0  L 12.936 0  C 13.3089444444444 0  13.6111111111111 0.302847222222212  13.6111111111111 0.675791666666669  L 13.6111111111111 11.5742083333333  C 13.6085196759369 11.9460941437558  13.3078830106416 12.2470338702056  12.936 12  L 0.675111111111207 12  C 0.302147480687154 12.2496244070297  0 11.9471721528777  0 11.5742083333333  Z M 6.12500000000005 10.8888888888889  L 6.12500000000005 1.3611111111111  L 1.3611111111112 1.3611111111111  L 1.3611111111112 10.8888888888889  L 6.12500000000005 10.8888888888889  Z M 12.25 1.3611111111111  L 7.48611111111115 1.3611111111111  L 7.48611111111115 10.8888888888889  L 12.25 10.8888888888889  L 12.25 1.3611111111111  Z M 8.1666666666667 4.08333333333335  L 8.1666666666667 2.7222222222222  L 11.5694444444444 2.7222222222222  L 11.5694444444444 4.08333333333335  L 8.1666666666667 4.08333333333335  Z M 8.1666666666667 6.125  L 8.1666666666667 4.7638888888889  L 11.5694444444444 4.7638888888889  L 11.5694444444444 6.125  L 8.1666666666667 6.125  Z " fill-rule="nonzero" fill="#ffffff" stroke="none" transform="matrix(1 0 0 1 20 31 )" />
  </g>
</svg>