<?xml version="1.0" encoding="utf-8"?>
<svg version="1.1" xmlns:xlink="http://www.w3.org/1999/xlink" width="16px" height="15px" xmlns="http://www.w3.org/2000/svg">
  <g transform="matrix(1 0 0 1 -20 -123 )">
    <path d="M 12.1428571428572 5.71428571428569  L 12.1428571428572 4.28571428571428  L 15.7142857142858 4.28571428571428  L 15.7142857142858 5.71428571428569  L 12.1428571428572 5.71428571428569  Z M 10.7142857142857 9.28571428571431  L 10.7142857142857 7.85714285714283  L 15.7142857142858 7.85714285714283  L 15.7142857142858 9.28571428571431  L 10.7142857142857 9.28571428571431  Z M 12.8571428571429 12.8571428571429  L 12.8571428571429 11.4285714285714  L 15.7142857142858 11.4285714285714  L 15.7142857142858 12.8571428571429  L 12.8571428571429 12.8571428571429  Z M 1.42857142857142 15  L 0 15  C 0 11.8440871438241  2.55837285810975 9.28571428571431  5.71428571428569 9.28571428571431  C 8.8701985704617 9.28571428571431  11.4285714285714 11.8440871438241  11.4285714285714 15  L 10.0000000000001 15  C 10.0000000000001 12.633065357868  8.08122035641775 10.7142857142857  5.71428571428569 10.7142857142857  C 3.34735107215375 10.7142857142857  1.42857142857142 12.633065357868  1.42857142857142 15  Z M 10.0000000000001 4.28571428571428  C 10.0000000000001 6.65357142857141  8.08214285714289 8.5714285714286  5.71428571428569 8.5714285714286  C 3.3464285714286 8.5714285714286  1.42857142857142 6.65357142857141  1.42857142857142 4.28571428571428  C 1.42857142857142 1.91785714285717  3.3464285714286 0  5.71428571428569 0  C 8.08214285714289 0  10.0000000000001 1.91785714285717  10.0000000000001 4.28571428571428  Z M 2.8571428571429 4.28571428571428  C 2.8571428571429 5.86428571428571  4.1357142857143 7.14285714285717  5.71428571428569 7.14285714285717  C 7.29285714285714 7.14285714285717  8.57142857142859 5.86428571428571  8.57142857142859 4.28571428571428  C 8.57142857142859 2.70714285714283  7.29285714285714 1.42857142857142  5.71428571428569 1.42857142857142  C 4.1357142857143 1.42857142857142  2.8571428571429 2.70714285714283  2.8571428571429 4.28571428571428  Z " fill-rule="nonzero" fill="#999999" stroke="none" transform="matrix(1 0 0 1 20 123 )" />
  </g>
</svg>