<?xml version="1.0" encoding="utf-8"?>
<svg version="1.1" xmlns:xlink="http://www.w3.org/1999/xlink" width="14px" height="14px" xmlns="http://www.w3.org/2000/svg">
  <g transform="matrix(1 0 0 1 -20 -77 )">
    <path d="M 0.707000330671789 3.49999991293529  L 3.50000026119414 3.49999991293529  L 3.50000026119414 0.69999998258703  C 3.50000026119414 0.313400667322412  3.81340092851654 0  4.20000024378123 0  L 13.300000017413 0  C 13.6865993326776 0  14 0.313400667322412  14 0.69999998258703  L 14 9.79999975621877  C 14 10.1865990714835  13.6865993326776 10.4999997388059  13.300000017413 10.4999997388059  L 10.5000000870647 10.4999997388059  L 10.5000000870647 13.295099669276  C 10.5000000870647 13.6842996595943  10.1857000948831 13.9999996517411  9.79510010459957 13.9999996517411  L 0.704900330724044 13.9999996517411  C 0.315281071326346 14  0 13.6847189286736  0 13.2958000175174  L 0.00210034820664617 4.20489989540043  C 0.00210034820664617 3.81569990508204  0.316400340388221 3.49999991293529  0.707000330671789 3.49999991293529  Z M 4.90000022636826 1.39999996517412  L 4.90000022636826 3.49999991293529  L 9.79510010459957 3.49999991293529  C 10.184300094918 3.49999991293529  10.5000000870647 3.81429990511685  10.5000000870647 4.20489989540043  L 10.5000000870647 9.09999977363174  L 12.6000000348259 9.09999977363174  L 12.6000000348259 1.39999996517412  L 4.90000022636826 1.39999996517412  Z M 9.10000012189059 4.89999987810941  L 1.40210031338072 4.89999987810941  L 1.40000031343298 12.599999686567  L 9.10000012189059 12.599999686567  L 9.10000012189059 4.89999987810941  Z " fill-rule="nonzero" fill="#999999" stroke="none" transform="matrix(1 0 0 1 20 77 )" />
  </g>
</svg>