<?xml version="1.0" encoding="utf-8"?>
<svg version="1.1" xmlns:xlink="http://www.w3.org/1999/xlink" width="16px" height="16px" xmlns="http://www.w3.org/2000/svg">
  <g transform="matrix(1 0 0 1 -20 -30 )">
    <path d="M 6.04000000000002 7.60000000000002  C 5.04588745030458 7.60000000000002  4.24000000000001 6.79411254969546  4.24000000000001 5.80000000000001  C 4.24000000000001 4.80588745030457  5.04588745030458 4  6.04000000000002 4  C 7.03411254969541 4  7.84000000000003 4.80588745030457  7.84000000000003 5.80000000000001  C 7.84000000000003 6.79411254969546  7.03411254969541 7.60000000000002  6.04000000000002 7.60000000000002  Z M 6.39999999999998 14.1984  L 6.39999999999998 11.52  C 6.39999999999998 11.1296  6.51519999999999 10.7704  6.72320000000002 10.4496  C 5.28137410953707 10.2444744108064  3.8198185800735 10.6559634203931  2.6968 11.5832  C 3.57125751462831 12.8772510487485  4.88810963652526 13.8074965528753  6.39999999999998 14.1992  Z M 1.60012118063753 8.00528406401583  C 1.60012118063753 8.72823912546249  1.72261433907289 9.44596858013341  1.9624 10.128  C 3.1307935808569 9.26334543964532  4.54646435598596 8.79771962496051  6 8.80000000000001  C 6.83439999999996 8.80000000000001  7.63439999999997 8.9504  8.37360000000001 9.22559999999999  C 9.07600000000002 8.95120000000003  9.91359999999997 8.80000000000001  10.8 8.80000000000001  C 12.128 8.80000000000001  13.348 9.13919999999996  14.1648 9.72480000000002  C 14.3209530395273 9.16497190233116  14.4001211806375 8.58648219778183  14.4001211806375 8.00528406401583  C 14.4001211806375 4.4706616650987  11.5347435795546 1.60528406401585  8.00012118063751 1.60528406401585  C 4.46549878172044 1.60528406401585  1.60012118063753 4.4706616650987  1.60012118063753 8.00528406401583  Z M 13.5032 11.2688  C 13.1888 10.8424000000001  12.1368 10.4  10.8 10.4  C 9.1952 10.4  8 11.0376  8 11.52  L 8 14.4  C 10.2588258602678 14.4012547531539  12.3508577041545 13.2111075675475  13.504 11.2688  Z M 16 8  C 16 12.4184  12.4184 16  8 16  C 3.58160000000004 16  0 12.4184  0 8  C 0 3.58160000000004  3.58160000000004 0  8 0  C 12.4184 0  16 3.58160000000004  16 8  Z M 10.8 8.39999999999998  C 9.9163444002707 8.39999999999998  9.19999999999999 7.68365559972932  9.19999999999999 6.80000000000001  C 9.19999999999999 5.9163444002707  9.9163444002707 5.19999999999999  10.8 5.19999999999999  C 11.6836555997293 5.19999999999999  12.4 5.9163444002707  12.4 6.80000000000001  C 12.4 7.68365559972932  11.6836555997293 8.39999999999998  10.8 8.39999999999998  Z " fill-rule="nonzero" fill="#ffffff" stroke="none" transform="matrix(1 0 0 1 20 30 )" />
  </g>
</svg>