<?xml version="1.0" encoding="utf-8"?>
<svg version="1.1" xmlns:xlink="http://www.w3.org/1999/xlink" width="14px" height="13px" xmlns="http://www.w3.org/2000/svg">
  <g transform="matrix(1 0 0 1 -20 -32 )">
    <path d="M 0.699999999999989 2.80000000000001  L 2.80000000000001 2.80000000000001  L 2.80000000000001 0.699999999999989  C 2.80000000000001 0.31340067511843  3.11340067511844 0  3.5 0  L 7.9898 0  L 9.38979999999998 1.39999999999998  L 13.3 1.39999999999998  C 13.6865993248816 1.39999999999998  14 1.71340067511846  14 2.10000000000002  L 14 9.10000000000002  C 14 9.48659932488158  13.6865993248816 9.80000000000001  13.3 9.80000000000001  L 11.2 9.80000000000001  L 11.2 11.9  C 11.2 12.2865993248816  10.8865993248816 12.6  10.5 12.6  L 0.699999999999989 12.6  C 0.31340067511843 12.6  0 12.2865993248816  0 11.9  L 0 3.5  C 0 3.11340067511844  0.31340067511843 2.80000000000001  0.699999999999989 2.80000000000001  Z M 2.80000000000001 9.80000000000001  L 2.80000000000001 4.19999999999999  L 1.39999999999998 4.19999999999999  L 1.39999999999998 11.2  L 9.80000000000001 11.2  L 9.80000000000001 9.80000000000001  L 2.80000000000001 9.80000000000001  Z M 7.41019999999997 1.39999999999998  L 4.19999999999999 1.39999999999998  L 4.19999999999999 8.40000000000003  L 12.6 8.40000000000003  L 12.6 2.80000000000001  L 8.81020000000001 2.80000000000001  L 7.41019999999997 1.39999999999998  Z " fill-rule="nonzero" fill="#ffffff" stroke="none" transform="matrix(1 0 0 1 20 32 )" />
  </g>
</svg>