<?xml version="1.0" encoding="utf-8"?>
<svg version="1.1" xmlns:xlink="http://www.w3.org/1999/xlink" width="14px" height="15px" xmlns="http://www.w3.org/2000/svg">
  <g transform="matrix(1 0 0 1 -20 -76 )">
    <path d="M 1.47058823529413 10.2941176470588  L 2.51029411764708 10.2941176470588  L 9.96764705882354 2.83676470588238  L 8.92794117647059 1.79705882352943  L 1.47058823529413 9.25441176470589  L 1.47058823529413 10.2941176470588  Z M 11.5279411764706 3.35661764705883  L 3.11985294117649 11.764705882353  L 0 11.764705882353  L 0 8.64485294117648  L 8.40808823529409 0.236764705882337  C 8.69522047903368 -0.0502808370094456  9.16066187390751 -0.0502808370094456  9.44779411764704 0.236764705882337  L 11.5279411764706 2.31691176470588  C 11.8149867193624 2.60404400844546  11.8149867193624 3.06948540331925  11.5279411764706 3.35661764705883  Z M 0 14.7058823529412  L 0 13  L 13.2352941176471 13  L 13.2352941176471 14.7058823529412  L 0 14.7058823529412  Z " fill-rule="nonzero" fill="#ffffff" stroke="none" transform="matrix(1 0 0 1 20 76 )" />
  </g>
</svg>