<?xml version="1.0" encoding="utf-8"?>
<svg version="1.1" xmlns:xlink="http://www.w3.org/1999/xlink" width="13px" height="15px" xmlns="http://www.w3.org/2000/svg">
  <g transform="matrix(1 0 0 1 -20 -31 )">
    <path d="M 0.72872222222222 2.88888888888886  L 2.88888888888886 2.88888888888886  L 2.88888888888886 0.722222222222218  C 2.88888888888886 0.323349902899981  3.21223879178885 0  3.61111111111114 0  L 12.2777777777778 0  C 12.6766500971 0  13 0.323349902899981  13 0.722222222222218  L 13 10.8333333333333  C 13 11.2322056526555  12.6766500971 11.5555555555556  12.2777777777778 11.5555555555556  L 10.1111111111111 11.5555555555556  L 10.1111111111111 13.7222222222222  C 10.1111111111111 14.1208888888889  9.78611111111111 14.4444444444444  9.38383333333332 14.4444444444444  L 0.727277777777765 14.4444444444444  C 0.72583323359137 14.4444531039016  0.724388666694697 14.4444574336594  0.722944096553551 14.4444574336594  C 0.323949849545169 14.4444574336594  0.000391426881879653 14.1212162772291  0 13.7222222222222  L 0.0021666666666853 3.61111111111108  C 0.0021666666666853 3.21244444444443  0.327166666666653 2.88888888888886  0.72872222222222 2.88888888888886  Z M 8.66666666666665 4.33333333333335  L 1.44588888888889 4.33333333333335  L 1.44444444444443 13  L 8.66666666666665 13  L 8.66666666666665 4.33333333333335  Z M 4.33333333333335 1.44444444444443  L 4.33333333333335 2.88888888888886  L 10.1111111111111 2.88888888888886  L 10.1111111111111 10.1111111111111  L 11.5555555555556 10.1111111111111  L 11.5555555555556 1.44444444444443  L 4.33333333333335 1.44444444444443  Z M 2.88888888888886 7.94444444444443  L 2.88888888888886 6.5  L 7.22222222222222 6.5  L 7.22222222222222 7.94444444444443  L 2.88888888888886 7.94444444444443  Z M 2.88888888888886 10.8333333333333  L 2.88888888888886 9.38888888888887  L 7.22222222222222 9.38888888888887  L 7.22222222222222 10.8333333333333  L 2.88888888888886 10.8333333333333  Z " fill-rule="nonzero" fill="#ffffff" stroke="none" transform="matrix(1 0 0 1 20 31 )" />
  </g>
</svg>