<?xml version="1.0" encoding="utf-8"?>
<svg version="1.1" xmlns:xlink="http://www.w3.org/1999/xlink" width="16px" height="12px" xmlns="http://www.w3.org/2000/svg">
  <g transform="matrix(1 0 0 1 -20 -12 )">
    <path d="M 0 4.36363636363637  C 0 1.95345454545452  3.58181818181816 0  8 0  C 12.4181818181818 0  16 1.95345454545452  16 4.36363636363637  L 16 7.27272727272725  C 16 9.68290909090911  12.4181818181818 11.6363636363636  8 11.6363636363636  C 3.66036363636368 11.6363636363636  0.128000000000043 9.75200000000001  0.00363636363636033 7.4014545454545  L 0 7.27272727272725  L 0 4.36363636363637  Z M 14.5461818181818 6.87272727272727  C 13.0989090909091 7.99418181818186  10.7061818181818 8.72727272727269  8 8.72727272727269  C 5.29454545454547 8.72727272727269  2.90181818181821 7.99490909090906  1.45454545454544 6.87272727272727  L 1.45454545454544 7.27272727272725  C 1.45454545454544 8.64145454545456  4.27854545454545 10.1818181818182  8 10.1818181818182  C 11.6436363636363 10.1818181818182  14.4276363636363 8.70545454545453  14.5418181818182 7.35854545454544  L 14.5454545454546 7.27272727272725  L 14.5461818181818 6.87272727272727  Z M 14.5454545454546 4.36363636363637  C 14.5454545454546 2.99490909090906  11.7214545454545 1.45454545454544  8 1.45454545454544  C 4.27854545454545 1.45454545454544  1.45454545454544 2.99490909090906  1.45454545454544 4.36363636363637  C 1.45454545454544 5.73236363636363  4.27854545454545 7.27272727272725  8 7.27272727272725  C 11.7214545454545 7.27272727272725  14.5454545454546 5.73236363636363  14.5454545454546 4.36363636363637  Z " fill-rule="nonzero" fill="#999999" stroke="none" transform="matrix(1 0 0 1 20 12 )" />
  </g>
</svg>