<?xml version="1.0" encoding="utf-8"?>
<svg version="1.1" xmlns:xlink="http://www.w3.org/1999/xlink" width="16px" height="14px" xmlns="http://www.w3.org/2000/svg">
  <g transform="matrix(1 0 0 1 -20 -11 )">
    <path d="M 13.3 13.3  C 13.3 13.6865993248816  12.9865993248815 14  12.6 14  L 2.79999999999995 14  C 2.41340067511845 14  2.10000000000002 13.6865993248816  2.10000000000002 13.3  L 2.10000000000002 7  L 0 7  L 7.22889999999995 0.428400000000011  C 7.49596297541763 0.185399649122701  7.90403702458235 0.185399649122701  8.17110000000002 0.428400000000011  L 15.4 7  L 13.3 7  L 13.3 13.3  Z M 3.5 5.7099  L 3.5 12.6  L 11.9 12.6  L 11.9 5.7099  L 7.70000000000005 1.89210000000003  L 3.5 5.7099  Z M 4.89999999999998 11.2  L 4.89999999999998 9.79999999999995  L 10.5 9.79999999999995  L 10.5 11.2  L 4.89999999999998 11.2  Z " fill-rule="nonzero" fill="#999999" stroke="none" transform="matrix(1 0 0 1 20 11 )" />
  </g>
</svg>