<?xml version="1.0" encoding="utf-8"?>
<svg version="1.1" xmlns:xlink="http://www.w3.org/1999/xlink" width="14px" height="12px" xmlns="http://www.w3.org/2000/svg">
  <g transform="matrix(1 0 0 1 -20 -32 )">
    <path d="M 11.48 12  L 0.666666666666686 12  C 0.298476833446159 12  0 11.7015231665538  0 11.3333333333333  L 0 0.666666666666686  C 0 0.298476833446159  0.298476833446159 0  0.666666666666686 0  L 5.60933333333332 0  L 6.94266666666664 1.33333333333331  L 12 1.33333333333331  C 12.3681898332205 1.33333333333331  12.6666666666667 1.63181016677947  12.6666666666667 2  L 12.6666666666667 4  L 11.3333333333333 4  L 11.3333333333333 2.66666666666669  L 6.39066666666668 2.66666666666669  L 5.05733333333336 1.33333333333331  L 1.33333333333331 1.33333333333331  L 1.33333333333331 9.33199999999999  L 2.33333333333331 5.33333333333331  L 13.6666666666667 5.33333333333331  L 12.1266666666667 11.4953333333333  C 12.052360606315 11.7919540412769  11.7857862569203 11.9999919613716  11.48 12  Z M 10.9586666666667 10.6666666666667  L 11.9586666666667 6.66666666666669  L 3.37466666666666 6.66666666666669  L 2.37466666666666 10.6666666666667  L 10.9586666666667 10.6666666666667  Z " fill-rule="nonzero" fill="#ffffff" stroke="none" transform="matrix(1 0 0 1 20 32 )" />
  </g>
</svg>