<?xml version="1.0" encoding="utf-8"?>
<svg version="1.1" xmlns:xlink="http://www.w3.org/1999/xlink" width="14px" height="14px" xmlns="http://www.w3.org/2000/svg">
  <g transform="matrix(1 0 0 1 -20 -76 )">
    <path d="M 13.3 12.6000001969672  L 7.69999999999999 12.6000001969672  L 7.69999999999999 14  L 6.30000000000001 14  L 6.30000000000001 12.6000001969672  L 0.699999999999989 12.6000001969672  C 0.31340067511843 12.6000001969672  0 12.2865995659414  0 11.9000002954509  L 0 0.700001871188704  C 0 0.313402600698112  0.31340067511843 0  0.699999999999989 0  L 4.89999999999998 0  C 5.70376968156017 -0.000951663129626468  6.46898844245385 0.34441702236353  7 0.947801836325482  C 7.53101155754615 0.34441702236353  8.29623031843983 -0.000951663129626468  9.10000000000002 0  L 13.3 0  C 13.6865993248816 0  14 0.313402600698112  14 0.700001871188704  L 14 11.9000002954509  C 14 12.2865995659414  13.6865993248816 12.6000001969672  13.3 12.6000001969672  Z M 7.69999999999999 11.2000003939345  L 12.6 11.2000003939345  L 12.6 1.40000177270508  L 9.10000000000002 1.40000177270508  C 8.32680135023691 1.40000177270508  7.69999999999999 2.02680303475671  7.69999999999999 2.80000157573784  L 7.69999999999999 11.2000003939345  Z M 1.39999999999998 11.2000003939345  L 6.30000000000001 11.2000003939345  L 6.30000000000001 2.80000157573784  C 6.30000000000001 2.02680303475671  5.67319864976309 1.40000177270508  4.89999999999998 1.40000177270508  L 1.39999999999998 1.40000177270508  L 1.39999999999998 11.2000003939345  Z " fill-rule="nonzero" fill="#999999" stroke="none" transform="matrix(1 0 0 1 20 76 )" />
  </g>
</svg>