<?xml version="1.0" encoding="utf-8"?>
<svg version="1.1" xmlns:xlink="http://www.w3.org/1999/xlink" width="14px" height="16px" xmlns="http://www.w3.org/2000/svg">
  <g transform="matrix(1 0 0 1 -20 -182 )">
    <path d="M 14 14.7777777777778  C 14 15.2073325832017  13.6517770276462 15.5555555555555  13.2222222222222 15.5555555555555  L 0.777777777777771 15.5555555555555  C 0.348222972353824 15.5555555555555  0 15.2073325832017  0 14.7777777777778  L 0 0.777777777777771  C 0 0.348222972353824  0.348222972353824 0  0.777777777777771 0  L 13.2222222222222 0  C 13.6517770276462 0  14 0.348222972353824  14 0.777777777777771  L 14 14.7777777777778  Z M 1.55555555555554 14  L 12.4444444444445 14  L 12.4444444444445 1.55555555555554  L 1.55555555555554 1.55555555555554  L 1.55555555555554 14  Z M 3.88888888888891 5.44444444444446  L 3.88888888888891 3.88888888888891  L 10.1111111111111 3.88888888888891  L 10.1111111111111 5.44444444444446  L 3.88888888888891 5.44444444444446  Z M 3.88888888888891 8.55555555555554  L 3.88888888888891 7  L 10.1111111111111 7  L 10.1111111111111 8.55555555555554  L 3.88888888888891 8.55555555555554  Z M 3.88888888888891 11.6666666666666  L 3.88888888888891 10.1111111111111  L 10.1111111111111 10.1111111111111  L 10.1111111111111 11.6666666666666  L 3.88888888888891 11.6666666666666  Z " fill-rule="nonzero" fill="#999999" stroke="none" transform="matrix(1 0 0 1 20 182 )" />
  </g>
</svg>