<?xml version="1.0" encoding="utf-8"?>
<svg version="1.1" xmlns:xlink="http://www.w3.org/1999/xlink" width="16px" height="14px" xmlns="http://www.w3.org/2000/svg">
  <g transform="matrix(1 0 0 1 -20 -32 )">
    <path d="M 0.777777777777771 0  L 5.4444444444444 0  C 5.87377777777772 0  6.22222222222223 0.348444444444453  6.22222222222223 0.777777777777771  L 6.22222222222223 13.2222222222222  C 6.22222222222223 13.6515555555555  5.87377777777772 14  5.4444444444444 14  L 0.777777777777771 14  C 0.348444444444453 14  0 13.6515555555555  0 13.2222222222222  L 0 0.777777777777771  C 0 0.348444444444453  0.348444444444453 0  0.777777777777771 0  Z M 4.66666666666663 12.4444444444445  L 4.66666666666663 1.55555555555554  L 1.55555555555554 1.55555555555554  L 1.55555555555554 12.4444444444445  L 4.66666666666663 12.4444444444445  Z M 7.77777777777777 7  C 7.77777777777777 4.85255555555551  9.51922222222225 3.11111111111114  11.6666666666667 3.11111111111114  C 13.8141111111111 3.11111111111114  15.5555555555555 4.85255555555551  15.5555555555555 7  C 15.5555555555555 9.14744444444449  13.8141111111111 10.8888888888889  11.6666666666667 10.8888888888889  C 9.51922222222225 10.8888888888889  7.77777777777777 9.14744444444449  7.77777777777777 7  Z M 12.4444444444444 6.22144444444444  L 12.4444444444444 4.66666666666663  L 10.8888888888889 4.66666666666663  L 10.8888888888889 6.22144444444444  L 9.33333333333331 6.22222222222223  L 9.33333333333331 7.77777777777777  L 10.8888888888889 7.77699999999999  L 10.8888888888889 9.33333333333337  L 12.4444444444444 9.33333333333337  L 12.4444444444444 7.77699999999999  L 14 7.77777777777777  L 14 6.22222222222223  L 12.4444444444444 6.22144444444444  Z " fill-rule="nonzero" fill="#999999" stroke="none" transform="matrix(1 0 0 1 20 32 )" />
  </g>
</svg>