<?xml version="1.0" encoding="utf-8"?>
<svg version="1.1" xmlns:xlink="http://www.w3.org/1999/xlink" width="14px" height="15px" xmlns="http://www.w3.org/2000/svg">
  <g transform="matrix(1 0 0 1 -20 -31 )">
    <path d="M 13 13.9705882352942  C 13.2352941176471 14.3766799631109  12.9060917278168 14.7058823529412  12.5 14.7058823529412  L 0.735294117647044 14.7058823529412  C 0.329202389830311 14.7058823529412  0 14.3766799631109  0 13.9705882352942  L 0 0.735294117647044  C 0 0.329202389830311  0.329202389830311 0  0.735294117647044 0  L 12.5 0  C 12.9060917278168 0  13.2352941176471 0.329202389830311  13 0.735294117647044  L 13 13.9705882352942  Z M 1.47058823529413 13  L 11.7647058823529 13  L 11.7647058823529 1.47058823529413  L 1.47058823529413 1.47058823529413  L 1.47058823529413 13  Z M 2.94117647058822 5.88235294117649  L 2.94117647058822 2.94117647058822  L 5.88235294117649 2.94117647058822  L 5.88235294117649 5.88235294117649  L 2.94117647058822 5.88235294117649  Z M 2.94117647058822 8.82352941176471  L 2.94117647058822 7.35294117647062  L 10.2941176470588 7.35294117647062  L 10.2941176470588 8.82352941176471  L 2.94117647058822 8.82352941176471  Z M 2.94117647058822 11.764705882353  L 2.94117647058822 10.2941176470588  L 10.2941176470588 10.2941176470588  L 10.2941176470588 11.764705882353  L 2.94117647058822 11.764705882353  Z M 7.35294117647057 5.1470588235294  L 7.35294117647057 3.67647058823531  L 10.2941176470588 3.67647058823531  L 10.2941176470588 5.1470588235294  L 7.35294117647057 5.1470588235294  Z " fill-rule="nonzero" fill="#ffffff" stroke="none" transform="matrix(1 0 0 1 20 31 )" />
  </g>
</svg>