<?xml version="1.0" encoding="utf-8"?>
<svg version="1.1" xmlns:xlink="http://www.w3.org/1999/xlink" width="15px" height="15px" xmlns="http://www.w3.org/2000/svg">
  <g transform="matrix(1 0 0 1 -20 -11 )">
    <path d="M 0.750000000000011 1.50000000000003  L 7.75575000000002 1.50000000000003  C 7.58582712327424 1.98182007958695  7.499336751714 2.48909498609859  7.5 2.99999999999999  L 1.50000000000002 2.99999999999999  L 1.50000000000002 13.5  L 12 13.5  L 12 7.5  C 12.5109050139014 7.500663248286  13.018179920413 7.41417287672576  13.5 7.24424999999998  L 13.5 14.25  C 13.5 14.6642135623731  13.1642135623731 15  12.75 15  L 0.750000000000011 15  C 0.335786437626897 15  0 14.6642135623731  0 14.25  L 0 2.24999999999997  C 0 1.83578643762692  0.335786437626897 1.50000000000003  0.750000000000011 1.50000000000003  Z M 12 4.50000000000001  C 12.8284271247462 4.50000000000001  13.5 3.82842712474616  13.5 2.99999999999999  C 13.5 2.17157287525382  12.8284271247462 1.50000000000003  12 1.50000000000003  C 11.1715728752538 1.50000000000003  10.5 2.17157287525382  10.5 2.99999999999999  C 10.5 3.82842712474616  11.1715728752538 4.50000000000001  12 4.50000000000001  Z M 12 5.99999999999997  C 10.3431457505076 5.99999999999997  9.00000000000002 4.6568542494924  9.00000000000002 2.99999999999999  C 9.00000000000002 1.34314575050765  10.3431457505076 0  12 0  C 13.6568542494924 0  15 1.34314575050765  15 2.99999999999999  C 15 4.6568542494924  13.6568542494924 5.99999999999997  12 5.99999999999997  Z " fill-rule="nonzero" fill="#ffffff" stroke="none" transform="matrix(1 0 0 1 20 11 )" />
  </g>
</svg>