<?xml version="1.0" encoding="utf-8"?>
<svg version="1.1" xmlns:xlink="http://www.w3.org/1999/xlink" width="13px" height="13px" xmlns="http://www.w3.org/2000/svg">
  <g transform="matrix(1 0 0 1 -20 -216 )">
    <path d="M 1.33333333333333 12.3333333333333  L 0.166666666666667 12.3333333333333  C 0.166666666666667 9.75599166666667  2.25600333333333 7.66666666666667  4.83333333333333 7.66666666666667  C 7.410675 7.66666666666667  9.5 9.75599166666667  9.5 12.3333333333333  L 8.33333333333333 12.3333333333333  C 8.33333333333333 10.4003416666667  6.766325 8.83333333333333  4.83333333333333 8.83333333333333  C 2.90033583333333 8.83333333333333  1.33333333333333 10.4003416666667  1.33333333333333 12.3333333333333  Z M 8.33333333333333 3.58333333333333  C 8.33333333333333 5.51708333333333  6.76708333333333 7.08333333333333  4.83333333333333 7.08333333333333  C 2.89958333333333 7.08333333333333  1.33333333333333 5.51708333333333  1.33333333333333 3.58333333333333  C 1.33333333333333 1.64958333333333  2.89958333333333 0.083333333333333  4.83333333333333 0.083333333333333  C 6.76708333333333 0.083333333333333  8.33333333333333 1.64958333333333  8.33333333333333 3.58333333333333  Z M 2.5 3.58333333333333  C 2.5 4.8725  3.54416666666667 5.91666666666667  4.83333333333333 5.91666666666667  C 6.1225 5.91666666666667  7.16666666666667 4.8725  7.16666666666667 3.58333333333333  C 7.16666666666667 2.29416666666667  6.1225 1.25  4.83333333333333 1.25  C 3.54416666666667 1.25  2.5 2.29416666666667  2.5 3.58333333333333  Z M 9.18663333333333 9.14080833333333  L 9.66549166666667 8.07663333333333  C 11.2875666666667 8.807725  12.4166666666667 10.4386666666667  12.4166666666667 12.3333333333333  L 11.25 12.3333333333333  C 11.25 10.9123333333333  10.403175 9.68914166666667  9.18663333333333 9.14080833333333  Z M 8.94058333333333 2.6245375  L 9.26445 1.49103916666667  C 10.4300666666667 1.97160083333333  11.25 3.1187725  11.25 4.45833333333333  C 11.25 6.13261666666667  9.96911666666667 7.50636666666667  8.33333333333333 7.6536  L 8.33333333333333 6.47935  C 9.323075 6.33795  10.0833333333333 5.48733333333333  10.0833333333333 4.45833333333333  C 10.0833333333333 3.65295416666667  9.6176 2.95685083333333  8.94058333333333 2.6245375  Z " fill-rule="nonzero" fill="#999999" stroke="none" fill-opacity="0.988235294117647" transform="matrix(1 0 0 1 20 216 )" />
  </g>
</svg>