<?xml version="1.0" encoding="utf-8"?>
<svg version="1.1" xmlns:xlink="http://www.w3.org/1999/xlink" width="15px" height="15px" xmlns="http://www.w3.org/2000/svg">
  <g transform="matrix(1 0 0 1 -390 -10 )">
    <path d="M 5.83333333333331 5.83333333333331  L 9.16666666666669 5.83333333333331  L 9.16666666666669 9.16666666666669  L 5.83333333333331 9.16666666666669  L 5.83333333333331 5.83333333333331  Z M 10.8333333333333 9.16666666666669  L 10.8333333333333 5.83333333333331  L 15 5.83333333333331  L 15 9.16666666666669  L 10.8333333333333 9.16666666666669  Z M 9.16666666666669 10.8333333333333  L 9.16666666666669 15  L 5.83333333333331 15  L 5.83333333333331 10.8333333333333  L 9.16666666666669 10.8333333333333  Z M 14.1666666666667 15  L 10.8333333333333 15  L 10.8333333333333 10.8333333333333  L 15 10.8333333333333  L 15 14.1666666666667  C 15 14.6269039581923  14.6269039581923 15  14.1666666666667 15  Z M 5.83333333333331 0  L 9.16666666666669 0  L 9.16666666666669 4.16666666666669  L 5.83333333333331 4.16666666666669  L 5.83333333333331 0  Z M 10.8333333333333 4.16666666666669  L 10.8333333333333 0  L 14.1666666666667 0  C 14.6269039581923 0  15 0.373096041807685  15 0.833333333333314  L 15 4.16666666666669  L 10.8333333333333 4.16666666666669  Z M 0 5.83333333333331  L 4.16666666666669 5.83333333333331  L 4.16666666666669 9.16666666666669  L 0 9.16666666666669  L 0 5.83333333333331  Z M 4.16666666666669 10.8333333333333  L 4.16666666666669 15  L 0.833333333333314 15  C 0.373096041807685 15  0 14.6269039581923  0 14.1666666666667  L 0 10.8333333333333  L 4.16666666666669 10.8333333333333  Z M 0.833333333333314 0  L 4.16666666666669 0  L 4.16666666666669 4.16666666666669  L 0 4.16666666666669  L 0 0.833333333333314  C 0 0.373096041807685  0.373096041807685 0  0.833333333333314 0  Z " fill-rule="nonzero" fill="#ffffff" stroke="none" transform="matrix(1 0 0 1 390 10 )" />
  </g>
</svg>