<?xml version="1.0" encoding="utf-8"?>
<svg version="1.1" xmlns:xlink="http://www.w3.org/1999/xlink" width="18px" height="18px" xmlns="http://www.w3.org/2000/svg">
  <defs>
    <linearGradient gradientUnits="userSpaceOnUse" x1="-8.88178419700125E-16" y1="8.88178419700125E-16" x2="18" y2="18" id="LinearGradient51">
      <stop id="Stop52" stop-color="#00ccff" offset="0" />
      <stop id="Stop53" stop-color="#2561ef" offset="1" />
    </linearGradient>
  </defs>
  <g transform="matrix(1 0 0 1 -508 -21 )">
    <path d="M 0 7.71428571428578  C 0 3.45600000000002  3.45599999999996 0  7.71428571428569 0  C 11.9725714285714 0  15.4285714285715 3.45600000000002  15.4285714285715 7.71428571428578  C 15.4285714285715 11.9725714285714  11.9725714285714 15.4285714285714  7.71428571428569 15.4285714285714  C 3.45599999999996 15.4285714285714  0 11.9725714285714  0 7.71428571428578  Z M 1.71428571428572 7.71428571428578  C 1.71428571428572 11.0288571428571  4.39885714285717 13.7142857142857  7.71428571428569 13.7142857142857  C 11.0288571428571 13.7142857142857  13.7142857142857 11.0288571428571  13.7142857142857 7.71428571428578  C 13.7142857142857 4.39885714285708  11.0288571428571 1.71428571428572  7.71428571428569 1.71428571428572  C 4.39885714285717 1.71428571428572  1.71428571428572 4.39885714285708  1.71428571428572 7.71428571428578  Z M 13.7751428571428 14.9871428571429  L 14.9871428571429 13.7751428571428  L 17.412 16.1991428571429  L 16.1991428571429 17.412  L 13.7751428571428 14.9871428571429  Z " fill-rule="nonzero" fill="url(#LinearGradient51)" stroke="none" transform="matrix(1 0 0 1 508 21 )" />
  </g>
</svg>