<?xml version="1.0" encoding="utf-8"?>
<svg version="1.1" xmlns:xlink="http://www.w3.org/1999/xlink" width="24px" height="24px" xmlns="http://www.w3.org/2000/svg">
  <g transform="matrix(1 0 0 1 -140 -48 )">
    <path d="M 6.00000008345634 16.8  C 6.00000008345634 13.4862915010153  8.68629157201664 10.8  12.0000000556376 10.8  C 15.3137085392584 10.8  18.0000000278187 13.4862915010153  18.0000000278187 16.8  L 18.0000000278187 24  L 6.00000008345634 24  L 6.00000008345634 16.8  Z M 3.94680009297591 14.4072  L 3.94560009298149 14.4072  C 3.75462925659266 15.0513436007801  3.64181927261265 15.7161167237444  3.60960009453933 16.3872  L 3.60000009458383 16.8  L 3.60000009458383 24  L 0 24  L 0 18.6  C -0.000489154957847404 16.456985115445  1.6125202292869 14.6572824276613  3.74280009392174 14.424  L 3.94680009297591 14.4072  Z M 20.4000000166913 16.8  C 20.4000000166913 15.9684  20.2800000172477 15.1656  20.0544000182936 14.4072  C 22.2710450823062 14.5423104162767  23.9996736030756 16.3792410974116  24 18.6  L 24 24  L 20.4000000166913 24  L 20.4000000166913 16.8  Z M 4.20000009180197 7.20000000000001  C 5.85685433361243 7.20000000000001  7.20000007789261 8.54314575050763  7.20000007789261 10.2  C 7.20000007789261 11.8568542494924  5.85685433361243 13.2  4.20000009180197 13.2  C 2.54314584999159 13.2  1.20000010571135 11.8568542494924  1.20000010571135 10.2  C 1.20000010571135 8.54314575050763  2.54314584999159 7.20000000000001  4.20000009180197 7.20000000000001  Z M 19.8000000194732 7.20000000000001  C 21.4568542612836 7.20000000000001  22.8000000055637 8.54314575050763  22.8000000055637 10.2  C 22.8000000055637 11.8568542494924  21.4568542612836 13.2  19.8000000194732 13.2  C 18.1431457776627 13.2  16.8000000333825 11.8568542494924  16.8000000333825 10.2  C 16.8000000333825 8.54314575050763  18.1431457776627 7.20000000000001  19.8000000194732 7.20000000000001  Z M 12.0000000556376 0  C 14.6509668425343 0  16.8000000333825 2.14903320081221  16.8000000333825 4.79999999999999  C 16.8000000333825 7.45096679918781  14.6509668425343 9.59999999999999  12.0000000556376 9.59999999999999  C 9.34903326874084 9.59999999999999  7.20000007789261 7.45096679918781  7.20000007789261 4.79999999999999  C 7.20000007789261 2.14903320081221  9.34903326874084 0  12.0000000556376 0  Z " fill-rule="nonzero" fill="#28d094" stroke="none" transform="matrix(1 0 0 1 140 48 )" />
  </g>
</svg>