<?xml version="1.0" encoding="utf-8"?>
<svg version="1.1" xmlns:xlink="http://www.w3.org/1999/xlink" width="15px" height="15px" xmlns="http://www.w3.org/2000/svg">
  <g transform="matrix(1 0 0 1 -260 -10 )">
    <path d="M 14.1176468695734 5.87450980392157  L 14.1176468695734 14.1176470588235  C 14.1176468695734 14.5508115684947  13.7664976631689 14.9019607843137  13.333333165111 15  L 0.784313893712522 15  C 0.351149395654659 14.9019607843137  0 14.5508115684947  0 14.1176470588235  L 0 5.87450980392157  C -0.000167847825935041 5.63230768473997  0.111573601175053 5.40361403946145  0.302745279172541 5.25490196078431  L 6.57725491487184 0.374901960784314  C 6.86049694905245 0.154568391427304  7.25715010977109 0.154568391427306  7.54039214395169 0.374901960784314  L 13.814901779651 5.25490196078431  C 14.0060734576485 5.40361403946145  14.1178149066495 5.63230768473997  14.1176468695734 5.87450980392157  Z M 7.84313723387419 8.62745098039215  L 6.2745098249494 8.62745098039215  L 6.2745098249494 13.3333333333333  L 7.84313723387419 13.3333333333333  L 7.84313723387419 8.62745098039215  Z " fill-rule="nonzero" fill="#ffffff" stroke="none" transform="matrix(1 0 0 1 260 10 )" />
  </g>
</svg>