<?xml version="1.0" encoding="utf-8"?>
<svg version="1.1" xmlns:xlink="http://www.w3.org/1999/xlink" width="22px" height="22px" xmlns="http://www.w3.org/2000/svg">
  <g transform="matrix(1 0 0 1 -49 -48 )">
    <path d="M 8.60000000000002 12.2  C 6.97662056158634 12.199934132478  5.55388841480578 13.2860267212121  5.12599999999998 14.852  C 6.49870485799852 15.3961475625936  7.40012847841706 16.7231409205093  7.40012847841706 18.1997638233011  C 7.40012847841706 20.1886516643917  5.78781631950773 21.8009638233011  3.79892847841705 21.8009638233011  C 1.81004063732644 21.8009638233011  0.197728478417105 20.1886516643917  0.197728478417105 18.1997638233011  C 0.197728478417105 16.6730637123811  1.16039292300007 15.3122761970967  2.60000000000002 14.804  L 2.60000000000002 7.19600000000003  C 1.16094663946939 6.68740852297174  0.198800000000006 5.32689770716672  0.198800000000006 3.80061468460502  C 0.198800000000006 1.81172684351435  1.81111215890934 0.199414684605017  3.80000000000001 0.199414684605017  C 5.78888784109063 0.199414684605017  7.40120000000002 1.81172684351435  7.40120000000002 3.80061468460502  C 7.40120000000002 5.32689770716672  6.43905336053064 6.68740852297174  5 7.19600000000003  L 5 11  C 6.00319999999999 10.2464  7.24880000000002 9.80000000000001  8.60000000000002 9.80000000000001  L 13.4 9.80000000000001  C 15.0233794384137 9.80006586752199  16.4461115851942 8.71397327878793  16.874 7.14800000000002  C 15.5006593449395 6.60417258812214  14.5986658739312 5.27685457564388  14.5986658739312 3.79975850268465  C 14.5986658739312 1.81087066159398  16.2109780328406 0.198558502684648  18.1998658739312 0.198558502684648  C 20.1887537150218 0.198558502684648  21.8010658739312 1.81087066159398  21.8010658739312 3.79975850268465  C 21.8010658739312 5.36000833833219  20.796327700009 6.742785341733  19.3124 7.22480000000002  C 18.8134624672641 10.1001800186535  16.3183469407529 12.1997840318289  13.4 12.2  L 8.60000000000002 12.2  Z " fill-rule="nonzero" fill="#6c76f4" stroke="none" transform="matrix(1 0 0 1 49 48 )" />
  </g>
</svg>