<?xml version="1.0" encoding="utf-8"?>
<svg version="1.1" xmlns:xlink="http://www.w3.org/1999/xlink" width="14px" height="18px" xmlns="http://www.w3.org/2000/svg">
  <g transform="matrix(1 0 0 1 -39 -24 )">
    <path d="M 13.58823528617 6.58823528201369  L 13.58823528617 13.725764673695  L 13.917647057234 14.1647058424967  C 13.9711032286206 14.2359807357546  14 14.3226710479756  14 14.411764665331  C 14 14.6391760287152  13.8156466646179 14.8235293636209  13.5882353006461 14.8235293636209  L 0.411764713830017 14.8235293636209  C 0.184353335382086 14.8235293636209  0 14.6391760287152  0 14.411764665331  C 0 14.3226710479756  0.028896771379392 14.2359807357546  0.0823529427660041 14.1647058424967  L 0.411764713830017 13.725764673695  L 0.411764713830017 6.58823528201369  C 0.411764713830019 2.94965341456696  3.36141812315121 0  7 0  C 10.6385818768488 0  13.58823528617 2.94965341456696  13.58823528617 6.58823528201369  Z M 4.94117646462749 15.6470587795022  L 9.05882353537251 15.6470587795022  C 9.05882353537251 16.7841156611295  8.13705684117895 17.7058823529412  7 17.7058823529412  C 5.86294315882104 17.7058823529412  4.94117646462749 16.7841156611295  4.94117646462749 15.6470588228886  Z " fill-rule="nonzero" fill="#ffffff" stroke="none" transform="matrix(1 0 0 1 39 24 )" />
  </g>
</svg>