<?xml version="1.0" encoding="utf-8"?>
<svg version="1.1" xmlns:xlink="http://www.w3.org/1999/xlink" width="22px" height="20px" xmlns="http://www.w3.org/2000/svg">
  <g transform="matrix(1 0 0 1 -324 -48 )">
    <path d="M 0 18.75  L 0 1.25  C 0 0.55965  0.44772 0  1 0  L 21 0  C 21.5523 0  22 0.55965  22 1.25  L 22 18.75  C 22 19.440375  21.5523 20  21 20  L 1 20  C 0.44772 20  0 19.440375  0 18.75  Z M 18 5  L 12 5  L 12 7.5  L 18 7.5  L 18 5  Z M 17 12.5  L 17 10  L 12 10  L 12 12.5  L 17 12.5  Z M 7 10.625  C 8.38071 10.625  9.5 9.225875  9.5 7.5  C 9.5 5.7741125  8.38071 4.375  7 4.375  C 5.61929 4.375  4.5 5.7741125  4.5 7.5  C 4.5 9.225875  5.61929 10.625  7 10.625  Z M 10.5 16.25  C 10.5 13.83375  8.933 11.875  7 11.875  C 5.067 11.875  3.5 13.83375  3.5 16.25  L 10.5 16.25  Z " fill-rule="nonzero" fill="#95f204" stroke="none" transform="matrix(1 0 0 1 324 48 )" />
  </g>
</svg>