<?xml version="1.0" encoding="utf-8"?>
<svg version="1.1" xmlns:xlink="http://www.w3.org/1999/xlink" width="20px" height="18px" xmlns="http://www.w3.org/2000/svg">
  <g transform="matrix(1 0 0 1 -233 -49 )">
    <path d="M 0 9  L 9.1115 9  C 9.5662 11.004  11.3584 12.5  13.5 12.5  C 15.6416 12.5  17.4338 11.004  17.8885 9  L 20 9  L 20 17  C 20 17.5523  19.5523 18  19 18  L 1 18  C 0.44772 18  0 17.5523  0 17  L 0 9  Z M 3 15  L 3 13  L 5 13  L 5 15  L 3 15  Z M 16 8  C 16 9.3807  14.8807 10.5  13.5 10.5  C 12.1193 10.5  11 9.3807  11 8  C 11 6.61929  12.1193 5.5  13.5 5.5  C 14.8807 5.5  16 6.61929  16 8  Z M 13.5 3.5  C 11.3584 3.5  9.5662 4.99601  9.1115 7  L 0 7  L 0 1  C 0 0.44772  0.44772 0  1 0  L 19 0  C 19.5523 0  20 0.44772  20 1  L 20 7  L 17.8885 7  C 17.4338 4.99601  15.6416 3.5  13.5 3.5  Z " fill-rule="nonzero" fill="#0000ff" stroke="none" fill-opacity="0.988235294117647" transform="matrix(1 0 0 1 233 49 )" />
  </g>
</svg>