<?xml version="1.0" encoding="utf-8"?>
<svg version="1.1" xmlns:xlink="http://www.w3.org/1999/xlink" width="23px" height="22px" xmlns="http://www.w3.org/2000/svg">
  <g transform="matrix(1 0 0 1 -141 -143 )">
    <path d="M 3.76740000000001 2.80059999999997  L 3.76740000000001 2.79950000000002  C 4.89680350952739 1.7878085409323  6.22335374198246 1.02079135401306  7.66359999999997 0.546699999999987  C 8.49783349620577 1.59183104173974  9.7627478833316 2.19999410494813  11.1 2.19889999999998  C 12.4372521166684 2.19999410494813  13.7021665037942 1.59183104173974  14.5364 0.546699999999987  C 15.9766462580175 1.02079135401306  17.3031964904726 1.7878085409323  18.4326 2.79950000000002  C 17.9457386782374 4.04387342793785  18.0518076686507 5.44220279010364  18.7208 6.59890000000001  C 19.3883996721136 7.75783016174177  20.5476691190421 8.54943748578825  21.8701 8.74939999999998  C 22.1787014905594 10.2331906586689  22.1787014905594 11.764609341331  21.8701 13.2484  C 20.5941 13.4442  19.4171 14.1944  18.7208 15.3989  C 18.0514588445296 16.5558886333583  17.9453834616714 17.954707136316  18.4326 19.1994  C 17.3030977121745 20.2106971369431  15.9765544316492 20.9773357860778  14.5364 21.4511  C 13.7019476199563 20.4063811118623  12.4370663697526 19.7986388722478  11.1 19.8  C 9.7627478833316 19.7989058950519  8.49783349620577 20.4070689582603  7.66359999999997 21.4522  C 6.22344556835077 20.9784357860778  4.89690228782547 20.2117971369431  3.76740000000001 19.2005  C 4.25461653832855 17.955807136316  4.14854115547041 16.5569886333583  3.47919999999999 15.4  C 2.81135400852293 14.241490450135  1.65212409434434 13.4503150214571  0.329900000000009 13.2506  C 0.0211459699826264 11.7664544887793  0.0211459699826264 10.2346455112207  0.329900000000009 8.75049999999999  C 1.65233088095789 8.55053748578825  2.81160032788637 7.75893016174177  3.47919999999999 6.60000000000002  C 4.14819233134926 5.44330279010364  4.25426132176256 4.0449734279378  3.76740000000001 2.80059999999997  Z M 11.1189569177087 14.2879548973968  C 11.690820632992 14.2879548973968  12.2528693234619 14.1393467747959  12.75 13.8567  C 13.7816924030358 13.2701247913845  14.4189569177087 12.1747403412932  14.4189569177087 10.9879548973968  C 14.4189569177087 9.16541522295523  12.9414965921503 7.68795489739682  11.1189569177087 7.68795489739682  C 10.5322469837367 7.68795489739682  9.9561448632968 7.84437466576037  9.44999999999999 8.14109999999999  C 8.43967323990097 8.73339988748472  7.81895691770865 9.81681044905298  7.81895691770865 10.9879548973968  C 7.81895691770865 12.8104945718385  9.29641724326706 14.2879548973968  11.1189569177087 14.2879548973968  Z " fill-rule="nonzero" fill="#fddb78" stroke="none" transform="matrix(1 0 0 1 141 143 )" />
  </g>
</svg>