<?xml version="1.0" encoding="utf-8"?>
<svg version="1.1" xmlns:xlink="http://www.w3.org/1999/xlink" width="20px" height="20px" xmlns="http://www.w3.org/2000/svg">
  <g transform="matrix(1 0 0 1 -415 -47 )">
    <path d="M 17.1428571428571 4.54545454545454  L 12.3809523809524 0  L 0.952380952380952 0  C 0.4264 0  0 0.407018181818182  0 0.909090909090909  L 0 17.2727272727273  C 0 17.7748181818182  0.4264 18.1818181818182  0.952380952380952 18.1818181818182  L 8.814 18.1818181818182  C 8.06076190476191 17.1510909090909  7.61904761904762 15.8974545454545  7.61904761904762 14.5454545454545  C 7.61904761904762 11.0309090909091  10.6038095238095 8.18181818181818  14.2857142857143 8.18181818181818  C 15.3081904761905 8.18181818181818  16.2768571428571 8.40154545454545  17.1428571428571 8.79418181818182  L 17.1428571428571 4.54545454545454  Z M 10.2275238095238 12.9101818181818  L 10.2720952380952 12.1153636363636  C 10.3091428571429 11.4542727272727  10.843619047619 10.9166363636364  11.5333333333333 10.8466363636364  L 12.3625714285714 10.7626363636364  C 12.4610476190476 10.7526363636364  12.5538095238095 10.7131818181818  12.6275238095238 10.65  L 13.2478095238095 10.1180909090909  C 13.7637142857143 9.67554545454546  14.5399047619048 9.65618181818182  15.0794285714286 10.0722727272727  L 15.7280952380952 10.5725454545455  C 15.8051428571429 10.6319090909091  15.8999047619048 10.6666363636364  15.9988571428571 10.6717272727273  L 16.8315238095238 10.7142727272727  C 17.5240952380952 10.7496363636364  18.0873333333333 11.2598181818182  18.1606666666667 11.9181818181818  L 18.2486666666667 12.7097272727273  C 18.2591428571429 12.8037272727273  18.3004761904762 12.8922727272727  18.3666666666667 12.9626363636364  L 18.9239047619048 13.5547272727273  C 19.3875238095238 14.0471818181818  19.4078095238095 14.7880909090909  18.9719047619048 15.3030909090909  L 18.4478095238095 15.9222727272727  C 18.385619047619 15.9958181818182  18.3492380952381 16.0862727272727  18.3439047619048 16.1807272727273  L 18.2993333333333 16.9755454545455  C 18.2622857142857 17.6366363636364  17.7278095238095 18.1742727272727  17.0380952380952 18.2442727272727  L 16.2088571428571 18.3282727272727  C 16.110380952381 18.3382727272727  16.017619047619 18.3777272727273  15.9439047619048 18.4409090909091  L 15.323619047619 18.9728181818182  C 14.8077142857143 19.4153636363636  14.0315238095238 19.4347272727273  13.492 19.0186363636364  L 12.8433333333333 18.5183636363636  C 12.7662857142857 18.459  12.6715238095238 18.4242727272727  12.5725714285714 18.4191818181818  L 11.7399047619048 18.3766363636364  C 11.0473333333333 18.3412727272727  10.4840952380952 17.8310909090909  10.4107619047619 17.1727272727273  L 10.3227619047619 16.3811818181818  C 10.3122857142857 16.2871818181818  10.2709523809524 16.1986363636364  10.2047619047619 16.1282727272727  L 9.64752380952381 15.5361818181818  C 9.18390476190476 15.0437272727273  9.16361904761905 14.3027272727273  9.59952380952381 13.7878181818182  L 10.123619047619 13.1686363636364  C 10.1858095238095 13.0950909090909  10.2221904761905 13.0046363636364  10.2275238095238 12.9101818181818  Z M 14.3145714285714 16.3911818181818  L 17.1717142857143 13.6639090909091  L 16.161619047619 12.6997272727273  L 13.8095238095238 14.9448181818182  L 12.4098095238095 13.6088181818182  L 11.3997142857143 14.573  L 13.3044761904762 16.3911818181818  L 13.8095238095238 16.8733636363636  L 14.3145714285714 16.3911818181818  Z " fill-rule="nonzero" fill="#8400ff" stroke="none" transform="matrix(1 0 0 1 415 47 )" />
  </g>
</svg>