<?xml version="1.0" encoding="utf-8"?>
<svg version="1.1" xmlns:xlink="http://www.w3.org/1999/xlink" width="22px" height="22px" xmlns="http://www.w3.org/2000/svg">
  <g transform="matrix(1 0 0 1 -50 -144 )">
    <path d="M 0 1.16107894736842  C 0.00511238095238095 0.521585263157895  0.474152380952381 0.00318421052631557  1.05273142857143 0  L 19.9098952380952 0  C 20.4884952380952 0.00318421052631557  20.9575142857143 0.521585263157895  21 1.16107894736842  L 21 19.6873368421053  C 20.9575142857143 20.3268421052632  20.4884952380952 20.8452315789474  19.9098952380952 20.8452315789474  L 1.05273142857143 20.8452315789474  C 0.474152380952381 20.8452315789474  0.00511238095238095 20.3268421052632  0 19.6873368421053  L 0 1.16107894736842  Z M 14.6718 11.5820736842105  L 11.5289428571429 11.5820736842105  L 11.5289428571429 10.4241789473684  L 14.6718 10.4241789473684  L 14.6718 8.10838947368421  L 11.9628666666667 8.10838947368421  L 14.185180952381 5.65218210526316  L 12.7036380952381 4.01466421052632  L 10.4813238095238 6.47092947368421  L 8.25896761904762 4.01466421052632  L 6.77741428571429 5.65218210526316  L 8.99978095238095 8.10838947368421  L 6.29082666666667 8.10838947368421  L 6.29082666666667 10.4241789473684  L 9.43370476190476 10.4241789473684  L 9.43370476190476 11.5820736842105  L 6.29082666666667 11.5820736842105  L 6.29082666666667 13.8978631578947  L 9.43370476190476 13.8978631578947  L 9.43370476190476 16.2136526315789  L 11.5289428571429 16.2136526315789  L 11.5289428571429 13.8978631578947  L 14.6718 13.8978631578947  L 14.6718 11.5820736842105  Z " fill-rule="nonzero" fill="#d9001b" stroke="none" transform="matrix(1 0 0 1 50 144 )" />
  </g>
</svg>