<?xml version="1.0" encoding="utf-8"?>
<svg version="1.1" xmlns:xlink="http://www.w3.org/1999/xlink" width="18px" height="18px" xmlns="http://www.w3.org/2000/svg">
  <g transform="matrix(1 0 0 1 -33 -91 )">
    <path d="M 18 15.3000000021094  C 18 16.7911688254875  16.7911688254875 18  15.3000000021094 18  L 2.69999999789063 18  C 1.20883117451245 18  0 16.7911688254875  0 15.3000000021094  L 0 0.900000006328185  C 0 0.40294372798553  0.40294372798548 0  0.900000006328121 0  L 13.4999999894531 0  C 13.9970562677958 0  14.3999999957813 0.40294372798553  14.3999999957813 0.900000006328185  L 14.3999999957813 7.20000000843743  L 18 7.20000000843743  L 18 15.3000000021094  Z M 16.1999999873438 9  L 14.3999999957813 9  L 14.3999999957813 15.3000000021094  C 14.4000760834301 15.7970024675633  14.8029975202844 16.1998622246468  15.2999999915625 16.1998622246468  C 15.7970024628407 16.1998622246468  16.1999238996949 15.7970024675633  16.1999999873438 15.3000000021094  L 16.1999999873438 9  Z M 8.09999999367189 3.60000000421877  L 2.69999999789063 3.60000000421877  L 2.69999999789063 9  L 8.09999999367189 9  L 8.09999999367189 3.60000000421877  Z M 11.6999999978906 9.90000000632818  L 2.69999999789063 9.90000000632818  L 2.69999999789063 11.6999999978906  L 11.6999999978906 11.6999999978906  L 11.6999999978906 9.90000000632818  Z M 11.6999999978906 12.6000000042188  L 2.69999999789063 12.6000000042188  L 2.69999999789063 14.3999999957812  L 11.6999999978906 14.3999999957812  L 11.6999999978906 12.6000000042188  Z M 4.50000001054688 7.20000000843743  L 4.50000001054688 5.39999999578123  L 6.30000000210937 5.39999999578123  L 6.30000000210937 7.20000000843743  L 4.50000001054688 7.20000000843743  Z " fill-rule="nonzero" fill="#ffffff" stroke="none" transform="matrix(1 0 0 1 33 91 )" />
  </g>
</svg>