<?xml version="1.0" encoding="utf-8"?>
<svg version="1.1" xmlns:xlink="http://www.w3.org/1999/xlink" width="410px" height="72px" xmlns="http://www.w3.org/2000/svg">
  <defs>
    <filter x="20px" y="62px" width="410px" height="72px" filterUnits="userSpaceOnUse" id="filter180">
      <feOffset dx="0" dy="0" in="SourceAlpha" result="shadowOffsetInner" />
      <feGaussianBlur stdDeviation="2.5" in="shadowOffsetInner" result="shadowGaussian" />
      <feComposite in2="shadowGaussian" operator="atop" in="SourceAlpha" result="shadowComposite" />
      <feColorMatrix type="matrix" values="0 0 0 0 0.949019607843137  0 0 0 0 0.949019607843137  0 0 0 0 0.949019607843137  0 0 0 1 0  " in="shadowComposite" />
    </filter>
    <g id="widget181">
      <path d="M 25.5 71  A 3.5 3.5 0 0 1 29 67.5 L 421 67.5  A 3.5 3.5 0 0 1 424.5 71 L 424.5 125  A 3.5 3.5 0 0 1 421 128.5 L 29 128.5  A 3.5 3.5 0 0 1 25.5 125 L 25.5 71  Z " fill-rule="nonzero" fill="#2561ef" stroke="none" fill-opacity="0.0784313725490196" />
      <path d="M 25.5 71  A 3.5 3.5 0 0 1 29 67.5 L 421 67.5  A 3.5 3.5 0 0 1 424.5 71 L 424.5 125  A 3.5 3.5 0 0 1 421 128.5 L 29 128.5  A 3.5 3.5 0 0 1 25.5 125 L 25.5 71  Z " stroke-width="1" stroke="#2561ef" fill="none" />
    </g>
  </defs>
  <g transform="matrix(1 0 0 1 -20 -62 )">
    <use xlink:href="#widget181" filter="url(#filter180)" />
    <use xlink:href="#widget181" />
  </g>
</svg>