<svg width="500" height="300" viewBox="0 0 500 300" fill="none" xmlns="http://www.w3.org/2000/svg">
<path d="M87.5244 143V113.68H91.2044V125.96H104.884V113.68H108.604V143H104.884V129.16H91.2044V143H87.5244ZM116.266 143V121.28H119.946V143H116.266ZM118.106 116.8C116.666 116.8 115.706 115.84 115.706 114.36C115.706 112.96 116.666 112 118.106 112C119.546 112 120.546 112.96 120.546 114.36C120.546 115.84 119.546 116.8 118.106 116.8ZM134.602 153C129.322 153 125.642 150.92 125.642 147.2C125.642 145.32 126.802 143.52 128.842 142.28V142.08C127.722 141.4 126.882 140.24 126.882 138.52C126.882 136.72 128.122 135.28 129.282 134.48V134.32C127.842 133.2 126.442 131.08 126.442 128.48C126.442 123.72 130.202 120.72 134.562 120.72C135.802 120.72 136.882 120.96 137.642 121.28H145.202V124.08H140.762C141.802 125.08 142.522 126.68 142.522 128.56C142.522 133.2 139.042 136.12 134.562 136.12C133.522 136.12 132.322 135.84 131.362 135.36C130.562 136.04 129.962 136.76 129.962 137.96C129.962 139.32 130.842 140.32 133.762 140.32H138.042C143.042 140.32 145.602 141.88 145.602 145.48C145.602 149.52 141.322 153 134.602 153ZM134.562 133.64C137.082 133.64 139.202 131.64 139.202 128.48C139.202 125.28 137.162 123.4 134.562 123.4C132.042 123.4 129.962 125.28 129.962 128.48C129.962 131.64 132.082 133.64 134.562 133.64ZM135.122 150.48C139.322 150.48 142.002 148.32 142.002 146.08C142.002 144.04 140.482 143.32 137.602 143.32H133.842C133.042 143.32 132.002 143.24 131.042 143C129.482 144.12 128.842 145.44 128.842 146.68C128.842 149 131.162 150.48 135.122 150.48ZM149.86 143V111.16H153.54V119.88L153.38 124.36C155.38 122.36 157.62 120.72 160.58 120.72C165.14 120.72 167.22 123.72 167.22 129.24V143H163.58V129.72C163.58 125.64 162.34 123.92 159.46 123.92C157.22 123.92 155.7 125.04 153.54 127.24V143H149.86ZM182.717 143.52C176.957 143.52 172.557 139.36 172.557 132.16C172.557 124.92 177.397 120.72 182.997 120.72C185.837 120.72 187.797 121.92 189.317 123.28L187.477 125.68C186.237 124.56 184.837 123.8 183.157 123.8C179.197 123.8 176.317 127.16 176.317 132.16C176.317 137.16 179.037 140.48 183.037 140.48C185.037 140.48 186.797 139.52 188.157 138.32L189.757 140.8C187.797 142.48 185.317 143.52 182.717 143.52ZM194.547 143V111.16H198.227V119.88L198.067 124.36C200.067 122.36 202.307 120.72 205.267 120.72C209.827 120.72 211.907 123.72 211.907 129.24V143H208.267V129.72C208.267 125.64 207.027 123.92 204.147 123.92C201.907 123.92 200.387 125.04 198.227 127.24V143H194.547ZM223.844 143.52C220.204 143.52 217.524 141.28 217.524 137.36C217.524 132.64 221.604 130.28 230.844 129.24C230.844 126.44 229.924 123.76 226.364 123.76C223.844 123.76 221.564 124.92 219.844 126.08L218.444 123.56C220.404 122.28 223.444 120.72 226.964 120.72C232.284 120.72 234.484 124.24 234.484 129.64V143H231.484L231.164 140.4H231.044C228.964 142.12 226.524 143.52 223.844 143.52ZM224.884 140.56C226.964 140.56 228.724 139.6 230.844 137.72V131.68C223.524 132.52 221.044 134.32 221.044 137.12C221.044 139.6 222.724 140.56 224.884 140.56ZM241.383 143V121.28H244.383L244.743 125.24H244.823C246.343 122.48 248.583 120.72 250.983 120.72C251.943 120.72 252.623 120.84 253.303 121.2L252.623 124.36C251.903 124.12 251.423 124 250.503 124C248.703 124 246.503 125.36 245.063 129.04V143H241.383ZM263.691 143.52C259.091 143.52 257.531 140.64 257.531 136.28V124.24H254.291V121.48L257.731 121.28L258.131 115.16H261.171V121.28H267.091V124.24H261.171V136.4C261.171 139.04 262.011 140.56 264.531 140.56C265.331 140.56 266.291 140.28 267.011 139.96L267.731 142.72C266.491 143.12 265.051 143.52 263.691 143.52ZM277.219 143.52C274.139 143.52 271.179 142.24 269.139 140.52L270.899 138.08C272.819 139.64 274.739 140.68 277.339 140.68C280.219 140.68 281.619 139.16 281.619 137.28C281.619 135.08 279.059 134.04 276.659 133.16C273.619 132.04 270.339 130.6 270.339 126.88C270.339 123.44 273.059 120.72 277.819 120.72C280.499 120.72 282.899 121.84 284.539 123.2L282.779 125.48C281.299 124.4 279.779 123.56 277.859 123.56C275.099 123.56 273.819 125 273.819 126.72C273.819 128.76 276.059 129.56 278.499 130.48C281.659 131.68 285.099 132.96 285.099 137.08C285.099 140.6 282.339 143.52 277.219 143.52ZM318.396 114.36H332.036V145.28H329.036V142.64H321.276V145.6H318.396V114.36ZM321.276 139.76H329.036V117.28H321.276V139.76ZM303.316 109.92H306.276L306.196 117H315.116C315.116 117 315.116 118.08 315.116 118.52C314.796 136.32 314.516 142.16 313.276 143.88C312.556 144.92 311.796 145.28 310.636 145.44C309.516 145.6 307.676 145.56 305.876 145.44C305.796 144.56 305.516 143.28 304.996 142.44C306.876 142.6 308.596 142.6 309.316 142.6C309.916 142.64 310.316 142.48 310.676 141.96C311.516 140.8 311.876 135.32 312.196 119.92H306.116C305.756 130.76 304.356 140.36 298.956 146.24C298.476 145.56 297.396 144.64 296.636 144.16C301.676 138.88 302.916 130 303.196 119.92H297.636V117H303.276L303.316 109.92ZM364.956 111.64L367.116 110.24C368.956 111.68 371.116 113.8 372.116 115.28L369.836 116.88C368.916 115.4 366.796 113.2 364.956 111.64ZM369.076 122.96L371.756 123.76C370.316 128.72 368.316 133.44 365.716 137.56C366.836 141 368.316 142.96 370.036 142.96C371.036 142.96 371.436 141.16 371.676 136.48C372.276 137.16 373.316 137.76 374.036 138.04C373.556 144.04 372.556 145.88 369.756 145.88C367.156 145.88 365.156 143.88 363.676 140.44C361.956 142.64 360.036 144.64 357.916 146.28C357.396 145.64 356.516 144.76 355.796 144.24C358.356 142.4 360.596 140 362.556 137.2C361.356 132.88 360.596 127.24 360.196 120.88H337.676V118.44H347.356V115H339.716V112.6H347.356V109.36H350.236V112.6H357.316V115H350.236V118.44H360.076C359.956 115.56 359.876 112.52 359.876 109.44H362.836C362.796 112.6 362.836 115.6 362.956 118.44H373.556V120.88H363.076C363.396 125.88 363.916 130.24 364.676 133.76C366.556 130.44 368.036 126.76 369.076 122.96ZM338.116 139.32L348.836 138.44V134.44H343.596C341.916 134.44 340.716 134.68 340.356 135C340.196 134.4 339.796 133 339.436 132.24C340.036 132.12 340.636 131.32 341.276 130.24C341.596 129.76 342.156 128.72 342.836 127.36H338.276V124.88H343.956C344.476 123.64 344.996 122.28 345.396 120.96L348.356 121.76C347.956 122.8 347.516 123.84 347.036 124.88H358.836V127.36H345.836C344.996 129 344.156 130.52 343.276 131.84H348.836V128.6H351.636V131.84H357.996V134.44H351.636V138.2L358.916 137.52V140L351.636 140.76V146.04H348.836V141.04L338.436 142.12L338.116 139.32ZM383.356 113.8V119.44H390.156V113.8H383.356ZM400.396 113.8V119.44H407.596V113.8H400.396ZM400.076 123.64L401.636 122.04C403.676 122.76 406.236 124 407.556 125.04L406.476 126.2H413.476V128.88H402.516C405.556 131.48 410.036 133.64 414.396 134.68C413.716 135.24 412.876 136.36 412.476 137.08L410.516 136.44V145.96H407.596V145.04H400.476V146.2H397.716V133.84H405.076C402.676 132.44 400.476 130.72 398.796 128.88H391.356C389.716 130.64 387.716 132.32 385.356 133.84H392.996V145.96H390.116V145.04H383.436V146.2H380.636V136.4L378.396 137.36C378.076 136.68 377.316 135.64 376.716 135.08C381.156 133.44 384.716 131.28 387.436 128.88H377.596V126.2H390.076C391.196 124.84 392.116 123.44 392.756 122.04H380.636V111.2H392.996V121.72L395.956 122.28C395.316 123.6 394.516 124.92 393.596 126.2H405.116C403.756 125.28 401.756 124.28 400.076 123.64ZM397.636 111.2H410.516V122.04H397.636V111.2ZM383.436 142.4H390.116V136.48H383.436V142.4ZM400.476 142.4H407.596V136.48H400.476V142.4Z" fill="#999999"/>
<path d="M181.69 172L185.19 161.752H186.464L189.978 172H188.746L187.724 168.78H183.888L182.852 172H181.69ZM184.196 167.856H187.43L186.898 166.19C186.506 165.028 186.184 163.922 185.834 162.718H185.778C185.442 163.922 185.106 165.028 184.728 166.19L184.196 167.856ZM190.197 172L192.703 168.052L190.393 164.44H191.639L192.689 166.162C192.927 166.582 193.193 166.988 193.459 167.422H193.515C193.753 166.988 193.977 166.582 194.215 166.162L195.195 164.44H196.385L194.075 168.164L196.581 172H195.335L194.173 170.166C193.921 169.704 193.627 169.242 193.333 168.808H193.263C192.997 169.242 192.745 169.704 192.479 170.166L191.401 172H190.197ZM198.112 172V160.856H199.26V163.95L199.218 165.532C199.932 164.818 200.716 164.244 201.752 164.244C203.334 164.244 204.062 165.266 204.062 167.198V172H202.914V167.338C202.914 165.882 202.466 165.238 201.416 165.238C200.618 165.238 200.044 165.658 199.26 166.456V172H198.112ZM208.732 172.182C207.15 172.182 206.422 171.174 206.422 169.242V164.44H207.57V169.102C207.57 170.558 208.018 171.188 209.068 171.188C209.866 171.188 210.44 170.782 211.196 169.858V164.44H212.33V172H211.392L211.294 170.796H211.252C210.538 171.622 209.782 172.182 208.732 172.182ZM218.204 172.182C217.504 172.182 216.692 171.818 216.034 171.216H215.978L215.866 172H214.956V160.856H216.104V163.95L216.048 165.336C216.762 164.734 217.616 164.244 218.484 164.244C220.458 164.244 221.494 165.77 221.494 168.094C221.494 170.684 219.94 172.182 218.204 172.182ZM218.036 171.216C219.352 171.216 220.318 170.026 220.318 168.122C220.318 166.386 219.73 165.21 218.218 165.21C217.56 165.21 216.86 165.588 216.104 166.288V170.39C216.79 171.006 217.518 171.216 218.036 171.216ZM226.784 172V161.752H227.946V171.02H232.482V172H226.784ZM236.912 172.182C235.064 172.182 233.44 170.726 233.44 168.234C233.44 165.7 235.064 164.244 236.912 164.244C238.76 164.244 240.384 165.7 240.384 168.234C240.384 170.726 238.76 172.182 236.912 172.182ZM236.912 171.23C238.284 171.23 239.222 170.026 239.222 168.234C239.222 166.428 238.284 165.21 236.912 165.21C235.554 165.21 234.616 166.428 234.616 168.234C234.616 170.026 235.554 171.23 236.912 171.23ZM243.939 172.182C242.693 172.182 241.741 171.426 241.741 170.054C241.741 168.402 243.183 167.59 246.431 167.226C246.445 166.204 246.123 165.196 244.821 165.196C243.911 165.196 243.099 165.63 242.525 166.036L242.077 165.224C242.721 164.804 243.785 164.244 245.003 164.244C246.837 164.244 247.565 165.49 247.565 167.31V172H246.641L246.529 171.076H246.487C245.759 171.692 244.891 172.182 243.939 172.182ZM244.247 171.258C245.003 171.258 245.661 170.894 246.431 170.208V167.996C243.757 168.304 242.847 168.948 242.847 169.984C242.847 170.894 243.477 171.258 244.247 171.258ZM252.586 172.182C250.682 172.182 249.464 170.754 249.464 168.234C249.464 165.784 251.018 164.244 252.768 164.244C253.65 164.244 254.238 164.58 254.924 165.14L254.868 163.81V160.856H256.002V172H255.064L254.966 171.09H254.924C254.322 171.692 253.524 172.182 252.586 172.182ZM252.824 171.216C253.552 171.216 254.196 170.852 254.868 170.138V166.05C254.196 165.448 253.594 165.21 252.936 165.21C251.648 165.21 250.64 166.456 250.64 168.22C250.64 170.082 251.438 171.216 252.824 171.216ZM261.661 172.182C259.659 172.182 258.063 170.712 258.063 168.234C258.063 165.77 259.701 164.244 261.437 164.244C263.327 164.244 264.419 165.602 264.419 167.786C264.419 168.038 264.405 168.276 264.363 168.472H259.197C259.267 170.152 260.275 171.258 261.787 171.258C262.543 171.258 263.131 171.034 263.705 170.642L264.111 171.426C263.467 171.832 262.697 172.182 261.661 172.182ZM259.183 167.632H263.411C263.411 166.022 262.683 165.168 261.451 165.168C260.331 165.168 259.337 166.078 259.183 167.632ZM266.321 172V164.44H267.259L267.371 165.826H267.413C267.931 164.874 268.701 164.244 269.555 164.244C269.877 164.244 270.101 164.286 270.353 164.412L270.129 165.406C269.877 165.322 269.709 165.28 269.401 165.28C268.771 165.28 267.987 165.756 267.469 167.072V172H266.321ZM273.517 172.182C272.439 172.182 271.417 171.734 270.717 171.146L271.277 170.376C271.935 170.908 272.607 171.286 273.559 171.286C274.609 171.286 275.127 170.726 275.127 170.026C275.127 169.214 274.203 168.85 273.363 168.542C272.299 168.136 271.123 167.646 271.123 166.358C271.123 165.182 272.061 164.244 273.699 164.244C274.595 164.244 275.421 164.622 275.995 165.084L275.435 165.826C274.931 165.448 274.399 165.154 273.699 165.154C272.691 165.154 272.229 165.686 272.229 166.302C272.229 167.058 273.013 167.338 273.881 167.66C275.001 168.094 276.219 168.528 276.219 169.97C276.219 171.174 275.267 172.182 273.517 172.182ZM283.171 172L279.881 161.752H281.099L282.807 167.408C283.171 168.626 283.437 169.592 283.829 170.81H283.885C284.277 169.592 284.529 168.626 284.907 167.408L286.601 161.752H287.777L284.501 172H283.171ZM288.44 172V171.328C291.492 168.262 293.172 166.442 293.172 164.79C293.172 163.628 292.542 162.788 291.226 162.788C290.372 162.788 289.63 163.32 289.056 164.006L288.37 163.348C289.196 162.452 290.078 161.864 291.352 161.864C293.172 161.864 294.292 162.998 294.292 164.748C294.292 166.652 292.57 168.514 290.106 171.104C290.638 171.062 291.254 171.02 291.786 171.02H294.796V172H288.44ZM297.383 172.182C296.907 172.182 296.515 171.818 296.515 171.286C296.515 170.726 296.907 170.362 297.383 170.362C297.845 170.362 298.237 170.726 298.237 171.286C298.237 171.818 297.845 172.182 297.383 172.182ZM303.411 172.182C301.437 172.182 300.023 170.572 300.023 167.408C300.023 163.376 301.815 161.864 303.775 161.864C304.811 161.864 305.567 162.298 306.113 162.886L305.469 163.6C305.063 163.11 304.447 162.816 303.817 162.816C302.375 162.816 301.171 163.936 301.115 167.198C301.759 166.428 302.655 165.938 303.467 165.938C305.203 165.938 306.309 166.988 306.309 169.018C306.309 170.894 304.979 172.182 303.411 172.182ZM301.143 168.15C301.283 170.152 302.053 171.272 303.411 171.272C304.433 171.272 305.231 170.348 305.231 169.018C305.231 167.674 304.601 166.806 303.299 166.806C302.655 166.806 301.857 167.17 301.143 168.15ZM308.827 172.182C308.351 172.182 307.959 171.818 307.959 171.286C307.959 170.726 308.351 170.362 308.827 170.362C309.289 170.362 309.681 170.726 309.681 171.286C309.681 171.818 309.289 172.182 308.827 172.182ZM314.546 172.182C312.572 172.182 311.41 170.32 311.41 166.988C311.41 163.656 312.572 161.864 314.546 161.864C316.506 161.864 317.682 163.67 317.682 166.988C317.682 170.32 316.506 172.182 314.546 172.182ZM314.546 171.258C315.75 171.258 316.576 169.928 316.576 166.988C316.576 164.034 315.75 162.788 314.546 162.788C313.328 162.788 312.502 164.034 312.502 166.988C312.502 169.928 313.328 171.258 314.546 171.258ZM132.588 186.028H133.484V188.87C133.484 190.62 133.064 192.72 129.494 194.022C129.368 193.84 129.13 193.518 128.92 193.35C132.266 192.244 132.588 190.326 132.588 188.87V186.028ZM133.302 191.712L133.932 191.138C134.828 191.81 135.976 192.79 136.55 193.406L135.892 194.064C135.346 193.42 134.212 192.426 133.302 191.712ZM124.426 184.418L124.958 183.83L126.232 184.684C126.806 184.18 127.408 183.466 127.87 182.794H124.006V181.954H128.486L128.654 181.912L129.242 182.29C128.626 183.312 127.716 184.39 126.876 185.132C127.394 185.482 127.87 185.832 128.192 186.098L127.926 186.434H128.934L129.088 186.392L129.676 186.56C129.298 187.638 128.85 188.842 128.458 189.598L127.73 189.402C128.01 188.856 128.304 188.058 128.57 187.288H126.96V192.958C126.96 193.49 126.848 193.756 126.47 193.91C126.092 194.05 125.49 194.064 124.524 194.064C124.482 193.812 124.342 193.434 124.216 193.168C124.958 193.182 125.602 193.182 125.798 193.182C126.008 193.168 126.064 193.112 126.064 192.944V187.288H123.712V186.434H127.212C126.442 185.832 125.322 185.02 124.426 184.418ZM130.18 184.236H132.294C132.434 183.788 132.588 183.242 132.7 182.752H129.662V181.898H136.55V182.752H133.722L133.204 184.236H135.99V190.858H135.08V185.09H131.048V190.872H130.18V184.236ZM146.126 184.194L146.924 183.83C147.708 184.502 148.534 185.44 148.926 186.084L148.086 186.504C147.722 185.832 146.882 184.88 146.126 184.194ZM138.804 182.038H139.714V185.972H138.804V182.038ZM141.716 181.394H142.64V186.42H141.716V181.394ZM144.572 190.424H145.51V192.692C145.51 193.028 145.622 193.084 146.294 193.084C146.616 193.084 148.254 193.084 148.674 193.084C149.234 193.084 149.346 192.902 149.388 191.6C149.598 191.74 149.976 191.88 150.228 191.936C150.116 193.518 149.836 193.896 148.758 193.896C148.478 193.896 146.504 193.896 146.224 193.896C144.908 193.896 144.572 193.658 144.572 192.692V190.424ZM143.606 188.38H144.586V189.486C144.586 190.956 144.012 192.86 138.692 194.134C138.58 193.91 138.314 193.574 138.104 193.378C143.256 192.258 143.606 190.62 143.606 189.472V188.38ZM139.952 186.868H148.562V191.25H147.596V187.722H140.89V191.32H139.952V186.868ZM145.398 181.254L146.294 181.436C146.182 181.87 146.042 182.304 145.902 182.724H150.214V183.578H145.58C145.202 184.488 144.768 185.3 144.292 185.93C144.124 185.79 143.732 185.552 143.494 185.44C144.348 184.404 145.006 182.822 145.398 181.254ZM154.914 189.542V188.646H158.456V189.542H154.914ZM176.153 187.638H173.409C173.073 188.394 172.737 189.108 172.415 189.724C173.157 190.102 173.955 190.522 174.739 190.956C175.453 190.102 175.915 189.024 176.153 187.638ZM171.169 190.032C171.561 189.388 171.995 188.534 172.401 187.638H170.287V186.784H172.765C173.087 186 173.367 185.216 173.563 184.502L174.515 184.656C174.319 185.328 174.053 186.056 173.759 186.784H178.715V187.638H177.161C176.853 189.22 176.335 190.438 175.551 191.404C176.755 192.118 177.875 192.818 178.617 193.406L177.945 194.134C177.231 193.546 176.125 192.818 174.907 192.076C173.885 193.014 172.541 193.644 170.805 194.106C170.721 193.896 170.497 193.49 170.329 193.294C171.925 192.93 173.171 192.398 174.095 191.6C173.115 191.04 172.093 190.48 171.169 190.032ZM170.665 183.088H174.179C174.053 182.556 173.843 181.912 173.647 181.394L174.571 181.198C174.809 181.786 175.061 182.528 175.201 183.088H178.519V185.748H177.609V183.928H171.561V185.776H170.665V183.088ZM167.823 181.268H168.747V184.11H170.287V184.992H168.747V188.296L170.441 187.778L170.581 188.618L168.747 189.22V192.972C168.747 193.518 168.607 193.784 168.257 193.924C167.921 194.078 167.361 194.106 166.437 194.092C166.423 193.868 166.283 193.49 166.157 193.238C166.801 193.252 167.389 193.252 167.571 193.252C167.753 193.252 167.823 193.182 167.823 192.986V189.514L165.975 190.102L165.751 189.192L167.823 188.576V184.992H165.905V184.11H167.823V181.268ZM186.975 181.52L187.829 181.212C188.319 181.926 188.865 182.878 189.075 183.494L188.179 183.872C187.969 183.242 187.465 182.262 186.975 181.52ZM183.377 181.31L184.273 181.59C183.867 182.626 183.377 183.648 182.817 184.614V194.064H181.879V186.084C181.403 186.756 180.899 187.372 180.395 187.89C180.311 187.666 180.017 187.176 179.835 186.952C181.249 185.594 182.579 183.466 183.377 181.31ZM183.671 192.706H187.801V189.024H184.511V188.128H187.801V184.922H184.035V184.026H192.547V184.922H188.739V188.128H192.127V189.024H188.739V192.706H192.757V193.602H183.671V192.706ZM196.49 193L199.99 182.752H201.264L204.778 193H203.546L202.524 189.78H198.688L197.652 193H196.49ZM198.996 188.856H202.23L201.698 187.19C201.306 186.028 200.984 184.922 200.634 183.718H200.578C200.242 184.922 199.906 186.028 199.528 187.19L198.996 188.856ZM207.404 193.182C206.536 193.182 206.158 192.622 206.158 191.614V181.856H207.306V191.698C207.306 192.076 207.46 192.23 207.656 192.23C207.712 192.23 207.768 192.23 207.922 192.202L208.09 193.084C207.908 193.14 207.726 193.182 207.404 193.182ZM212.378 193.182C210.796 193.182 210.292 192.202 210.292 190.718V186.364H209.144V185.51L210.334 185.44L210.474 183.298H211.426V185.44H213.512V186.364H211.426V190.76C211.426 191.684 211.706 192.244 212.616 192.244C212.896 192.244 213.246 192.146 213.498 192.034L213.736 192.902C213.302 193.042 212.798 193.182 212.378 193.182ZM226.711 181.898L227.257 181.324C228.139 181.702 229.203 182.318 229.735 182.794L229.161 183.466C228.643 182.976 227.593 182.318 226.711 181.898ZM217.947 192.132C219.473 191.852 221.853 191.362 224.135 190.872L224.205 191.768C222.049 192.244 219.753 192.748 218.143 193.098L217.947 192.132ZM219.739 186.588V189.178H222.735V186.588H219.739ZM218.857 185.762H223.659V189.99H218.857V185.762ZM218.031 183.536H224.905C224.863 182.808 224.849 182.052 224.835 181.296H225.829C225.829 182.066 225.843 182.808 225.885 183.536H230.127V184.46H225.927C226.067 186.406 226.333 188.156 226.697 189.556C227.509 188.38 228.153 187.036 228.615 185.524L229.553 185.748C228.937 187.638 228.083 189.29 227.033 190.676C227.565 192.216 228.237 193.126 228.993 193.126C229.413 193.126 229.581 192.398 229.665 190.508C229.875 190.718 230.225 190.942 230.491 191.026C230.323 193.392 229.945 194.106 228.923 194.106C227.817 194.106 226.949 193.14 226.305 191.544C225.409 192.552 224.373 193.392 223.197 194.078C223.057 193.896 222.693 193.518 222.483 193.35C223.827 192.636 224.989 191.684 225.955 190.536C225.451 188.884 225.129 186.77 224.961 184.46H218.031V183.536ZM239.334 193.182C236.786 193.182 234.994 191.11 234.994 187.834C234.994 184.572 236.786 182.57 239.334 182.57C241.868 182.57 243.66 184.572 243.66 187.834C243.66 191.11 241.868 193.182 239.334 193.182ZM239.334 192.16C241.224 192.16 242.47 190.466 242.47 187.834C242.47 185.216 241.224 183.592 239.334 183.592C237.43 183.592 236.184 185.216 236.184 187.834C236.184 190.466 237.43 192.16 239.334 192.16ZM245.806 196.234V185.44H246.744L246.856 186.322H246.898C247.598 185.762 248.438 185.244 249.334 185.244C251.308 185.244 252.344 186.77 252.344 189.108C252.344 191.684 250.79 193.182 249.054 193.182C248.354 193.182 247.626 192.86 246.926 192.3L246.954 193.63V196.234H245.806ZM248.886 192.216C250.202 192.216 251.168 191.026 251.168 189.122C251.168 187.386 250.58 186.21 249.068 186.21C248.41 186.21 247.724 186.588 246.954 187.288V191.39C247.668 192.006 248.368 192.216 248.886 192.216ZM256.483 193.182C254.901 193.182 254.397 192.202 254.397 190.718V186.364H253.249V185.51L254.439 185.44L254.579 183.298H255.531V185.44H257.617V186.364H255.531V190.76C255.531 191.684 255.811 192.244 256.721 192.244C257.001 192.244 257.351 192.146 257.603 192.034L257.841 192.902C257.407 193.042 256.903 193.182 256.483 193.182ZM259.355 193V185.44H260.503V193H259.355ZM259.943 183.816C259.467 183.816 259.159 183.508 259.159 183.018C259.159 182.556 259.467 182.248 259.943 182.248C260.391 182.248 260.727 182.556 260.727 183.018C260.727 183.508 260.391 183.816 259.943 183.816ZM266.013 193.182C264.165 193.182 262.541 191.726 262.541 189.234C262.541 186.7 264.165 185.244 266.013 185.244C267.861 185.244 269.485 186.7 269.485 189.234C269.485 191.726 267.861 193.182 266.013 193.182ZM266.013 192.23C267.385 192.23 268.323 191.026 268.323 189.234C268.323 187.428 267.385 186.21 266.013 186.21C264.655 186.21 263.717 187.428 263.717 189.234C263.717 191.026 264.655 192.23 266.013 192.23ZM271.537 193V185.44H272.475L272.587 186.546H272.629C273.357 185.818 274.141 185.244 275.177 185.244C276.759 185.244 277.487 186.266 277.487 188.198V193H276.339V188.338C276.339 186.882 275.891 186.238 274.841 186.238C274.043 186.238 273.469 186.658 272.685 187.456V193H271.537ZM284.838 186.84V188.45H288.296V186.84H284.838ZM289.262 186.84V188.45H292.888V186.84H289.262ZM284.838 184.502V186.084H288.296V184.502H284.838ZM289.262 184.502V186.084H292.888V184.502H289.262ZM291.81 181.324L292.818 181.66C292.384 182.332 291.88 183.088 291.418 183.69H293.84V189.262H289.262V190.662H295.086V191.544H289.262V194.078H288.296V191.544H282.584V190.662H288.296V189.262H283.914V183.69H286.574C286.252 183.13 285.692 182.29 285.16 181.702L285.958 181.324C286.532 181.954 287.19 182.822 287.47 183.41L286.924 183.69H290.382C290.886 183.004 291.474 182.024 291.81 181.324ZM297.928 188.772H298.908V192.356H302.352V187.652H296.766V186.714H302.352V184.404H297.816V183.48H302.352V181.268H303.332V183.48H307.924V184.404H303.332V186.714H308.904V187.652H303.332V192.356H306.748V188.772H307.686V194.106H306.748V193.28H297.928V188.772ZM315.106 189.066L315.512 188.478C316.618 188.702 318.032 189.164 318.802 189.528L318.41 190.172C317.64 189.794 316.226 189.304 315.106 189.066ZM313.692 190.844L314.126 190.186C316.016 190.41 318.438 190.956 319.796 191.404L319.376 192.118C318.046 191.642 315.624 191.082 313.692 190.844ZM311.018 181.898H322.624V194.092H321.672V193.49H311.928V194.092H311.018V181.898ZM311.928 192.65H321.672V182.752H311.928V192.65ZM315.638 183.088L316.422 183.368C316.24 183.648 316.044 183.928 315.82 184.208H319.544L319.698 184.166L320.23 184.488C319.642 185.44 318.746 186.252 317.696 186.938C318.802 187.47 320.076 187.862 321.336 188.1C321.168 188.268 320.93 188.576 320.818 188.814C319.474 188.52 318.116 188.03 316.94 187.386C315.596 188.114 314.084 188.646 312.698 188.968C312.614 188.744 312.418 188.38 312.25 188.198C313.524 187.946 314.91 187.512 316.142 186.91C315.526 186.518 314.98 186.07 314.532 185.58C314.084 185.986 313.622 186.35 313.174 186.644C313.034 186.49 312.712 186.21 312.516 186.084C313.706 185.356 314.924 184.25 315.638 183.088ZM315.064 185.062C315.526 185.608 316.17 186.084 316.898 186.518C317.696 186.056 318.396 185.538 318.914 184.95H315.176L315.064 185.062ZM327.384 194.078C327.314 193.854 327.118 193.434 326.964 193.224C327.188 193.112 327.482 192.888 327.482 192.328V190.074C326.642 190.564 325.788 190.97 324.976 191.264C324.836 191.026 324.556 190.676 324.36 190.494C326.11 189.934 328.168 188.814 329.498 187.582H324.752V186.756H330.31V185.426H326.012V184.628H330.31V183.368H325.298V182.556H330.31V181.254H331.262V182.556H336.428V183.368H331.262V184.628H335.798V185.426H331.262V186.756H336.862V187.582H331.654C332.032 188.534 332.55 189.416 333.194 190.158C334.062 189.57 335.084 188.786 335.7 188.17L336.47 188.702C335.658 189.402 334.608 190.172 333.726 190.718C334.706 191.67 335.91 192.384 337.324 192.79C337.114 192.986 336.834 193.336 336.694 193.602C333.81 192.636 331.808 190.494 330.73 187.582H330.688C330.086 188.254 329.302 188.898 328.448 189.472V192.678L331.92 191.628C331.948 191.88 332.018 192.258 332.074 192.454C328.182 193.714 327.692 193.868 327.384 194.078ZM341.576 189.542V188.646H345.118V189.542H341.576ZM349.436 192.286C350.472 191.936 351.998 191.348 353.524 190.774L353.692 191.544C352.278 192.118 350.808 192.692 349.674 193.154L349.436 192.286ZM349.702 187.064C349.66 186.868 349.52 186.42 349.408 186.182C349.646 186.126 349.87 185.79 350.164 185.3C350.458 184.824 351.41 182.976 351.928 181.268L352.838 181.59C352.236 183.144 351.452 184.768 350.654 186L352.306 185.818C352.6 185.3 352.894 184.754 353.132 184.208L353.916 184.642C353.09 186.224 352.096 187.848 351.074 189.15L353.524 188.632C353.51 188.884 353.552 189.22 353.58 189.402C350.472 190.13 350.052 190.256 349.8 190.424C349.758 190.228 349.618 189.808 349.506 189.57C349.786 189.528 350.094 189.15 350.5 188.632C350.724 188.338 351.256 187.596 351.816 186.672C350.22 186.882 349.898 186.966 349.702 187.064ZM357.57 188.044H356.324V190.214H357.57V188.044ZM358.228 188.044V190.214H359.306V188.044H358.228ZM355.568 187.26H361.084L361.84 187.246V193.154C361.84 193.518 361.784 193.728 361.546 193.854C361.294 193.98 360.972 193.994 360.468 193.994C360.44 193.784 360.342 193.476 360.244 193.28C360.566 193.294 360.846 193.294 360.944 193.294C361.042 193.28 361.084 193.252 361.084 193.14V190.97H359.964V193.616H359.306V190.97H358.228V193.63H357.57V190.97H356.324V193.98H355.568V187.26ZM359.964 188.044V190.214H361.084V188.044H359.964ZM357.36 181.436L358.228 181.184C358.536 181.674 358.844 182.332 358.984 182.794H361.714V185.986H355.54C355.526 188.254 355.302 191.558 354.014 193.854C353.86 193.686 353.482 193.42 353.286 193.322C354.546 191.068 354.672 187.974 354.672 185.832V182.794H357.99C357.836 182.36 357.584 181.856 357.36 181.436ZM355.54 183.592V185.202H360.832V183.592H355.54ZM370.506 182.444V183.956H374.398V182.444H370.506ZM369.638 181.716H375.308V184.684H369.638V181.716ZM363.996 188.31C363.954 188.114 363.814 187.694 363.716 187.456C363.94 187.4 364.122 186.938 364.36 186.322C364.5 185.972 364.822 185.006 365.116 183.844H363.534V182.948H365.326C365.452 182.402 365.55 181.828 365.634 181.268L366.558 181.464C366.46 181.954 366.362 182.458 366.236 182.948H368.616V183.844H365.998C365.662 185.076 365.27 186.252 364.864 187.246H366.306V185.076H367.174V187.246H368.532V188.114H367.174V190.046L368.784 189.738L368.84 190.564L367.174 190.914V194.036H366.306V191.082L363.646 191.628L363.436 190.704C364.206 190.578 365.214 190.41 366.306 190.2V188.114H365.004C364.528 188.114 364.122 188.198 363.996 188.31ZM374.356 186.35H370.646V187.624H374.356V186.35ZM368.448 191.992L369.764 191.908V186.35H368.798V185.538H376.19V186.35H375.224V191.516L376.274 191.446L376.26 192.244L375.224 192.328V194.092H374.356V192.398L368.602 192.846L368.448 191.992ZM374.356 188.352H370.646V189.654H374.356V188.352ZM374.356 190.382H370.646V191.852L374.356 191.586V190.382Z" fill="#999999"/>
</svg>
