<?xml version="1.0" encoding="utf-8"?>
<svg version="1.1" xmlns:xlink="http://www.w3.org/1999/xlink" width="10px" height="16px" xmlns="http://www.w3.org/2000/svg">
  <g transform="matrix(1 0 0 1 -205 -56 )">
    <path d="M 9.814453125 9.67045454545455  C 9.93815104166667 9.81439393939394  10 9.98484848484848  10 10.1818181818182  C 10 10.3787878787879  9.93815104166667 10.5492424242424  9.814453125 10.6931818181818  L 5.439453125 15.7840909090909  C 5.31575520833333 15.9280303030303  5.16927083333333 16  5 16  C 4.83072916666667 16  4.68424479166667 15.9280303030303  4.560546875 15.7840909090909  L 0.185546875 10.6931818181818  C 0.0618489583333333 10.5492424242424  0 10.3787878787879  0 10.1818181818182  C 0 9.98484848484848  0.0618489583333333 9.81439393939394  0.185546875 9.67045454545455  C 0.309244791666667 9.52651515151515  0.455729166666667 9.45454545454545  0.625 9.45454545454545  L 9.375 9.45454545454545  C 9.54427083333333 9.45454545454545  9.69075520833333 9.52651515151515  9.814453125 9.67045454545455  Z M 9.814453125 5.30681818181818  C 9.93815104166667 5.45075757575757  10 5.62121212121212  10 5.81818181818182  C 10 6.01515151515151  9.93815104166667 6.18560606060606  9.814453125 6.32954545454546  C 9.69075520833333 6.47348484848485  9.54427083333333 6.54545454545454  9.375 6.54545454545454  L 0.625 6.54545454545454  C 0.455729166666667 6.54545454545454  0.309244791666667 6.47348484848485  0.185546875 6.32954545454546  C 0.0618489583333333 6.18560606060606  0 6.01515151515151  0 5.81818181818182  C 0 5.62121212121212  0.0618489583333333 5.45075757575757  0.185546875 5.30681818181818  L 4.560546875 0.215909090909092  C 4.68424479166667 0.0719696969696955  4.83072916666667 0  5 0  C 5.16927083333333 0  5.31575520833333 0.0719696969696955  5.439453125 0.215909090909092  L 9.814453125 5.30681818181818  Z " fill-rule="nonzero" fill="#000000" stroke="none" transform="matrix(1 0 0 1 205 56 )" />
  </g>
</svg>