<?xml version="1.0" encoding="utf-8"?>
<svg version="1.1" xmlns:xlink="http://www.w3.org/1999/xlink" width="30px" height="30px" xmlns="http://www.w3.org/2000/svg">
  <g transform="matrix(1 0 0 1 -254 -263 )">
    <path d="M 254.5 268  A 4.5 4.5 0 0 1 259 263.5 L 279 263.5  A 4.5 4.5 0 0 1 283.5 268 L 283.5 288  A 4.5 4.5 0 0 1 279 292.5 L 259 292.5  A 4.5 4.5 0 0 1 254.5 288 L 254.5 268  Z " fill-rule="nonzero" fill="#f0f7ff" stroke="none" />
    <path d="M 254.5 268  A 4.5 4.5 0 0 1 259 263.5 L 279 263.5  A 4.5 4.5 0 0 1 283.5 268 L 283.5 288  A 4.5 4.5 0 0 1 279 292.5 L 259 292.5  A 4.5 4.5 0 0 1 254.5 288 L 254.5 268  Z " stroke-width="1" stroke="#409eff" fill="none" />
  </g>
</svg>