<?xml version="1.0" encoding="utf-8"?>
<svg version="1.1" xmlns:xlink="http://www.w3.org/1999/xlink" width="14px" height="16px" xmlns="http://www.w3.org/2000/svg">
  <g>
    <path d="M 10.8888888888889 8.55555555555556  L 10.8888888888889 7  L 3.11111111111111 7  L 3.11111111111111 8.55555555555556  L 10.8888888888889 8.55555555555556  Z M 14 3.11111111111111  C 14 2.25166666666667  13.3038888888889 1.55555555555556  12.4444444444444 1.55555555555556  L 11.6666666666667 1.55555555555556  L 11.6666666666667 0  L 10.1111111111111 0  L 10.1111111111111 1.55555555555556  L 3.88888888888889 1.55555555555556  L 3.88888888888889 0  L 2.33333333333333 0  L 2.33333333333333 1.55555555555556  L 1.55555555555556 1.55555555555556  C 0.696111111111097 1.55555555555556  0.0077777777777707 2.25166666666667  0 3.11111111111111  L 0 14  C 0 14.8594444444445  0.696111111111097 15.5555555555556  1.55555555555556 15.5555555555556  L 12.4444444444444 15.5555555555556  C 13.3038888888889 15.5555555555556  14 14.8594444444445  14 14  L 14 3.11111111111111  Z M 12.4444444444444 5.44444444444444  L 12.4444444444444 14  L 1.55555555555556 14  L 1.55555555555556 5.44444444444444  L 12.4444444444444 5.44444444444444  Z M 8.55555555555556 11.6666666666667  L 8.55555555555556 10.1111111111111  L 3.11111111111111 10.1111111111111  L 3.11111111111111 11.6666666666667  L 8.55555555555556 11.6666666666667  Z " fill-rule="nonzero" fill="#cccccc" stroke="none" />
  </g>
</svg>