<?xml version="1.0" encoding="utf-8"?>
<svg version="1.1" xmlns:xlink="http://www.w3.org/1999/xlink" width="14px" height="14px" xmlns="http://www.w3.org/2000/svg">
  <g transform="matrix(1 0 0 1 0 -2 )">
    <path d="M 14 7  C 14 10.8661  10.8661 14  7 14  C 3.1339 14  0 10.8661  0 7  C 0 3.1339  3.1339 0  7 0  C 10.8661 0  14 3.1339  14 7  Z M 7 12.6  C 10.0927945990524 12.6  12.6 10.0927945990524  12.6 7  C 12.6 3.90720540094755  10.0927945990524 1.4  7 1.4  C 3.90720540094756 1.4  1.4 3.90720540094755  1.4 7  C 1.4 10.0927945990524  3.90720540094756 12.6  7 12.6  Z M 5.0204 4.0299  L 7 6.0102  L 8.9796 4.0299  L 9.9701 5.0204  L 7.9898 7  L 9.9701 8.9796  L 8.9796 9.9701  L 7 7.9898  L 5.0204 9.9701  L 4.0299 8.9796  L 6.0102 7  L 4.0299 5.0204  L 5.0204 4.0299  Z " fill-rule="nonzero" fill="#cccccc" stroke="none" transform="matrix(1 0 0 1 0 2 )" />
  </g>
</svg>