<?xml version="1.0" encoding="utf-8"?>
<svg version="1.1" xmlns:xlink="http://www.w3.org/1999/xlink" width="50px" height="25px" xmlns="http://www.w3.org/2000/svg">
  <g transform="matrix(1 0 0 1 -184 -276 )">
    <path d="M 185 279  A 2 2 0 0 1 187 277 L 231 277  A 2 2 0 0 1 233 279 L 233 298  A 2 2 0 0 1 231 300 L 187 300  A 2 2 0 0 1 185 298 L 185 279  Z " fill-rule="nonzero" fill="#f0f7ff" stroke="none" />
    <path d="M 184.5 279  A 2.5 2.5 0 0 1 187 276.5 L 231 276.5  A 2.5 2.5 0 0 1 233.5 279 L 233.5 298  A 2.5 2.5 0 0 1 231 300.5 L 187 300.5  A 2.5 2.5 0 0 1 184.5 298 L 184.5 279  Z " stroke-width="1" stroke="#7abbff" fill="none" stroke-opacity="0.996078431372549" />
  </g>
</svg>