<?xml version="1.0" encoding="utf-8"?>
<svg version="1.1" xmlns:xlink="http://www.w3.org/1999/xlink" width="1359px" height="441px" xmlns="http://www.w3.org/2000/svg">
  <g transform="matrix(1 0 0 1 -20 -117 )">
    <path d="M 21 125  A 7 7 0 0 1 28 118 L 1371 118  A 7 7 0 0 1 1378 125 L 1378 550  A 7 7 0 0 1 1371 557 L 28 557  A 7 7 0 0 1 21 550 L 21 125  Z " fill-rule="nonzero" fill="#ffffff" stroke="none" />
    <path d="M 20.5 125  A 7.5 7.5 0 0 1 28 117.5 L 1371 117.5  A 7.5 7.5 0 0 1 1378.5 125 L 1378.5 550  A 7.5 7.5 0 0 1 1371 557.5 L 28 557.5  A 7.5 7.5 0 0 1 20.5 550 L 20.5 125  Z " stroke-width="1" stroke="#2561ef" fill="none" stroke-opacity="0.0470588235294118" />
  </g>
</svg>