<?xml version="1.0" encoding="utf-8"?>
<svg version="1.1" xmlns:xlink="http://www.w3.org/1999/xlink" width="77px" height="62px" xmlns="http://www.w3.org/2000/svg">
  <g transform="matrix(1 0 0 1 -104 -869 )">
    <path d="M 142.5 869  C 164.06 869  181 882.64  181 900  C 181 917.36  164.06 931  142.5 931  C 120.94 931  104 917.36  104 900  C 104 882.64  120.94 869  142.5 869  Z " fill-rule="nonzero" fill="#45f8ff" stroke="none" fill-opacity="0.117647058823529" />
    <path d="M 142.5 869.5  C 163.78 869.5  180.5 882.92  180.5 900  C 180.5 917.08  163.78 930.5  142.5 930.5  C 121.22 930.5  104.5 917.08  104.5 900  C 104.5 882.92  121.22 869.5  142.5 869.5  Z " stroke-width="1" stroke="#2cfff3" fill="none" />
  </g>
</svg>