<?xml version="1.0" encoding="utf-8"?>
<svg version="1.1" xmlns:xlink="http://www.w3.org/1999/xlink" width="124px" height="100px" xmlns="http://www.w3.org/2000/svg">
  <g transform="matrix(1 0 0 1 -284 -742 )">
    <path d="M 346 743  C 380.16 743  407 764.56  407 792  C 407 819.44  380.16 841  346 841  C 311.84 841  285 819.44  285 792  C 285 764.56  311.84 743  346 743  Z " fill-rule="nonzero" fill="#fd4a0b" stroke="none" fill-opacity="0.23921568627451" />
    <path d="M 346 743  C 380.16 743  407 764.56  407 792  C 407 819.44  380.16 841  346 841  C 311.84 841  285 819.44  285 792  C 285 764.56  311.84 743  346 743  Z " stroke-width="2" stroke="#fd4a0b" fill="none" />
  </g>
</svg>