<?xml version="1.0" encoding="utf-8"?>
<svg version="1.1" xmlns:xlink="http://www.w3.org/1999/xlink" width="123px" height="99px" xmlns="http://www.w3.org/2000/svg">
  <g transform="matrix(1 0 0 1 -225 -849 )">
    <path d="M 286.5 849  C 320.94 849  348 870.78  348 898.5  C 348 926.22  320.94 948  286.5 948  C 252.06 948  225 926.22  225 898.5  C 225 870.78  252.06 849  286.5 849  Z " fill-rule="nonzero" fill="#ffc530" stroke="none" fill-opacity="0.2" />
    <path d="M 286.5 849.5  C 320.66 849.5  347.5 871.06  347.5 898.5  C 347.5 925.94  320.66 947.5  286.5 947.5  C 252.34 947.5  225.5 925.94  225.5 898.5  C 225.5 871.06  252.34 849.5  286.5 849.5  Z " stroke-width="1" stroke="#ffc530" fill="none" />
  </g>
</svg>