<?xml version="1.0" encoding="utf-8"?>
<svg version="1.1" xmlns:xlink="http://www.w3.org/1999/xlink" width="112px" height="112px" xmlns="http://www.w3.org/2000/svg">
  <g transform="matrix(1 0 0 1 -850 -800 )">
    <path d="M 906 801.5  C 936.52 801.5  960.5 825.48  960.5 856  C 960.5 886.52  936.52 910.5  906 910.5  C 875.48 910.5  851.5 886.52  851.5 856  C 851.5 825.48  875.48 801.5  906 801.5  Z " fill-rule="nonzero" fill="#2a4968" stroke="none" fill-opacity="0.298039215686275" />
    <path d="M 906 801  C 936.8 801  961 825.2  961 856  C 961 886.8  936.8 911  906 911  C 875.2 911  851 886.8  851 856  C 851 825.2  875.2 801  906 801  Z " stroke-width="2" stroke="#2a4968" fill="none" stroke-opacity="0.996078431372549" />
  </g>
</svg>