<?xml version="1.0" encoding="utf-8"?>
<svg version="1.1" xmlns:xlink="http://www.w3.org/1999/xlink" width="93px" height="75px" xmlns="http://www.w3.org/2000/svg">
  <g transform="matrix(1 0 0 1 -390 -869 )">
    <path d="M 436.5 869  C 462.54 869  483 885.5  483 906.5  C 483 927.5  462.54 944  436.5 944  C 410.46 944  390 927.5  390 906.5  C 390 885.5  410.46 869  436.5 869  Z " fill-rule="nonzero" fill="#ffc530" stroke="none" fill-opacity="0.317647058823529" />
    <path d="M 436.5 869.5  C 462.26 869.5  482.5 885.78  482.5 906.5  C 482.5 927.22  462.26 943.5  436.5 943.5  C 410.74 943.5  390.5 927.22  390.5 906.5  C 390.5 885.78  410.74 869.5  436.5 869.5  Z " stroke-width="1" stroke="#ffc530" fill="none" />
  </g>
</svg>