<?xml version="1.0" encoding="utf-8"?>
<svg version="1.1" xmlns:xlink="http://www.w3.org/1999/xlink" width="16px" height="16px" xmlns="http://www.w3.org/2000/svg">
  <g transform="matrix(1 0 0 1 -781 -159 )">
    <path d="M 0.380952380952381 8  L 7.32304761904762 8  C 7.66948571428571 9.78133333333333  9.03497142857143 11.1111111111111  10.6666666666667 11.1111111111111  C 12.2983619047619 11.1111111111111  13.6638476190476 9.78133333333333  14.0102857142857 8  L 15.6190476190476 8  L 15.6190476190476 15.1111111111111  C 15.6190476190476 15.6020444444444  15.2779428571429 16  14.8571428571429 16  L 1.14285714285714 16  C 0.722072380952381 16  0.380952380952381 15.6020444444444  0.380952380952381 15.1111111111111  L 0.380952380952381 8  Z M 2.66666666666667 13.3333333333333  L 2.66666666666667 11.5555555555556  L 4.19047619047619 11.5555555555556  L 4.19047619047619 13.3333333333333  L 2.66666666666667 13.3333333333333  Z M 12.5714285714286 7.11111111111111  C 12.5714285714286 8.3384  11.7186285714286 9.33333333333333  10.6666666666667 9.33333333333333  C 9.61470476190476 9.33333333333333  8.76190476190476 8.3384  8.76190476190476 7.11111111111111  C 8.76190476190476 5.88381333333333  9.61470476190476 4.88888888888889  10.6666666666667 4.88888888888889  C 11.7186285714286 4.88888888888889  12.5714285714286 5.88381333333333  12.5714285714286 7.11111111111111  Z M 10.6666666666667 3.11111111111111  C 9.03497142857143 3.11111111111111  7.66948571428571 4.44089777777778  7.32304761904762 6.22222222222222  L 0.380952380952381 6.22222222222222  L 0.380952380952381 0.888888888888889  C 0.380952380952381 0.397973333333333  0.722072380952381 0  1.14285714285714 0  L 14.8571428571429 0  C 15.2779428571429 0  15.6190476190476 0.397973333333333  15.6190476190476 0.888888888888889  L 15.6190476190476 6.22222222222222  L 14.0102857142857 6.22222222222222  C 13.6638476190476 4.44089777777778  12.2983619047619 3.11111111111111  10.6666666666667 3.11111111111111  Z " fill-rule="nonzero" fill="#2561ef" stroke="none" transform="matrix(1 0 0 1 781 159 )" />
  </g>
</svg>