<?xml version="1.0" encoding="utf-8"?>
<svg version="1.1" xmlns:xlink="http://www.w3.org/1999/xlink" width="101px" height="82px" xmlns="http://www.w3.org/2000/svg">
  <g transform="matrix(1 0 0 1 -421 -780 )">
    <path d="M 471.5 780  C 499.78 780  522 798.04  522 821  C 522 843.96  499.78 862  471.5 862  C 443.22 862  421 843.96  421 821  C 421 798.04  443.22 780  471.5 780  Z " fill-rule="nonzero" fill="#3effe8" stroke="none" fill-opacity="0.23921568627451" />
    <path d="M 471.5 780.5  C 499.5 780.5  521.5 798.32  521.5 821  C 521.5 843.68  499.5 861.5  471.5 861.5  C 443.5 861.5  421.5 843.68  421.5 821  C 421.5 798.32  443.5 780.5  471.5 780.5  Z " stroke-width="1" stroke="#3effe8" fill="none" />
  </g>
</svg>