<?xml version="1.0" encoding="utf-8"?>
<svg version="1.1" xmlns:xlink="http://www.w3.org/1999/xlink" width="700px" height="446px" xmlns="http://www.w3.org/2000/svg">
  <defs>
    <filter x="4px" y="624px" width="700px" height="446px" filterUnits="userSpaceOnUse" id="filter313">
      <feOffset dx="0" dy="0" in="SourceAlpha" result="shadowOffsetInner" />
      <feGaussianBlur stdDeviation="7.5" in="shadowOffsetInner" result="shadowGaussian" />
      <feComposite in2="shadowGaussian" operator="atop" in="SourceAlpha" result="shadowComposite" />
      <feColorMatrix type="matrix" values="0 0 0 0 0.949019607843137  0 0 0 0 0.949019607843137  0 0 0 0 0.949019607843137  0 0 0 1 0  " in="shadowComposite" />
    </filter>
    <g id="widget314">
      <path d="M 20 647  A 7 7 0 0 1 27 640 L 681 640  A 7 7 0 0 1 688 647 L 688 1047  A 7 7 0 0 1 681 1054 L 27 1054  A 7 7 0 0 1 20 1047 L 20 647  Z " fill-rule="nonzero" fill="#ffffff" stroke="none" />
      <path d="M 19.5 647  A 7.5 7.5 0 0 1 27 639.5 L 681 639.5  A 7.5 7.5 0 0 1 688.5 647 L 688.5 1047  A 7.5 7.5 0 0 1 681 1054.5 L 27 1054.5  A 7.5 7.5 0 0 1 19.5 1047 L 19.5 647  Z " stroke-width="1" stroke="#2561ef" fill="none" stroke-opacity="0.0470588235294118" />
    </g>
  </defs>
  <g transform="matrix(1 0 0 1 -4 -624 )">
    <use xlink:href="#widget314" filter="url(#filter313)" />
    <use xlink:href="#widget314" />
  </g>
</svg>