<?xml version="1.0" encoding="utf-8"?>
<svg version="1.1" xmlns:xlink="http://www.w3.org/1999/xlink" width="202px" height="202px" xmlns="http://www.w3.org/2000/svg">
  <defs>
    <linearGradient gradientUnits="userSpaceOnUse" x1="924.511715089035" y1="933.660731021556" x2="911.259606373008" y2="754" id="LinearGradient257">
      <stop id="Stop258" stop-color="#2a4968" stop-opacity="0.0156862745098039" offset="0" />
      <stop id="Stop259" stop-color="#2a4968" stop-opacity="0.603921568627451" offset="1" />
    </linearGradient>
  </defs>
  <g transform="matrix(1 0 0 1 -806 -754 )">
    <path d="M 907 754  C 963.56 754  1008 798.44  1008 855  C 1008 911.56  963.56 956  907 956  C 850.44 956  806 911.56  806 855  C 806 798.44  850.44 754  907 754  Z " fill-rule="nonzero" fill="#2a4968" stroke="none" fill-opacity="0" />
    <path d="M 907 754.5  C 963.28 754.5  1007.5 798.72  1007.5 855  C 1007.5 911.28  963.28 955.5  907 955.5  C 850.72 955.5  806.5 911.28  806.5 855  C 806.5 798.72  850.72 754.5  907 754.5  Z " stroke-width="1" stroke="url(#LinearGradient257)" fill="none" />
  </g>
</svg>