<?xml version="1.0" encoding="utf-8"?>
<svg version="1.1" xmlns:xlink="http://www.w3.org/1999/xlink" width="8px" height="8px" viewBox="882 89.5  8 8" xmlns="http://www.w3.org/2000/svg">
  <path d="M 886 89.5  C 888.24 89.5  890 91.26  890 93.5  C 890 95.74  888.24 97.5  886 97.5  C 883.76 97.5  882 95.74  882 93.5  C 882 91.26  883.76 89.5  886 89.5  Z " fill-rule="nonzero" fill="#f0f0f0" stroke="none" />
  <path d="M 886 90  C 887.96 90  889.5 91.54  889.5 93.5  C 889.5 95.46  887.96 97  886 97  C 884.04 97  882.5 95.46  882.5 93.5  C 882.5 91.54  884.04 90  886 90  Z " stroke-width="1" stroke="#8c8c8c" fill="none" />
  <path d="M 886 95.5  C 884.88 95.5  884 94.62  884 93.5  C 884 92.38  884.88 91.5  886 91.5  C 887.12 91.5  888 92.38  888 93.5  C 888 94.62  887.12 95.5  886 95.5  " fill-rule="nonzero" fill="#8c8c8c" stroke="none" />
</svg>