<?xml version="1.0" encoding="utf-8"?>
<svg version="1.1" xmlns:xlink="http://www.w3.org/1999/xlink" width="30px" height="30px" xmlns="http://www.w3.org/2000/svg">
  <g transform="matrix(1 0 0 1 -284 -13 )">
    <path d="M 299 14  C 306.84 14  313 20.16  313 28  C 313 35.84  306.84 42  299 42  C 291.16 42  285 35.84  285 28  C 285 20.16  291.16 14  299 14  Z " fill-rule="nonzero" fill="#409eff" stroke="none" />
    <path d="M 299 14  C 306.84 14  313 20.16  313 28  C 313 35.84  306.84 42  299 42  C 291.16 42  285 35.84  285 28  C 285 20.16  291.16 14  299 14  Z " stroke-width="2" stroke="#409eff" fill="none" />
  </g>
</svg>