<?xml version="1.0" encoding="utf-8"?>
<svg version="1.1" xmlns:xlink="http://www.w3.org/1999/xlink" width="25px" height="25px" xmlns="http://www.w3.org/2000/svg">
  <g transform="matrix(1 0 0 1 -1067 -418 )">
    <path d="M 24.5028409090909 9.58806818181818  C 24.8342803030303 9.91950757575757  25 10.3219696969697  25 10.7954545454545  L 25 14.2045454545455  C 25 14.6780303030303  24.8342803030303 15.0804924242424  24.5028409090909 15.4119318181818  C 24.1714015151515 15.7433712121212  23.7689393939394 15.9090909090909  23.2954545454545 15.9090909090909  L 15.9090909090909 15.9090909090909  L 15.9090909090909 23.2954545454545  C 15.9090909090909 23.7689393939394  15.7433712121212 24.1714015151515  15.4119318181818 24.5028409090909  C 15.0804924242424 24.8342803030303  14.6780303030303 25  14.2045454545455 25  L 10.7954545454545 25  C 10.3219696969697 25  9.91950757575758 24.8342803030303  9.58806818181818 24.5028409090909  C 9.25662878787879 24.1714015151515  9.09090909090909 23.7689393939394  9.09090909090909 23.2954545454545  L 9.09090909090909 15.9090909090909  L 1.70454545454545 15.9090909090909  C 1.23106060606061 15.9090909090909  0.828598484848485 15.7433712121212  0.497159090909091 15.4119318181818  C 0.165719696969697 15.0804924242424  0 14.6780303030303  0 14.2045454545455  L 0 10.7954545454545  C 0 10.3219696969697  0.165719696969697 9.91950757575757  0.497159090909091 9.58806818181818  C 0.828598484848485 9.25662878787879  1.23106060606061 9.09090909090909  1.70454545454545 9.09090909090909  L 9.09090909090909 9.09090909090909  L 9.09090909090909 1.70454545454546  C 9.09090909090909 1.23106060606061  9.25662878787879 0.828598484848483  9.58806818181818 0.497159090909091  C 9.91950757575758 0.165719696969696  10.3219696969697 0  10.7954545454545 0  L 14.2045454545455 0  C 14.6780303030303 0  15.0804924242424 0.165719696969696  15.4119318181818 0.497159090909091  C 15.7433712121212 0.828598484848483  15.9090909090909 1.23106060606061  15.9090909090909 1.70454545454546  L 15.9090909090909 9.09090909090909  L 23.2954545454545 9.09090909090909  C 23.7689393939394 9.09090909090909  24.1714015151515 9.25662878787879  24.5028409090909 9.58806818181818  Z " fill-rule="nonzero" fill="#999999" stroke="none" transform="matrix(1 0 0 1 1067 418 )" />
  </g>
</svg>