<?xml version="1.0" encoding="utf-8"?>
<svg version="1.1" xmlns:xlink="http://www.w3.org/1999/xlink" width="30px" height="30px" xmlns="http://www.w3.org/2000/svg">
  <g transform="matrix(1 0 0 1 -965 -13 )">
    <path d="M 980 14  C 987.84 14  994 20.16  994 28  C 994 35.84  987.84 42  980 42  C 972.16 42  966 35.84  966 28  C 966 20.16  972.16 14  980 14  Z " fill-rule="nonzero" fill="#ffffff" stroke="none" />
    <path d="M 980 14  C 987.84 14  994 20.16  994 28  C 994 35.84  987.84 42  980 42  C 972.16 42  966 35.84  966 28  C 966 20.16  972.16 14  980 14  Z " stroke-width="2" stroke="#e4e4e4" fill="none" />
  </g>
</svg>