<?xml version="1.0" encoding="utf-8"?>
<svg version="1.1" xmlns:xlink="http://www.w3.org/1999/xlink" width="19px" height="17px" xmlns="http://www.w3.org/2000/svg">
  <g transform="matrix(1 0 0 1 -609 -31 )">
    <path d="M 11.9 5.01052631578949  L 11.9 1.67017543859647  L 2 1.67017543859647  L 2 15  L 15.8666666666667 15  L 15.8666666666667 5.01052631578949  L 11.9 5.01052631578949  Z M 0 15.8733473684211  L 0 0.828407017543832  C 0 0.370778947368422  0.443274999999973 0  0.990674999999968 0  L 12.8916666666667 0  L 17.85 4.17543859649122  L 17.85 15.8608210526316  C 17.8500163101529 15.8627763324713  17.8500244653048 15.8647316545212  17.8500244653048 15.8666869826005  C 17.8500244653048 16.3256200074099  17.4102447086679 16.69855317708  16.865275 16.7017543859649  L 0.984725000000022 16.7017543859649  C 0.442834247670127 16.6985745196459  0.00432207484320202 16.3296729874941  0 15.8733473684211  Z M 10.4412583333333 10.393501754386  C 9.83373176790927 10.6924255479297  9.14275286567729 10.8499583787696  8.43912394933623 10.8499583787696  C 6.24729907692025 10.8499583787696  4.47047394933622 9.35368458711991  4.47047394933622 7.5079373261381  C 4.47047394933622 6.62616977835043  4.88428951165318 5.78013284731061  5.62175833333338 5.15416140350875  C 6.36563155567827 4.52785757704985  7.37445767389528 4.17601347812173  8.42635610153916 4.17601347812173  C 10.6170856092014 4.17601347812173  12.3930227682059 5.67153950675712  12.3930227682059 7.51636435531468  C 12.3930227682059 8.11298726125594  12.203265835395 8.69872181833697  11.843475 9.21268771929827  L 14.0350583333334 11.0582315789474  L 12.6328416666666 12.2398807017544  L 10.4412583333333 10.3943368421053  Z M 8.45056327469279 9.1654414528903  C 8.96464215976049 9.1654414528903  9.45863745449057 8.9973501737345  9.82840833333334 8.69660350877194  C 10.215361773514 8.3818817086282  10.4338966080261 7.94829099924215  10.4338966080261 7.49526601429382  C 10.4338966080261 6.57285359001498  9.54592802852383 5.82509057569728  8.45056327469279 5.82509057569728  C 7.91259610506663 5.82509057569728  7.39770713767071 6.00911991002332  7.02397500000003 6.33497543859652  C 6.66683833535699 6.64636144183252  6.46722994135946 7.06235747949996  6.46722994135946 7.49526601429382  C 6.46722994135946 8.4176784385726  7.35519852086174 9.1654414528903  8.45056327469279 9.1654414528903  Z " fill-rule="nonzero" fill="#cccccc" stroke="none" transform="matrix(1 0 0 1 609 31 )" />
  </g>
</svg>