<?xml version="1.0" encoding="utf-8"?>
<svg version="1.1" xmlns:xlink="http://www.w3.org/1999/xlink" width="277px" height="89px" xmlns="http://www.w3.org/2000/svg">
  <defs>
    <filter x="525px" y="89px" width="277px" height="89px" filterUnits="userSpaceOnUse" id="filter135">
      <feOffset dx="0" dy="0" in="SourceAlpha" result="shadowOffsetInner" />
      <feGaussianBlur stdDeviation="2.5" in="shadowOffsetInner" result="shadowGaussian" />
      <feComposite in2="shadowGaussian" operator="atop" in="SourceAlpha" result="shadowComposite" />
      <feColorMatrix type="matrix" values="0 0 0 0 0.949019607843137  0 0 0 0 0.949019607843137  0 0 0 0 0.949019607843137  0 0 0 1 0  " in="shadowComposite" />
    </filter>
    <g id="widget136">
      <path d="M 530.5 98  A 3.5 3.5 0 0 1 534 94.5 L 793 94.5  A 3.5 3.5 0 0 1 796.5 98 L 796.5 169  A 3.5 3.5 0 0 1 793 172.5 L 534 172.5  A 3.5 3.5 0 0 1 530.5 169 L 530.5 98  Z " fill-rule="nonzero" fill="#2561ef" stroke="none" fill-opacity="0.0784313725490196" />
      <path d="M 530.5 98  A 3.5 3.5 0 0 1 534 94.5 L 793 94.5  A 3.5 3.5 0 0 1 796.5 98 L 796.5 169  A 3.5 3.5 0 0 1 793 172.5 L 534 172.5  A 3.5 3.5 0 0 1 530.5 169 L 530.5 98  Z " stroke-width="1" stroke="#2561ef" fill="none" />
    </g>
  </defs>
  <g transform="matrix(1 0 0 1 -525 -89 )">
    <use xlink:href="#widget136" filter="url(#filter135)" />
    <use xlink:href="#widget136" />
  </g>
</svg>