<?xml version="1.0" encoding="utf-8"?>
<svg version="1.1" xmlns:xlink="http://www.w3.org/1999/xlink" width="249px" height="89px" xmlns="http://www.w3.org/2000/svg">
  <defs>
    <filter x="261px" y="89px" width="249px" height="89px" filterUnits="userSpaceOnUse" id="filter129">
      <feOffset dx="0" dy="0" in="SourceAlpha" result="shadowOffsetInner" />
      <feGaussianBlur stdDeviation="2.5" in="shadowOffsetInner" result="shadowGaussian" />
      <feComposite in2="shadowGaussian" operator="atop" in="SourceAlpha" result="shadowComposite" />
      <feColorMatrix type="matrix" values="0 0 0 0 0.949019607843137  0 0 0 0 0.949019607843137  0 0 0 0 0.949019607843137  0 0 0 1 0  " in="shadowComposite" />
    </filter>
    <g id="widget130">
      <path d="M 266.5 98  A 3.5 3.5 0 0 1 270 94.5 L 501 94.5  A 3.5 3.5 0 0 1 504.5 98 L 504.5 169  A 3.5 3.5 0 0 1 501 172.5 L 270 172.5  A 3.5 3.5 0 0 1 266.5 169 L 266.5 98  Z " fill-rule="nonzero" fill="#ffffff" stroke="none" />
      <path d="M 266.5 98  A 3.5 3.5 0 0 1 270 94.5 L 501 94.5  A 3.5 3.5 0 0 1 504.5 98 L 504.5 169  A 3.5 3.5 0 0 1 501 172.5 L 270 172.5  A 3.5 3.5 0 0 1 266.5 169 L 266.5 98  Z " stroke-width="1" stroke="#f2f2f2" fill="none" />
    </g>
  </defs>
  <g transform="matrix(1 0 0 1 -261 -89 )">
    <use xlink:href="#widget130" filter="url(#filter129)" />
    <use xlink:href="#widget130" />
  </g>
</svg>