<?xml version="1.0" encoding="utf-8"?>
<svg version="1.1" xmlns:xlink="http://www.w3.org/1999/xlink" width="14px" height="15px" xmlns="http://www.w3.org/2000/svg">
  <g transform="matrix(1 0 0 1 -224 -8 )">
    <path d="M 8.84210526315792 4.42105263157896  L 8.84210526315792 1.4736842105263  L 1.4736842105263 1.4736842105263  L 1.4736842105263 13  L 11.7894736842105 13  L 11.7894736842105 4.42105263157896  L 8.84210526315792 4.42105263157896  Z M 0 14.0058947368422  L 0 0.730947368421027  C 0 0.327157894736843  0.329368421052607 0  0.736105263157867 0  L 9.57894736842104 0  L 13 3.68421052631578  L 13 13.9948421052632  C 13.2631700137359 13.9965673521805  13.2631760732915 13.9982926363422  13.2631760732915 14.000017925824  C 13.2631760732915 14.4049588300676  12.9364047370907 14.7340175091882  12.5314736842105 14.7368421052632  L 0.731684210526339 14.7368421052632  C 0.329040927061385 14.7340363408641  0.00321144879990243 14.4085349889654  0 14.0058947368422  Z M 7.75821052631579 9.17073684210527  C 7.30679759844651 9.43449313052616  6.7933767422989 9.57349268714967  6.27055649486283 9.57349268714967  C 4.64195597046705 9.57349268714967  3.32171438959966 8.25325110628228  3.32171438959966 6.62465058188656  C 3.32171438959966 5.84662039266215  3.62919344519122 5.10011721821525  4.17715789473687 4.54778947368419  C 4.72988103208291 3.9951684503381  5.47947319422559 3.68471777481329  6.26106954913126 3.68471777481329  C 7.88885618021152 3.68471777481329  9.20843797018392 5.0042995647857  9.20843797018392 6.6320861958659  C 9.20843797018392 7.15851817169641  9.06744210679506 7.67534278088556  8.80010526315789 8.12884210526317  L 10.4285263157895 9.75726315789473  L 9.38663157894734 10.7998947368421  L 7.75821052631579 9.17147368421053  Z M 6.2790563031773 8.0871542231385  C 6.66103442211306 8.0871542231385  7.02808974946669 7.93883838858926  7.30284210526315 7.67347368421053  C 7.59036168929833 7.39577797820135  7.7527405137036 7.01319794050778  7.7527405137036 6.6134700126122  C 7.7527405137036 5.79957669707204  7.0929496187174 5.13978580208584  6.2790563031773 5.13978580208584  C 5.87932837528172 5.13978580208584  5.49674833758814 5.30216462649116  5.21905263157896 5.58968421052634  C 4.95368792720024 5.86443656632281  4.805372092651 6.23149189367643  4.805372092651 6.6134700126122  C 4.805372092651 7.4273633281523  5.4651629876372 8.0871542231385  6.2790563031773 8.0871542231385  Z " fill-rule="nonzero" fill="#cccccc" stroke="none" transform="matrix(1 0 0 1 224 8 )" />
  </g>
</svg>