<?xml version="1.0" encoding="utf-8"?>
<svg version="1.1" xmlns:xlink="http://www.w3.org/1999/xlink" width="13px" height="14px" xmlns="http://www.w3.org/2000/svg">
  <g transform="matrix(1 0 0 1 -1285 -160 )">
    <path d="M 0.318181818181756 3.5  L 6.36363636363626 0  L 12.409090909091 3.5  L 12.409090909091 10.5  L 6.36363636363626 14  L 0.318181818181756 10.5  L 0.318181818181756 3.5  Z M 11.1363636363637 4.23372727272726  L 6.36363636363626 1.47063636363634  L 1.59090909090901 4.23372727272726  L 1.59090909090901 9.76627272727274  L 6.36363636363626 12.5293636363637  L 11.1363636363637 9.76627272727274  L 11.1363636363637 4.23372727272726  Z M 6.36363636363626 9.54545454545456  C 4.95782063679439 9.54545454545456  3.81818181818176 8.40581572684204  3.81818181818176 7  C 3.81818181818176 5.59418427315796  4.95782063679439 4.45454545454544  6.36363636363626 4.45454545454544  C 7.76945209047835 4.45454545454544  8.90909090909099 5.59418427315796  8.90909090909099 7  C 8.90909090909099 8.40581572684204  7.76945209047835 9.54545454545456  6.36363636363626 9.54545454545456  Z M 6.36363636363626 8.27272727272731  C 7.06654422705742 8.27272727272731  7.63636363636374 7.70290786342099  7.63636363636374 7  C 7.63636363636374 6.29709213657901  7.06654422705742 5.72727272727269  6.36363636363626 5.72727272727269  C 5.66072850021533 5.72727272727269  5.09090909090901 6.29709213657901  5.09090909090901 7  C 5.09090909090901 7.70290786342099  5.66072850021533 8.27272727272731  6.36363636363626 8.27272727272731  Z " fill-rule="nonzero" fill="#2561ef" stroke="none" transform="matrix(1 0 0 1 1285 160 )" />
  </g>
</svg>