<?xml version="1.0" encoding="utf-8"?>
<svg version="1.1" xmlns:xlink="http://www.w3.org/1999/xlink" width="38px" height="20px" xmlns="http://www.w3.org/2000/svg">
  <g transform="matrix(1 0 0 1 -1151 -14 )">
    <path d="M 1151 14  L 1189 14  L 1189 34  L 1151 34  L 1151 14  " fill-rule="nonzero" fill="#cccccc" stroke="none" />
    <path d="M 1152 15  L 1188 15  L 1188 33  L 1152 33  L 1152 15  " fill-rule="nonzero" fill="#ffffff" stroke="none" />
    <path d="M 1172.26 20  C 1171.42 20  1170.76 19.34  1170.76 18.5  C 1170.76 17.66  1171.42 17  1172.26 17  C 1173.1 17  1173.76 17.66  1173.76 18.5  C 1173.76 19.34  1173.1 20  1172.26 20  " fill-rule="nonzero" fill="#cccccc" stroke="none" />
    <path d="M 1153 33  L 1153 23.65  L 1161.75 19.4  L 1174 27.6315789473684  L 1181 21.95  L 1188 27.6315789473684  L 1188 33  L 1153 33  " fill-rule="nonzero" fill="#169bd5" stroke="none" />
  </g>
</svg>