<?xml version="1.0" encoding="utf-8"?>
<svg version="1.1" xmlns:xlink="http://www.w3.org/1999/xlink" width="30px" height="30px" xmlns="http://www.w3.org/2000/svg">
  <g transform="matrix(1 0 0 1 -973 -128 )">
    <path d="M 988 129  C 995.84 129  1002 135.16  1002 143  C 1002 150.84  995.84 157  988 157  C 980.16 157  974 150.84  974 143  C 974 135.16  980.16 129  988 129  Z " fill-rule="nonzero" fill="#ffffff" stroke="none" />
    <path d="M 988 129  C 995.84 129  1002 135.16  1002 143  C 1002 150.84  995.84 157  988 157  C 980.16 157  974 150.84  974 143  C 974 135.16  980.16 129  988 129  Z " stroke-width="2" stroke="#e4e4e4" fill="none" />
  </g>
</svg>