<?xml version="1.0" encoding="utf-8"?>
<svg version="1.1" xmlns:xlink="http://www.w3.org/1999/xlink" width="30px" height="30px" xmlns="http://www.w3.org/2000/svg">
  <g transform="matrix(1 0 0 1 -292 -128 )">
    <path d="M 307 129  C 314.84 129  321 135.16  321 143  C 321 150.84  314.84 157  307 157  C 299.16 157  293 150.84  293 143  C 293 135.16  299.16 129  307 129  Z " fill-rule="nonzero" fill="#409eff" stroke="none" />
    <path d="M 307 129  C 314.84 129  321 135.16  321 143  C 321 150.84  314.84 157  307 157  C 299.16 157  293 150.84  293 143  C 293 135.16  299.16 129  307 129  Z " stroke-width="2" stroke="#409eff" fill="none" />
  </g>
</svg>