<?xml version="1.0" encoding="utf-8"?>
<svg version="1.1" xmlns:xlink="http://www.w3.org/1999/xlink" width="30px" height="30px" xmlns="http://www.w3.org/2000/svg">
  <g transform="matrix(1 0 0 1 -295 -125 )">
    <path d="M 310 126  C 317.84 126  324 132.16  324 140  C 324 147.84  317.84 154  310 154  C 302.16 154  296 147.84  296 140  C 296 132.16  302.16 126  310 126  Z " fill-rule="nonzero" fill="#ffffff" stroke="none" />
    <path d="M 310 126  C 317.84 126  324 132.16  324 140  C 324 147.84  317.84 154  310 154  C 302.16 154  296 147.84  296 140  C 296 132.16  302.16 126  310 126  Z " stroke-width="2" stroke="#0079fe" fill="none" />
  </g>
</svg>