<?xml version="1.0" encoding="utf-8"?>
<svg version="1.1" xmlns:xlink="http://www.w3.org/1999/xlink" width="80px" height="30px" xmlns="http://www.w3.org/2000/svg">
  <g transform="matrix(1 0 0 1 -410 -555 )">
    <path d="M 410.5 558  A 2.5 2.5 0 0 1 413 555.5 L 487 555.5  A 2.5 2.5 0 0 1 489.5 558 L 489.5 582  A 2.5 2.5 0 0 1 487 584.5 L 413 584.5  A 2.5 2.5 0 0 1 410.5 582 L 410.5 558  Z " fill-rule="nonzero" fill="#f0f7ff" stroke="none" />
    <path d="M 410.5 558  A 2.5 2.5 0 0 1 413 555.5 L 487 555.5  A 2.5 2.5 0 0 1 489.5 558 L 489.5 582  A 2.5 2.5 0 0 1 487 584.5 L 413 584.5  A 2.5 2.5 0 0 1 410.5 582 L 410.5 558  Z " stroke-width="1" stroke="#409eff" fill="none" />
  </g>
</svg>