<?xml version="1.0" encoding="utf-8"?>
<svg version="1.1" xmlns:xlink="http://www.w3.org/1999/xlink" width="10px" height="50px" xmlns="http://www.w3.org/2000/svg">
  <g transform="matrix(1 0 0 1 -622 -133 )">
    <path d="M 1.45906685425106 47.6961242954244  L 2.03520144331988 47.0670119020778  C 2.41929114220652 46.6476035212202  2.99542573127534 47.2767160035367  2.6113360323887 47.6961242954244  L 1.74713414878547 48.6397930188992  C 1.58803901670045 48.8135175884173  1.3300947732794 48.8135175884173  1.17099955971665 48.6397930188992  L 0.306797757591135 47.6961242954244  C -0.0772919412955051 47.2767160035367  0.498842566295589 46.6476035212202  0.882932346659963 47.0670119020778  L 1.45906685425106 47.6961242954244  Z M 1.45906685425106 48.9543492600575  L 0.882932346659963 49.583461742374  C 0.498842566295589 50.0028700342617  -0.0772919412955051 49.3737575519452  0.306797757591135 48.9543492600575  L 1.17099955971665 48.0106805365827  C 1.3300947732794 47.8369559670645  1.58803901670045 47.8369559670645  1.74713414878547 48.0106805365827  L 2.6113360323887 48.9543492600575  C 2.99542573127534 49.3737575519452  2.41929114220652 50.0028700342617  2.03520144331988 49.583461742374  L 1.45906685425106 48.9543492600575  Z M 8.6522691781377 1.12645994462865  L 9.22840368572879 0.497347480106104  C 9.61249346609317 0.0779391704244058  10.1886279736843 0.707051634946955  9.80453827479761 1.12645994462865  L 8.94033647267211 2.07012868589744  C 8.78124125910936 2.24385325541557  8.5232970156883 2.24385325541557  8.36420188360328 2.07012868589744  L 7.50000000000004 1.12645994462865  C 7.1159103011134 0.707051634946955  7.69204489018223 0.0779391704244058  8.07613458906886 0.497347480106104  L 8.6522691781377 1.12645994462865  Z M 8.6522691781377 2.38468483808577  L 8.07613458906886 3.0137973204023  C 7.69204489018223 3.43320561229001  7.1159103011134 2.80409321894342  7.50000000000004 2.38468483808577  L 8.36420188360328 1.44101617688992  C 8.5232970156883 1.26729157178382  8.78124125910936 1.26729157178382  8.94033647267211 1.44101617688992  L 9.80453827479761 2.38468483808577  C 10.1886279736843 2.80409321894342  9.61249346609317 3.43320561229001  9.22840368572879 3.0137973204023  L 8.6522691781377 2.38468483808577  Z " fill-rule="nonzero" fill="#95f204" stroke="none" transform="matrix(1 0 0 1 622 133 )" />
  </g>
</svg>