<?xml version="1.0" encoding="utf-8"?>
<svg version="1.1" xmlns:xlink="http://www.w3.org/1999/xlink" width="73px" height="73px" xmlns="http://www.w3.org/2000/svg">
  <g transform="matrix(1 0 0 1 -847 -125 )">
    <path d="M 55.2050397877985 65  L 0.648673740053091 65  C 0.30432346595495 65.7038995726496  0.0251724137931449 65.3826543142094  0.0251724137931449 64.9863782051282  C 0.0251724137931449 64.590102096047  0.30432346595495 64.2688568376068  0.648673740053091 64  L 55.2050397877985 64  C 55.5493900618966 64.2688568376068  55.8285411140584 64.590102096047  55.8285411140584 64.9863782051282  C 55.8285411140584 65.3826543142094  55.5493900618966 65.7038995726496  55.2050397877985 65  Z M 60.2709880636605 65.7038995726496  L 58.3225464190982 65.7038995726496  C 57.978196145 65.7038995726496  57.6990450928382 65.3826543142094  57.6990450928382 64.9863782051282  C 57.6990450928382 64.590102096047  57.978196145 64.2688568376068  58.3225464190982 64.2688568376068  L 60.2709880636605 64.2688568376068  C 60.6153383377587 64.2688568376068  60.8944893899205 64.590102096047  60.8944893899205 64.9863782051282  C 60.8944893899205 65.3826543142094  60.6153383377587 65.7038995726496  60.2709880636605 65.7038995726496  Z M 72.351326259947 65.7038995726496  L 65.3369363395226 65.7038995726496  C 64.9925860654244 65.7038995726496  64.7134350132627 65.3826543142094  64.7134350132627 64.9863782051282  C 64.7134350132627 64.590102096047  64.9925860654244 64.2688568376068  65.3369363395226 64.2688568376068  L 72.351326259947 64.2688568376068  C 72.6956765340451 64.2688568376068  72.9748275862069 64.590102096047  72.9748275862069 64.9863782051282  C 72.9748275862069 65.3826543142094  72.6956765340451 65.7038995726496  72.351326259947 65.7038995726496  Z M 24.0299734748011 72.4306623931624  L 18.5743368700266 72.4306623931624  C 18.2299865959284 72.4306623931624  17.9508355437666 72.1094171347222  17.9508355437666 71.713141025641  C 17.9508355437666 71.3168649165598  18.2299865959284 70.9956196581197  18.5743368700266 70.9956196581197  L 24.0299734748011 70.9956196581197  C 24.3743237488992 70.9956196581197  24.653474801061 71.3168649165598  24.653474801061 71.713141025641  C 24.653474801061 72.1094171347222  24.3743237488992 72.4306623931624  24.0299734748011 72.4306623931624  Z M 51.3081564986738 72  L 27.5371684350133 72  C 27.1928181609152 72.4306623931624  26.9136671087534 72.1094171347222  26.9136671087534 71.713141025641  C 26.9136671087534 71.3168649165598  27.1928181609152 70.9956196581197  27.5371684350133 71  L 51.3081564986738 71  C 51.6525067727719 70.9956196581197  51.9316578249337 71.3168649165598  51.9316578249337 71.713141025641  C 51.9316578249337 72.1094171347222  51.6525067727719 72.4306623931624  51.3081564986738 72  Z M 62.3753050397878 49.4699786324786  L 62.3753050397878 47.4967948717949  C 62.3753050397878 46.540099685203  63.6223076923077 46.540099685203  63.6223076923077 47.4967948717949  L 63.6223076923077 50.1875  C 63.6223076923077 50.5837761090812  63.3431566401459 50.9050213675214  62.9988063660478 50.9050213675214  L 60.660676392573 50.9050213675214  C 59.8293412649138 50.9050213675214  59.8293412649138 49.4699786324786  60.660676392573 49.4699786324786  L 62.3753050397878 49.4699786324786  Z M 63.6223076923077 50.9050213675214  L 63.6223076923077 52.8782051282051  C 63.6223076923077 53.834900314797  62.3753050397878 53.834900314797  62.3753050397878 52.8782051282051  L 62.3753050397878 50.1875  C 62.3753050397878 49.7912238909188  62.6544560919496 49.4699786324786  62.9988063660478 49.4699786324786  L 65.3369363395226 49.4699786324786  C 66.1682714671817 49.4699786324786  66.1682714671817 50.9050213675214  65.3369363395226 50.9050213675214  L 63.6223076923077 50.9050213675214  Z M 3.14267904509288 27.9443376068376  L 3.14267904509288 25.9711538461539  C 3.14267904509288 25.014458659562  4.38968169761277 25.014458659562  4.38968169761277 25.9711538461539  L 4.38968169761277 28.661858974359  C 4.38968169761277 29.0581350834402  4.11053064545097 29.3793803418804  3.76618037135283 29.3793803418804  L 1.42805039787803 29.3793803418804  C 0.596715295938305 29.3793803418804  0.596715295938305 27.9443376068376  1.42805039787803 27.9443376068376  L 3.14267904509288 27.9443376068376  Z M 60.8944893899205 0.857905982905987  L 60.8944893899205 3.2795405982906  L 62.9988063660478 3.2795405982906  C 63.8301414937069 3.2795405982906  63.8301414937069 4.71458333333334  62.9988063660478 4.71458333333334  L 60.8944893899205 4.71458333333334  L 60.8944893899205 7.13621794871795  C 60.8944893899205 8.09291310840278  59.6474867374006 8.09291310840278  59.6474867374006 7.13621794871795  L 59.6474867374006 4.71458333333334  L 57.5431697612733 4.71458333333334  C 56.7118346336141 4.71458333333334  56.7118346336141 3.2795405982906  57.5431697612733 3.2795405982906  L 59.6474867374006 3.2795405982906  L 59.6474867374006 0.857905982905987  C 59.6474867374006 -0.0987891740881375  60.8944893899205 -0.0987891740881375  60.8944893899205 0.857905982905987  Z M 4.38968169761277 29.3793803418804  L 4.38968169761277 31.3525641025641  C 4.38968169761277 32.309259289156  3.14267904509288 32.309259289156  3.14267904509288 31.3525641025641  L 3.14267904509288 28.661858974359  C 3.14267904509288 28.2655828652778  3.42183009725469 27.9443376068376  3.76618037135283 27.9443376068376  L 6.10431034482763 27.9443376068376  C 6.93564544910548 27.9443376068376  6.93564544910548 29.3793803418804  6.10431034482763 29.3793803418804  L 4.38968169761277 29.3793803418804  Z " fill-rule="nonzero" fill="#f59a23" stroke="none" transform="matrix(1 0 0 1 847 125 )" />
  </g>
</svg>