<?xml version="1.0" encoding="utf-8"?>
<svg width="211px" height="211px" viewBox="0 0 211 211" version="1.1" xmlns:xlink="http://www.w3.org/1999/xlink" xmlns="http://www.w3.org/2000/svg">
  <g id="Group-84">
    <g id="Group-83" opacity="0.15">
      <path d="M105.5 211C163.766 211 211 163.766 211 105.5C211 47.234 163.766 0 105.5 0C47.234 0 0 47.234 0 105.5C0 163.766 47.234 211 105.5 211Z" id="Ellipse-25" fill="#F56C6C" fill-opacity="0.4" fill-rule="evenodd" stroke="none" />
      <path d="M78.5 157C121.854 157 157 121.854 157 78.5C157 35.1456 121.854 0 78.5 0C35.1456 0 0 35.1456 0 78.5C0 121.854 35.1456 157 78.5 157Z" transform="translate(27 27)" id="Ellipse-24" fill="#F56C6C" fill-opacity="0.6" fill-rule="evenodd" stroke="none" />
    </g>
    <g id="IconlyBoldLocation" transform="translate(79 78)">
      <path d="M0 0L54 0L54 54L0 54L0 0Z" id="IconlyBoldLocation-(Background)" fill="none" fill-rule="evenodd" stroke="none" />
      <g id="Location" transform="translate(7.875 4.5)">
        <path d="M5.01863 32.876C1.89446 28.7722 0 23.9303 0 18.715C0 8.36525 8.64873 0 19.1103 0C29.6013 0 38.25 8.36525 38.25 18.715C38.25 23.9303 36.3533 28.7722 33.2314 32.876C29.7873 37.4029 25.5424 41.347 20.7642 44.443C19.6707 45.1584 18.6837 45.2124 17.4835 44.443C12.6782 41.347 8.4332 37.4029 5.01863 32.876ZM19.1102 12.9979C15.6412 12.9979 12.812 15.8575 12.812 19.2977C12.812 22.7648 15.6412 25.4917 19.1102 25.4917C22.5815 25.4917 25.438 22.7648 25.438 19.2977C25.438 15.8575 22.5815 12.9979 19.1102 12.9979Z" id="Location" fill="#F56C6C" fill-rule="evenodd" stroke="none" />
      </g>
    </g>
  </g>
</svg>