<?xml version="1.0" encoding="utf-8"?>
<svg version="1.1" xmlns:xlink="http://www.w3.org/1999/xlink" width="32px" height="37px" xmlns="http://www.w3.org/2000/svg">
  <defs>
    <mask fill="white" id="clip246">
      <path d="M 0.430769230769242 3.23082932692308  C 0.430769230769242 1.74797464434345  1.48691802564103 0.545883413461539  2.7897435897436 0.545883413461539  C 2.7897435897436 0.545883413461539  29.2102564102564 0.545883413461539  29.2102564102564 0.545883413461539  C 30.5130819350427 0.545883413461539  31.5692307692308 1.74797464434345  31.5692307692308 3.23082932692308  C 31.5692307692308 3.23082932692308  31.5692307692308 34.1972055288462  31.5692307692308 34.1972055288462  C 31.5692307692308 35.6800601666767  30.5130819350427 36.8821514423077  29.2102564102564 36.8821514423077  C 29.2102564102564 36.8821514423077  2.7897435897436 36.8821514423077  2.7897435897436 36.8821514423077  C 1.48691802564103 36.8821514423077  0.430769230769242 35.6800601666767  0.430769230769242 34.1972055288462  C 0.430769230769242 34.1972055288462  0.430769230769242 3.23082932692308  0.430769230769242 3.23082932692308  Z " fill-rule="evenodd" />
    </mask>
  </defs>
  <g transform="matrix(1 0 0 1 -197 -147 )">
    <path d="M 0.430769230769242 3.23082932692308  C 0.430769230769242 1.74797464434345  1.48691802564103 0.545883413461539  2.7897435897436 0.545883413461539  C 2.7897435897436 0.545883413461539  29.2102564102564 0.545883413461539  29.2102564102564 0.545883413461539  C 30.5130819350427 0.545883413461539  31.5692307692308 1.74797464434345  31.5692307692308 3.23082932692308  C 31.5692307692308 3.23082932692308  31.5692307692308 34.1972055288462  31.5692307692308 34.1972055288462  C 31.5692307692308 35.6800601666767  30.5130819350427 36.8821514423077  29.2102564102564 36.8821514423077  C 29.2102564102564 36.8821514423077  2.7897435897436 36.8821514423077  2.7897435897436 36.8821514423077  C 1.48691802564103 36.8821514423077  0.430769230769242 35.6800601666767  0.430769230769242 34.1972055288462  C 0.430769230769242 34.1972055288462  0.430769230769242 3.23082932692308  0.430769230769242 3.23082932692308  Z " fill-rule="nonzero" fill="#02a7f0" stroke="none" transform="matrix(1 0 0 1 197 147 )" />
    <path d="M 0.430769230769242 3.23082932692308  C 0.430769230769242 1.74797464434345  1.48691802564103 0.545883413461539  2.7897435897436 0.545883413461539  C 2.7897435897436 0.545883413461539  29.2102564102564 0.545883413461539  29.2102564102564 0.545883413461539  C 30.5130819350427 0.545883413461539  31.5692307692308 1.74797464434345  31.5692307692308 3.23082932692308  C 31.5692307692308 3.23082932692308  31.5692307692308 34.1972055288462  31.5692307692308 34.1972055288462  C 31.5692307692308 35.6800601666767  30.5130819350427 36.8821514423077  29.2102564102564 36.8821514423077  C 29.2102564102564 36.8821514423077  2.7897435897436 36.8821514423077  2.7897435897436 36.8821514423077  C 1.48691802564103 36.8821514423077  0.430769230769242 35.6800601666767  0.430769230769242 34.1972055288462  C 0.430769230769242 34.1972055288462  0.430769230769242 3.23082932692308  0.430769230769242 3.23082932692308  Z " stroke-width="4.95384615384615" stroke="#c3cbd6" fill="none" transform="matrix(1 0 0 1 197 147 )" mask="url(#clip246)" />
  </g>
</svg>