<?xml version="1.0" encoding="utf-8"?>
<svg version="1.1" xmlns:xlink="http://www.w3.org/1999/xlink" width="16px" height="9px" xmlns="http://www.w3.org/2000/svg">
  <defs>
    <mask fill="white" id="clip259">
      <path d="M 1.76774193548388 2.30884615384616  C 2.61070517617867 2.30884615384616  3.40971262034741 2.30884615384616  4.16476426799008 2.30884615384616  C 5.2973417394541 2.30884615384616  5.67922734739455 0.451153846153851  6.56178660049629 0.451153846153851  C 6.56178660049629 0.451153846153851  9.43821339950374 0.451153846153851  9.43821339950374 0.451153846153851  C 10.3207726526055 0.451153846153851  10.8275031736973 2.30884615384616  11.8352357320099 2.30884615384616  C 12.5070574109181 2.30884615384616  13.3060648550869 2.30884615384616  14.2322580645161 2.30884615384616  C 15.1148173176179 2.30884615384616  15.8302729528536 4.62671717596154  15.8302729528536 5.65269230769231  C 15.8302729528536 5.65269230769231  15.8302729528536 6.58153846153847  15.8302729528536 6.58153846153847  C 15.8302729528536 7.60751359326923  15.1148173176179 8.43923076923077  14.2322580645161 8.43923076923077  C 14.2322580645161 8.43923076923077  1.76774193548388 8.43923076923077  1.76774193548388 8.43923076923077  C 0.88518268238214 8.43923076923077  0.169727047146411 7.60751359326923  0.169727047146411 6.58153846153847  C 0.169727047146411 6.58153846153847  0.169727047146411 5.65269230769231  0.169727047146411 5.65269230769231  C 0.169727047146411 4.62671717596154  0.88518268238214 2.30884615384616  1.76774193548388 2.30884615384616  Z " fill-rule="evenodd" />
    </mask>
  </defs>
  <g transform="matrix(1 0 0 1 -423 -144 )">
    <path d="M 1.76774193548388 2.30884615384616  C 2.61070517617867 2.30884615384616  3.40971262034741 2.30884615384616  4.16476426799008 2.30884615384616  C 5.2973417394541 2.30884615384616  5.67922734739455 0.451153846153851  6.56178660049629 0.451153846153851  C 6.56178660049629 0.451153846153851  9.43821339950374 0.451153846153851  9.43821339950374 0.451153846153851  C 10.3207726526055 0.451153846153851  10.8275031736973 2.30884615384616  11.8352357320099 2.30884615384616  C 12.5070574109181 2.30884615384616  13.3060648550869 2.30884615384616  14.2322580645161 2.30884615384616  C 15.1148173176179 2.30884615384616  15.8302729528536 4.62671717596154  15.8302729528536 5.65269230769231  C 15.8302729528536 5.65269230769231  15.8302729528536 6.58153846153847  15.8302729528536 6.58153846153847  C 15.8302729528536 7.60751359326923  15.1148173176179 8.43923076923077  14.2322580645161 8.43923076923077  C 14.2322580645161 8.43923076923077  1.76774193548388 8.43923076923077  1.76774193548388 8.43923076923077  C 0.88518268238214 8.43923076923077  0.169727047146411 7.60751359326923  0.169727047146411 6.58153846153847  C 0.169727047146411 6.58153846153847  0.169727047146411 5.65269230769231  0.169727047146411 5.65269230769231  C 0.169727047146411 4.62671717596154  0.88518268238214 2.30884615384616  1.76774193548388 2.30884615384616  Z " fill-rule="nonzero" fill="#8400ff" stroke="none" transform="matrix(1 0 0 1 423 144 )" />
    <path d="M 1.76774193548388 2.30884615384616  C 2.61070517617867 2.30884615384616  3.40971262034741 2.30884615384616  4.16476426799008 2.30884615384616  C 5.2973417394541 2.30884615384616  5.67922734739455 0.451153846153851  6.56178660049629 0.451153846153851  C 6.56178660049629 0.451153846153851  9.43821339950374 0.451153846153851  9.43821339950374 0.451153846153851  C 10.3207726526055 0.451153846153851  10.8275031736973 2.30884615384616  11.8352357320099 2.30884615384616  C 12.5070574109181 2.30884615384616  13.3060648550869 2.30884615384616  14.2322580645161 2.30884615384616  C 15.1148173176179 2.30884615384616  15.8302729528536 4.62671717596154  15.8302729528536 5.65269230769231  C 15.8302729528536 5.65269230769231  15.8302729528536 6.58153846153847  15.8302729528536 6.58153846153847  C 15.8302729528536 7.60751359326923  15.1148173176179 8.43923076923077  14.2322580645161 8.43923076923077  C 14.2322580645161 8.43923076923077  1.76774193548388 8.43923076923077  1.76774193548388 8.43923076923077  C 0.88518268238214 8.43923076923077  0.169727047146411 7.60751359326923  0.169727047146411 6.58153846153847  C 0.169727047146411 6.58153846153847  0.169727047146411 5.65269230769231  0.169727047146411 5.65269230769231  C 0.169727047146411 4.62671717596154  0.88518268238214 2.30884615384616  1.76774193548388 2.30884615384616  Z " stroke-width="4.95384615384615" stroke="#c3cbd6" fill="none" transform="matrix(1 0 0 1 423 144 )" mask="url(#clip259)" />
  </g>
</svg>