<?xml version="1.0" encoding="utf-8"?>
<svg version="1.1" xmlns:xlink="http://www.w3.org/1999/xlink" width="16px" height="16px" viewBox="248 415  16 16" xmlns="http://www.w3.org/2000/svg">
  <path d="M 256 415  C 260.48 415  264 418.52  264 423  C 264 427.48  260.48 431  256 431  C 251.52 431  248 427.48  248 423  C 248 418.52  251.52 415  256 415  Z " fill-rule="nonzero" fill="#f0f0f0" stroke="none" />
  <path d="M 256 415.5  C 260.2 415.5  263.5 418.8  263.5 423  C 263.5 427.2  260.2 430.5  256 430.5  C 251.8 430.5  248.5 427.2  248.5 423  C 248.5 418.8  251.8 415.5  256 415.5  Z " stroke-width="1" stroke="#8c8c8c" fill="none" />
  <path d="M 256 427  C 253.76 427  252 425.24  252 423  C 252 420.76  253.76 419  256 419  C 258.24 419  260 420.76  260 423  C 260 425.24  258.24 427  256 427  " fill-rule="nonzero" fill="#8c8c8c" stroke="none" />
</svg>