<?xml version="1.0" encoding="utf-8"?>
<svg version="1.1" xmlns:xlink="http://www.w3.org/1999/xlink" width="16px" height="16px" viewBox="100 309  16 16" xmlns="http://www.w3.org/2000/svg">
  <path d="M 108 309  C 112.48 309  116 312.52  116 317  C 116 321.48  112.48 325  108 325  C 103.52 325  100 321.48  100 317  C 100 312.52  103.52 309  108 309  Z " fill-rule="nonzero" fill="#ffffff" stroke="none" />
  <path d="M 108 309.5  C 112.2 309.5  115.5 312.8  115.5 317  C 115.5 321.2  112.2 324.5  108 324.5  C 103.8 324.5  100.5 321.2  100.5 317  C 100.5 312.8  103.8 309.5  108 309.5  Z " stroke-width="1" stroke="#8c8c8c" fill="none" />
  <path d="M 108 321  C 105.76 321  104 319.24  104 317  C 104 314.76  105.76 313  108 313  C 110.24 313  112 314.76  112 317  C 112 319.24  110.24 321  108 321  " fill-rule="nonzero" fill="#8c8c8c" stroke="none" />
</svg>