<?xml version="1.0" encoding="utf-8"?>
<svg version="1.1" xmlns:xlink="http://www.w3.org/1999/xlink" width="16px" height="16px" viewBox="248 379  16 16" xmlns="http://www.w3.org/2000/svg">
  <path d="M 256 379  C 260.48 379  264 382.52  264 387  C 264 391.48  260.48 395  256 395  C 251.52 395  248 391.48  248 387  C 248 382.52  251.52 379  256 379  Z " fill-rule="nonzero" fill="#ffffff" stroke="none" />
  <path d="M 256 379.5  C 260.2 379.5  263.5 382.8  263.5 387  C 263.5 391.2  260.2 394.5  256 394.5  C 251.8 394.5  248.5 391.2  248.5 387  C 248.5 382.8  251.8 379.5  256 379.5  Z " stroke-width="1" stroke="#8c8c8c" fill="none" />
  <path d="M 256 391  C 253.76 391  252 389.24  252 387  C 252 384.76  253.76 383  256 383  C 258.24 383  260 384.76  260 387  C 260 389.24  258.24 391  256 391  " fill-rule="nonzero" fill="#8c8c8c" stroke="none" />
</svg>