<?xml version="1.0" encoding="utf-8"?>
<svg version="1.1" xmlns:xlink="http://www.w3.org/1999/xlink" width="16px" height="16px" viewBox="248 450  16 16" xmlns="http://www.w3.org/2000/svg">
  <path d="M 256 450  C 260.48 450  264 453.52  264 458  C 264 462.48  260.48 466  256 466  C 251.52 466  248 462.48  248 458  C 248 453.52  251.52 450  256 450  Z " fill-rule="nonzero" fill="#ffffff" stroke="none" />
  <path d="M 256 450.5  C 260.2 450.5  263.5 453.8  263.5 458  C 263.5 462.2  260.2 465.5  256 465.5  C 251.8 465.5  248.5 462.2  248.5 458  C 248.5 453.8  251.8 450.5  256 450.5  Z " stroke-width="1" stroke="#8c8c8c" fill="none" />
  <path d="M 256 462  C 253.76 462  252 460.24  252 458  C 252 455.76  253.76 454  256 454  C 258.24 454  260 455.76  260 458  C 260 460.24  258.24 462  256 462  " fill-rule="nonzero" fill="#8c8c8c" stroke="none" />
</svg>