<?xml version="1.0" encoding="utf-8"?>
<svg version="1.1" xmlns:xlink="http://www.w3.org/1999/xlink" width="16px" height="16px" viewBox="100 520  16 16" xmlns="http://www.w3.org/2000/svg">
  <path d="M 108 520  C 112.48 520  116 523.52  116 528  C 116 532.48  112.48 536  108 536  C 103.52 536  100 532.48  100 528  C 100 523.52  103.52 520  108 520  Z " fill-rule="nonzero" fill="#ffffff" stroke="none" />
  <path d="M 108 520.5  C 112.2 520.5  115.5 523.8  115.5 528  C 115.5 532.2  112.2 535.5  108 535.5  C 103.8 535.5  100.5 532.2  100.5 528  C 100.5 523.8  103.8 520.5  108 520.5  Z " stroke-width="1" stroke="#8c8c8c" fill="none" />
  <path d="M 108 532  C 105.76 532  104 530.24  104 528  C 104 525.76  105.76 524  108 524  C 110.24 524  112 525.76  112 528  C 112 530.24  110.24 532  108 532  " fill-rule="nonzero" fill="#8c8c8c" stroke="none" />
</svg>