<?xml version="1.0" encoding="utf-8"?>
<svg version="1.1" xmlns:xlink="http://www.w3.org/1999/xlink" width="16px" height="16px" viewBox="100 485  16 16" xmlns="http://www.w3.org/2000/svg">
  <path d="M 108 485  C 112.48 485  116 488.52  116 493  C 116 497.48  112.48 501  108 501  C 103.52 501  100 497.48  100 493  C 100 488.52  103.52 485  108 485  Z " fill-rule="nonzero" fill="#f0f0f0" stroke="none" />
  <path d="M 108 485.5  C 112.2 485.5  115.5 488.8  115.5 493  C 115.5 497.2  112.2 500.5  108 500.5  C 103.8 500.5  100.5 497.2  100.5 493  C 100.5 488.8  103.8 485.5  108 485.5  Z " stroke-width="1" stroke="#8c8c8c" fill="none" />
  <path d="M 108 497  C 105.76 497  104 495.24  104 493  C 104 490.76  105.76 489  108 489  C 110.24 489  112 490.76  112 493  C 112 495.24  110.24 497  108 497  " fill-rule="nonzero" fill="#8c8c8c" stroke="none" />
</svg>