<?xml version="1.0" encoding="utf-8"?>
<svg version="1.1" xmlns:xlink="http://www.w3.org/1999/xlink" width="16px" height="16px" viewBox="248 309  16 16" xmlns="http://www.w3.org/2000/svg">
  <path d="M 256 309  C 260.48 309  264 312.52  264 317  C 264 321.48  260.48 325  256 325  C 251.52 325  248 321.48  248 317  C 248 312.52  251.52 309  256 309  Z " fill-rule="nonzero" fill="#ffffff" stroke="none" />
  <path d="M 256 309.5  C 260.2 309.5  263.5 312.8  263.5 317  C 263.5 321.2  260.2 324.5  256 324.5  C 251.8 324.5  248.5 321.2  248.5 317  C 248.5 312.8  251.8 309.5  256 309.5  Z " stroke-width="1" stroke="#8c8c8c" fill="none" />
  <path d="M 256 321  C 253.76 321  252 319.24  252 317  C 252 314.76  253.76 313  256 313  C 258.24 313  260 314.76  260 317  C 260 319.24  258.24 321  256 321  " fill-rule="nonzero" fill="#8c8c8c" stroke="none" />
</svg>