<?xml version="1.0" encoding="utf-8"?>
<svg version="1.1" xmlns:xlink="http://www.w3.org/1999/xlink" width="16px" height="16px" viewBox="100 450  16 16" xmlns="http://www.w3.org/2000/svg">
  <path d="M 108 450  C 112.48 450  116 453.52  116 458  C 116 462.48  112.48 466  108 466  C 103.52 466  100 462.48  100 458  C 100 453.52  103.52 450  108 450  Z " fill-rule="nonzero" fill="#ffffff" stroke="none" />
  <path d="M 108 450.5  C 112.2 450.5  115.5 453.8  115.5 458  C 115.5 462.2  112.2 465.5  108 465.5  C 103.8 465.5  100.5 462.2  100.5 458  C 100.5 453.8  103.8 450.5  108 450.5  Z " stroke-width="1" stroke="#8c8c8c" fill="none" />
  <path d="M 108 462  C 105.76 462  104 460.24  104 458  C 104 455.76  105.76 454  108 454  C 110.24 454  112 455.76  112 458  C 112 460.24  110.24 462  108 462  " fill-rule="nonzero" fill="#8c8c8c" stroke="none" />
</svg>