<?xml version="1.0" encoding="utf-8"?>
<svg version="1.1" xmlns:xlink="http://www.w3.org/1999/xlink" width="16px" height="16px" viewBox="100 415  16 16" xmlns="http://www.w3.org/2000/svg">
  <path d="M 108 415  C 112.48 415  116 418.52  116 423  C 116 427.48  112.48 431  108 431  C 103.52 431  100 427.48  100 423  C 100 418.52  103.52 415  108 415  Z " fill-rule="nonzero" fill="#f0f0f0" stroke="none" />
  <path d="M 108 415.5  C 112.2 415.5  115.5 418.8  115.5 423  C 115.5 427.2  112.2 430.5  108 430.5  C 103.8 430.5  100.5 427.2  100.5 423  C 100.5 418.8  103.8 415.5  108 415.5  Z " stroke-width="1" stroke="#8c8c8c" fill="none" />
  <path d="M 108 427  C 105.76 427  104 425.24  104 423  C 104 420.76  105.76 419  108 419  C 110.24 419  112 420.76  112 423  C 112 425.24  110.24 427  108 427  " fill-rule="nonzero" fill="#8c8c8c" stroke="none" />
</svg>