<?xml version="1.0" encoding="utf-8"?>
<svg version="1.1" xmlns:xlink="http://www.w3.org/1999/xlink" width="16px" height="16px" viewBox="100 379  16 16" xmlns="http://www.w3.org/2000/svg">
  <path d="M 108 379  C 112.48 379  116 382.52  116 387  C 116 391.48  112.48 395  108 395  C 103.52 395  100 391.48  100 387  C 100 382.52  103.52 379  108 379  Z " fill-rule="nonzero" fill="#ffffff" stroke="none" />
  <path d="M 108 379.5  C 112.2 379.5  115.5 382.8  115.5 387  C 115.5 391.2  112.2 394.5  108 394.5  C 103.8 394.5  100.5 391.2  100.5 387  C 100.5 382.8  103.8 379.5  108 379.5  Z " stroke-width="1" stroke="#8c8c8c" fill="none" />
  <path d="M 108 391  C 105.76 391  104 389.24  104 387  C 104 384.76  105.76 383  108 383  C 110.24 383  112 384.76  112 387  C 112 389.24  110.24 391  108 391  " fill-rule="nonzero" fill="#8c8c8c" stroke="none" />
</svg>