<?xml version="1.0" encoding="utf-8"?>
<svg version="1.1" xmlns:xlink="http://www.w3.org/1999/xlink" width="16px" height="16px" viewBox="248 485  16 16" xmlns="http://www.w3.org/2000/svg">
  <path d="M 256 485  C 260.48 485  264 488.52  264 493  C 264 497.48  260.48 501  256 501  C 251.52 501  248 497.48  248 493  C 248 488.52  251.52 485  256 485  Z " fill-rule="nonzero" fill="#f0f0f0" stroke="none" />
  <path d="M 256 485.5  C 260.2 485.5  263.5 488.8  263.5 493  C 263.5 497.2  260.2 500.5  256 500.5  C 251.8 500.5  248.5 497.2  248.5 493  C 248.5 488.8  251.8 485.5  256 485.5  Z " stroke-width="1" stroke="#8c8c8c" fill="none" />
  <path d="M 256 497  C 253.76 497  252 495.24  252 493  C 252 490.76  253.76 489  256 489  C 258.24 489  260 490.76  260 493  C 260 495.24  258.24 497  256 497  " fill-rule="nonzero" fill="#8c8c8c" stroke="none" />
</svg>