<?xml version="1.0" encoding="utf-8"?>
<svg version="1.1" xmlns:xlink="http://www.w3.org/1999/xlink" width="16px" height="16px" viewBox="248 520  16 16" xmlns="http://www.w3.org/2000/svg">
  <path d="M 256 520  C 260.48 520  264 523.52  264 528  C 264 532.48  260.48 536  256 536  C 251.52 536  248 532.48  248 528  C 248 523.52  251.52 520  256 520  Z " fill-rule="nonzero" fill="#ffffff" stroke="none" />
  <path d="M 256 520.5  C 260.2 520.5  263.5 523.8  263.5 528  C 263.5 532.2  260.2 535.5  256 535.5  C 251.8 535.5  248.5 532.2  248.5 528  C 248.5 523.8  251.8 520.5  256 520.5  Z " stroke-width="1" stroke="#8c8c8c" fill="none" />
  <path d="M 256 532  C 253.76 532  252 530.24  252 528  C 252 525.76  253.76 524  256 524  C 258.24 524  260 525.76  260 528  C 260 530.24  258.24 532  256 532  " fill-rule="nonzero" fill="#8c8c8c" stroke="none" />
</svg>