<?xml version="1.0" encoding="utf-8"?>
<svg version="1.1" xmlns:xlink="http://www.w3.org/1999/xlink" width="16px" height="16px" viewBox="100 344  16 16" xmlns="http://www.w3.org/2000/svg">
  <path d="M 108 344  C 112.48 344  116 347.52  116 352  C 116 356.48  112.48 360  108 360  C 103.52 360  100 356.48  100 352  C 100 347.52  103.52 344  108 344  Z " fill-rule="nonzero" fill="#ffffff" stroke="none" />
  <path d="M 108 344.5  C 112.2 344.5  115.5 347.8  115.5 352  C 115.5 356.2  112.2 359.5  108 359.5  C 103.8 359.5  100.5 356.2  100.5 352  C 100.5 347.8  103.8 344.5  108 344.5  Z " stroke-width="1" stroke="#8c8c8c" fill="none" />
  <path d="M 108 356  C 105.76 356  104 354.24  104 352  C 104 349.76  105.76 348  108 348  C 110.24 348  112 349.76  112 352  C 112 354.24  110.24 356  108 356  " fill-rule="nonzero" fill="#8c8c8c" stroke="none" />
</svg>