<?xml version="1.0" encoding="utf-8"?>
<svg version="1.1" xmlns:xlink="http://www.w3.org/1999/xlink" width="493px" height="126px" xmlns="http://www.w3.org/2000/svg">
  <g transform="matrix(1 0 0 1 -20 -60 )">
    <path d="M 21 64  A 3 3 0 0 1 24 61 L 509 61  A 3 3 0 0 1 512 64 L 512 182  A 3 3 0 0 1 509 185 L 24 185  A 3 3 0 0 1 21 182 L 21 64  Z " fill-rule="nonzero" fill="#2561ef" stroke="none" fill-opacity="0.0470588235294118" />
    <path d="M 20.5 64  A 3.5 3.5 0 0 1 24 60.5 L 509 60.5  A 3.5 3.5 0 0 1 512.5 64 L 512.5 182  A 3.5 3.5 0 0 1 509 185.5 L 24 185.5  A 3.5 3.5 0 0 1 20.5 182 L 20.5 64  Z " stroke-width="1" stroke-dasharray="9,4" stroke="#e4e4e4" fill="none" stroke-dashoffset="0.5" />
  </g>
</svg>