<?xml version="1.0" encoding="utf-8"?>
<svg version="1.1" xmlns:xlink="http://www.w3.org/1999/xlink" width="118px" height="60px" xmlns="http://www.w3.org/2000/svg">
  <defs>
    <filter x="154px" y="9px" width="118px" height="60px" filterUnits="userSpaceOnUse" id="filter255">
      <feOffset dx="0" dy="0" in="SourceAlpha" result="shadowOffsetInner" />
      <feGaussianBlur stdDeviation="2.5" in="shadowOffsetInner" result="shadowGaussian" />
      <feComposite in2="shadowGaussian" operator="atop" in="SourceAlpha" result="shadowComposite" />
      <feColorMatrix type="matrix" values="0 0 0 0 0.949019607843137  0 0 0 0 0.949019607843137  0 0 0 0 0.949019607843137  0 0 0 1 0  " in="shadowComposite" />
    </filter>
    <g id="widget256">
      <path d="M 159.5 18  A 3.5 3.5 0 0 1 163 14.5 L 263 14.5  A 3.5 3.5 0 0 1 266.5 18 L 266.5 60  A 3.5 3.5 0 0 1 263 63.5 L 163 63.5  A 3.5 3.5 0 0 1 159.5 60 L 159.5 18  Z " fill-rule="nonzero" fill="#ffffff" stroke="none" />
      <path d="M 159.5 18  A 3.5 3.5 0 0 1 163 14.5 L 263 14.5  A 3.5 3.5 0 0 1 266.5 18 L 266.5 60  A 3.5 3.5 0 0 1 263 63.5 L 163 63.5  A 3.5 3.5 0 0 1 159.5 60 L 159.5 18  Z " stroke-width="1" stroke="#f2f2f2" fill="none" />
    </g>
  </defs>
  <g transform="matrix(1 0 0 1 -154 -9 )">
    <use xlink:href="#widget256" filter="url(#filter255)" />
    <use xlink:href="#widget256" />
  </g>
</svg>