<?xml version="1.0" encoding="utf-8"?>
<svg version="1.1" xmlns:xlink="http://www.w3.org/1999/xlink" width="14px" height="14px" xmlns="http://www.w3.org/2000/svg">
  <g transform="matrix(1 0 0 1 -1277 -146 )">
    <path d="M 0.342657342657276 3.5  L 6.85314685314674 0  L 13.3636363636365 3.5  L 13.3636363636365 10.5  L 6.85314685314674 14  L 0.342657342657276 10.5  L 0.342657342657276 3.5  Z M 11.9930069930071 4.23372727272726  L 6.85314685314674 1.47063636363634  L 1.71328671328662 4.23372727272726  L 1.71328671328662 9.76627272727274  L 6.85314685314674 12.5293636363637  L 11.9930069930071 9.76627272727274  L 11.9930069930071 4.23372727272726  Z M 6.85314685314674 9.54545454545456  C 5.33919145500935 9.54545454545456  4.11188811188805 8.40581572684204  4.11188811188805 7  C 4.11188811188805 5.59418427315796  5.33919145500935 4.45454545454544  6.85314685314674 4.45454545454544  C 8.36710225128438 4.45454545454544  9.59440559440568 5.59418427315796  9.59440559440568 7  C 9.59440559440568 8.40581572684204  8.36710225128438 9.54545454545456  6.85314685314674 9.54545454545456  Z M 6.85314685314674 8.27272727272731  C 7.61012455221568 8.27272727272731  8.22377622377634 7.70290786342099  8.22377622377634 7  C 8.22377622377634 6.29709213657901  7.61012455221568 5.72727272727269  6.85314685314674 5.72727272727269  C 6.09616915407805 5.72727272727269  5.48251748251739 6.29709213657901  5.48251748251739 7  C 5.48251748251739 7.70290786342099  6.09616915407805 8.27272727272731  6.85314685314674 8.27272727272731  Z " fill-rule="nonzero" fill="#333333" stroke="none" transform="matrix(1 0 0 1 1277 146 )" />
  </g>
</svg>