<?xml version="1.0" encoding="utf-8"?>
<svg version="1.1" xmlns:xlink="http://www.w3.org/1999/xlink" width="123px" height="60px" xmlns="http://www.w3.org/2000/svg">
  <defs>
    <filter x="274px" y="9px" width="123px" height="60px" filterUnits="userSpaceOnUse" id="filter90">
      <feOffset dx="0" dy="0" in="SourceAlpha" result="shadowOffsetInner" />
      <feGaussianBlur stdDeviation="2.5" in="shadowOffsetInner" result="shadowGaussian" />
      <feComposite in2="shadowGaussian" operator="atop" in="SourceAlpha" result="shadowComposite" />
      <feColorMatrix type="matrix" values="0 0 0 0 0.949019607843137  0 0 0 0 0.949019607843137  0 0 0 0 0.949019607843137  0 0 0 1 0  " in="shadowComposite" />
    </filter>
    <g id="widget91">
      <path d="M 279.5 18  A 3.5 3.5 0 0 1 283 14.5 L 388 14.5  A 3.5 3.5 0 0 1 391.5 18 L 391.5 60  A 3.5 3.5 0 0 1 388 63.5 L 283 63.5  A 3.5 3.5 0 0 1 279.5 60 L 279.5 18  Z " fill-rule="nonzero" fill="#ffffff" stroke="none" />
      <path d="M 279.5 18  A 3.5 3.5 0 0 1 283 14.5 L 388 14.5  A 3.5 3.5 0 0 1 391.5 18 L 391.5 60  A 3.5 3.5 0 0 1 388 63.5 L 283 63.5  A 3.5 3.5 0 0 1 279.5 60 L 279.5 18  Z " stroke-width="1" stroke="#f2f2f2" fill="none" />
    </g>
  </defs>
  <g transform="matrix(1 0 0 1 -274 -9 )">
    <use xlink:href="#widget91" filter="url(#filter90)" />
    <use xlink:href="#widget91" />
  </g>
</svg>