<?xml version="1.0" encoding="utf-8"?>
<svg version="1.1" xmlns:xlink="http://www.w3.org/1999/xlink" width="17px" height="19px" xmlns="http://www.w3.org/2000/svg">
  <g transform="matrix(1 0 0 1 -624 -475 )">
    <path d="M 0.912904761904763 3.61904761904759  L 3.61904761904762 3.61904761904759  L 3.61904761904762 0.904761904761926  C 3.61904761904762 0.405075702534077  4.02412332158165 0  4.52380952380952 0  L 15.3809523809524 0  C 15.8806385831802 0  16.2857142857143 0.405075702534077  16 0.904761904761926  L 16 13.5714285714286  C 16.2857142857143 14.0711147736564  15.8806385831802 14.4761904761905  15.3809523809524 14.4761904761905  L 12.6666666666667 14.4761904761905  L 12.6666666666667 17.1904761904761  C 12.6666666666667 17.6899047619048  12.2595238095238 18.0952380952381  11.7555714285714 18  L 0.911095238095236 18  C 0.909285589334232 18.0952489433494  0.907475912123033 18.0952543674415  0.905666230847302 18.0952543674415  C 0.405827284045579 18.0952543674415  0.000490358950926861 17.6903148967485  0 17.1904761904761  L 0.00271428571428345 4.52380952380952  C 0.00271428571428345 4.02438095238097  0.409857142857142 3.61904761904759  0.912904761904763 3.61904761904759  Z M 10.8571428571428 5.42857142857144  L 2 5.42857142857144  L 2 16.2857142857143  L 10.8571428571428 16.2857142857143  L 10.8571428571428 5.42857142857144  Z M 5.42857142857143 1.80952380952385  L 5.42857142857143 3.61904761904759  L 12.6666666666667 3.61904761904759  L 12.6666666666667 12.6666666666666  L 14.4761904761905 12.6666666666666  L 14.4761904761905 1.80952380952385  L 5.42857142857143 1.80952380952385  Z M 3.61904761904762 9.95238095238096  L 3.61904761904762 8.14285714285711  L 9.04761904761904 8.14285714285711  L 9.04761904761904 9.95238095238096  L 3.61904761904762 9.95238095238096  Z M 3.61904761904762 13.5714285714286  L 3.61904761904762 11.7619047619048  L 9.04761904761904 11.7619047619048  L 9.04761904761904 13.5714285714286  L 3.61904761904762 13.5714285714286  Z " fill-rule="nonzero" fill="#3dd4a7" stroke="none" transform="matrix(1 0 0 1 624 475 )" />
  </g>
</svg>