<?xml version="1.0" encoding="utf-8"?>
<svg version="1.1" xmlns:xlink="http://www.w3.org/1999/xlink" width="283px" height="180px" xmlns="http://www.w3.org/2000/svg">
  <defs>
    <filter x="0px" y="184px" width="283px" height="180px" filterUnits="userSpaceOnUse" id="filter334">
      <feOffset dx="0" dy="10" in="SourceAlpha" result="shadowOffsetInner" />
      <feGaussianBlur stdDeviation="20" in="shadowOffsetInner" result="shadowGaussian" />
      <feComposite in2="shadowGaussian" operator="atop" in="SourceAlpha" result="shadowComposite" />
      <feColorMatrix type="matrix" values="0 0 0 0 0.949019607843137  0 0 0 0 0.949019607843137  0 0 0 0 0.949019607843137  0 0 0 1 0  " in="shadowComposite" />
    </filter>
    <g id="widget335">
      <path d="M 41 222  A 7 7 0 0 1 48 215 L 235 215  A 7 7 0 0 1 242 222 L 242 306  A 7 7 0 0 1 235 313 L 48 313  A 7 7 0 0 1 41 306 L 41 222  Z " fill-rule="nonzero" fill="#ffffff" stroke="none" />
      <path d="M 40.5 222  A 7.5 7.5 0 0 1 48 214.5 L 235 214.5  A 7.5 7.5 0 0 1 242.5 222 L 242.5 306  A 7.5 7.5 0 0 1 235 313.5 L 48 313.5  A 7.5 7.5 0 0 1 40.5 306 L 40.5 222  Z " stroke-width="1" stroke="#2561ef" fill="none" stroke-opacity="0.0588235294117647" />
    </g>
  </defs>
  <g transform="matrix(1 0 0 1 0 -184 )">
    <use xlink:href="#widget335" filter="url(#filter334)" />
    <use xlink:href="#widget335" />
  </g>
</svg>