<?xml version="1.0" encoding="utf-8"?>
<svg version="1.1" xmlns:xlink="http://www.w3.org/1999/xlink" width="16px" height="16px" xmlns="http://www.w3.org/2000/svg">
  <g transform="matrix(1 0 0 1 -134 -212 )">
    <path d="M 4.00000005563757 11.2  C 4.00000005563757 8.99086100067683  5.7908610480111 7.19999999999999  8.00000003709172 7.19999999999999  C 10.2091390261723 7.19999999999999  12.0000000185458 8.99086100067683  12.0000000185458 11.2  L 12.0000000185458 16  L 4.00000005563757 16  L 4.00000005563757 11.2  Z M 2.63040006198767 9.60480000000001  C 2.50308617106177 10.0342290671868  2.42787951507509 10.477411149163  2.40640006302621 10.9248  L 2.4000000630559 11.2  L 2.4000000630559 16  L 0 16  L 0 12.4  C -0.000326103305241077 10.9713234102967  1.07501348619127 9.77152161844086  2.49520006261449 9.61600000000001  L 2.63120006198395 9.60480000000001  Z M 13.6000000111275 11.2  C 13.6000000111275 10.6456  13.5200000114984 10.1104  13.3696000121957 9.60480000000001  C 14.8473633882042 9.69487361085115  15.9997824020504 10.9194940649411  16 12.4  L 16 16  L 13.6000000111275 16  L 13.6000000111275 11.2  Z M 2.8000000612013 4.80000000000001  C 3.90456955574163 4.80000000000001  4.80000005192841 5.69543050033843  4.80000005192841 6.80000000000001  C 4.80000005192841 7.90456949966159  3.90456955574163 8.80000000000001  2.8000000612013 8.80000000000001  C 1.69543056666106 8.80000000000001  0.800000070474226 7.90456949966159  0.800000070474226 6.80000000000001  C 0.800000070474226 5.69543050033843  1.69543056666106 4.80000000000001  2.8000000612013 4.80000000000001  Z M 13.2000000129821 4.80000000000001  C 14.3045695075224 4.80000000000001  15.2000000037092 5.69543050033843  15.2000000037092 6.80000000000001  C 15.2000000037092 7.90456949966159  14.3045695075224 8.80000000000001  13.2000000129821 8.80000000000001  C 12.0954305184418 8.80000000000001  11.200000022255 7.90456949966159  11.200000022255 6.80000000000001  C 11.200000022255 5.69543050033843  12.0954305184418 4.80000000000001  13.2000000129821 4.80000000000001  Z M 8.00000003709172 0  C 9.76731122835619 0  11.200000022255 1.43268880054148  11.200000022255 3.19999999999999  C 11.200000022255 4.96731119945855  9.76731122835619 6.40000000000001  8.00000003709172 6.40000000000001  C 6.23268884582723 6.40000000000001  4.80000005192841 4.96731119945855  4.80000005192841 3.19999999999999  C 4.80000005192841 1.43268880054148  6.23268884582723 0  8.00000003709172 0  Z " fill-rule="nonzero" fill="#ffffff" stroke="none" transform="matrix(1 0 0 1 134 212 )" />
  </g>
</svg>