<?xml version="1.0" encoding="utf-8"?>
<svg version="1.1" xmlns:xlink="http://www.w3.org/1999/xlink" width="20px" height="18px" xmlns="http://www.w3.org/2000/svg">
  <g transform="matrix(1 0 0 1 -555 -475 )">
    <path d="M 17 17.0000000008685  L 17 16  L 3 16  L 3 17.0000000008685  C 3 17.5522847502197  2.55228474983079 18  2 18  L 1 18  C 0.447715250169207 18  0 17.5522847502197  0 17.0000000008685  L 0 8.00000000868541  L 2.513 1.29800001450637  C 2.80569073279326 0.517178288300339  3.55212325643848 -0.000103833883321213  4.386 0  L 15.614 0  C 16.4478767435615 -0.000103833883320769  17.1943092672067 0.517178288300339  17.487 1.29800001450637  L 20 8.00000000868541  L 20 17.0000000008685  C 20 17.5522847502197  19.5522847498308 18  19 18  L 18 18  C 17.4477152501692 18  17 17.5522847502197  17 17.0000000008685  Z M 4.386 2  L 2.136 8  L 17.864 8  L 15.614 2  L 4.386 2  Z M 4.5 13.0000000043427  C 5.32842712474619 13.0000000043427  6 12.3284271296722  6 11.5000000056455  C 6 10.6715728816188  5.32842712474619 10.0000000069483  4.5 10.0000000069483  C 3.67157287525381 10.0000000069483  3 10.6715728816188  3 11.5000000056455  C 3 12.3284271296722  3.67157287525381 13.0000000043427  4.5 13.0000000043427  Z M 15.5 13.0000000043427  C 16.3284271247462 13.0000000043427  17 12.3284271296722  17 11.5000000056455  C 17 10.6715728816188  16.3284271247462 10.0000000069483  15.5 10.0000000069483  C 14.6715728752538 10.0000000069483  14 10.6715728816188  14 11.5000000056455  C 14 12.3284271296722  14.6715728752538 13.0000000043427  15.5 13.0000000043427  Z " fill-rule="nonzero" fill="#6c76f4" stroke="none" transform="matrix(1 0 0 1 555 475 )" />
  </g>
</svg>