<?xml version="1.0" encoding="utf-8"?>
<svg version="1.1" xmlns:xlink="http://www.w3.org/1999/xlink" width="16px" height="19px" xmlns="http://www.w3.org/2000/svg">
  <g transform="matrix(1 0 0 1 -506 -211 )">
    <path d="M 0 17.6842105263158  C 0 13.963555369561  3.01618694850833 10.9473684210526  6.73684210526312 10.9473684210526  L 6.73684210526312 17.6842105263158  L 0 17.6842105263158  Z M 14.2635789473685 18.5642105263158  L 11.7894736842105 17.2631578947368  L 9.31452631578952 18.5642105263158  L 9.78694736842101 15.8088421052631  L 7.78526315789475 13.8568421052631  L 10.5524210526316 13.4543157894736  L 11.7894736842105 10.9473684210526  L 13.0273684210526 13.4543157894736  L 15.7936842105263 13.8568421052631  L 13.792 15.8088421052631  L 14.2635789473685 18.5642105263158  Z M 11.7894736842105 5.0526315789474  C 11.7894736842105 7.84421052631575  9.52842105263164 10.1052631578947  6.73684210526312 10.1052631578947  C 3.94526315789471 10.1052631578947  1.68421052631572 7.84421052631575  1.68421052631572 5.0526315789474  C 1.68421052631572 2.26105263157893  3.94526315789471 0  6.73684210526312 0  C 9.52842105263164 0  11.7894736842105 2.26105263157893  11.7894736842105 5.0526315789474  Z " fill-rule="nonzero" fill="#ffffff" stroke="none" transform="matrix(1 0 0 1 506 211 )" />
  </g>
</svg>