<?xml version="1.0" encoding="utf-8"?>
<svg version="1.1" xmlns:xlink="http://www.w3.org/1999/xlink" width="40px" height="40px" xmlns="http://www.w3.org/2000/svg">
  <defs>
    <mask fill="white" id="clip60">
      <path d="M 0 15  C 0 7.83849591105893  4.79726657291766 1.98533725109541  11.4172850713339 0.415038667528478  C 12.5621375687421 0.143474433153116  13.7615040889411 0  15 0  C 23.4 0  30 6.6  30 15  C 30 23.4  23.4 30  15 30  C 6.59999999999999 30  0 23.4  0 15  Z " fill-rule="evenodd" />
    </mask>
    <filter x="209px" y="67px" width="40px" height="40px" filterUnits="userSpaceOnUse" id="filter61">
      <feOffset dx="1" dy="1" in="SourceAlpha" result="shadowOffsetInner" />
      <feGaussianBlur stdDeviation="2.5" in="shadowOffsetInner" result="shadowGaussian" />
      <feComposite in2="shadowGaussian" operator="atop" in="SourceAlpha" result="shadowComposite" />
      <feColorMatrix type="matrix" values="0 0 0 0 0  0 0 0 0 0  0 0 0 0 0  0 0 0 0.698039215686274 0  " in="shadowComposite" />
    </filter>
    <g id="widget62">
      <path d="M 0 15  C 0 7.83849591105893  4.79726657291766 1.98533725109541  11.4172850713339 0.415038667528478  C 12.5621375687421 0.143474433153116  13.7615040889411 0  15 0  C 23.4 0  30 6.6  30 15  C 30 23.4  23.4 30  15 30  C 6.59999999999999 30  0 23.4  0 15  Z " fill-rule="nonzero" fill="#009dd9" stroke="none" transform="matrix(1 0 0 1 213 71 )" />
      <path d="M 0 15  C 0 7.83849591105893  4.79726657291766 1.98533725109541  11.4172850713339 0.415038667528478  C 12.5621375687421 0.143474433153116  13.7615040889411 0  15 0  C 23.4 0  30 6.6  30 15  C 30 23.4  23.4 30  15 30  C 6.59999999999999 30  0 23.4  0 15  Z " stroke-width="2" stroke="#ffffff" fill="none" transform="matrix(1 0 0 1 213 71 )" mask="url(#clip60)" />
    </g>
  </defs>
  <g transform="matrix(1 0 0 1 -209 -67 )">
    <use xlink:href="#widget62" filter="url(#filter61)" />
    <use xlink:href="#widget62" />
  </g>
</svg>