<?xml version="1.0" encoding="utf-8"?>
<svg version="1.1" xmlns:xlink="http://www.w3.org/1999/xlink" width="19px" height="18px" xmlns="http://www.w3.org/2000/svg">
  <g transform="matrix(1 0 0 1 -413 -586 )">
    <path d="M 12.5717142857143 12  L 15.4285714285714 9.85714285714289  L 15.4285714285714 17.5714285714286  L 12.5717142857143 15.4285714285714  L 10.2857142857143 15.4285714285714  L 10.2857142857143 12  L 12.5717142857143 12  Z M 0.85714285714289 0  L 16.2857142857143 0  C 16.7591012141407 0  17.1428571428572 0.383755928716482  17.1428571428572 0.85714285714289  L 17.1428571428572 8.57142857142856  L 15.4285714285714 8.57142857142856  L 15.4285714285714 3.63171428571434  L 8.63314285714284 9.71828571428568  L 2 3.61285714285714  L 2 13.7142857142857  L 8.57142857142856 13.7142857142857  L 8.57142857142856 15.4285714285714  L 0.85714285714289 15.4285714285714  C 0.383755928716482 15.4285714285714  0 15.044815499855  0 14.5714285714286  L 0 0.85714285714289  C 0 0.383755928716482  0.383755928716482 0  0.85714285714289 0  Z M 16.2857142857143 15.4285714285714  L 16.2857142857143 12  C 16.2882714185644 11.9999885566891  16.2908285738172 11.9999828350121  16.2933857322718 11.9999828350121  C 17.2401595891245 11.9999828350121  18.0076714465574 12.7674946924451  18.0076714465574 13.7142685492979  C 18.0076714465574 14.6141268437026  17.3119033731542 15.3608232175139  16.4142857142857 15.4242857142857  L 16.2857142857143 15.4285714285714  Z M 8.6237142857143 7.42457142857143  L 15 2  L 2.15228571428565 2  L 8.6237142857143 7.42457142857143  Z " fill-rule="nonzero" fill="#fddb78" stroke="none" transform="matrix(1 0 0 1 413 586 )" />
  </g>
</svg>