<?xml version="1.0" encoding="utf-8"?>
<svg version="1.1" xmlns:xlink="http://www.w3.org/1999/xlink" width="18px" height="18px" xmlns="http://www.w3.org/2000/svg">
  <g transform="matrix(1 0 0 1 -481 -475 )">
    <path d="M 17.1 13.5  L 9.89999999999998 13.5  L 9.89999999999998 15.3  L 13.5 15.3  L 13.5 17.1  L 4.5 17.1  L 4.5 15.3  L 8.10000000000002 15.3  L 8.10000000000002 13.5  L 0.899999999999977 13.5  C 0.402943725152284 13.5  0 13.0970562748478  0 12.6  L 0 0.899999999999977  C 0 0.402943725152227  0.402943725152284 0  0.899999999999977 0  L 17.1 0  C 17.5970562748477 0  18 0.402943725152227  18 0.899999999999977  L 18 12.6  C 18 13.0970562748478  17.5970562748477 13.5  17.1 13.5  Z M 16.2 2  L 1.80000000000001 2  L 1.80000000000001 11.7  L 16.2 11.7  L 16.2 2  Z M 7.19999999999999 9.45000000000005  L 7.19999999999999 4.04999999999995  L 11.7 6.75  L 7.19999999999999 9.45000000000005  Z " fill-rule="nonzero" fill="#ffffff" stroke="none" transform="matrix(1 0 0 1 481 475 )" />
  </g>
</svg>