<?xml version="1.0" encoding="utf-8"?>
<svg version="1.1" xmlns:xlink="http://www.w3.org/1999/xlink" width="16px" height="16px" xmlns="http://www.w3.org/2000/svg">
  <g transform="matrix(1 0 0 1 -1249 -212 )">
    <path d="M 11.6363636363635 15  L 0 15  C 0 15.2727272727273  0 15.2727272727273  0 15.2727272727273  C 0 12.0594341828027  2.60488872825727 9.45454545454544  5.81818181818176 9.45454545454544  C 9.03147490810647 9.45454545454544  11.6363636363635 12.0594341828027  11.6363636363635 15.2727272727273  C 11.6363636363635 15.2727272727273  11.6363636363635 15.2727272727273  11.6363636363635 15  Z M 10.1818181818182 4.36363636363637  C 10.1818181818182 6.77454545454555  8.22909090909093 8.7272727272728  5.81818181818176 8.7272727272728  C 3.40727272727281 8.7272727272728  1.4545454545455 6.77454545454555  1.4545454545455 4.36363636363637  C 1.4545454545455 1.95272727272726  3.40727272727281 0  5.81818181818176 0  C 8.22909090909093 0  10.1818181818182 1.95272727272726  10.1818181818182 4.36363636363637  Z M 13.090909090909 13.0909090909092  L 13.090909090909 11.6363636363637  L 16 11.6363636363637  L 16 13.0909090909092  L 13.090909090909 13.0909090909092  Z M 10.909090909091 9.45454545454544  L 10.909090909091 8  L 16 8  L 16 9.45454545454544  L 10.909090909091 9.45454545454544  Z M 12.3636363636365 5.81818181818187  L 12.3636363636365 4.36363636363637  L 16 4.36363636363637  L 16 5.81818181818187  L 12.3636363636365 5.81818181818187  Z " fill-rule="nonzero" fill="#ffffff" stroke="none" transform="matrix(1 0 0 1 1249 212 )" />
  </g>
</svg>