<?xml version="1.0" encoding="utf-8"?>
<svg version="1.1" xmlns:xlink="http://www.w3.org/1999/xlink" width="14px" height="18px" xmlns="http://www.w3.org/2000/svg">
  <g transform="matrix(1 0 0 1 -878 -211 )">
    <path d="M 0 17.6842105263158  C 5.7626037062164E-05 14.2890633280479  2.52626545982119 11.4243436445366  5.89473684210526 10.9995789473685  L 5.89473684210526 16  L 7.57894736842104 16  L 7.57894736842104 10.9995789473685  C 10.9018947368422 11.4138947368421  13.4736842105263 14.2484210526315  13.4736842105263 17.6842105263158  L 0 17.6842105263158  Z M 11.7894736842105 5.0526315789474  C 11.7894736842105 7.84421052631583  9.52842105263156 10.1052631578948  6.73684210526315 10.1052631578948  C 3.94526315789477 10.1052631578948  1.68421052631581 7.84421052631583  1.68421052631581 5.0526315789474  C 1.68421052631581 2.26105263157893  3.94526315789477 0  6.73684210526315 0  C 9.52842105263156 0  11.7894736842105 2.26105263157893  11.7894736842105 5.0526315789474  Z " fill-rule="nonzero" fill="#ffffff" stroke="none" transform="matrix(1 0 0 1 878 211 )" />
  </g>
</svg>