<?xml version="1.0" encoding="utf-8"?>
<svg version="1.1" xmlns:xlink="http://www.w3.org/1999/xlink" width="209px" height="81px" xmlns="http://www.w3.org/2000/svg">
  <g transform="matrix(1 0 0 1 -598 -664 )">
    <path d="M 598 727.559720463339  C 598 727.559720463339  598 669  598 669  C 598 666.238576250846  600.238576250846 664  603 664  C 603 664  802 664  802 664  C 804.761423749154 664  807 666.238576250846  807 669  C 807 669  807 727.559720463339  807 727.559720463339  C 807 730.321144212493  804.761423749154 732.559720463339  802 732.559720463339  C 802 732.559720463339  663.166576193271 732.559720463339  663.166576193271 732.559720463339  C 663.166576193271 732.559720463339  653.384795839468 744.130782207543  653.384795839468 744.130782207543  C 653.384795839468 744.130782207543  643.166576193271 732.559720463339  643.166576193271 732.559720463339  C 643.166576193271 732.559720463339  603 732.559720463339  603 732.559720463339  C 600.238576250846 732.559720463339  598 730.321144212493  598 727.559720463339  Z " fill-rule="nonzero" fill="#000000" stroke="none" fill-opacity="0.8" />
  </g>
</svg>