<?xml version="1.0" encoding="utf-8"?>
<svg version="1.1" xmlns:xlink="http://www.w3.org/1999/xlink" width="169px" height="50px" xmlns="http://www.w3.org/2000/svg">
  <g transform="matrix(1 0 0 1 -1112 -696 )">
    <path d="M 1112 729.052640300486  C 1112 729.052640300486  1112 701  1112 701  C 1112 698.238576250846  1114.23857625085 696  1117 696  C 1117 696  1276 696  1276 696  C 1278.76142374915 696  1281 698.238576250846  1281 701  C 1281 701  1281 729.052640300486  1281 729.052640300486  C 1281 731.81406404964  1278.76142374915 734.052640300486  1276 734.052640300486  C 1276 734.052640300486  1166.46167840376 734.052640300486  1166.46167840376 734.052640300486  C 1166.46167840376 734.052640300486  1156.29966744914 745.148329098542  1156.29966744914 745.148329098542  C 1156.29966744914 745.148329098542  1146.46167840376 734.052640300486  1146.46167840376 734.052640300486  C 1146.46167840376 734.052640300486  1117 734.052640300486  1117 734.052640300486  C 1114.23857625085 734.052640300486  1112 731.81406404964  1112 729.052640300486  Z " fill-rule="nonzero" fill="#000000" stroke="none" fill-opacity="0.8" />
  </g>
</svg>