<?xml version="1.0" encoding="utf-8"?>
<svg version="1.1" xmlns:xlink="http://www.w3.org/1999/xlink" width="17px" height="9px" xmlns="http://www.w3.org/2000/svg">
  <g transform="matrix(1 0 0 1 -419 -259 )">
    <path d="M 16.8296593186373 0.927835051546391  C 16.9432197728791 1.03092783505154  17 1.14948453608247  17 1.28350515463918  C 17 1.41752577319588  16.9432197728791 1.5360824742268  16.8296593186373 1.63917525773196  L 8.89178356713427 8.84536082474227  C 8.77822311289245 8.94845360824742  8.64762859051436 9  8.5 9  C 8.35237140948564 9  8.22177688710755 8.94845360824742  8.10821643286573 8.84536082474227  L 0.170340681362725 1.63917525773196  C 0.0567802271209086 1.5360824742268  0 1.41752577319588  0 1.28350515463918  C 0 1.14948453608247  0.0567802271209086 1.03092783505154  0.170340681362725 0.927835051546391  L 1.02204408817635 0.154639175257732  C 1.13560454241817 0.0515463917525761  1.26619906479626 0  1.41382765531062 0  C 1.56145624582498 0  1.69205076820307 0.0515463917525761  1.80561122244489 0.154639175257732  L 8.5 6.2319587628866  L 15.1943887775551 0.154639175257732  C 15.3079492317969 0.0515463917525761  15.438543754175 0  15.5861723446894 0  C 15.7338009352037 0  15.8643954575818 0.0515463917525761  15.9779559118236 0.154639175257732  L 16.8296593186373 0.927835051546391  Z " fill-rule="nonzero" fill="#8c8c8c" stroke="none" transform="matrix(1 0 0 1 419 259 )" />
  </g>
</svg>