<?xml version="1.0" encoding="utf-8"?>
<svg version="1.1" xmlns:xlink="http://www.w3.org/1999/xlink" width="16px" height="16px" viewBox="160 247  16 16" xmlns="http://www.w3.org/2000/svg">
  <path d="M 168 247  C 172.48 247  176 250.52  176 255  C 176 259.48  172.48 263  168 263  C 163.52 263  160 259.48  160 255  C 160 250.52  163.52 247  168 247  Z " fill-rule="nonzero" fill="#f0f0f0" stroke="none" />
  <path d="M 168 247.5  C 172.2 247.5  175.5 250.8  175.5 255  C 175.5 259.2  172.2 262.5  168 262.5  C 163.8 262.5  160.5 259.2  160.5 255  C 160.5 250.8  163.8 247.5  168 247.5  Z " stroke-width="1" stroke="#8c8c8c" fill="none" />
  <path d="M 168 259  C 165.76 259  164 257.24  164 255  C 164 252.76  165.76 251  168 251  C 170.24 251  172 252.76  172 255  C 172 257.24  170.24 259  168 259  " fill-rule="nonzero" fill="#8c8c8c" stroke="none" />
</svg>