<?xml version="1.0" encoding="utf-8"?>
<svg version="1.1" xmlns:xlink="http://www.w3.org/1999/xlink" width="14px" height="14px" xmlns="http://www.w3.org/2000/svg">
  <g transform="matrix(1 0 0 1 -647 -368 )">
    <path d="M 5.91422221445691 5.28733334477295  L 4.9513333268323 5.97488889942576  C 5.68115013093728 7.2570386240655  6.7429613759345 8.31884986906272  8.02511110057424 9.0486666731677  L 8.71266665522705 8.08577778554309  C 8.94150409350323 7.76533619405444  9.37371977954558 7.66646769091028  9.71911109835008 7.85555556362311  C 10.8191379700969 8.45671919047072  12.0339392118753 8.81827033465265  13.2836666492254 8.9164444511191  C 13.6881622274483 8.94849978382354  14.000050857652 9.28612515224171  13.9999999816182 9.6918888945454  L 13.9999999816182 13.1623333344332  C 14.0000859843808 13.5612350659777  13.6983767674397 13.8955342540138  13.3015555380908 13.936222222306  C 12.8893333164098 13.9790000000276  12.4739999836218 14  12.0555555397268 14  C 5.3977777706906 14  0 8.6022222293094  0 1.94444446027319  C 0 1.52600001637819  0.0209999999724459 1.11066668359018  0.0637777776940425 0.698444461909162  C 0.104465745986204 0.301623232560303  0.438764934022288 -8.59843808029837E-05  0.837666665566815 0  L 4.3081111054546 0  C 4.71387484775829 -5.0857652013292E-05  5.05150021617646 0.311837772551712  5.0835555488809 0.716333350774562  C 5.18172966534735 1.96606078812471  5.54328080952928 3.1808620299031  6.14444443637689 4.28088890164992  C 6.33353230908972 4.62628022045442  6.23466380594556 5.05849590649677  5.91422221445691 5.28733334477295  Z M 3.57311110641967 6.69900000958609  C 3.34981691392744 6.30155040293755  3.15488700521058 5.88881880954773  2.98977777385227 5.46388890009666  L 4.46755554968973 4.408444457038  C 4.04816423694945 3.50318384064701  3.7608291993327 2.54243186436793  3.61433332858775 1.5555555718949  L 1.56333333128072 1.5555555718949  C 1.55866666462015 1.68466668283651  1.55633333128986 1.81455557155488  1.55633333128986 1.94444446027319  C 1.55555555351316 7.74355556377014  6.2564444362298 12.4444444464868  12.0555555397268 12.4444444464868  C 12.1854444284451 12.4444444464868  12.3153333171635 12.4421111131566  12.4444444281051 12.4366666687193  L 12.4444444281051 10.3856666714123  C 11.4575681356321 10.2391708006673  10.496816159353 9.95183576305055  9.591555542962 9.53244445031027  L 8.53611109990334 11.0102222261477  C 8.11118119045227 10.8451129947894  7.69844959706245 10.6501830860726  7.30099999041391 10.4268888935803  L 7.25588887936203 10.4012222269474  C 5.73033897016336 9.53300404004887  4.46699595995113 8.26966102983664  3.59877777305263 6.74411112063797  L 3.57311110641967 6.69900000958609  Z " fill-rule="nonzero" fill="#999999" stroke="none" transform="matrix(1 0 0 1 647 368 )" />
  </g>
</svg>