<?xml version="1.0" encoding="utf-8"?>
<svg version="1.1" xmlns:xlink="http://www.w3.org/1999/xlink" width="17px" height="9px" xmlns="http://www.w3.org/2000/svg">
  <g transform="matrix(1 0 0 1 -419 -242 )">
    <path d="M 16.8296593186373 7.36082474226804  C 16.9432197728791 7.46391752577319  17 7.58247422680412  17 7.71649484536083  C 17 7.85051546391752  16.9432197728791 7.96907216494845  16.8296593186373 8.07216494845361  L 15.9779559118236 8.84536082474227  C 15.8643954575818 8.94845360824742  15.7338009352037 9  15.5861723446894 9  C 15.438543754175 9  15.3079492317969 8.94845360824742  15.1943887775551 8.84536082474227  L 8.5 2.7680412371134  L 1.80561122244489 8.84536082474227  C 1.69205076820307 8.94845360824742  1.56145624582498 9  1.41382765531062 9  C 1.26619906479626 9  1.13560454241817 8.94845360824742  1.02204408817635 8.84536082474227  L 0.170340681362725 8.07216494845361  C 0.0567802271209086 7.96907216494845  0 7.85051546391752  0 7.71649484536083  C 0 7.58247422680412  0.0567802271209086 7.46391752577319  0.170340681362725 7.36082474226804  L 8.10821643286573 0.154639175257732  C 8.22177688710755 0.0515463917525761  8.35237140948564 0  8.5 0  C 8.64762859051436 0  8.77822311289245 0.0515463917525761  8.89178356713427 0.154639175257732  L 16.8296593186373 7.36082474226804  Z " fill-rule="nonzero" fill="#8c8c8c" stroke="none" transform="matrix(1 0 0 1 419 242 )" />
  </g>
</svg>