<?xml version="1.0" encoding="utf-8"?>
<svg version="1.1" xmlns:xlink="http://www.w3.org/1999/xlink" width="120px" height="36px" xmlns="http://www.w3.org/2000/svg">
  <g transform="matrix(1 0 0 1 -230 -337 )">
    <path d="M 231 342  A 4 4 0 0 1 235 338 L 345 338  A 4 4 0 0 1 349 342 L 349 368  A 4 4 0 0 1 345 372 L 235 372  A 4 4 0 0 1 231 368 L 231 342  Z " fill-rule="nonzero" fill="#f0f7ff" stroke="none" />
    <path d="M 230.5 342  A 4.5 4.5 0 0 1 235 337.5 L 345 337.5  A 4.5 4.5 0 0 1 349.5 342 L 349.5 368  A 4.5 4.5 0 0 1 345 372.5 L 235 372.5  A 4.5 4.5 0 0 1 230.5 368 L 230.5 342  Z " stroke-width="1" stroke="#7abbff" fill="none" stroke-opacity="0.996078431372549" />
  </g>
</svg>