<?xml version="1.0" encoding="utf-8"?>
<svg version="1.1" xmlns:xlink="http://www.w3.org/1999/xlink" width="639px" height="265px" xmlns="http://www.w3.org/2000/svg">
  <defs>
    <mask fill="white" id="clip513">
      <path d="M 0 227  L 0 0  L 639 0  L 639 227  L 188 227  L 154 265  L 116 227  L 0 227  Z " fill-rule="evenodd" />
    </mask>
  </defs>
  <g transform="matrix(1 0 0 1 -23 -84 )">
    <path d="M 0 227  L 0 0  L 639 0  L 639 227  L 188 227  L 154 265  L 116 227  L 0 227  Z " fill-rule="nonzero" fill="#ffffff" stroke="none" transform="matrix(1 0 0 1 23 84 )" />
    <path d="M 0 227  L 0 0  L 639 0  L 639 227  L 188 227  L 154 265  L 116 227  L 0 227  Z " stroke-width="2" stroke="#797979" fill="none" transform="matrix(1 0 0 1 23 84 )" mask="url(#clip513)" />
  </g>
</svg>