<?xml version="1.0" encoding="utf-8"?>
<svg version="1.1" xmlns:xlink="http://www.w3.org/1999/xlink" width="120px" height="36px" xmlns="http://www.w3.org/2000/svg">
  <g transform="matrix(1 0 0 1 -230 -337 )">
    <path d="M 230.5 342  A 4.5 4.5 0 0 1 235 337.5 L 345 337.5  A 4.5 4.5 0 0 1 349.5 342 L 349.5 368  A 4.5 4.5 0 0 1 345 372.5 L 235 372.5  A 4.5 4.5 0 0 1 230.5 368 L 230.5 342  Z " fill-rule="nonzero" fill="#ffffff" stroke="none" />
    <path d="M 230.5 342  A 4.5 4.5 0 0 1 235 337.5 L 345 337.5  A 4.5 4.5 0 0 1 349.5 342 L 349.5 368  A 4.5 4.5 0 0 1 345 372.5 L 235 372.5  A 4.5 4.5 0 0 1 230.5 368 L 230.5 342  Z " stroke-width="1" stroke="#e4e4e4" fill="none" />
  </g>
</svg>