<?xml version="1.0" encoding="utf-8"?>
<svg version="1.1" xmlns:xlink="http://www.w3.org/1999/xlink" width="16px" height="16px" viewBox="297 390  16 16" xmlns="http://www.w3.org/2000/svg">
  <path d="M 305 390  C 309.48 390  313 393.52  313 398  C 313 402.48  309.48 406  305 406  C 300.52 406  297 402.48  297 398  C 297 393.52  300.52 390  305 390  Z " fill-rule="nonzero" fill="#f0f0f0" stroke="none" />
  <path d="M 305 390.5  C 309.2 390.5  312.5 393.8  312.5 398  C 312.5 402.2  309.2 405.5  305 405.5  C 300.8 405.5  297.5 402.2  297.5 398  C 297.5 393.8  300.8 390.5  305 390.5  Z " stroke-width="1" stroke="#8c8c8c" fill="none" />
  <path d="M 305 402  C 302.76 402  301 400.24  301 398  C 301 395.76  302.76 394  305 394  C 307.24 394  309 395.76  309 398  C 309 400.24  307.24 402  305 402  " fill-rule="nonzero" fill="#8c8c8c" stroke="none" />
</svg>