<?xml version="1.0" encoding="utf-8"?>
<svg version="1.1" xmlns:xlink="http://www.w3.org/1999/xlink" width="16px" height="16px" viewBox="211 390  16 16" xmlns="http://www.w3.org/2000/svg">
  <path d="M 219 390  C 223.48 390  227 393.52  227 398  C 227 402.48  223.48 406  219 406  C 214.52 406  211 402.48  211 398  C 211 393.52  214.52 390  219 390  Z " fill-rule="nonzero" fill="#ffffff" stroke="none" />
  <path d="M 219 390.5  C 223.2 390.5  226.5 393.8  226.5 398  C 226.5 402.2  223.2 405.5  219 405.5  C 214.8 405.5  211.5 402.2  211.5 398  C 211.5 393.8  214.8 390.5  219 390.5  Z " stroke-width="1" stroke="#8c8c8c" fill="none" />
  <path d="M 219 402  C 216.76 402  215 400.24  215 398  C 215 395.76  216.76 394  219 394  C 221.24 394  223 395.76  223 398  C 223 400.24  221.24 402  219 402  " fill-rule="nonzero" fill="#8c8c8c" stroke="none" />
</svg>