<?xml version="1.0" encoding="utf-8"?>
<svg version="1.1" xmlns:xlink="http://www.w3.org/1999/xlink" width="18px" height="14px" xmlns="http://www.w3.org/2000/svg">
  <g transform="matrix(1 0 0 1 -20 -17 )">
    <path d="M 13.0795847750865 0  L 14.8235294117647 0  L 14.8235294117647 9.88235294117646  L 17.439446366782 9.88235294117646  L 13.9515570934257 14  L 10.4636678200692 9.88235294117646  L 13.0795847750865 9.88235294117646  L 13.0795847750865 0  Z M 0 11.5294117647059  L 7.84775086505187 11.5294117647059  L 7.84775086505187 13.1764705882353  L 0 13.1764705882353  L 0 11.5294117647059  Z M 0 5.76470588235293  L 9.59169550173017 5.76470588235293  L 9.59169550173017 7.41176470588235  L 0 7.41176470588235  L 0 5.76470588235293  Z M 0 0  L 9.59169550173017 0  L 9.59169550173017 1.64705882352942  L 0 1.64705882352942  L 0 0  Z " fill-rule="nonzero" fill="#cccccc" stroke="none" transform="matrix(1 0 0 1 20 17 )" />
  </g>
</svg>