<?xml version="1.0" encoding="utf-8"?>
<svg version="1.1" xmlns:xlink="http://www.w3.org/1999/xlink" width="15px" height="15px" xmlns="http://www.w3.org/2000/svg">
  <g transform="matrix(1 0 0 1 -604 -156 )">
    <path d="M 4.16666666666669 2.5  L 4.16666666666669 1  L 15 1  L 15 2.5  L 4.16666666666669 2.5  Z M 1.25 2.91666666666666  C 0.559644062711527 2.91666666666666  0 2.35702260395516  0 1.66666666666666  C 0 0.976310729378184  0.559644062711527 0.416666666666657  1.25 0.416666666666657  C 1.94035593728847 0.416666666666657  2.5 0.976310729378184  2.5 1.66666666666666  C 2.5 2.35702260395516  1.94035593728847 2.91666666666666  1.25 2.91666666666666  Z M 1.25 8.75  C 0.559644062711527 8.75  0 8.1903559372885  0 7.5  C 0 6.8096440627115  0.559644062711527 6.25  1.25 6.25  C 1.94035593728847 6.25  2.5 6.8096440627115  2.5 7.5  C 2.5 8.1903559372885  1.94035593728847 8.75  1.25 8.75  Z M 1.25 14.5  C 0.559644062711527 14.5  0 13.9403559372885  0 13.25  C 0 12.5596440627115  0.559644062711527 12  1.25 12  C 1.94035593728847 12  2.5 12.5596440627115  2.5 13.25  C 2.5 13.9403559372885  1.94035593728847 14.5  1.25 14.5  Z M 4.16666666666669 8.33333333333334  L 4.16666666666669 6.66666666666666  L 15 6.66666666666666  L 15 8.33333333333334  L 4.16666666666669 8.33333333333334  Z M 4.16666666666669 14  L 4.16666666666669 12.5  L 15 12.5  L 15 14  L 4.16666666666669 14  Z " fill-rule="nonzero" fill="#666666" stroke="none" transform="matrix(1 0 0 1 604 156 )" />
  </g>
</svg>