<?xml version="1.0" encoding="utf-8"?>
<svg version="1.1" xmlns:xlink="http://www.w3.org/1999/xlink" width="15px" height="15px" xmlns="http://www.w3.org/2000/svg">
  <g transform="matrix(1 0 0 1 -562 -156 )">
    <path d="M 13.3925 8.67833333333334  L 12.2141666666666 9.85666666666665  L 11.0358333333334 8.67833333333334  L 12.2141666666666 7.5  C 12.8393040345926 6.87486263207404  13.1905025509769 6.02699441073378  13.1905025509769 5.14291666666668  C 13.1905025509769 3.30192006796923  11.6980799320308 1.80949744902307  9.85708333333332 1.80949744902307  C 8.97300558926622 1.80949744902307  8.12513736792596 2.16069596540737  7.5 2.78583333333333  L 6.32166666666666 3.96416666666667  L 5.14333333333332 2.78583333333333  L 6.32166666666666 1.60749999999999  C 7.25689952295068 0.687377059603335  8.51631292293126 0.171708906169016  9.82829109383101 0.171708906169016  C 12.589714842985 0.171708906169016  14.828291093831 2.41028515701504  14.828291093831 5.17170890616902  C 14.828291093831 6.48368707706871  14.3126229403966 7.74310047704932  13.3925 8.67833333333334  Z M 8.67833333333334 11.0358333333333  L 9.85666666666668 12.2141666666667  L 8.67833333333334 13.3925  C 7.73841901521121 14.3478492406358  6.45432258303327 14.8858755728356  5.11412442716437 14.8858755728356  C 2.35270067801042 14.8858755728356  0.11412442716437 12.6472993219896  0.11412442716437 9.88587557283563  C 0.11412442716437 8.54567741696673  0.65215075936419 7.26158098478876  1.60750000000002 6.32166666666666  L 2.78583333333336 5.14333333333335  L 3.96416666666664 6.32166666666666  L 2.78583333333336 7.5  C 2.1606959654074 8.12513736792596  1.80949744902307 8.97300558926622  1.80949744902307 9.85708333333332  C 1.80949744902307 11.6980799320308  3.30192006796921 13.1905025509769  5.14291666666668 13.1905025509769  C 6.02699441073378 13.1905025509769  6.87486263207404 12.8393040345926  7.5 12.2141666666667  L 8.67833333333334 11.0358333333333  Z M 9.85666666666668 3.96416666666667  L 11.0358333333334 5.14333333333335  L 5.14333333333332 11.035  L 3.96416666666664 9.85666666666665  L 9.85666666666668 3.965  Z " fill-rule="nonzero" fill="#333333" stroke="none" transform="matrix(1 0 0 1 562 156 )" />
  </g>
</svg>