<?xml version="1.0" encoding="utf-8"?>
<svg version="1.1" xmlns:xlink="http://www.w3.org/1999/xlink" width="12px" height="15px" xmlns="http://www.w3.org/2000/svg">
  <g transform="matrix(1 0 0 1 -276 -156 )">
    <path d="M 1.87499996029244 1.875  L 1.87499996029244 6.5625  L 6.09374987095043 6.5625  C 7.38816722595399 6.5625  8.43749982131598 5.51316738241593  8.43749982131598 4.21875  C 8.43749982131598 2.92433261758407  7.38816722595399 1.875  6.09374987095043 1.875  L 1.87499996029244 1.875  Z M 9.14624980630651 7.13062500000001  C 10.4487505545296 7.88485567974055  11.2505045744744 9.27613474381437  11.2499997617546 10.78125  C 11.2499997617546 13.1112012883487  9.36120109010308 15  7.03124985109665 15  L 0 15  L 0 0  L 6.09374987095043 0  C 8.4236320711903 9.76302000026408E-05  10.3123230012594 1.88886774466999  10.3123230012594 4.21874999629614  C 10.3123230012594 5.30316851893176  9.89473955392003 6.34594251247785  9.14624980630651 7.13062500000001  Z M 7.03124985109665 8.4375  L 1.87499996029244 8.4375  L 1.87499996029244 13.125  L 7.03124985109665 13.125  C 8.32566720610022 13.125  9.3749998014622 12.0756673824159  9.3749998014622 10.78125  C 9.3749998014622 9.48683261758407  8.32566720610022 8.4375  7.03124985109665 8.4375  Z " fill-rule="nonzero" fill="#666666" stroke="none" transform="matrix(1 0 0 1 276 156 )" />
  </g>
</svg>