<?xml version="1.0" encoding="utf-8"?>
<svg version="1.1" xmlns:xlink="http://www.w3.org/1999/xlink" width="13px" height="15px" xmlns="http://www.w3.org/2000/svg">
  <g transform="matrix(1 0 0 1 -437 -156 )">
    <path d="M 1.57894736842104 0  L 3.15789473684208 0  L 3.15789473684208 7.10526315789474  C 3.15789473684208 8.84932026262356  4.5717323689554 10.2631578947368  6.31578947368422 10.2631578947368  C 8.05984657841304 10.2631578947368  9.47368421052636 8.84932026262356  9.47368421052636 7.10526315789474  L 9.47368421052636 0  L 11.0526315789474 0  L 11.0526315789474 7.10526315789474  C 11.0526315789474 9.72134881498798  8.93187513077743 11.8421052631579  6.31578947368422 11.8421052631579  C 3.69970381659101 11.8421052631579  1.57894736842104 9.72134881498798  1.57894736842104 7.10526315789474  L 1.57894736842104 0  Z M 0 15  L 0 13.421052631579  L 12.6315789473684 13.421052631579  L 12.6315789473684 15  L 0 15  Z " fill-rule="nonzero" fill="#666666" stroke="none" transform="matrix(1 0 0 1 437 156 )" />
  </g>
</svg>