<?xml version="1.0" encoding="utf-8"?>
<svg version="1.1" xmlns:xlink="http://www.w3.org/1999/xlink" width="17px" height="15px" xmlns="http://www.w3.org/2000/svg">
  <g transform="matrix(1 0 0 1 -476 -156 )">
    <path d="M 13.269375 9.375  C 13.485 9.85874999999999  13.59375 10.396875  13.59375 10.9875  C 13.59375 12.245625  13.1025 13.23  12.1209375 13.9378125  C 11.1375 14.645625  9.78093749999999 15  8.049375 15  C 6.51187499999997 15  4.99031250000002 14.6428125  3.48374999999999 13.9275  L 3.48374999999999 11.8125  C 4.90875 12.6346875  6.36656249999999 13.04625  7.85812499999997 13.04625  C 10.2496875 13.04625  11.44875 12.36  11.4571875 10.9865625  C 11.467179410516 10.4239108555767  11.2478733247365 9.88139904152649  10.8496875 9.48374999999999  L 10.7371875 9.37406250000001  L 0 9.37406250000001  L 0 7.49906250000001  L 16.875 7.49906250000001  L 16.875 9.37406250000001  L 13.269375 9.37406250000001  Z M 7.54312499999997 5.90718749999999  C 8.12437499999999 6.07593750000001  8.75906250000003 6.29531249999999  9.44625000000002 6.5625  L 4.33968750000003 6.5625  C 4.17546371555903 6.41276471924729  4.02458203730578 6.24902202476042  3.88875000000002 6.073125  C 3.48374999999999 5.55000000000001  3.28125 4.918125  3.28125 4.17375000000001  C 3.28125 3.01499999999999  3.71812499999999 2.02968749999999  4.5909375 1.21781250000001  C 5.46562499999999 0.405937499999993  6.81656249999997 0  8.645625 0  C 10.0246875 0  11.3446875 0.307500000000005  12.60375 0.922500000000014  L 12.60375 2.94  C 11.47875 2.29593750000001  10.2459375 1.97437500000001  8.90437500000002 1.97437500000001  C 6.57937500000003 1.97437500000001  5.41781250000003 2.70750000000001  5.41781250000003 4.17375000000001  C 5.41781250000003 4.5675  5.6221875 4.91062500000001  6.03093749999999 5.20406249999999  C 6.43968749999999 5.4975  6.94406249999997 5.73093750000001  7.54312499999997 5.90718749999999  Z " fill-rule="nonzero" fill="#333333" stroke="none" transform="matrix(1 0 0 1 476 156 )" />
  </g>
</svg>