<?xml version="1.0" encoding="utf-8"?>
<svg version="1.1" xmlns:xlink="http://www.w3.org/1999/xlink" width="17px" height="15px" xmlns="http://www.w3.org/2000/svg">
  <g transform="matrix(1 0 0 1 -860 -156 )">
    <path d="M 0 14.1725  L 0 0.827499999999986  C 0.00317318592772153 0.37212961989087  0.371299714860697 0.00363199566658068  0.826666666666824 0  L 15.8399999999999 0  C 16.2966666666666 0  16.6666666666666 0.370833333333337  16.6666666666666 0.827499999999986  L 16.6666666666666 14.1725  C 16.663493480739 14.6278703801091  16.295366951806 14.9963680043334  15.8399999999999 15  L 0.826666666666824 15  C 0.369976506963894 14.9995400902405  0 14.6291903912788  0 14.1725  Z M 7.18500000000006 4.51249999999999  C 7.13022316184288 4.47595342569184  7.06584891064836 4.45644973545646  6.99999943007219 4.45644973545646  C 6.81614518753179 4.45644973545646  6.66700665110307 4.60531273847718  6.66666666666674 4.78916666666666  L 6.66666666666674 10.2108333333333  C 6.66700665110307 10.3946872615228  6.81614518753179 10.5435502645435  6.99999943007219 10.5435502645435  C 7.06584891064836 10.5435502645435  7.13022316184288 10.5240465743082  7.18500000000006 10.4875  L 11.2508333333334 7.7775  C 11.3436961027118 7.71570024030888  11.3994916518133 7.61154687012424  11.3994916518133 7.5  C 11.3994916518133 7.38845312987578  11.3436961027118 7.28429975969112  11.2508333333334 7.2225  L 7.18416666666667 4.51249999999999  Z " fill-rule="nonzero" fill="#333333" stroke="none" transform="matrix(1 0 0 1 860 156 )" />
  </g>
</svg>