<?xml version="1.0" encoding="utf-8"?>
<svg version="1.1" xmlns:xlink="http://www.w3.org/1999/xlink" width="15px" height="15px" xmlns="http://www.w3.org/2000/svg">
  <g transform="matrix(1 0 0 1 -818 -156 )">
    <path d="M 13.3333333333334 5.83333333333334  L 8.33333333333337 5.83333333333334  L 8.33333333333337 9.16666666666666  L 13.3333333333334 9.16666666666666  L 13.3333333333334 5.83333333333334  Z M 6.66666666666663 9.16666666666666  L 6.66666666666663 5.83333333333334  L 1.66666666666663 5.83333333333334  L 1.66666666666663 9.16666666666666  L 6.66666666666663 9.16666666666666  Z M 8.33333333333337 10.8333333333333  L 8.33333333333337 13.3333333333333  L 13.3333333333334 13.3333333333333  L 13.3333333333334 10.8333333333333  L 8.33333333333337 10.8333333333333  Z M 1.66666666666663 13.3333333333333  L 6.66666666666663 13.3333333333333  L 6.66666666666663 10.8333333333333  L 1.66666666666663 10.8333333333333  L 1.66666666666663 13.3333333333333  Z M 13.3333333333334 1.66666666666666  L 8.33333333333337 1.66666666666666  L 8.33333333333337 4.16666666666666  L 13.3333333333334 4.16666666666666  L 13.3333333333334 1.66666666666666  Z M 6.66666666666663 4.16666666666666  L 6.66666666666663 1.66666666666666  L 1.66666666666663 1.66666666666666  L 1.66666666666663 4.16666666666666  L 6.66666666666663 4.16666666666666  Z M 0 0.833333333333343  C 0 0.373096041807685  0.373096041807685 0  0.833333333333371 0  L 14.1666666666666 0  C 14.6269039581923 0  15 0.373096041807685  15 0.833333333333343  L 15 14.1666666666667  C 15 14.6269039581923  14.6269039581923 15  14.1666666666666 15  L 0.833333333333371 15  C 0.373096041807685 15  0 14.6269039581923  0 14.1666666666667  L 0 0.833333333333343  Z " fill-rule="nonzero" fill="#666666" stroke="none" transform="matrix(1 0 0 1 818 156 )" />
  </g>
</svg>