<?xml version="1.0" encoding="utf-8"?>
<svg version="1.1" xmlns:xlink="http://www.w3.org/1999/xlink" width="15px" height="15px" xmlns="http://www.w3.org/2000/svg">
  <g transform="matrix(1 0 0 1 -947 -156 )">
    <path d="M 8.25 4.5  L 2.87099999999998 4.5  L 4.77300000000002 6.40199999999999  L 3.71249999999998 7.46250000000001  L 0 3.75  L 3.71249999999998 0.0374999999999943  L 4.77300000000002 1.09800000000001  L 2.87099999999998 3  L 8.25 3  C 11.5637084989847 3  14.25 5.68629150101523  14.25 9  C 14.25 12.3137084989848  11.5637084989847 15  8.25 15  L 1.5 15  L 1.5 13.5  L 8.25 13.5  C 10.7352813742385 13.5  12.75 11.4852813742386  12.75 9  C 12.75 6.51471862576142  10.7352813742385 4.5  8.25 4.5  Z " fill-rule="nonzero" fill="#666666" stroke="none" transform="matrix(1 0 0 1 947 156 )" />
  </g>
</svg>