<?xml version="1.0" encoding="utf-8"?>
<svg version="1.1" xmlns:xlink="http://www.w3.org/1999/xlink" width="17px" height="17px" xmlns="http://www.w3.org/2000/svg">
  <g transform="matrix(1 0 0 1 -732 -155 )">
    <path d="M 17 8.5  C 17 13.19455  13.19455 17  8.5 17  C 3.80544999999995 17  0 13.19455  0 8.5  C 0 3.80545000000001  3.80544999999995 0  8.5 0  C 13.19455 0  17 3.80545000000001  17 8.5  Z M 8.5 15.3  C 12.2555362988494 15.3  15.3 12.2555362988494  15.3 8.5  C 15.3 4.74446370115061  12.2555362988494 1.69999999999999  8.5 1.69999999999999  C 4.74446370115061 1.69999999999999  1.70000000000005 4.74446370115061  1.70000000000005 8.5  C 1.70000000000005 12.2555362988494  4.74446370115061 15.3  8.5 15.3  Z M 8.5 12.75  C 6.6222318505753 12.75  5.09999999999991 11.2277681494247  5.09999999999991 9.35000000000002  L 11.9000000000001 9.35000000000002  C 11.9000000000001 11.2277681494247  10.3777681494247 12.75  8.5 12.75  Z M 5.09999999999991 7.64999999999998  C 4.39583694396572 7.64999999999998  3.82500000000005 7.07916305603428  3.82500000000005 6.375  C 3.82500000000005 5.67083694396572  4.39583694396572 5.10000000000002  5.09999999999991 5.10000000000002  C 5.80416305603433 5.10000000000002  6.375 5.67083694396572  6.375 6.375  C 6.375 7.07916305603428  5.80416305603433 7.64999999999998  5.09999999999991 7.64999999999998  Z M 11.9000000000001 7.64999999999998  C 11.1958369439657 7.64999999999998  10.625 7.07916305603428  10.625 6.375  C 10.625 5.67083694396572  11.1958369439657 5.10000000000002  11.9000000000001 5.10000000000002  C 12.6041630560343 5.10000000000002  13.175 5.67083694396572  13.175 6.375  C 13.175 7.07916305603428  12.6041630560343 7.64999999999998  11.9000000000001 7.64999999999998  Z " fill-rule="nonzero" fill="#333333" stroke="none" transform="matrix(1 0 0 1 732 155 )" />
  </g>
</svg>