<?xml version="1.0" encoding="utf-8"?>
<svg version="1.1" xmlns:xlink="http://www.w3.org/1999/xlink" width="16px" height="15px" xmlns="http://www.w3.org/2000/svg">
  <g transform="matrix(1 0 0 1 -775 -156 )">
    <path d="M 15.0063157894737 14  L 2.23263157894746 14  L 2.21684210526325 14.2263157894737  L 2.20026315789482 14.2105263157895  L 0.783157894736974 14.2105263157895  C 0.350504059228911 14.2100906118067  0 13.8592330022641  0 13.4265789473684  L 0 0.783947368421053  C 0.00300617614198018 0.352543850422933  0.351757624604829 0.00344083799990358  0.783157894736974 0  L 15.0063157894737 0  C 15.4389473684211 0  15.7894736842105 0.351315789473688  15.7894736842105 0.783947368421053  L 15.7894736842105 13.4265789473684  C 15.7864675080687 13.8579824653665  15.4377160596057 14.2070854777895  15.0063157894737 14  Z M 9.47368421052636 4.73684210526315  L 14.2105263157895 9.4736842105263  L 14.2105263157895 1.57894736842104  L 1.57894736842115 1.57894736842104  L 1.57894736842115 12.6315789473684  L 9.47368421052636 4.73684210526315  Z M 14.2105263157895 12.6315789473684  L 14.2105263157895 11.7063157894737  L 9.47368421052636 6.96947368421053  L 3.8115789473685 12.6315789473684  L 14.2105263157895 12.6315789473684  Z M 4.73684210526324 6.31578947368422  C 3.8648135528988 6.31578947368422  3.1578947368422 5.60887065762756  3.1578947368422 4.73684210526315  C 3.1578947368422 3.86481355289874  3.8648135528988 3.15789473684211  4.73684210526324 3.15789473684211  C 5.60887065762768 3.15789473684211  6.31578947368428 3.86481355289874  6.31578947368428 4.73684210526315  C 6.31578947368428 5.60887065762756  5.60887065762768 6.31578947368422  4.73684210526324 6.31578947368422  Z " fill-rule="nonzero" fill="#666666" stroke="none" transform="matrix(1 0 0 1 775 156 )" />
  </g>
</svg>