<?xml version="1.0" encoding="utf-8"?>
<svg version="1.1" xmlns:xlink="http://www.w3.org/1999/xlink" width="18px" height="15px" xmlns="http://www.w3.org/2000/svg">
  <g transform="matrix(1 0 0 1 -687 -156 )">
    <path d="M 4.331 14.5  C 3.258 14.5  2.232 14.01  1.583 13.321  C 0.553 12.227  0 11  0 9.011  C 0 5.511  2.457 2.374  6.03 0.822999999999999  L 6.923 2.201  C 3.588 4.005  2.936 6.346  2.676 7.822  C 3.213 7.544  3.916 7.447  4.605 7.511  C 6.409 7.678  7.831 9.159  7.831 11  C 7.831 12.9329966244078  6.26399662440778 14.5  4.331 14.5  Z M 14.331 14.5  C 13.258 14.5  12.232 14.01  11.583 13.321  C 10.553 12.227  10 11  10 9.011  C 10 5.511  12.457 2.374  16.03 0.822999999999999  L 16.923 2.201  C 13.588 4.005  12.936 6.346  12.676 7.822  C 13.213 7.544  13.916 7.447  14.605 7.511  C 16.409 7.678  17.831 9.159  17.831 11  C 17.831 12.9329966244078  16.2639966244078 14.5  14.331 14.5  Z " fill-rule="nonzero" fill="#666666" stroke="none" transform="matrix(1 0 0 1 687 156 )" />
  </g>
</svg>