<?xml version="1.0" encoding="utf-8"?>
<svg version="1.1" xmlns:xlink="http://www.w3.org/1999/xlink" width="340px" height="455px" xmlns="http://www.w3.org/2000/svg">
  <g transform="matrix(1 0 0 1 -20 -487 )">
    <path d="M 21 495  A 7 7 0 0 1 28 488 L 352 488  A 7 7 0 0 1 359 495 L 359 934  A 7 7 0 0 1 352 941 L 28 941  A 7 7 0 0 1 21 934 L 21 495  Z " fill-rule="nonzero" fill="#ffffff" stroke="none" />
    <path d="M 20.5 495  A 7.5 7.5 0 0 1 28 487.5 L 352 487.5  A 7.5 7.5 0 0 1 359.5 495 L 359.5 934  A 7.5 7.5 0 0 1 352 941.5 L 28 941.5  A 7.5 7.5 0 0 1 20.5 934 L 20.5 495  Z " stroke-width="1" stroke="#2561ef" fill="none" stroke-opacity="0.0470588235294118" />
  </g>
</svg>