<?xml version="1.0" encoding="utf-8"?>
<svg version="1.1" xmlns:xlink="http://www.w3.org/1999/xlink" width="340px" height="360px" xmlns="http://www.w3.org/2000/svg">
  <g transform="matrix(1 0 0 1 -20 -117 )">
    <path d="M 21 125  A 7 7 0 0 1 28 118 L 352 118  A 7 7 0 0 1 359 125 L 359 469  A 7 7 0 0 1 352 476 L 28 476  A 7 7 0 0 1 21 469 L 21 125  Z " fill-rule="nonzero" fill="#ffffff" stroke="none" />
    <path d="M 20.5 125  A 7.5 7.5 0 0 1 28 117.5 L 352 117.5  A 7.5 7.5 0 0 1 359.5 125 L 359.5 469  A 7.5 7.5 0 0 1 352 476.5 L 28 476.5  A 7.5 7.5 0 0 1 20.5 469 L 20.5 125  Z " stroke-width="1" stroke="#2561ef" fill="none" stroke-opacity="0.0470588235294118" />
  </g>
</svg>