<?xml version="1.0" encoding="utf-8"?>
<svg version="1.1" xmlns:xlink="http://www.w3.org/1999/xlink" width="48px" height="48px" xmlns="http://www.w3.org/2000/svg">
  <g transform="matrix(1 0 0 1 -127 -473 )">
    <path d="M 151 473.5  C 164.16 473.5  174.5 483.84  174.5 497  C 174.5 510.16  164.16 520.5  151 520.5  C 137.84 520.5  127.5 510.16  127.5 497  C 127.5 483.84  137.84 473.5  151 473.5  Z " fill-rule="nonzero" fill="#ffffff" stroke="none" />
    <path d="M 151 473.5  C 164.16 473.5  174.5 483.84  174.5 497  C 174.5 510.16  164.16 520.5  151 520.5  C 137.84 520.5  127.5 510.16  127.5 497  C 127.5 483.84  137.84 473.5  151 473.5  Z " stroke-width="1" stroke-dasharray="9,4" stroke="#2561ef" fill="none" stroke-dashoffset="0.5" />
  </g>
</svg>