<?xml version="1.0" encoding="utf-8"?>
<svg version="1.1" xmlns:xlink="http://www.w3.org/1999/xlink" width="18px" height="18px" xmlns="http://www.w3.org/2000/svg">
  <g>
    <path d="M 18 9  C 18 13.9707  13.9707 18  9 18  C 4.02929999999998 18  0 13.9707  0 9  C 0 4.02929999999998  4.02929999999998 0  9 0  C 13.9707 0  18 4.02929999999998  18 9  Z M 9 16.2  C 12.9764501987817 16.2  16.2 12.9764501987817  16.2 9  C 16.2 5.02354980121828  12.9764501987817 1.80000000000001  9 1.80000000000001  C 5.02354980121828 1.80000000000001  1.80000000000001 5.02354980121828  1.80000000000001 9  C 1.80000000000001 12.9764501987817  5.02354980121828 16.2  9 16.2  Z M 9.89999999999998 4.5  L 9.89999999999998 9  L 13.5 9  L 13.5 10.8  L 8.10000000000002 10.8  L 8.10000000000002 4.5  L 9.89999999999998 4.5  Z " fill-rule="nonzero" fill="#cccccc" stroke="none" />
  </g>
</svg>