<?xml version="1.0" encoding="utf-8"?>
<svg version="1.1" xmlns:xlink="http://www.w3.org/1999/xlink" width="18px" height="18px" xmlns="http://www.w3.org/2000/svg">
  <g>
    <path d="M 18 9  C 18 13.9707  13.9707 18  9 18  C 4.0293 18  0 13.9707  0 9  C 0 4.0293  4.0293 0  9 0  C 13.9707 0  18 4.0293  18 9  Z M 9 16.2  C 12.9764501987817 16.2  16.2 12.9764501987817  16.2 9  C 16.2 5.02354980121828  12.9764501987817 1.80000000000001  9 1.80000000000001  C 5.02354980121829 1.80000000000001  1.8 5.02354980121828  1.8 9  C 1.8 12.9764501987817  5.02354980121829 16.2  9 16.2  Z M 6.4548 5.1813  L 9 7.7274  L 11.5452 5.1813  L 12.8187 6.4548  L 10.2726 9  L 12.8187 11.5452  L 11.5452 12.8187  L 9 10.2726  L 6.4548 12.8187  L 5.18130000000001 11.5452  L 7.7274 9  L 5.18130000000001 6.4548  L 6.4548 5.1813  Z " fill-rule="nonzero" fill="#cccccc" stroke="none" />
  </g>
</svg>