<?xml version="1.0" encoding="utf-8"?>
<svg version="1.1" xmlns:xlink="http://www.w3.org/1999/xlink" width="12px" height="12px" xmlns="http://www.w3.org/2000/svg">
  <g transform="matrix(1 0 0 1 -1010 -10 )">
    <path d="M 1.33333333333326 9.72399999999999  L 1.33333333333326 10.6666666666667  L 2.27600000000007 10.6666666666667  L 8.4853333333333 4.45733333333334  L 7.54266666666672 3.51466666666664  L 1.33333333333326 9.72399999999999  Z M 12 10.6666666666667  L 12 12  L 0 12  L 0 9.17133333333334  L 8.95666666666671 0.214666666666687  C 9.21699990099046 -0.045587958888575  9.63900009900954 -0.045587958888575  9.89933333333329 0.214666666666687  L 11.7853333333333 2.10066666666665  C 12.0455879588885 2.36099990099052  12.0455879588885 2.78300009900948  11.7853333333333 3.04333333333335  L 4.16200000000003 10.6666666666667  L 12 10.6666666666667  Z M 9.42800000000011 1.62933333333331  L 8.4853333333333 2.572  L 9.42800000000011 3.51466666666664  L 10.3706666666667 2.572  L 9.42800000000011 1.62933333333331  Z " fill-rule="nonzero" fill="#ffffff" stroke="none" transform="matrix(1 0 0 1 1010 10 )" />
  </g>
</svg>