<?xml version="1.0" encoding="utf-8"?>
<svg version="1.1" xmlns:xlink="http://www.w3.org/1999/xlink" width="16px" height="16px" viewBox="260 43  16 16" xmlns="http://www.w3.org/2000/svg">
  <path d="M 268 43  C 272.48 43  276 46.52  276 51  C 276 55.48  272.48 59  268 59  C 263.52 59  260 55.48  260 51  C 260 46.52  263.52 43  268 43  Z " fill-rule="nonzero" fill="#f0f0f0" stroke="none" />
  <path d="M 268 43.5  C 272.2 43.5  275.5 46.8  275.5 51  C 275.5 55.2  272.2 58.5  268 58.5  C 263.8 58.5  260.5 55.2  260.5 51  C 260.5 46.8  263.8 43.5  268 43.5  Z " stroke-width="1" stroke="#8c8c8c" fill="none" />
  <path d="M 268 55  C 265.76 55  264 53.24  264 51  C 264 48.76  265.76 47  268 47  C 270.24 47  272 48.76  272 51  C 272 53.24  270.24 55  268 55  " fill-rule="nonzero" fill="#8c8c8c" stroke="none" />
</svg>