<?xml version="1.0" encoding="utf-8"?>
<svg version="1.1" xmlns:xlink="http://www.w3.org/1999/xlink" width="16px" height="16px" viewBox="172 4  16 16" xmlns="http://www.w3.org/2000/svg">
  <path d="M 180 4  C 184.48 4  188 7.52  188 12  C 188 16.48  184.48 20  180 20  C 175.52 20  172 16.48  172 12  C 172 7.52  175.52 4  180 4  Z " fill-rule="nonzero" fill="#f0f0f0" stroke="none" />
  <path d="M 180 4.5  C 184.2 4.5  187.5 7.8  187.5 12  C 187.5 16.2  184.2 19.5  180 19.5  C 175.8 19.5  172.5 16.2  172.5 12  C 172.5 7.8  175.8 4.5  180 4.5  Z " stroke-width="1" stroke="#8c8c8c" fill="none" />
  <path d="M 180 16  C 177.76 16  176 14.24  176 12  C 176 9.76  177.76 8  180 8  C 182.24 8  184 9.76  184 12  C 184 14.24  182.24 16  180 16  " fill-rule="nonzero" fill="#8c8c8c" stroke="none" />
</svg>