<?xml version="1.0" encoding="utf-8"?>
<svg version="1.1" xmlns:xlink="http://www.w3.org/1999/xlink" width="16px" height="16px" viewBox="172 44  16 16" xmlns="http://www.w3.org/2000/svg">
  <path d="M 180 44  C 184.48 44  188 47.52  188 52  C 188 56.48  184.48 60  180 60  C 175.52 60  172 56.48  172 52  C 172 47.52  175.52 44  180 44  Z " fill-rule="nonzero" fill="#f0f0f0" stroke="none" />
  <path d="M 180 44.5  C 184.2 44.5  187.5 47.8  187.5 52  C 187.5 56.2  184.2 59.5  180 59.5  C 175.8 59.5  172.5 56.2  172.5 52  C 172.5 47.8  175.8 44.5  180 44.5  Z " stroke-width="1" stroke="#8c8c8c" fill="none" />
  <path d="M 180 56  C 177.76 56  176 54.24  176 52  C 176 49.76  177.76 48  180 48  C 182.24 48  184 49.76  184 52  C 184 54.24  182.24 56  180 56  " fill-rule="nonzero" fill="#8c8c8c" stroke="none" />
</svg>