<?xml version="1.0" encoding="utf-8"?>
<svg version="1.1" xmlns:xlink="http://www.w3.org/1999/xlink" width="16px" height="16px" viewBox="83 44  16 16" xmlns="http://www.w3.org/2000/svg">
  <path d="M 91 44  C 95.48 44  99 47.52  99 52  C 99 56.48  95.48 60  91 60  C 86.52 60  83 56.48  83 52  C 83 47.52  86.52 44  91 44  Z " fill-rule="nonzero" fill="#f0f0f0" stroke="none" />
  <path d="M 91 44.5  C 95.2 44.5  98.5 47.8  98.5 52  C 98.5 56.2  95.2 59.5  91 59.5  C 86.8 59.5  83.5 56.2  83.5 52  C 83.5 47.8  86.8 44.5  91 44.5  Z " stroke-width="1" stroke="#8c8c8c" fill="none" />
  <path d="M 91 56  C 88.76 56  87 54.24  87 52  C 87 49.76  88.76 48  91 48  C 93.24 48  95 49.76  95 52  C 95 54.24  93.24 56  91 56  " fill-rule="nonzero" fill="#8c8c8c" stroke="none" />
</svg>