<?xml version="1.0" encoding="utf-8"?>
<svg version="1.1" xmlns:xlink="http://www.w3.org/1999/xlink" width="16px" height="16px" viewBox="184 38  16 16" xmlns="http://www.w3.org/2000/svg">
  <path d="M 192 38  C 196.48 38  200 41.52  200 46  C 200 50.48  196.48 54  192 54  C 187.52 54  184 50.48  184 46  C 184 41.52  187.52 38  192 38  Z " fill-rule="nonzero" fill="#f0f0f0" stroke="none" />
  <path d="M 192 38.5  C 196.2 38.5  199.5 41.8  199.5 46  C 199.5 50.2  196.2 53.5  192 53.5  C 187.8 53.5  184.5 50.2  184.5 46  C 184.5 41.8  187.8 38.5  192 38.5  Z " stroke-width="1" stroke="#8c8c8c" fill="none" />
  <path d="M 192 50  C 189.76 50  188 48.24  188 46  C 188 43.76  189.76 42  192 42  C 194.24 42  196 43.76  196 46  C 196 48.24  194.24 50  192 50  " fill-rule="nonzero" fill="#8c8c8c" stroke="none" />
</svg>