<?xml version="1.0" encoding="utf-8"?>
<svg version="1.1" xmlns:xlink="http://www.w3.org/1999/xlink" width="16px" height="16px" viewBox="280 66  16 16" xmlns="http://www.w3.org/2000/svg">
  <path d="M 288 66  C 292.48 66  296 69.52  296 74  C 296 78.48  292.48 82  288 82  C 283.52 82  280 78.48  280 74  C 280 69.52  283.52 66  288 66  Z " fill-rule="nonzero" fill="#f0f0f0" stroke="none" />
  <path d="M 288 66.5  C 292.2 66.5  295.5 69.8  295.5 74  C 295.5 78.2  292.2 81.5  288 81.5  C 283.8 81.5  280.5 78.2  280.5 74  C 280.5 69.8  283.8 66.5  288 66.5  Z " stroke-width="1" stroke="#8c8c8c" fill="none" />
  <path d="M 288 78  C 285.76 78  284 76.24  284 74  C 284 71.76  285.76 70  288 70  C 290.24 70  292 71.76  292 74  C 292 76.24  290.24 78  288 78  " fill-rule="nonzero" fill="#8c8c8c" stroke="none" />
</svg>