<?xml version="1.0" encoding="utf-8"?>
<svg version="1.1" xmlns:xlink="http://www.w3.org/1999/xlink" width="16px" height="16px" viewBox="189 43  16 16" xmlns="http://www.w3.org/2000/svg">
  <path d="M 197 43  C 201.48 43  205 46.52  205 51  C 205 55.48  201.48 59  197 59  C 192.52 59  189 55.48  189 51  C 189 46.52  192.52 43  197 43  Z " fill-rule="nonzero" fill="#ffffff" stroke="none" />
  <path d="M 197 43.5  C 201.2 43.5  204.5 46.8  204.5 51  C 204.5 55.2  201.2 58.5  197 58.5  C 192.8 58.5  189.5 55.2  189.5 51  C 189.5 46.8  192.8 43.5  197 43.5  Z " stroke-width="1" stroke="#8c8c8c" fill="none" />
  <path d="M 197 55  C 194.76 55  193 53.24  193 51  C 193 48.76  194.76 47  197 47  C 199.24 47  201 48.76  201 51  C 201 53.24  199.24 55  197 55  " fill-rule="nonzero" fill="#8c8c8c" stroke="none" />
</svg>