<?xml version="1.0" encoding="utf-8"?>
<svg version="1.1" xmlns:xlink="http://www.w3.org/1999/xlink" width="16px" height="16px" viewBox="189 4  16 16" xmlns="http://www.w3.org/2000/svg">
  <path d="M 197 4  C 201.48 4  205 7.52  205 12  C 205 16.48  201.48 20  197 20  C 192.52 20  189 16.48  189 12  C 189 7.52  192.52 4  197 4  Z " fill-rule="nonzero" fill="#ffffff" stroke="none" />
  <path d="M 197 4.5  C 201.2 4.5  204.5 7.8  204.5 12  C 204.5 16.2  201.2 19.5  197 19.5  C 192.8 19.5  189.5 16.2  189.5 12  C 189.5 7.8  192.8 4.5  197 4.5  Z " stroke-width="1" stroke="#8c8c8c" fill="none" />
  <path d="M 197 16  C 194.76 16  193 14.24  193 12  C 193 9.76  194.76 8  197 8  C 199.24 8  201 9.76  201 12  C 201 14.24  199.24 16  197 16  " fill-rule="nonzero" fill="#8c8c8c" stroke="none" />
</svg>