<?xml version="1.0" encoding="utf-8"?>
<svg version="1.1" xmlns:xlink="http://www.w3.org/1999/xlink" width="16px" height="16px" viewBox="194 66  16 16" xmlns="http://www.w3.org/2000/svg">
  <path d="M 202 66  C 206.48 66  210 69.52  210 74  C 210 78.48  206.48 82  202 82  C 197.52 82  194 78.48  194 74  C 194 69.52  197.52 66  202 66  Z " fill-rule="nonzero" fill="#f0f0f0" stroke="none" />
  <path d="M 202 66.5  C 206.2 66.5  209.5 69.8  209.5 74  C 209.5 78.2  206.2 81.5  202 81.5  C 197.8 81.5  194.5 78.2  194.5 74  C 194.5 69.8  197.8 66.5  202 66.5  Z " stroke-width="1" stroke="#8c8c8c" fill="none" />
  <path d="M 202 78  C 199.76 78  198 76.24  198 74  C 198 71.76  199.76 70  202 70  C 204.24 70  206 71.76  206 74  C 206 76.24  204.24 78  202 78  " fill-rule="nonzero" fill="#8c8c8c" stroke="none" />
</svg>