<?xml version="1.0" encoding="utf-8"?>
<svg version="1.1" xmlns:xlink="http://www.w3.org/1999/xlink" width="16px" height="16px" viewBox="83 4  16 16" xmlns="http://www.w3.org/2000/svg">
  <path d="M 91 4  C 95.48 4  99 7.52  99 12  C 99 16.48  95.48 20  91 20  C 86.52 20  83 16.48  83 12  C 83 7.52  86.52 4  91 4  Z " fill-rule="nonzero" fill="#f0f0f0" stroke="none" />
  <path d="M 91 4.5  C 95.2 4.5  98.5 7.8  98.5 12  C 98.5 16.2  95.2 19.5  91 19.5  C 86.8 19.5  83.5 16.2  83.5 12  C 83.5 7.8  86.8 4.5  91 4.5  Z " stroke-width="1" stroke="#8c8c8c" fill="none" />
  <path d="M 91 16  C 88.76 16  87 14.24  87 12  C 87 9.76  88.76 8  91 8  C 93.24 8  95 9.76  95 12  C 95 14.24  93.24 16  91 16  " fill-rule="nonzero" fill="#8c8c8c" stroke="none" />
</svg>