<?xml version="1.0" encoding="utf-8"?>
<svg version="1.1" xmlns:xlink="http://www.w3.org/1999/xlink" width="16px" height="16px" viewBox="105 66  16 16" xmlns="http://www.w3.org/2000/svg">
  <path d="M 113 66  C 117.48 66  121 69.52  121 74  C 121 78.48  117.48 82  113 82  C 108.52 82  105 78.48  105 74  C 105 69.52  108.52 66  113 66  Z " fill-rule="nonzero" fill="#ffffff" stroke="none" />
  <path d="M 113 66.5  C 117.2 66.5  120.5 69.8  120.5 74  C 120.5 78.2  117.2 81.5  113 81.5  C 108.8 81.5  105.5 78.2  105.5 74  C 105.5 69.8  108.8 66.5  113 66.5  Z " stroke-width="1" stroke="#8c8c8c" fill="none" />
  <path d="M 113 78  C 110.76 78  109 76.24  109 74  C 109 71.76  110.76 70  113 70  C 115.24 70  117 71.76  117 74  C 117 76.24  115.24 78  113 78  " fill-rule="nonzero" fill="#8c8c8c" stroke="none" />
</svg>