<?xml version="1.0" encoding="utf-8"?>
<svg version="1.1" xmlns:xlink="http://www.w3.org/1999/xlink" width="16px" height="16px" viewBox="113 40  16 16" xmlns="http://www.w3.org/2000/svg">
  <path d="M 121 40  C 125.48 40  129 43.52  129 48  C 129 52.48  125.48 56  121 56  C 116.52 56  113 52.48  113 48  C 113 43.52  116.52 40  121 40  Z " fill-rule="nonzero" fill="#f0f0f0" stroke="none" />
  <path d="M 121 40.5  C 125.2 40.5  128.5 43.8  128.5 48  C 128.5 52.2  125.2 55.5  121 55.5  C 116.8 55.5  113.5 52.2  113.5 48  C 113.5 43.8  116.8 40.5  121 40.5  Z " stroke-width="1" stroke="#8c8c8c" fill="none" />
  <path d="M 121 52  C 118.76 52  117 50.24  117 48  C 117 45.76  118.76 44  121 44  C 123.24 44  125 45.76  125 48  C 125 50.24  123.24 52  121 52  " fill-rule="nonzero" fill="#8c8c8c" stroke="none" />
</svg>