<?xml version="1.0" encoding="utf-8"?>
<svg version="1.1" xmlns:xlink="http://www.w3.org/1999/xlink" width="16px" height="16px" viewBox="349 43  16 16" xmlns="http://www.w3.org/2000/svg">
  <path d="M 357 43  C 361.48 43  365 46.52  365 51  C 365 55.48  361.48 59  357 59  C 352.52 59  349 55.48  349 51  C 349 46.52  352.52 43  357 43  Z " fill-rule="nonzero" fill="#f0f0f0" stroke="none" />
  <path d="M 357 43.5  C 361.2 43.5  364.5 46.8  364.5 51  C 364.5 55.2  361.2 58.5  357 58.5  C 352.8 58.5  349.5 55.2  349.5 51  C 349.5 46.8  352.8 43.5  357 43.5  Z " stroke-width="1" stroke="#8c8c8c" fill="none" />
  <path d="M 357 55  C 354.76 55  353 53.24  353 51  C 353 48.76  354.76 47  357 47  C 359.24 47  361 48.76  361 51  C 361 53.24  359.24 55  357 55  " fill-rule="nonzero" fill="#8c8c8c" stroke="none" />
</svg>