<?xml version="1.0" encoding="utf-8"?>
<svg version="1.1" xmlns:xlink="http://www.w3.org/1999/xlink" width="16px" height="16px" viewBox="202 66  16 16" xmlns="http://www.w3.org/2000/svg">
  <path d="M 210 66  C 214.48 66  218 69.52  218 74  C 218 78.48  214.48 82  210 82  C 205.52 82  202 78.48  202 74  C 202 69.52  205.52 66  210 66  Z " fill-rule="nonzero" fill="#f0f0f0" stroke="none" />
  <path d="M 210 66.5  C 214.2 66.5  217.5 69.8  217.5 74  C 217.5 78.2  214.2 81.5  210 81.5  C 205.8 81.5  202.5 78.2  202.5 74  C 202.5 69.8  205.8 66.5  210 66.5  Z " stroke-width="1" stroke="#8c8c8c" fill="none" />
  <path d="M 210 78  C 207.76 78  206 76.24  206 74  C 206 71.76  207.76 70  210 70  C 212.24 70  214 71.76  214 74  C 214 76.24  212.24 78  210 78  " fill-rule="nonzero" fill="#8c8c8c" stroke="none" />
</svg>