<?xml version="1.0" encoding="utf-8"?>
<svg version="1.1" xmlns:xlink="http://www.w3.org/1999/xlink" width="16px" height="16px" viewBox="189 40  16 16" xmlns="http://www.w3.org/2000/svg">
  <path d="M 197 40  C 201.48 40  205 43.52  205 48  C 205 52.48  201.48 56  197 56  C 192.52 56  189 52.48  189 48  C 189 43.52  192.52 40  197 40  Z " fill-rule="nonzero" fill="#ffffff" stroke="none" />
  <path d="M 197 40.5  C 201.2 40.5  204.5 43.8  204.5 48  C 204.5 52.2  201.2 55.5  197 55.5  C 192.8 55.5  189.5 52.2  189.5 48  C 189.5 43.8  192.8 40.5  197 40.5  Z " stroke-width="1" stroke="#8c8c8c" fill="none" />
  <path d="M 197 52  C 194.76 52  193 50.24  193 48  C 193 45.76  194.76 44  197 44  C 199.24 44  201 45.76  201 48  C 201 50.24  199.24 52  197 52  " fill-rule="nonzero" fill="#8c8c8c" stroke="none" />
</svg>