<?xml version="1.0" encoding="utf-8"?>
<svg version="1.1" xmlns:xlink="http://www.w3.org/1999/xlink" width="16px" height="16px" viewBox="113 33  16 16" xmlns="http://www.w3.org/2000/svg">
  <path d="M 121 33  C 125.48 33  129 36.52  129 41  C 129 45.48  125.48 49  121 49  C 116.52 49  113 45.48  113 41  C 113 36.52  116.52 33  121 33  Z " fill-rule="nonzero" fill="#ffffff" stroke="none" />
  <path d="M 121 33.5  C 125.2 33.5  128.5 36.8  128.5 41  C 128.5 45.2  125.2 48.5  121 48.5  C 116.8 48.5  113.5 45.2  113.5 41  C 113.5 36.8  116.8 33.5  121 33.5  Z " stroke-width="1" stroke="#8c8c8c" fill="none" />
  <path d="M 121 45  C 118.76 45  117 43.24  117 41  C 117 38.76  118.76 37  121 37  C 123.24 37  125 38.76  125 41  C 125 43.24  123.24 45  121 45  " fill-rule="nonzero" fill="#8c8c8c" stroke="none" />
</svg>