<?xml version="1.0" encoding="utf-8"?>
<svg version="1.1" xmlns:xlink="http://www.w3.org/1999/xlink" width="16px" height="16px" viewBox="100 6  16 16" xmlns="http://www.w3.org/2000/svg">
  <path d="M 108 6  C 112.48 6  116 9.52  116 14  C 116 18.48  112.48 22  108 22  C 103.52 22  100 18.48  100 14  C 100 9.52  103.52 6  108 6  Z " fill-rule="nonzero" fill="#ffffff" stroke="none" />
  <path d="M 108 6.5  C 112.2 6.5  115.5 9.8  115.5 14  C 115.5 18.2  112.2 21.5  108 21.5  C 103.8 21.5  100.5 18.2  100.5 14  C 100.5 9.8  103.8 6.5  108 6.5  Z " stroke-width="1" stroke="#8c8c8c" fill="none" />
  <path d="M 108 18  C 105.76 18  104 16.24  104 14  C 104 11.76  105.76 10  108 10  C 110.24 10  112 11.76  112 14  C 112 16.24  110.24 18  108 18  " fill-rule="nonzero" fill="#8c8c8c" stroke="none" />
</svg>