<?xml version="1.0" encoding="utf-8"?>
<svg version="1.1" xmlns:xlink="http://www.w3.org/1999/xlink" width="16px" height="16px" viewBox="113 49  16 16" xmlns="http://www.w3.org/2000/svg">
  <path d="M 121 49  C 125.48 49  129 52.52  129 57  C 129 61.48  125.48 65  121 65  C 116.52 65  113 61.48  113 57  C 113 52.52  116.52 49  121 49  Z " fill-rule="nonzero" fill="#ffffff" stroke="none" />
  <path d="M 121 49.5  C 125.2 49.5  128.5 52.8  128.5 57  C 128.5 61.2  125.2 64.5  121 64.5  C 116.8 64.5  113.5 61.2  113.5 57  C 113.5 52.8  116.8 49.5  121 49.5  Z " stroke-width="1" stroke="#8c8c8c" fill="none" />
  <path d="M 121 61  C 118.76 61  117 59.24  117 57  C 117 54.76  118.76 53  121 53  C 123.24 53  125 54.76  125 57  C 125 59.24  123.24 61  121 61  " fill-rule="nonzero" fill="#8c8c8c" stroke="none" />
</svg>