<?xml version="1.0" encoding="utf-8"?>
<svg version="1.1" xmlns:xlink="http://www.w3.org/1999/xlink" width="16px" height="16px" viewBox="189 33  16 16" xmlns="http://www.w3.org/2000/svg">
  <path d="M 197 33  C 201.48 33  205 36.52  205 41  C 205 45.48  201.48 49  197 49  C 192.52 49  189 45.48  189 41  C 189 36.52  192.52 33  197 33  Z " fill-rule="nonzero" fill="#f0f0f0" stroke="none" />
  <path d="M 197 33.5  C 201.2 33.5  204.5 36.8  204.5 41  C 204.5 45.2  201.2 48.5  197 48.5  C 192.8 48.5  189.5 45.2  189.5 41  C 189.5 36.8  192.8 33.5  197 33.5  Z " stroke-width="1" stroke="#8c8c8c" fill="none" />
  <path d="M 197 45  C 194.76 45  193 43.24  193 41  C 193 38.76  194.76 37  197 37  C 199.24 37  201 38.76  201 41  C 201 43.24  199.24 45  197 45  " fill-rule="nonzero" fill="#8c8c8c" stroke="none" />
</svg>