<?xml version="1.0" encoding="utf-8"?>
<svg version="1.1" xmlns:xlink="http://www.w3.org/1999/xlink" width="16px" height="16px" viewBox="260 4  16 16" xmlns="http://www.w3.org/2000/svg">
  <path d="M 268 4  C 272.48 4  276 7.52  276 12  C 276 16.48  272.48 20  268 20  C 263.52 20  260 16.48  260 12  C 260 7.52  263.52 4  268 4  Z " fill-rule="nonzero" fill="#ffffff" stroke="none" />
  <path d="M 268 4.5  C 272.2 4.5  275.5 7.8  275.5 12  C 275.5 16.2  272.2 19.5  268 19.5  C 263.8 19.5  260.5 16.2  260.5 12  C 260.5 7.8  263.8 4.5  268 4.5  Z " stroke-width="1" stroke="#8c8c8c" fill="none" />
  <path d="M 268 16  C 265.76 16  264 14.24  264 12  C 264 9.76  265.76 8  268 8  C 270.24 8  272 9.76  272 12  C 272 14.24  270.24 16  268 16  " fill-rule="nonzero" fill="#8c8c8c" stroke="none" />
</svg>