<?xml version="1.0" encoding="utf-8"?>
<svg version="1.1" xmlns:xlink="http://www.w3.org/1999/xlink" width="16px" height="16px" viewBox="113 43  16 16" xmlns="http://www.w3.org/2000/svg">
  <path d="M 121 43  C 125.48 43  129 46.52  129 51  C 129 55.48  125.48 59  121 59  C 116.52 59  113 55.48  113 51  C 113 46.52  116.52 43  121 43  Z " fill-rule="nonzero" fill="#f0f0f0" stroke="none" />
  <path d="M 121 43.5  C 125.2 43.5  128.5 46.8  128.5 51  C 128.5 55.2  125.2 58.5  121 58.5  C 116.8 58.5  113.5 55.2  113.5 51  C 113.5 46.8  116.8 43.5  121 43.5  Z " stroke-width="1" stroke="#8c8c8c" fill="none" />
  <path d="M 121 55  C 118.76 55  117 53.24  117 51  C 117 48.76  118.76 47  121 47  C 123.24 47  125 48.76  125 51  C 125 53.24  123.24 55  121 55  " fill-rule="nonzero" fill="#8c8c8c" stroke="none" />
</svg>