<?xml version="1.0" encoding="utf-8"?>
<svg version="1.1" xmlns:xlink="http://www.w3.org/1999/xlink" width="16px" height="16px" viewBox="365 66  16 16" xmlns="http://www.w3.org/2000/svg">
  <path d="M 373 66  C 377.48 66  381 69.52  381 74  C 381 78.48  377.48 82  373 82  C 368.52 82  365 78.48  365 74  C 365 69.52  368.52 66  373 66  Z " fill-rule="nonzero" fill="#f0f0f0" stroke="none" />
  <path d="M 373 66.5  C 377.2 66.5  380.5 69.8  380.5 74  C 380.5 78.2  377.2 81.5  373 81.5  C 368.8 81.5  365.5 78.2  365.5 74  C 365.5 69.8  368.8 66.5  373 66.5  Z " stroke-width="1" stroke="#8c8c8c" fill="none" />
  <path d="M 373 78  C 370.76 78  369 76.24  369 74  C 369 71.76  370.76 70  373 70  C 375.24 70  377 71.76  377 74  C 377 76.24  375.24 78  373 78  " fill-rule="nonzero" fill="#8c8c8c" stroke="none" />
</svg>