<?xml version="1.0" encoding="utf-8"?>
<svg version="1.1" xmlns:xlink="http://www.w3.org/1999/xlink" width="16px" height="16px" viewBox="367 66  16 16" xmlns="http://www.w3.org/2000/svg">
  <path d="M 375 66  C 379.48 66  383 69.52  383 74  C 383 78.48  379.48 82  375 82  C 370.52 82  367 78.48  367 74  C 367 69.52  370.52 66  375 66  Z " fill-rule="nonzero" fill="#ffffff" stroke="none" />
  <path d="M 375 66.5  C 379.2 66.5  382.5 69.8  382.5 74  C 382.5 78.2  379.2 81.5  375 81.5  C 370.8 81.5  367.5 78.2  367.5 74  C 367.5 69.8  370.8 66.5  375 66.5  Z " stroke-width="1" stroke="#8c8c8c" fill="none" />
  <path d="M 375 78  C 372.76 78  371 76.24  371 74  C 371 71.76  372.76 70  375 70  C 377.24 70  379 71.76  379 74  C 379 76.24  377.24 78  375 78  " fill-rule="nonzero" fill="#8c8c8c" stroke="none" />
</svg>