<?xml version="1.0" encoding="utf-8"?>
<svg version="1.1" xmlns:xlink="http://www.w3.org/1999/xlink" width="16px" height="16px" viewBox="172 43  16 16" xmlns="http://www.w3.org/2000/svg">
  <path d="M 180 43  C 184.48 43  188 46.52  188 51  C 188 55.48  184.48 59  180 59  C 175.52 59  172 55.48  172 51  C 172 46.52  175.52 43  180 43  Z " fill-rule="nonzero" fill="#f0f0f0" stroke="none" />
  <path d="M 180 43.5  C 184.2 43.5  187.5 46.8  187.5 51  C 187.5 55.2  184.2 58.5  180 58.5  C 175.8 58.5  172.5 55.2  172.5 51  C 172.5 46.8  175.8 43.5  180 43.5  Z " stroke-width="1" stroke="#8c8c8c" fill="none" />
  <path d="M 180 55  C 177.76 55  176 53.24  176 51  C 176 48.76  177.76 47  180 47  C 182.24 47  184 48.76  184 51  C 184 53.24  182.24 55  180 55  " fill-rule="nonzero" fill="#8c8c8c" stroke="none" />
</svg>