<?xml version="1.0" encoding="utf-8"?>
<svg version="1.1" xmlns:xlink="http://www.w3.org/1999/xlink" width="16px" height="16px" viewBox="349 4  16 16" xmlns="http://www.w3.org/2000/svg">
  <path d="M 357 4  C 361.48 4  365 7.52  365 12  C 365 16.48  361.48 20  357 20  C 352.52 20  349 16.48  349 12  C 349 7.52  352.52 4  357 4  Z " fill-rule="nonzero" fill="#ffffff" stroke="none" />
  <path d="M 357 4.5  C 361.2 4.5  364.5 7.8  364.5 12  C 364.5 16.2  361.2 19.5  357 19.5  C 352.8 19.5  349.5 16.2  349.5 12  C 349.5 7.8  352.8 4.5  357 4.5  Z " stroke-width="1" stroke="#8c8c8c" fill="none" />
  <path d="M 357 16  C 354.76 16  353 14.24  353 12  C 353 9.76  354.76 8  357 8  C 359.24 8  361 9.76  361 12  C 361 14.24  359.24 16  357 16  " fill-rule="nonzero" fill="#8c8c8c" stroke="none" />
</svg>