<?xml version="1.0" encoding="utf-8"?>
<svg version="1.1" xmlns:xlink="http://www.w3.org/1999/xlink" width="16px" height="16px" viewBox="189 49  16 16" xmlns="http://www.w3.org/2000/svg">
  <path d="M 197 49  C 201.48 49  205 52.52  205 57  C 205 61.48  201.48 65  197 65  C 192.52 65  189 61.48  189 57  C 189 52.52  192.52 49  197 49  Z " fill-rule="nonzero" fill="#ffffff" stroke="none" />
  <path d="M 197 49.5  C 201.2 49.5  204.5 52.8  204.5 57  C 204.5 61.2  201.2 64.5  197 64.5  C 192.8 64.5  189.5 61.2  189.5 57  C 189.5 52.8  192.8 49.5  197 49.5  Z " stroke-width="1" stroke="#8c8c8c" fill="none" />
  <path d="M 197 61  C 194.76 61  193 59.24  193 57  C 193 54.76  194.76 53  197 53  C 199.24 53  201 54.76  201 57  C 201 59.24  199.24 61  197 61  " fill-rule="nonzero" fill="#8c8c8c" stroke="none" />
</svg>