<?xml version="1.0" encoding="utf-8"?>
<svg version="1.1" xmlns:xlink="http://www.w3.org/1999/xlink" width="16px" height="16px" viewBox="286 66  16 16" xmlns="http://www.w3.org/2000/svg">
  <path d="M 294 66  C 298.48 66  302 69.52  302 74  C 302 78.48  298.48 82  294 82  C 289.52 82  286 78.48  286 74  C 286 69.52  289.52 66  294 66  Z " fill-rule="nonzero" fill="#f0f0f0" stroke="none" />
  <path d="M 294 66.5  C 298.2 66.5  301.5 69.8  301.5 74  C 301.5 78.2  298.2 81.5  294 81.5  C 289.8 81.5  286.5 78.2  286.5 74  C 286.5 69.8  289.8 66.5  294 66.5  Z " stroke-width="1" stroke="#8c8c8c" fill="none" />
  <path d="M 294 78  C 291.76 78  290 76.24  290 74  C 290 71.76  291.76 70  294 70  C 296.24 70  298 71.76  298 74  C 298 76.24  296.24 78  294 78  " fill-rule="nonzero" fill="#8c8c8c" stroke="none" />
</svg>