<?xml version="1.0" encoding="utf-8"?>
<svg version="1.1" xmlns:xlink="http://www.w3.org/1999/xlink" width="16px" height="17px" xmlns="http://www.w3.org/2000/svg">
  <defs>
    <mask fill="white" id="clip440">
      <path d="M 10.021052631579 5.01052631578949  L 10.021052631579 1.67017543859647  L 1.67017543859649 1.67017543859647  L 1.67017543859649 15  L 13.3614035087719 15  L 13.3614035087719 5.01052631578949  L 10.021052631579 5.01052631578949  Z M 0 15.8733473684211  L 0 0.828407017543832  C 0 0.370778947368422  0.373284210526293 0  0.83425263157892 0  L 10.8561403508772 0  L 15.0315789473684 4.17543859649122  L 15.0315789473684 15.8608210526316  C 15.031592682234 15.8627763324713  15.0315995497304 15.8647316545212  15.0315995497304 15.8666869826005  C 15.0315995497304 16.3256200074099  14.6612587020361 16.69855317708  14.2023368421053 16.7017543859649  L 0.829242105263177 16.7017543859649  C 0.372913050669581 16.6985745196459  0.00363964197322275 16.3296729874941  0 15.8733473684211  Z M 8.79263859649123 10.393501754386  C 8.28103727823938 10.6924255479297  7.69916030793877 10.8499583787696  7.10663069417788 10.8499583787696  C 5.260883433196 10.8499583787696  3.76460964154629 9.35368458711991  3.76460964154629 7.5079373261381  C 3.76460964154629 6.62616977835043  4.11308590455005 5.78013284731061  4.73411228070179 5.15416140350875  C 5.36053183636065 4.52785757704985  6.21006962012234 4.17601347812173  7.09587882234877 4.17601347812173  C 8.9407036709064 4.17601347812173  10.4362296995418 5.67153950675712  10.4362296995418 7.51636435531468  C 10.4362296995418 8.11298726125594  10.2764343877011 8.69872181833697  9.97345263157894 9.21268771929827  L 11.8189964912281 11.0582315789474  L 10.6381824561403 12.2398807017544  L 8.79263859649123 10.3943368421053  Z M 7.11626381026761 9.1654414528903  C 7.54917234506146 9.1654414528903  7.9651683827289 8.9973501737345  8.27655438596491 8.69660350877194  C 8.60240991453813 8.3818817086282  8.7864392488641 7.94829099924215  8.7864392488641 7.49526601429382  C 8.7864392488641 6.57285359001498  8.03867623454639 5.82509057569728  7.11626381026761 5.82509057569728  C 6.66323882531927 5.82509057569728  6.22964811593323 6.00911991002332  5.9149263157895 6.33497543859652  C 5.61417965082694 6.64636144183252  5.44608837167112 7.06235747949996  5.44608837167112 7.49526601429382  C 5.44608837167112 8.4176784385726  6.19385138598884 9.1654414528903  7.11626381026761 9.1654414528903  Z " fill-rule="evenodd" />
    </mask>
  </defs>
  <g transform="matrix(1 0 0 1 -283 -7 )">
    <path d="M 10.021052631579 5.01052631578949  L 10.021052631579 1.67017543859647  L 1.67017543859649 1.67017543859647  L 1.67017543859649 15  L 13.3614035087719 15  L 13.3614035087719 5.01052631578949  L 10.021052631579 5.01052631578949  Z M 0 15.8733473684211  L 0 0.828407017543832  C 0 0.370778947368422  0.373284210526293 0  0.83425263157892 0  L 10.8561403508772 0  L 15.0315789473684 4.17543859649122  L 15.0315789473684 15.8608210526316  C 15.031592682234 15.8627763324713  15.0315995497304 15.8647316545212  15.0315995497304 15.8666869826005  C 15.0315995497304 16.3256200074099  14.6612587020361 16.69855317708  14.2023368421053 16.7017543859649  L 0.829242105263177 16.7017543859649  C 0.372913050669581 16.6985745196459  0.00363964197322275 16.3296729874941  0 15.8733473684211  Z M 8.79263859649123 10.393501754386  C 8.28103727823938 10.6924255479297  7.69916030793877 10.8499583787696  7.10663069417788 10.8499583787696  C 5.260883433196 10.8499583787696  3.76460964154629 9.35368458711991  3.76460964154629 7.5079373261381  C 3.76460964154629 6.62616977835043  4.11308590455005 5.78013284731061  4.73411228070179 5.15416140350875  C 5.36053183636065 4.52785757704985  6.21006962012234 4.17601347812173  7.09587882234877 4.17601347812173  C 8.9407036709064 4.17601347812173  10.4362296995418 5.67153950675712  10.4362296995418 7.51636435531468  C 10.4362296995418 8.11298726125594  10.2764343877011 8.69872181833697  9.97345263157894 9.21268771929827  L 11.8189964912281 11.0582315789474  L 10.6381824561403 12.2398807017544  L 8.79263859649123 10.3943368421053  Z M 7.11626381026761 9.1654414528903  C 7.54917234506146 9.1654414528903  7.9651683827289 8.9973501737345  8.27655438596491 8.69660350877194  C 8.60240991453813 8.3818817086282  8.7864392488641 7.94829099924215  8.7864392488641 7.49526601429382  C 8.7864392488641 6.57285359001498  8.03867623454639 5.82509057569728  7.11626381026761 5.82509057569728  C 6.66323882531927 5.82509057569728  6.22964811593323 6.00911991002332  5.9149263157895 6.33497543859652  C 5.61417965082694 6.64636144183252  5.44608837167112 7.06235747949996  5.44608837167112 7.49526601429382  C 5.44608837167112 8.4176784385726  6.19385138598884 9.1654414528903  7.11626381026761 9.1654414528903  Z " fill-rule="nonzero" fill="#cccccc" stroke="none" transform="matrix(1 0 0 1 283 7 )" />
    <path d="M 10.021052631579 5.01052631578949  L 10.021052631579 1.67017543859647  L 1.67017543859649 1.67017543859647  L 1.67017543859649 15  L 13.3614035087719 15  L 13.3614035087719 5.01052631578949  L 10.021052631579 5.01052631578949  Z " stroke-width="2" stroke="#e4e4e4" fill="none" transform="matrix(1 0 0 1 283 7 )" mask="url(#clip440)" />
    <path d="M 0 15.8733473684211  L 0 0.828407017543832  C 0 0.370778947368422  0.373284210526293 0  0.83425263157892 0  L 10.8561403508772 0  L 15.0315789473684 4.17543859649122  L 15.0315789473684 15.8608210526316  C 15.031592682234 15.8627763324713  15.0315995497304 15.8647316545212  15.0315995497304 15.8666869826005  C 15.0315995497304 16.3256200074099  14.6612587020361 16.69855317708  14.2023368421053 16.7017543859649  L 0.829242105263177 16.7017543859649  C 0.372913050669581 16.6985745196459  0.00363964197322275 16.3296729874941  0 15.8733473684211  Z " stroke-width="2" stroke="#e4e4e4" fill="none" transform="matrix(1 0 0 1 283 7 )" mask="url(#clip440)" />
    <path d="M 8.79263859649123 10.393501754386  C 8.28103727823938 10.6924255479297  7.69916030793877 10.8499583787696  7.10663069417788 10.8499583787696  C 5.260883433196 10.8499583787696  3.76460964154629 9.35368458711991  3.76460964154629 7.5079373261381  C 3.76460964154629 6.62616977835043  4.11308590455005 5.78013284731061  4.73411228070179 5.15416140350875  C 5.36053183636065 4.52785757704985  6.21006962012234 4.17601347812173  7.09587882234877 4.17601347812173  C 8.9407036709064 4.17601347812173  10.4362296995418 5.67153950675712  10.4362296995418 7.51636435531468  C 10.4362296995418 8.11298726125594  10.2764343877011 8.69872181833697  9.97345263157894 9.21268771929827  L 11.8189964912281 11.0582315789474  L 10.6381824561403 12.2398807017544  L 8.79263859649123 10.3943368421053  Z " stroke-width="2" stroke="#e4e4e4" fill="none" transform="matrix(1 0 0 1 283 7 )" mask="url(#clip440)" />
    <path d="M 7.11626381026761 9.1654414528903  C 7.54917234506146 9.1654414528903  7.9651683827289 8.9973501737345  8.27655438596491 8.69660350877194  C 8.60240991453813 8.3818817086282  8.7864392488641 7.94829099924215  8.7864392488641 7.49526601429382  C 8.7864392488641 6.57285359001498  8.03867623454639 5.82509057569728  7.11626381026761 5.82509057569728  C 6.66323882531927 5.82509057569728  6.22964811593323 6.00911991002332  5.9149263157895 6.33497543859652  C 5.61417965082694 6.64636144183252  5.44608837167112 7.06235747949996  5.44608837167112 7.49526601429382  C 5.44608837167112 8.4176784385726  6.19385138598884 9.1654414528903  7.11626381026761 9.1654414528903  Z " stroke-width="2" stroke="#e4e4e4" fill="none" transform="matrix(1 0 0 1 283 7 )" mask="url(#clip440)" />
  </g>
</svg>