<?xml version="1.0" encoding="utf-8"?>
<svg version="1.1" xmlns:xlink="http://www.w3.org/1999/xlink" width="11px" height="14px" xmlns="http://www.w3.org/2000/svg">
  <g transform="matrix(1 0 0 1 -1326 -262 )">
    <path d="M 0.269230769230717 3.5  L 5.3846153846153 0  L 10.5000000000001 3.5  L 10.5000000000001 10.5  L 5.3846153846153 14  L 0.269230769230717 10.5  L 0.269230769230717 3.5  Z M 9.42307692307701 4.23372727272726  L 5.3846153846153 1.47063636363634  L 1.34615384615378 4.23372727272726  L 1.34615384615378 9.76627272727274  L 5.3846153846153 12.5293636363637  L 9.42307692307701 9.76627272727274  L 9.42307692307701 4.23372727272726  Z M 5.3846153846153 9.54545454545456  C 4.19507900036449 9.54545454545456  3.23076923076918 8.40581572684204  3.23076923076918 7  C 3.23076923076918 5.59418427315796  4.19507900036449 4.45454545454544  5.3846153846153 4.45454545454544  C 6.5741517688663 4.45454545454544  7.53846153846161 5.59418427315796  7.53846153846161 7  C 7.53846153846161 8.40581572684204  6.5741517688663 9.54545454545456  5.3846153846153 9.54545454545456  Z M 5.3846153846153 8.27272727272731  C 5.97938357674089 8.27272727272731  6.46153846153855 7.70290786342099  6.46153846153855 7  C 6.46153846153855 6.29709213657901  5.97938357674089 5.72727272727269  5.3846153846153 5.72727272727269  C 4.78984719248989 5.72727272727269  4.30769230769224 6.29709213657901  4.30769230769224 7  C 4.30769230769224 7.70290786342099  4.78984719248989 8.27272727272731  5.3846153846153 8.27272727272731  Z " fill-rule="nonzero" fill="#2561ef" stroke="none" transform="matrix(1 0 0 1 1326 262 )" />
  </g>
</svg>