<?xml version="1.0" encoding="utf-8"?>
<svg version="1.1" xmlns:xlink="http://www.w3.org/1999/xlink" width="14px" height="15px" xmlns="http://www.w3.org/2000/svg">
  <g transform="matrix(1 0 0 1 -49 -203 )">
    <path d="M 5.64705874672548 9.28426187549486  C 6.12332590112162 9.28426187549486  6.5976799304579 9.34523001814019  7.05882361581617 9.46571428571427  L 7.05882361581617 15  L 0 15  C 0 14.9995158632706  0 14.9990317265256  0 14.9985475897806  C 0 11.8426347336046  2.52827431951041 9.28426187549486  5.64705874672548 9.28426187549486  Z M 9.88235298917893 4.28571428571431  C 9.88235298917893 6.65357142857142  7.98705889730918 8.57142857142856  5.6470589291348 8.57142857142856  C 3.30705896096043 8.57142857142856  1.41176486909069 6.65357142857142  1.41176486909069 4.28571428571431  C 1.41176486909069 1.91785714285714  3.30705896096043 0  5.6470589291348 0  C 7.98705889730918 0  9.88235298917893 1.91785714285714  9.88235298917893 4.28571428571431  Z M 7.76470595915686 11.4285714285714  L 9.88235298917893 11.4285714285714  L 9.88235298917893 9.28571428571431  L 11.2941176758603 9.28571428571431  L 11.2941176758603 11.4285714285714  L 13.4117647058823 11.4285714285714  L 13.4117647058823 12.8571428571429  L 11.2941176758603 12.8571428571429  L 11.2941176758603 15  L 9.88235298917893 15  L 9.88235298917893 12.8571428571429  L 7.76470595915686 12.8571428571429  L 7.76470595915686 11.4285714285714  Z " fill-rule="nonzero" fill="#ffffff" stroke="none" transform="matrix(1 0 0 1 49 203 )" />
  </g>
</svg>