<?xml version="1.0" encoding="utf-8"?>
<svg version="1.1" xmlns:xlink="http://www.w3.org/1999/xlink" width="300px" height="72px" xmlns="http://www.w3.org/2000/svg">
  <g transform="matrix(1 0 0 1 -20 -174 )">
    <path d="M 21 178  A 3 3 0 0 1 24 175 L 316 175  A 3 3 0 0 1 319 178 L 319 242  A 3 3 0 0 1 316 245 L 24 245  A 3 3 0 0 1 21 242 L 21 178  Z " fill-rule="nonzero" fill="#ffffff" stroke="none" />
    <path d="M 20.5 178  A 3.5 3.5 0 0 1 24 174.5 L 316 174.5  A 3.5 3.5 0 0 1 319.5 178 L 319.5 242  A 3.5 3.5 0 0 1 316 245.5 L 24 245.5  A 3.5 3.5 0 0 1 20.5 242 L 20.5 178  Z " stroke-width="1" stroke-dasharray="9,4" stroke="#e4e4e4" fill="none" stroke-dashoffset="0.5" />
  </g>
</svg>