<?xml version="1.0" encoding="utf-8"?>
<svg version="1.1" xmlns:xlink="http://www.w3.org/1999/xlink" width="80px" height="35px" xmlns="http://www.w3.org/2000/svg">
  <g transform="matrix(1 0 0 1 -326 -797 )">
    <path d="M 326.5 802  A 4.5 4.5 0 0 1 331 797.5 L 401 797.5  A 4.5 4.5 0 0 1 405.5 802 L 405.5 827  A 4.5 4.5 0 0 1 401 831.5 L 331 831.5  A 4.5 4.5 0 0 1 326.5 827 L 326.5 802  Z " fill-rule="nonzero" fill="#f9f9f9" stroke="none" fill-opacity="0" />
    <path d="M 326.5 802  A 4.5 4.5 0 0 1 331 797.5 L 401 797.5  A 4.5 4.5 0 0 1 405.5 802 L 405.5 827  A 4.5 4.5 0 0 1 401 831.5 L 331 831.5  A 4.5 4.5 0 0 1 326.5 827 L 326.5 802  Z " stroke-width="1" stroke="#e4e4e4" fill="none" />
  </g>
</svg>