<?xml version="1.0" encoding="utf-8"?>
<svg version="1.1" xmlns:xlink="http://www.w3.org/1999/xlink" width="33px" height="41px" xmlns="http://www.w3.org/2000/svg">
  <defs>
    <filter x="95px" y="252px" width="33px" height="41px" filterUnits="userSpaceOnUse" id="filter333">
      <feOffset dx="1" dy="1" in="SourceAlpha" result="shadowOffsetInner" />
      <feGaussianBlur stdDeviation="2.5" in="shadowOffsetInner" result="shadowGaussian" />
      <feComposite in2="shadowGaussian" operator="atop" in="SourceAlpha" result="shadowComposite" />
      <feColorMatrix type="matrix" values="0 0 0 0 0  0 0 0 0 0  0 0 0 0 0  0 0 0 0.698039215686274 0  " in="shadowComposite" />
    </filter>
    <g id="widget334">
      <path d="M 110.5 286.029855381312  C 106.1 278.652987926961  99.5 274.226867454351  99.5 266.85  C 99.5 263.005714285714  101.7 256.5  110.5 256.5  C 119.3 256.5  121.5 263.005714285714  121.5 266.85  C 121.5 274.226867454351  114.9 278.652987926961  110.5 286.029855381312  Z " fill-rule="nonzero" fill="#009dd9" stroke="none" />
      <path d="M 110.5 287  C 105.9 279.25  99 274.6  99 266.85  C 99 262.82  101.3 256  110.5 256  C 119.7 256  122 262.82  122 266.85  C 122 274.6  115.1 279.25  110.5 287  Z M 110.5 285.059710762623  C 114.7 278.055975853922  121 273.853734908701  121 266.85  C 121 263.191428571429  118.9 257  110.5 257  C 102.1 257  100 263.191428571429  100 266.85  C 100 273.853734908701  106.3 278.055975853922  110.5 285.059710762623  Z " fill-rule="nonzero" fill="#ffffff" stroke="none" />
    </g>
  </defs>
  <g transform="matrix(1 0 0 1 -95 -252 )">
    <use xlink:href="#widget334" filter="url(#filter333)" />
    <use xlink:href="#widget334" />
  </g>
</svg>