<?xml version="1.0" encoding="utf-8"?>
<svg version="1.1" xmlns:xlink="http://www.w3.org/1999/xlink" width="16px" height="16px" viewBox="126 583  16 16" xmlns="http://www.w3.org/2000/svg">
  <path d="M 134 583  C 138.48 583  142 586.52  142 591  C 142 595.48  138.48 599  134 599  C 129.52 599  126 595.48  126 591  C 126 586.52  129.52 583  134 583  Z " fill-rule="nonzero" fill="#f0f0f0" stroke="none" />
  <path d="M 134 583.5  C 138.2 583.5  141.5 586.8  141.5 591  C 141.5 595.2  138.2 598.5  134 598.5  C 129.8 598.5  126.5 595.2  126.5 591  C 126.5 586.8  129.8 583.5  134 583.5  Z " stroke-width="1" stroke="#8c8c8c" fill="none" />
  <path d="M 134 595  C 131.76 595  130 593.24  130 591  C 130 588.76  131.76 587  134 587  C 136.24 587  138 588.76  138 591  C 138 593.24  136.24 595  134 595  " fill-rule="nonzero" fill="#8c8c8c" stroke="none" />
</svg>