<?xml version="1.0" encoding="utf-8"?>
<svg version="1.1" xmlns:xlink="http://www.w3.org/1999/xlink" width="16px" height="16px" viewBox="281 544  16 16" xmlns="http://www.w3.org/2000/svg">
  <path d="M 289 544  C 293.48 544  297 547.52  297 552  C 297 556.48  293.48 560  289 560  C 284.52 560  281 556.48  281 552  C 281 547.52  284.52 544  289 544  Z " fill-rule="nonzero" fill="#ffffff" stroke="none" />
  <path d="M 289 544.5  C 293.2 544.5  296.5 547.8  296.5 552  C 296.5 556.2  293.2 559.5  289 559.5  C 284.8 559.5  281.5 556.2  281.5 552  C 281.5 547.8  284.8 544.5  289 544.5  Z " stroke-width="1" stroke="#8c8c8c" fill="none" />
  <path d="M 289 556  C 286.76 556  285 554.24  285 552  C 285 549.76  286.76 548  289 548  C 291.24 548  293 549.76  293 552  C 293 554.24  291.24 556  289 556  " fill-rule="nonzero" fill="#8c8c8c" stroke="none" />
</svg>