<?xml version="1.0" encoding="utf-8"?>
<svg version="1.1" xmlns:xlink="http://www.w3.org/1999/xlink" width="16px" height="16px" viewBox="304 492  16 16" xmlns="http://www.w3.org/2000/svg">
  <path d="M 312 492  C 316.48 492  320 495.52  320 500  C 320 504.48  316.48 508  312 508  C 307.52 508  304 504.48  304 500  C 304 495.52  307.52 492  312 492  Z " fill-rule="nonzero" fill="#f0f0f0" stroke="none" />
  <path d="M 312 492.5  C 316.2 492.5  319.5 495.8  319.5 500  C 319.5 504.2  316.2 507.5  312 507.5  C 307.8 507.5  304.5 504.2  304.5 500  C 304.5 495.8  307.8 492.5  312 492.5  Z " stroke-width="1" stroke="#8c8c8c" fill="none" />
  <path d="M 312 504  C 309.76 504  308 502.24  308 500  C 308 497.76  309.76 496  312 496  C 314.24 496  316 497.76  316 500  C 316 502.24  314.24 504  312 504  " fill-rule="nonzero" fill="#8c8c8c" stroke="none" />
</svg>