<?xml version="1.0" encoding="utf-8"?>
<svg version="1.1" xmlns:xlink="http://www.w3.org/1999/xlink" width="16px" height="16px" viewBox="359 544  16 16" xmlns="http://www.w3.org/2000/svg">
  <path d="M 367 544  C 371.48 544  375 547.52  375 552  C 375 556.48  371.48 560  367 560  C 362.52 560  359 556.48  359 552  C 359 547.52  362.52 544  367 544  Z " fill-rule="nonzero" fill="#ffffff" stroke="none" />
  <path d="M 367 544.5  C 371.2 544.5  374.5 547.8  374.5 552  C 374.5 556.2  371.2 559.5  367 559.5  C 362.8 559.5  359.5 556.2  359.5 552  C 359.5 547.8  362.8 544.5  367 544.5  Z " stroke-width="1" stroke="#8c8c8c" fill="none" />
  <path d="M 367 556  C 364.76 556  363 554.24  363 552  C 363 549.76  364.76 548  367 548  C 369.24 548  371 549.76  371 552  C 371 554.24  369.24 556  367 556  " fill-rule="nonzero" fill="#8c8c8c" stroke="none" />
</svg>