<?xml version="1.0" encoding="utf-8"?>
<svg version="1.1" xmlns:xlink="http://www.w3.org/1999/xlink" width="16px" height="16px" viewBox="186 582  16 16" xmlns="http://www.w3.org/2000/svg">
  <path d="M 194 582  C 198.48 582  202 585.52  202 590  C 202 594.48  198.48 598  194 598  C 189.52 598  186 594.48  186 590  C 186 585.52  189.52 582  194 582  Z " fill-rule="nonzero" fill="#ffffff" stroke="none" />
  <path d="M 194 582.5  C 198.2 582.5  201.5 585.8  201.5 590  C 201.5 594.2  198.2 597.5  194 597.5  C 189.8 597.5  186.5 594.2  186.5 590  C 186.5 585.8  189.8 582.5  194 582.5  Z " stroke-width="1" stroke="#8c8c8c" fill="none" />
  <path d="M 194 594  C 191.76 594  190 592.24  190 590  C 190 587.76  191.76 586  194 586  C 196.24 586  198 587.76  198 590  C 198 592.24  196.24 594  194 594  " fill-rule="nonzero" fill="#8c8c8c" stroke="none" />
</svg>