<?xml version="1.0" encoding="utf-8"?>
<svg version="1.1" xmlns:xlink="http://www.w3.org/1999/xlink" width="16px" height="16px" viewBox="281 582  16 16" xmlns="http://www.w3.org/2000/svg">
  <path d="M 289 582  C 293.48 582  297 585.52  297 590  C 297 594.48  293.48 598  289 598  C 284.52 598  281 594.48  281 590  C 281 585.52  284.52 582  289 582  Z " fill-rule="nonzero" fill="#ffffff" stroke="none" />
  <path d="M 289 582.5  C 293.2 582.5  296.5 585.8  296.5 590  C 296.5 594.2  293.2 597.5  289 597.5  C 284.8 597.5  281.5 594.2  281.5 590  C 281.5 585.8  284.8 582.5  289 582.5  Z " stroke-width="1" stroke="#8c8c8c" fill="none" />
  <path d="M 289 594  C 286.76 594  285 592.24  285 590  C 285 587.76  286.76 586  289 586  C 291.24 586  293 587.76  293 590  C 293 592.24  291.24 594  289 594  " fill-rule="nonzero" fill="#8c8c8c" stroke="none" />
</svg>