<?xml version="1.0" encoding="utf-8"?>
<svg version="1.1" xmlns:xlink="http://www.w3.org/1999/xlink" width="16px" height="16px" viewBox="118 582  16 16" xmlns="http://www.w3.org/2000/svg">
  <path d="M 126 582  C 130.48 582  134 585.52  134 590  C 134 594.48  130.48 598  126 598  C 121.52 598  118 594.48  118 590  C 118 585.52  121.52 582  126 582  Z " fill-rule="nonzero" fill="#ffffff" stroke="none" />
  <path d="M 126 582.5  C 130.2 582.5  133.5 585.8  133.5 590  C 133.5 594.2  130.2 597.5  126 597.5  C 121.8 597.5  118.5 594.2  118.5 590  C 118.5 585.8  121.8 582.5  126 582.5  Z " stroke-width="1" stroke="#8c8c8c" fill="none" />
  <path d="M 126 594  C 123.76 594  122 592.24  122 590  C 122 587.76  123.76 586  126 586  C 128.24 586  130 587.76  130 590  C 130 592.24  128.24 594  126 594  " fill-rule="nonzero" fill="#8c8c8c" stroke="none" />
</svg>