<?xml version="1.0" encoding="utf-8"?>
<svg version="1.1" xmlns:xlink="http://www.w3.org/1999/xlink" width="16px" height="16px" viewBox="126 545  16 16" xmlns="http://www.w3.org/2000/svg">
  <path d="M 134 545  C 138.48 545  142 548.52  142 553  C 142 557.48  138.48 561  134 561  C 129.52 561  126 557.48  126 553  C 126 548.52  129.52 545  134 545  Z " fill-rule="nonzero" fill="#f0f0f0" stroke="none" />
  <path d="M 134 545.5  C 138.2 545.5  141.5 548.8  141.5 553  C 141.5 557.2  138.2 560.5  134 560.5  C 129.8 560.5  126.5 557.2  126.5 553  C 126.5 548.8  129.8 545.5  134 545.5  Z " stroke-width="1" stroke="#8c8c8c" fill="none" />
  <path d="M 134 557  C 131.76 557  130 555.24  130 553  C 130 550.76  131.76 549  134 549  C 136.24 549  138 550.76  138 553  C 138 555.24  136.24 557  134 557  " fill-rule="nonzero" fill="#8c8c8c" stroke="none" />
</svg>