<?xml version="1.0" encoding="utf-8"?>
<svg version="1.1" xmlns:xlink="http://www.w3.org/1999/xlink" width="16px" height="16px" viewBox="393 492  16 16" xmlns="http://www.w3.org/2000/svg">
  <path d="M 401 492  C 405.48 492  409 495.52  409 500  C 409 504.48  405.48 508  401 508  C 396.52 508  393 504.48  393 500  C 393 495.52  396.52 492  401 492  Z " fill-rule="nonzero" fill="#f0f0f0" stroke="none" />
  <path d="M 401 492.5  C 405.2 492.5  408.5 495.8  408.5 500  C 408.5 504.2  405.2 507.5  401 507.5  C 396.8 507.5  393.5 504.2  393.5 500  C 393.5 495.8  396.8 492.5  401 492.5  Z " stroke-width="1" stroke="#8c8c8c" fill="none" />
  <path d="M 401 504  C 398.76 504  397 502.24  397 500  C 397 497.76  398.76 496  401 496  C 403.24 496  405 497.76  405 500  C 405 502.24  403.24 504  401 504  " fill-rule="nonzero" fill="#8c8c8c" stroke="none" />
</svg>