<?xml version="1.0" encoding="utf-8"?>
<svg version="1.1" xmlns:xlink="http://www.w3.org/1999/xlink" width="16px" height="16px" viewBox="359 582  16 16" xmlns="http://www.w3.org/2000/svg">
  <path d="M 367 582  C 371.48 582  375 585.52  375 590  C 375 594.48  371.48 598  367 598  C 362.52 598  359 594.48  359 590  C 359 585.52  362.52 582  367 582  Z " fill-rule="nonzero" fill="#ffffff" stroke="none" />
  <path d="M 367 582.5  C 371.2 582.5  374.5 585.8  374.5 590  C 374.5 594.2  371.2 597.5  367 597.5  C 362.8 597.5  359.5 594.2  359.5 590  C 359.5 585.8  362.8 582.5  367 582.5  Z " stroke-width="1" stroke="#8c8c8c" fill="none" />
  <path d="M 367 594  C 364.76 594  363 592.24  363 590  C 363 587.76  364.76 586  367 586  C 369.24 586  371 587.76  371 590  C 371 592.24  369.24 594  367 594  " fill-rule="nonzero" fill="#8c8c8c" stroke="none" />
</svg>