<?xml version="1.0" encoding="utf-8"?>
<svg version="1.1" xmlns:xlink="http://www.w3.org/1999/xlink" width="16px" height="16px" viewBox="204 544  16 16" xmlns="http://www.w3.org/2000/svg">
  <path d="M 212 544  C 216.48 544  220 547.52  220 552  C 220 556.48  216.48 560  212 560  C 207.52 560  204 556.48  204 552  C 204 547.52  207.52 544  212 544  Z " fill-rule="nonzero" fill="#f0f0f0" stroke="none" />
  <path d="M 212 544.5  C 216.2 544.5  219.5 547.8  219.5 552  C 219.5 556.2  216.2 559.5  212 559.5  C 207.8 559.5  204.5 556.2  204.5 552  C 204.5 547.8  207.8 544.5  212 544.5  Z " stroke-width="1" stroke="#8c8c8c" fill="none" />
  <path d="M 212 556  C 209.76 556  208 554.24  208 552  C 208 549.76  209.76 548  212 548  C 214.24 548  216 549.76  216 552  C 216 554.24  214.24 556  212 556  " fill-rule="nonzero" fill="#8c8c8c" stroke="none" />
</svg>