<?xml version="1.0" encoding="utf-8"?>
<svg version="1.1" xmlns:xlink="http://www.w3.org/1999/xlink" width="16px" height="16px" viewBox="264 581  16 16" xmlns="http://www.w3.org/2000/svg">
  <path d="M 272 581  C 276.48 581  280 584.52  280 589  C 280 593.48  276.48 597  272 597  C 267.52 597  264 593.48  264 589  C 264 584.52  267.52 581  272 581  Z " fill-rule="nonzero" fill="#f0f0f0" stroke="none" />
  <path d="M 272 581.5  C 276.2 581.5  279.5 584.8  279.5 589  C 279.5 593.2  276.2 596.5  272 596.5  C 267.8 596.5  264.5 593.2  264.5 589  C 264.5 584.8  267.8 581.5  272 581.5  Z " stroke-width="1" stroke="#8c8c8c" fill="none" />
  <path d="M 272 593  C 269.76 593  268 591.24  268 589  C 268 586.76  269.76 585  272 585  C 274.24 585  276 586.76  276 589  C 276 591.24  274.24 593  272 593  " fill-rule="nonzero" fill="#8c8c8c" stroke="none" />
</svg>