<?xml version="1.0" encoding="utf-8"?>
<svg version="1.1" xmlns:xlink="http://www.w3.org/1999/xlink" width="16px" height="18px" xmlns="http://www.w3.org/2000/svg">
  <g transform="matrix(1 0 0 1 -69 -266 )">
    <path d="M 0.350222222222222 16.8213333333333  C 1.89866666666666 14.7324444444444  4.74488888888889 13.3333333333333  8 13.3333333333333  C 11.2551111111111 13.3333333333333  14.1022222222222 14.7333333333333  15.6506666666667 16.8222222222222  L 14.0133333333333 17.5964444444444  C 12.7528888888889 16.1031111111111  10.5306666666667 15.1111111111111  8 15.1111111111111  C 5.46933333333334 15.1111111111111  3.24711111111111 16.1031111111111  1.98666666666667 17.5964444444444  L 0.350222222222222 16.8213333333333  Z M 7.80711111111111 0.00444444444440251  L 8 0  C 10.4545988881369 0  12.4444444444444 1.98984555630756  12.4444444444444 4.44444444444446  L 12.4444444444444 7.11111111111114  C 12.4443069670458 9.49059344218421  10.5701292189971 11.4478415817416  8.19288888888889 11.5511111111111  L 8 11.5555555555555  C 5.54540111186314 11.5555555555555  3.55555555555556 9.56570999924793  3.55555555555556 7.11111111111114  L 3.55555555555556 4.4444444444444  C 3.55569303295424 2.06496211337134  5.4298707810029 0.107713973813929  7.80711111111111 0.00444444444440251  Z M 10.6666666666667 4.4444444444444  C 10.6666666666667 2.97168511156229  9.47275933288211 1.77777777777777  8 1.77777777777777  C 6.58794879078317 1.77769911888043  5.42061811332284 2.87838086617523  5.33777777777777 4.28800000000001  L 5.33333333333333 4.44444444444446  L 5.33333333333333 7.11111111111114  C 5.33333250774631 7.11196776423446  5.33333209495273 7.11282441770692  5.33333209495273 7.11368107122809  C 5.33333209495273 8.58644040411014  6.52723942873729 9.78034773789477  7.99999876161939 9.78034773789477  C 9.41298617803601 9.78034773789477  10.5806887059489 8.67818864912584  10.6622222222222 7.26755555555559  L 10.6666666666667 7.11111111111114  L 10.6666666666667 4.4444444444444  Z " fill-rule="nonzero" fill="#2561ef" stroke="none" transform="matrix(1 0 0 1 69 266 )" />
  </g>
</svg>