<?xml version="1.0" encoding="utf-8"?>
<svg version="1.1" xmlns:xlink="http://www.w3.org/1999/xlink" width="16px" height="18px" xmlns="http://www.w3.org/2000/svg">
  <g transform="matrix(1 0 0 1 -69 -329 )">
    <path d="M 14.2222222222222 6.22222228248916  L 14.2222222222222 7.11111116674209  L 15.1111111111111 7.11111116674209  C 15.6020308887385 7.11111116674209  16 7.50908027592806  16 8.00000005099508  L 16 16.8888888935248  C 16 17.3798086685918  15.6020308887385 17.7777777777778  15.1111111111111 17.7777777777778  L 0.888888888888914 17.7777777777778  C 0.397969111261546 17.7777777777778  0 17.3798086685918  0 16.8888888935248  L 0 8.00000005099508  C 0 7.50908027592806  0.397969111261546 7.11111116674209  0.888888888888914 7.11111116674209  L 1.77777777777777 7.11111116674209  L 1.77777777777777 6.22222228248916  C 1.77777777777777 2.78578376430164  4.56356155660842 0  8 0  C 11.4364384433916 0  14.2222222222222 2.78578376430164  14.2222222222222 6.22222218977078  Z M 14.2222222222222 9  L 1.77777777777777 9  L 1.77777777777777 16  L 14.2222222222222 16  L 14.2222222222222 9  Z M 7.11111111111109 14.2222222407659  L 7.11111111111109 10.666666703754  L 8.88888888888891 10.666666703754  L 8.88888888888891 14.2222222407659  L 7.11111111111109 14.2222222407659  Z M 3.55555555555554 7.11111116674209  L 12.4444444444445 7.11111116674209  L 12.4444444444445 6.22222228248916  C 12.4444444444445 3.76762340715402  10.4545988881368 1.77777786122431  8 1.77777786122431  C 5.54540111186316 1.77777786122431  3.55555555555554 3.76762340715402  3.55555555555554 6.22222228248916  L 3.55555555555554 7.11111116674209  Z " fill-rule="nonzero" fill="#2561ef" stroke="none" transform="matrix(1 0 0 1 69 329 )" />
  </g>
</svg>