<?xml version="1.0" encoding="utf-8"?>
<svg version="1.1" xmlns:xlink="http://www.w3.org/1999/xlink" width="747px" height="464px" xmlns="http://www.w3.org/2000/svg">
  <defs>
    <filter x="-20px" y="1844px" width="747px" height="464px" filterUnits="userSpaceOnUse" id="filter122">
      <feOffset dx="0" dy="10" in="SourceAlpha" result="shadowOffsetInner" />
      <feGaussianBlur stdDeviation="20" in="shadowOffsetInner" result="shadowGaussian" />
      <feComposite in2="shadowGaussian" operator="atop" in="SourceAlpha" result="shadowComposite" />
      <feColorMatrix type="matrix" values="0 0 0 0 0.949019607843137  0 0 0 0 0.949019607843137  0 0 0 0 0.949019607843137  0 0 0 1 0  " in="shadowComposite" />
    </filter>
    <g id="widget123">
      <path d="M 21 1882  A 7 7 0 0 1 28 1875 L 679 1875  A 7 7 0 0 1 686 1882 L 686 2250  A 7 7 0 0 1 679 2257 L 28 2257  A 7 7 0 0 1 21 2250 L 21 1882  Z " fill-rule="nonzero" fill="#ffffff" stroke="none" />
      <path d="M 20.5 1882  A 7.5 7.5 0 0 1 28 1874.5 L 679 1874.5  A 7.5 7.5 0 0 1 686.5 1882 L 686.5 2250  A 7.5 7.5 0 0 1 679 2257.5 L 28 2257.5  A 7.5 7.5 0 0 1 20.5 2250 L 20.5 1882  Z " stroke-width="1" stroke="#6c76f4" fill="none" stroke-opacity="0.0980392156862745" />
    </g>
  </defs>
  <g transform="matrix(1 0 0 1 20 -1844 )">
    <use xlink:href="#widget123" filter="url(#filter122)" />
    <use xlink:href="#widget123" />
  </g>
</svg>