<?xml version="1.0" encoding="utf-8"?>
<svg version="1.1" xmlns:xlink="http://www.w3.org/1999/xlink" width="750px" height="416px" xmlns="http://www.w3.org/2000/svg">
  <defs>
    <filter x="-19px" y="1497px" width="750px" height="416px" filterUnits="userSpaceOnUse" id="filter78">
      <feOffset dx="0" dy="10" in="SourceAlpha" result="shadowOffsetInner" />
      <feGaussianBlur stdDeviation="20" in="shadowOffsetInner" result="shadowGaussian" />
      <feComposite in2="shadowGaussian" operator="atop" in="SourceAlpha" result="shadowComposite" />
      <feColorMatrix type="matrix" values="0 0 0 0 0.949019607843137  0 0 0 0 0.949019607843137  0 0 0 0 0.949019607843137  0 0 0 1 0  " in="shadowComposite" />
    </filter>
    <g id="widget79">
      <path d="M 22 1535  A 7 7 0 0 1 29 1528 L 683 1528  A 7 7 0 0 1 690 1535 L 690 1855  A 7 7 0 0 1 683 1862 L 29 1862  A 7 7 0 0 1 22 1855 L 22 1535  Z " fill-rule="nonzero" fill="#ffffff" stroke="none" />
      <path d="M 21.5 1535  A 7.5 7.5 0 0 1 29 1527.5 L 683 1527.5  A 7.5 7.5 0 0 1 690.5 1535 L 690.5 1855  A 7.5 7.5 0 0 1 683 1862.5 L 29 1862.5  A 7.5 7.5 0 0 1 21.5 1855 L 21.5 1535  Z " stroke-width="1" stroke="#6c76f4" fill="none" stroke-opacity="0.0980392156862745" />
    </g>
  </defs>
  <g transform="matrix(1 0 0 1 19 -1497 )">
    <use xlink:href="#widget79" filter="url(#filter78)" />
    <use xlink:href="#widget79" />
  </g>
</svg>