<?xml version="1.0" encoding="utf-8"?>
<svg version="1.1" xmlns:xlink="http://www.w3.org/1999/xlink" width="20px" height="20px" xmlns="http://www.w3.org/2000/svg">
  <g transform="matrix(1 0 0 1 -40 -2 )">
    <path d="M 50 2  C 55.6 2  60 6.4  60 12  C 60 17.6  55.6 22  50 22  C 44.4 22  40 17.6  40 12  C 40 6.4  44.4 2  50 2  Z " fill-rule="nonzero" fill="#ffffff" stroke="none" />
    <path d="M 50 2.5  C 55.32 2.5  59.5 6.68  59.5 12  C 59.5 17.32  55.32 21.5  50 21.5  C 44.68 21.5  40.5 17.32  40.5 12  C 40.5 6.68  44.68 2.5  50 2.5  Z " stroke-width="1" stroke="#ffffff" fill="none" />
  </g>
</svg>