<?xml version="1.0" encoding="utf-8"?>
<svg version="1.1" xmlns:xlink="http://www.w3.org/1999/xlink" width="16px" height="16px" xmlns="http://www.w3.org/2000/svg">
  <g transform="matrix(1 0 0 1 -486 -40 )">
    <path d="M 494 40  C 498.48 40  502 43.52  502 48  C 502 52.48  498.48 56  494 56  C 489.52 56  486 52.48  486 48  C 486 43.52  489.52 40  494 40  Z " fill-rule="nonzero" fill="#ffffff" stroke="none" />
    <path d="M 494 40.5  C 498.2 40.5  501.5 43.8  501.5 48  C 501.5 52.2  498.2 55.5  494 55.5  C 489.8 55.5  486.5 52.2  486.5 48  C 486.5 43.8  489.8 40.5  494 40.5  Z " stroke-width="1" stroke="#cccccc" fill="none" />
  </g>
</svg>