<?xml version="1.0" encoding="utf-8"?>
<svg version="1.1" xmlns:xlink="http://www.w3.org/1999/xlink" width="521px" height="91px" xmlns="http://www.w3.org/2000/svg">
  <g transform="matrix(1 0 0 1 -20 -60 )">
    <path d="M 21 64  A 3 3 0 0 1 24 61 L 537 61  A 3 3 0 0 1 540 64 L 540 147  A 3 3 0 0 1 537 150 L 24 150  A 3 3 0 0 1 21 147 L 21 64  Z " fill-rule="nonzero" fill="#ffffff" stroke="none" />
    <path d="M 20.5 64  A 3.5 3.5 0 0 1 24 60.5 L 537 60.5  A 3.5 3.5 0 0 1 540.5 64 L 540.5 147  A 3.5 3.5 0 0 1 537 150.5 L 24 150.5  A 3.5 3.5 0 0 1 20.5 147 L 20.5 64  Z " stroke-width="1" stroke-dasharray="9,4" stroke="#e4e4e4" fill="none" stroke-dashoffset="0.5" />
  </g>
</svg>