<?xml version="1.0" encoding="utf-8"?>
<svg version="1.1" xmlns:xlink="http://www.w3.org/1999/xlink" width="16px" height="13px" xmlns="http://www.w3.org/2000/svg">
  <g transform="matrix(1 0 0 1 -20 -42 )">
    <path d="M 14.4444444444444 5.05555555555557  L 14.4444444444444 11.5555555555556  L 15.8888888888889 11.5555555555556  L 15.8888888888889 13  L 0 13  L 0 11.5555555555556  L 1.44444444444443 11.5555555555556  L 1.44444444444443 0.722222222222229  C 1.44444444444443 0.323349902899992  1.76779434734441 0  2.16666666666666 0  L 9.38888888888887 0  C 9.78776120821111 0  10.1111111111111 0.323349902899992  10 0.722222222222229  L 10 11.5555555555556  L 13 11.5555555555556  L 13 5.77777777777777  L 11.5555555555555 5.77777777777777  L 11.5555555555555 4.33333333333334  L 13.7222222222222 4.33333333333334  C 14.1210945415445 4.33333333333334  14.4444444444444 4.65668323623333  14.4444444444444 5.05555555555557  Z M 8.66666666666666 1.44444444444443  L 3 1.44444444444443  L 3 11.5555555555556  L 8.66666666666666 11.5555555555556  L 8.66666666666666 1.44444444444443  Z M 4.33333333333336 7.22222222222223  L 4.33333333333336 5.77777777777777  L 7.22222222222221 5.77777777777777  L 7.22222222222221 7.22222222222223  L 4.33333333333336 7.22222222222223  Z M 4.33333333333336 4.33333333333334  L 4.33333333333336 2.88888888888886  L 7.22222222222221 2.88888888888886  L 7.22222222222221 4.33333333333334  L 4.33333333333336 4.33333333333334  Z " fill-rule="nonzero" fill="#ffc71c" stroke="none" transform="matrix(1 0 0 1 20 42 )" />
  </g>
</svg>