<?xml version="1.0" encoding="utf-8"?>
<svg version="1.1" xmlns:xlink="http://www.w3.org/1999/xlink" width="16px" height="15px" xmlns="http://www.w3.org/2000/svg">
  <g transform="matrix(1 0 0 1 -20 -42 )">
    <path d="M 0.983193277310917 13.5469831932773  L 0.983193277310917 5.89915966386555  L 0.218487394957975 5.89915966386555  L 0.218487394957975 1.31321848739496  C 0.218487394957975 0.889571428571443  0.566428571428574 0.546218487394952  0.977075630252102 0.546218487394952  L 14.7540168067227 0.546218487394952  C 14.7545483749816 0.546217367670224  14.7550799442725 0.546216807807369  14.7556115137108 0.546216807807369  C 15.173723556671 0.546216807807369  15.5126703372402 0.88516358837667  15.5126703372402 1.30327563133677  C 15.5126703372402 1.30659002388802  15.5126485716964 1.30990438070525  15.5126050420168 1.31321848739496  L 15.5126050420168 5.89915966386555  L 14.7478991596638 5.89915966386555  L 14.7478991596639 13.5469831932773  C 14.7479014699208 13.5477490451732  14.7479026250512 13.5485149001182  14.7479026250512 13.5492807554986  C 14.7479026250512 13.9690325324833  14.4082960971307 14.3096619669784  13.9885462184874 14.3109243697479  L 1.74254621848739 14.3109243697479  C 1.32279633984406 14.3096619669784  0.983189811923566 13.9690325324833  0.983189811923566 13.5492807554986  C 0.983189811923566 13.5485149001182  0.983190967054014 13.5477490451732  0.983193277310917 13.5469831932773  Z M 13.218487394958 12.781512605042  L 13.218487394958 6  L 2.51260504201682 6  L 2.51260504201682 12.781512605042  L 13.218487394958 12.781512605042  Z M 13.9831932773109 2  L 1.74789915966387 2  L 1.74789915966387 4.36974789915965  L 13.9831932773109 4.36974789915965  L 13.9831932773109 2  Z M 5.57142857142857 8.95798319327731  L 5.57142857142857 7.42857142857143  L 10.1596638655462 7.42857142857143  L 10.1596638655462 8.95798319327731  L 5.57142857142857 8.95798319327731  Z " fill-rule="nonzero" fill="#fa746b" stroke="none" transform="matrix(1 0 0 1 20 42 )" />
  </g>
</svg>