<?xml version="1.0" encoding="utf-8"?>
<svg version="1.1" xmlns:xlink="http://www.w3.org/1999/xlink" width="32px" height="32px" xmlns="http://www.w3.org/2000/svg">
  <g transform="matrix(1 0 0 1 -530 -621 )">
    <path d="M 32 16  C 32 7.16000000000008  24.8399999999999 0  16 0  C 7.16000000000008 0  0 7.16000000000008  0 16  C 0 24.8399999999999  7.16000000000008 32  16 32  C 24.8399999999999 32  32 24.8399999999999  32 16  Z M 11.2 9.60000000000002  C 11.2 6.952  13.3520000000001 4.79999999999995  16 4.79999999999995  C 18.6479999999999 4.79999999999995  20.8 6.952  20.8 9.60000000000002  C 20.8 12.2560000000001  18.6479999999999 14.4  16 14.4  C 13.3520000000001 14.4  11.2 12.2560000000001  11.2 9.60000000000002  Z M 25.6 22.3680000000001  C 23.528 25.472  20.008 27.52  16 27.52  C 11.992 27.52  8.47199999999998 25.472  6.39999999999998 22.3680000000001  C 6.43999999999994 19.192  12.808 17.4399999999999  16 17.4399999999999  C 19.192 17.4399999999999  25.5519999999999 19.192  25.6 22.3680000000001  Z " fill-rule="nonzero" fill="#666ee8" stroke="none" transform="matrix(1 0 0 1 530 621 )" />
  </g>
</svg>