<?xml version="1.0" encoding="utf-8"?>
<svg version="1.1" xmlns:xlink="http://www.w3.org/1999/xlink" width="14px" height="14px" xmlns="http://www.w3.org/2000/svg">
  <g transform="matrix(1 0 0 1 -1077 -252 )">
    <path d="M 1084 253  C 1087.36 253  1090 255.64  1090 259  C 1090 262.36  1087.36 265  1084 265  C 1080.64 265  1078 262.36  1078 259  C 1078 255.64  1080.64 253  1084 253  Z " fill-rule="nonzero" fill="#e4e4e4" stroke="none" />
    <path d="M 1084 253  C 1087.36 253  1090 255.64  1090 259  C 1090 262.36  1087.36 265  1084 265  C 1080.64 265  1078 262.36  1078 259  C 1078 255.64  1080.64 253  1084 253  Z " stroke-width="2" stroke="#ffffff" fill="none" />
  </g>
</svg>