<?xml version="1.0" encoding="utf-8"?>
<svg version="1.1" xmlns:xlink="http://www.w3.org/1999/xlink" width="14px" height="14px" xmlns="http://www.w3.org/2000/svg">
  <g transform="matrix(1 0 0 1 -1077 -160 )">
    <path d="M 1084 161  C 1087.36 161  1090 163.64  1090 167  C 1090 170.36  1087.36 173  1084 173  C 1080.64 173  1078 170.36  1078 167  C 1078 163.64  1080.64 161  1084 161  Z " fill-rule="nonzero" fill="#3dd4a7" stroke="none" />
    <path d="M 1084 161  C 1087.36 161  1090 163.64  1090 167  C 1090 170.36  1087.36 173  1084 173  C 1080.64 173  1078 170.36  1078 167  C 1078 163.64  1080.64 161  1084 161  Z " stroke-width="2" stroke="#ffffff" fill="none" />
  </g>
</svg>