<?xml version="1.0" encoding="utf-8"?>
<svg version="1.1" xmlns:xlink="http://www.w3.org/1999/xlink" width="6px" height="4px" xmlns="http://www.w3.org/2000/svg">
  <g transform="matrix(1 0 0 1 -254 -14 )">
    <path d="M 5.45247395833333 0.123148148148147  C 5.52119502314819 0.205246913580243  5.55555555555558 0.302469135802465  5.55555555555558 0.414814814814815  C 5.55555555555558 0.527160493827159  5.52119502314819 0.624382716049379  5.45247395833333 0.706481481481478  L 3.02191840277783 3.61018518518519  C 2.95319733796297 3.69228395061729  2.87181712962964 3.73333333333334  2.77777777777783 3.73333333333334  C 2.68373842592594 3.73333333333334  2.60235821759261 3.69228395061729  2.53363715277775 3.61018518518519  L 0.103081597222247 0.706481481481478  C 0.0343605324074285 0.624382716049379  0 0.527160493827159  0 0.414814814814815  C 0 0.302469135802465  0.0343605324074285 0.205246913580243  0.103081597222247 0.123148148148147  C 0.171802662037029 0.0410493827160508  0.253182870370362 0  0.347222222222248 0  L 5.20833333333333 0  C 5.30237268518518 0  5.38375289351851 0.0410493827160508  5.45247395833333 0.123148148148147  Z " fill-rule="nonzero" fill="#cccccc" stroke="none" transform="matrix(1 0 0 1 254 14 )" />
  </g>
</svg>