<?xml version="1.0" encoding="utf-8"?>
<svg version="1.1" xmlns:xlink="http://www.w3.org/1999/xlink" width="120px" height="40px" xmlns="http://www.w3.org/2000/svg">
  <g transform="matrix(1 0 0 1 -15 -13 )">
    <path d="M 15.5 18  A 4.5 4.5 0 0 1 20 13.5 L 130 13.5  A 4.5 4.5 0 0 1 134.5 18 L 134.5 48  A 4.5 4.5 0 0 1 130 52.5 L 20 52.5  A 4.5 4.5 0 0 1 15.5 48 L 15.5 18  Z " fill-rule="nonzero" fill="#f0f7ff" stroke="none" />
    <path d="M 15.5 18  A 4.5 4.5 0 0 1 20 13.5 L 130 13.5  A 4.5 4.5 0 0 1 134.5 18 L 134.5 48  A 4.5 4.5 0 0 1 130 52.5 L 20 52.5  A 4.5 4.5 0 0 1 15.5 48 L 15.5 18  Z " stroke-width="1" stroke="#409eff" fill="none" />
  </g>
</svg>