<?xml version="1.0" encoding="utf-8"?>
<svg version="1.1" xmlns:xlink="http://www.w3.org/1999/xlink" width="100px" height="120px" xmlns="http://www.w3.org/2000/svg">
  <g transform="matrix(1 0 0 1 -329 -95 )">
    <path d="M 75.2604166666667 4.55357142857143  L 95.5729166666667 25.4464285714286  C 96.7881944444445 26.6964285714286  97.8298611111111 28.3928571428571  98.6979166666667 30.5357142857143  C 99.5659722222222 32.6785714285714  100 34.6428571428571  100 36.4285714285714  L 100 113.571428571429  C 100 115.357142857143  99.3923611111111 116.875  98.1770833333333 118.125  C 96.9618055555556 119.375  95.4861111111111 120  93.75 120  L 6.25 120  C 4.51388888888889 120  3.03819444444444 119.375  1.82291666666667 118.125  C 0.607638888888889 116.875  0 115.357142857143  0 113.571428571429  L 0 6.42857142857143  C 0 4.64285714285714  0.607638888888889 3.125  1.82291666666667 1.875  C 3.03819444444444 0.625000000000004  4.51388888888889 0  6.25 0  L 64.5833333333333 0  C 66.3194444444445 0  68.2291666666667 0.446428571428577  70.3125 1.33928571428572  C 72.3958333333333 2.23214285714286  74.0451388888889 3.30357142857142  75.2604166666667 4.55357142857143  Z M 69.3359375 10.5803571428571  C 68.8151041666667 10.0446428571429  67.9253472222222 9.55357142857141  66 9.10714285714285  L 66 35  L 91.1458333333333 35  C 90.7118055555556 32.9910714285714  90.234375 32.0758928571429  89.7135416666667 31.5401785714286  L 69.3359375 10.5803571428571  Z M 9 111  L 91 111  L 91 43  L 64.5833333333333 43  C 62.8472222222222 42.8571428571429  61.3715277777778 42.2321428571428  60.15625 40.9821428571429  C 58.9409722222222 39.7321428571429  58.3333333333333 38.2142857142857  58 36.4285714285714  L 58 9  L 9 9  L 9 111  Z M 34.7005208333333 52  L 15.1692708333333 52  L 15.1692708333333 58.59375  L 19.7265625 58.59375  L 30.4036458333333 102  L 40.7552083333333 102  L 49.0885416666667 70.3794642857143  C 49.3923611111111 69.4866071428571  49.609375 68.4598214285714  49.7395833333333 67.2991071428571  C 49.8263888888889 66.5848214285714  49.8697916666667 66.0491071428571  49.8697916666667 65.6919642857143  L 50.1302083333333 65.6919642857143  L 50.3255208333333 67.2991071428571  C 50.3689236111111 67.4330357142857  50.4448784722222 67.8794642857143  50.5533854166667 68.6383928571429  C 50.6618923611111 69.3973214285714  50.78125 69.9776785714286  50.9114583333333 70.3794642857143  L 59.2447916666667 102  L 69.5963541666667 102  L 80.2734375 58.59375  L 84.8307291666667 58.59375  L 84.8307291666667 52  L 65.2994791666667 52  L 65.2994791666667 58.59375  L 71.1588541666667 58.59375  L 64.7135416666667 87.9241071428571  C 64.4965277777778 88.8169642857143  64.3446180555556 89.84375  64.2578125 91.0044642857143  L 64.1276041666667 92.4107142857143  L 63.8671875 92.4107142857143  C 63.8671875 92.2767857142857  63.8563368055556 92.1316964285714  63.8346354166667 91.9754464285714  C 63.8129340277778 91.8191964285714  63.7803819444444 91.640625  63.7369791666667 91.4397321428571  C 63.6935763888889 91.2388392857143  63.671875 91.09375  63.671875 91.0044642857143  C 63.6284722222222 90.78125  63.5416666666667 90.3125  63.4114583333333 89.5982142857143  C 63.28125 88.8839285714286  63.1727430555556 88.3258928571429  63.0859375 87.9241071428571  L 53.7109375 51.4285714285714  L 46.2890625 51.4285714285714  L 36.9140625 87.9241071428571  C 36.8272569444444 88.3258928571429  36.7296006944444 88.8727678571429  36.62109375 89.5647321428571  C 36.5125868055556 90.2566964285714  36.4366319444444 90.7366071428571  36.3932291666667 91.0044642857143  L 36.1328125 92.4107142857143  L 35.8723958333333 92.4107142857143  L 35.7421875 91.0044642857143  C 35.6553819444444 89.84375  35.5034722222222 88.8169642857143  35.2864583333333 87.9241071428571  L 28.8411458333333 58.59375  L 34.7005208333333 58.59375  L 34.7005208333333 52  Z " fill-rule="nonzero" fill="#000000" stroke="none" transform="matrix(1 0 0 1 329 95 )" />
  </g>
</svg>