<?xml version="1.0" encoding="utf-8"?>
<svg version="1.1" xmlns:xlink="http://www.w3.org/1999/xlink" width="100px" height="120px" xmlns="http://www.w3.org/2000/svg">
  <g transform="matrix(1 0 0 1 -29 -95 )">
    <path d="M 75.2604166666667 4.55357142857143  L 95.5729166666667 25.4464285714286  C 96.7881944444445 26.6964285714286  97.8298611111111 28.3928571428571  98.6979166666667 30.5357142857143  C 99.5659722222222 32.6785714285714  100 34.6428571428571  100 36.4285714285714  L 100 113.571428571429  C 100 115.357142857143  99.3923611111111 116.875  98.1770833333333 118.125  C 96.9618055555556 119.375  95.4861111111111 120  93.75 120  L 6.25 120  C 4.51388888888889 120  3.03819444444444 119.375  1.82291666666667 118.125  C 0.607638888888889 116.875  0 115.357142857143  0 113.571428571429  L 0 6.42857142857143  C 0 4.64285714285714  0.607638888888889 3.125  1.82291666666667 1.875  C 3.03819444444444 0.625000000000004  4.51388888888889 0  6.25 0  L 64.5833333333333 0  C 66.3194444444445 0  68.2291666666667 0.446428571428577  70.3125 1.33928571428572  C 72.3958333333333 2.23214285714286  74.0451388888889 3.30357142857142  75.2604166666667 4.55357142857143  Z M 69.3359375 10.5803571428571  C 68.8151041666667 10.0446428571429  67.9253472222222 9.55357142857141  66 9.10714285714285  L 66 35  L 91.1458333333333 35  C 90.7118055555556 32.9910714285714  90.234375 32.0758928571429  89.7135416666667 31.5401785714286  L 69.3359375 10.5803571428571  Z M 9 111  L 91 111  L 91 43  L 64.5833333333333 43  C 62.8472222222222 42.8571428571429  61.3715277777778 42.2321428571428  60.15625 40.9821428571429  C 58.9409722222222 39.7321428571429  58.3333333333333 38.2142857142857  58 36.4285714285714  L 58 9  L 9 9  L 9 111  Z M 32.3567708333333 95.7589285714286  L 27.9296875 95.7589285714286  L 27.9296875 102  L 46.2239583333333 102  L 46.2239583333333 95.7589285714286  L 41.3411458333333 95.7589285714286  L 48.046875 84.9776785714286  C 48.2638888888889 84.6651785714286  48.4809027777778 84.296875  48.6979166666667 83.8727678571429  C 48.9149305555556 83.4486607142857  49.0776909722222 83.1473214285714  49.1861979166667 82.96875  C 49.2947048611111 82.7901785714286  49.3706597222222 82.7008928571429  49.4140625 82.7008928571429  L 49.5442708333333 82.7008928571429  C 49.5876736111111 82.8794642857143  49.6961805555556 83.1026785714286  49.8697916666667 83.3705357142857  C 49.9565972222222 83.5491071428571  50.0542534722222 83.7165178571428  50.1627604166667 83.8727678571429  C 50.2712673611111 84.0290178571429  50.4014756944444 84.2075892857143  50.5533854166667 84.4084821428571  C 50.7052951388889 84.609375  50.8463541666667 84.7991071428571  50.9765625 84.9776785714286  L 57.9427083333333 95.7589285714286  L 52.9947916666667 95.7589285714286  L 52.9947916666667 102  L 71.9401041666667 102  L 71.9401041666667 95.7589285714286  L 67.5130208333333 95.7589285714286  L 55.0130208333333 77.4776785714286  L 67.7083333333333 58.59375  L 72.0703125 58.59375  L 72.0703125 52  L 53.90625 52  L 53.90625 58.59375  L 58.7239583333333 58.59375  L 52.0182291666667 69.2410714285714  C 51.8446180555556 69.5535714285714  51.6276041666667 69.921875  51.3671875 70.3459821428571  C 51.1067708333333 70.7700892857143  50.9114583333333 71.0714285714286  50.78125 71.25  L 50.6510416666667 71.4508928571429  L 50.5208333333333 71.4508928571429  C 50.4774305555556 71.2723214285714  50.3689236111111 71.0491071428571  50.1953125 70.78125  C 49.9348958333333 70.2901785714286  49.5659722222222 69.7767857142857  49.0885416666667 69.2410714285714  L 42.1875 58.59375  L 47.1354166666667 58.59375  L 47.1354166666667 52  L 28.2552083333333 52  L 28.2552083333333 58.59375  L 32.6822916666667 58.59375  L 44.9869791666667 76.8080357142857  L 32.3567708333333 95.7589285714286  Z " fill-rule="nonzero" fill="#000000" stroke="none" transform="matrix(1 0 0 1 29 95 )" />
  </g>
</svg>