<?xml version="1.0" encoding="utf-8"?>
<svg version="1.1" xmlns:xlink="http://www.w3.org/1999/xlink" width="100px" height="120px" xmlns="http://www.w3.org/2000/svg">
  <g transform="matrix(1 0 0 1 -478 -95 )">
    <path d="M 75.2604166666667 4.55357142857143  L 95.5729166666667 25.4464285714286  C 96.7881944444445 26.6964285714286  97.8298611111111 28.3928571428571  98.6979166666667 30.5357142857143  C 99.5659722222222 32.6785714285714  100 34.6428571428571  100 36.4285714285714  L 100 113.571428571429  C 100 115.357142857143  99.3923611111111 116.875  98.1770833333333 118.125  C 96.9618055555556 119.375  95.4861111111111 120  93.75 120  L 6.25 120  C 4.51388888888889 120  3.03819444444444 119.375  1.82291666666667 118.125  C 0.607638888888889 116.875  0 115.357142857143  0 113.571428571429  L 0 6.42857142857143  C 0 4.64285714285714  0.607638888888889 3.125  1.82291666666667 1.875  C 3.03819444444444 0.625000000000004  4.51388888888889 0  6.25 0  L 64.5833333333333 0  C 66.3194444444445 0  68.2291666666667 0.446428571428577  70.3125 1.33928571428572  C 72.3958333333333 2.23214285714286  74.0451388888889 3.30357142857142  75.2604166666667 4.55357142857143  Z M 69.3359375 10.5803571428571  C 68.8151041666667 10.0446428571429  67.9253472222222 9.55357142857141  66 9.10714285714285  L 66 35  L 91.1458333333333 35  C 90.7118055555556 32.9910714285714  90.234375 32.0758928571429  89.7135416666667 31.5401785714286  L 69.3359375 10.5803571428571  Z M 9 111  L 91 111  L 91 43  L 64.5833333333333 43  C 62.8472222222222 42.8571428571429  61.3715277777778 42.2321428571428  60.15625 40.9821428571429  C 58.9409722222222 39.7321428571429  58.3333333333333 38.2142857142857  58 36.4285714285714  L 58 9  L 9 9  L 9 111  Z M 62.5 60  L 83 81.4285714285714  L 83 102  L 17 102  L 17 90  L 29.1666666666667 77.1428571428571  L 37.5 85.7142857142857  L 62.5 60  Z M 38.0208333333333 64.8214285714286  C 35.5902777777778 67.3214285714286  32.6388888888889 68.5714285714286  29.1666666666667 68.5714285714286  C 25.6944444444444 68.5714285714286  22.7430555555556 67.3214285714286  20.3125 64.8214285714286  C 17.8819444444444 62.3214285714286  16.6666666666667 59.2857142857143  16.6666666666667 55.7142857142857  C 16.6666666666667 52.1428571428571  17.8819444444444 49.1071428571429  20.3125 46.6071428571429  C 22.7430555555556 44.1071428571428  25.6944444444444 42.8571428571429  29.1666666666667 42.8571428571429  C 32.6388888888889 42.8571428571429  35.5902777777778 44.1071428571428  38.0208333333333 46.6071428571429  C 40.4513888888889 49.1071428571429  41.6666666666667 52.1428571428571  41.6666666666667 55.7142857142857  C 41.6666666666667 59.2857142857143  40.4513888888889 62.3214285714286  38.0208333333333 64.8214285714286  Z " fill-rule="nonzero" fill="#000000" stroke="none" transform="matrix(1 0 0 1 478 95 )" />
  </g>
</svg>