<?xml version="1.0" encoding="utf-8"?>
<svg version="1.1" xmlns:xlink="http://www.w3.org/1999/xlink" width="100px" height="120px" xmlns="http://www.w3.org/2000/svg">
  <g transform="matrix(1 0 0 1 -179 -95 )">
    <path d="M 75.2604166666667 4.55357142857143  L 95.5729166666667 25.4464285714286  C 96.7881944444445 26.6964285714286  97.8298611111111 28.3928571428571  98.6979166666667 30.5357142857143  C 99.5659722222222 32.6785714285714  100 34.6428571428571  100 36.4285714285714  L 100 113.571428571429  C 100 115.357142857143  99.3923611111111 116.875  98.1770833333333 118.125  C 96.9618055555556 119.375  95.4861111111111 120  93.75 120  L 6.25 120  C 4.51388888888889 120  3.03819444444444 119.375  1.82291666666667 118.125  C 0.607638888888889 116.875  0 115.357142857143  0 113.571428571429  L 0 6.42857142857143  C 0 4.64285714285714  0.607638888888889 3.125  1.82291666666667 1.875  C 3.03819444444444 0.625000000000004  4.51388888888889 0  6.25 0  L 64.5833333333333 0  C 66.3194444444445 0  68.2291666666667 0.446428571428577  70.3125 1.33928571428572  C 72.3958333333333 2.23214285714286  74.0451388888889 3.30357142857142  75.2604166666667 4.55357142857143  Z M 69.3359375 10.5803571428571  C 68.8151041666667 10.0446428571429  67.9253472222222 9.55357142857141  66 9.10714285714285  L 66 35  L 91.1458333333333 35  C 90.7118055555556 32.9910714285714  90.234375 32.0758928571429  89.7135416666667 31.5401785714286  L 69.3359375 10.5803571428571  Z M 9 111  L 91 111  L 91 43  L 64.5833333333333 43  C 62.8472222222222 42.8571428571429  61.3715277777778 42.2321428571428  60.15625 40.9821428571429  C 58.9409722222222 39.7321428571429  58.3333333333333 38.2142857142857  58 36.4285714285714  L 58 9  L 9 9  L 9 111  Z M 48.6979166666667 55.78125  C 51.0850694444444 63.1026785714286  54.2534722222222 68.4151785714286  58.203125 71.71875  C 59.6354166666667 72.8794642857143  61.4583333333333 74.1294642857143  63.671875 75.46875  C 66.2326388888889 75.15625  68.7717013888889 75  71.2890625 75  C 77.6692708333333 75  81.5104166666667 76.09375  82.8125 78.28125  C 83.5069444444445 79.2633928571428  83.5503472222222 80.4241071428571  82.9427083333333 81.7633928571429  C 82.9427083333333 81.8080357142857  82.9210069444445 81.8526785714286  82.8776041666667 81.8973214285714  L 82.7473958333333 82.03125  L 82.7473958333333 82.0982142857143  C 82.4869791666667 83.7946428571429  80.9461805555556 84.6428571428571  78.125 84.6428571428571  C 76.0416666666667 84.6428571428571  73.5460069444445 84.1964285714286  70.6380208333333 83.3035714285714  C 67.7300347222222 82.4107142857143  64.9088541666667 81.2276785714286  62.1744791666667 79.7544642857143  C 52.5824652777778 80.8258928571429  44.0755208333333 82.6785714285714  36.6536458333333 85.3125  C 30.0130208333333 97.0089285714286  24.7612847222222 102.857142857143  20.8984375 102.857142857143  C 20.2473958333333 102.857142857143  19.6397569444444 102.700892857143  19.0755208333333 102.388392857143  L 17.5130208333333 101.584821428571  C 17.4696180555556 101.540178571429  17.3394097222222 101.428571428571  17.1223958333333 101.25  C 16.6883680555556 100.803571428571  16.5581597222222 100  16.7317708333333 98.8392857142857  C 17.1223958333333 97.0535714285714  18.3376736111111 95.0111607142857  20.3776041666667 92.7120535714286  C 22.4175347222222 90.4129464285714  25.2821180555556 88.2589285714286  28.9713541666667 86.25  C 29.5789930555556 85.8482142857143  30.078125 85.9821428571429  30.46875 86.6517857142857  C 30.5555555555556 86.7410714285714  30.5989583333333 86.8303571428571  30.5989583333333 86.9196428571429  C 32.8559027777778 83.125  35.1779513888889 78.7276785714286  37.5651041666667 73.7276785714286  C 40.5164930555556 67.65625  42.7734375 61.8080357142857  44.3359375 56.1830357142857  C 43.2942708333333 52.5223214285714  42.6323784722222 48.9620535714286  42.3502604166667 45.5022321428571  C 42.0681423611111 42.0424107142857  42.2092013888889 39.1964285714286  42.7734375 36.9642857142857  C 43.2508680555556 35.1785714285714  44.1623263888889 34.2857142857143  45.5078125 34.2857142857143  L 46.875 34.2857142857143  L 46.9401041666667 34.2857142857143  C 47.9383680555556 34.2857142857143  48.6979166666667 34.6205357142857  49.21875 35.2901785714286  C 50 36.2276785714286  50.1953125 37.7455357142857  49.8046875 39.84375  C 49.7178819444444 40.1116071428571  49.6310763888889 40.2901785714286  49.5442708333333 40.3794642857143  C 49.5876736111111 40.5133928571429  49.609375 40.6919642857143  49.609375 40.9151785714286  L 49.609375 42.9241071428571  C 49.5225694444444 48.4151785714286  49.21875 52.7008928571429  48.6979166666667 55.78125  Z M 23.92578125 94.2857142857143  C 22.3415798611111 96.25  21.2673611111111 97.9017857142857  20.703125 99.2410714285714  C 22.9600694444444 98.1696428571429  25.9331597222222 94.6428571428571  29.6223958333333 88.6607142857143  C 27.4088541666667 90.4464285714286  25.5099826388889 92.3214285714286  23.92578125 94.2857142857143  Z M 46.6145833333333 37.5  L 46.6145833333333 37.6339285714286  C 45.9635416666667 39.5089285714286  45.9201388888889 42.4553571428571  46.484375 46.4732142857143  C 46.5277777777778 46.1607142857143  46.6796875 45.1785714285714  46.9401041666667 43.5267857142857  C 46.9401041666667 43.3928571428571  47.0920138888889 42.4330357142857  47.3958333333333 40.6473214285714  C 47.4392361111111 40.46875  47.5260416666667 40.2901785714286  47.65625 40.1116071428571  C 47.6128472222222 40.0669642857143  47.5911458333333 40.0223214285714  47.5911458333333 39.9776785714286  C 47.5477430555556 39.8883928571428  47.5260416666667 39.8214285714286  47.5260416666667 39.7767857142857  C 47.4826388888889 38.7946428571429  47.2005208333333 37.9910714285714  46.6796875 37.3660714285714  C 46.6796875 37.4107142857143  46.6579861111111 37.4553571428571  46.6145833333333 37.5  Z M 41.4713541666667 76.3392857142857  C 40.1692708333333 78.8392857142857  39.1927083333333 80.6919642857143  38.5416666666667 81.8973214285714  C 44.4010416666667 79.4866071428571  50.5642361111111 77.6785714285714  57.03125 76.4732142857143  C 56.9444444444444 76.4285714285714  56.6623263888889 76.2165178571428  56.1848958333333 75.8370535714286  C 55.7074652777778 75.4575892857143  55.3602430555556 75.15625  55.1432291666667 74.9330357142857  C 51.8446180555556 71.9419642857143  49.0885416666667 68.0133928571428  46.875 63.1473214285714  C 45.703125 66.9866071428571  43.9019097222222 71.3839285714286  41.4713541666667 76.3392857142857  Z M 80.7291666666667 81.0267857142857  C 80.7291666666667 80.9821428571429  80.6857638888889 80.9151785714286  80.5989583333333 80.8258928571429  C 79.5572916666667 79.7544642857143  76.5190972222222 79.21875  71.484375 79.21875  C 74.7829861111111 80.46875  77.4739583333333 81.09375  79.5572916666667 81.09375  C 80.1649305555556 81.09375  80.5555555555556 81.0714285714286  80.7291666666667 81.0267857142857  Z " fill-rule="nonzero" fill="#000000" stroke="none" transform="matrix(1 0 0 1 179 95 )" />
  </g>
</svg>