<?xml version="1.0" encoding="utf-8"?>
<svg version="1.1" xmlns:xlink="http://www.w3.org/1999/xlink" width="233px" height="51px" xmlns="http://www.w3.org/2000/svg">
  <g transform="matrix(1 0 0 1 -1077 -624 )">
    <path d="M 1077 658.743868758285  C 1077 658.743868758285  1077 629  1077 629  C 1077 626.238576250846  1079.23857625085 624  1082 624  C 1082 624  1305 624  1305 624  C 1307.76142374915 624  1310 626.238576250846  1310 629  C 1310 629  1310 658.743868758285  1310 658.743868758285  C 1310 661.505292507439  1307.76142374915 663.743868758285  1305 663.743868758285  C 1305 663.743868758285  1149.23820422535 663.743868758285  1149.23820422535 663.743868758285  C 1149.23820422535 663.743868758285  1137.49522691706 674.40381039181  1137.49522691706 674.40381039181  C 1137.49522691706 674.40381039181  1127.36026995305 663.743868758285  1127.36026995305 663.743868758285  C 1127.36026995305 663.743868758285  1082 663.743868758285  1082 663.743868758285  C 1079.23857625085 663.743868758285  1077 661.505292507439  1077 658.743868758285  Z " fill-rule="nonzero" fill="#000000" stroke="none" fill-opacity="0.8" />
  </g>
</svg>