<?xml version="1.0" encoding="utf-8"?>
<svg version="1.1" xmlns:xlink="http://www.w3.org/1999/xlink" width="24px" height="26px" xmlns="http://www.w3.org/2000/svg">
  <g transform="matrix(1 0 0 1 -509 -25 )">
    <path d="M 15.0315789473685 7.66315789473686  L 15.0315789473685 3  L 2.50526315789473 3  L 2.50526315789473 23  L 20 23  L 20 7.66315789473686  L 15.0315789473685 7.66315789473686  Z M 0 24.2768842105264  L 0 1.26697543859645  C 0 0.567073684210527  0.55992631578944 0  1.25137894736838 0  L 16.2842105263158 0  L 22.5473684210526 6.38596491228069  L 22.5473684210526 24.2577263157895  C 22.547389023351 24.2607167437796  22.5473993245956 24.2637072363265  22.5473993245956 24.266697738095  C 22.5473993245956 24.9685953054505  21.9918880530542 25.5389636825929  21.3035052631579 25.5438596491228  L 1.24386315789476 25.5438596491228  C 0.559369576004372 25.5389963241644  0.00545946295983413 24.9747939808733  0 24.2768842105264  Z M 13.1889578947368 15.8972210526316  L 13.1889578947368 15.8959438596491  C 12.4215559173591 16.3531214262454  11.5487404619082 16.5940539910594  10.6599460412668 16.5940539910594  C 7.891325149794 16.5940539910594  5.64691446231943 14.3056352508893  5.64691446231943 11.48272767527  C 5.64691446231943 10.1341420139477  6.16962885682507 8.84020317823976  7.10116842105269 7.88283508771926  C 8.04079775454098 6.9249586472527  9.31510443018351 6.38684414300971  10.6438182335231 6.38684414300971  C 13.4110555063596 6.38684414300971  15.6543445493127 8.67411924562854  15.6543445493127 11.4956160728342  C 15.6543445493127 12.4080981642738  15.4146515815516 13.3039274868683  14.9601789473684 14.0899929824562  L 17.7284947368421 16.9125894736842  L 15.9572736842105 18.7198175438597  L 13.1889578947368 15.8972210526316  Z M 10.6743957154014 14.0177339867734  C 11.3237585175922 14.0177339867734  11.9477525740934 13.7606532068881  12.4148315789474 13.3006877192983  C 12.9036148718072 12.819348495549  13.1796588732961 12.1562097635468  13.1796588732961 11.4633480218611  C 13.1796588732961 10.0525996082582  12.0580143518196 8.90896205694879  10.6743957154014 8.90896205694879  C 9.9948582379789 8.90896205694879  9.34447217389985 9.19041868591802  8.87238947368425 9.68878596491233  C 8.42126947624041 10.1650233816262  8.16913255750669 10.8012526157058  8.16913255750669 11.4633480218611  C 8.16913255750669 12.874096435464  9.29077707898325 14.0177339867734  10.6743957154014 14.0177339867734  Z " fill-rule="nonzero" fill="#cccccc" stroke="none" transform="matrix(1 0 0 1 509 25 )" />
  </g>
</svg>