<?xml version="1.0" encoding="utf-8"?>
<svg version="1.1" xmlns:xlink="http://www.w3.org/1999/xlink" width="345px" height="10px" preserveAspectRatio="xMinYMid meet" viewBox="1061 1005  345 8" xmlns="http://www.w3.org/2000/svg">
  <path d="M 1122 197  L 1122 202  A 5 5 0 0 0 1127 207 L 1396 207  A 5 5 0 0 1 1401 212 L 1401 1004  A 5 5 0 0 1 1396 1009 L 1071 1009  A 5 5 0 0 0 1066 1014 L 1066 1046  " stroke-width="2" stroke="#2b85e4" fill="none" />
  <path d="M 1070.29289321881 1040.89289321881  L 1066 1045.18578643763  L 1061.70710678119 1040.89289321881  L 1060.29289321881 1042.30710678119  L 1065.29289321881 1047.30710678119  L 1066 1048.01421356237  L 1066.70710678119 1047.30710678119  L 1071.70710678119 1042.30710678119  L 1070.29289321881 1040.89289321881  Z " fill-rule="nonzero" fill="#2b85e4" stroke="none" />
</svg>