<?xml version="1.0" encoding="utf-8"?>
<svg version="1.1" xmlns:xlink="http://www.w3.org/1999/xlink" width="6px" height="5px" xmlns="http://www.w3.org/2000/svg">
  <g transform="matrix(1 0 0 1 -252 -16 )">
    <path d="M 5.45247395833333 0.153935185185183  C 5.52119502314819 0.256558641975303  5.55555555555558 0.378086419753082  5.55555555555558 0.518518518518519  C 5.55555555555558 0.658950617283949  5.52119502314819 0.780478395061724  5.45247395833333 0.883101851851848  L 3.02191840277783 4.51273148148149  C 2.95319733796297 4.61535493827161  2.87181712962964 4.66666666666667  2.77777777777783 4.66666666666667  C 2.68373842592594 4.66666666666667  2.60235821759261 4.61535493827161  2.53363715277775 4.51273148148149  L 0.103081597222247 0.883101851851848  C 0.0343605324074285 0.780478395061724  0 0.658950617283949  0 0.518518518518519  C 0 0.378086419753082  0.0343605324074285 0.256558641975303  0.103081597222247 0.153935185185183  C 0.171802662037029 0.0513117283950635  0.253182870370362 0  0.347222222222248 0  L 5.20833333333333 0  C 5.30237268518518 0  5.38375289351851 0.0513117283950635  5.45247395833333 0.153935185185183  Z " fill-rule="nonzero" fill="#cccccc" stroke="none" transform="matrix(1 0 0 1 252 16 )" />
  </g>
</svg>