<?xml version="1.0" encoding="utf-8"?>
<svg version="1.1" xmlns:xlink="http://www.w3.org/1999/xlink" width="52px" height="72px" xmlns="http://www.w3.org/2000/svg">
  <g transform="matrix(1 0 0 1 -178 -901 )">
    <path d="M 39.1354166666667 2.73214285714286  L 49.6979166666667 15.2678571428571  C 50.3298611111111 16.0178571428571  50.8715277777778 17.0357142857143  51.3229166666667 18.3214285714286  C 51.7743055555556 19.6071428571429  52 20.7857142857143  52 21.8571428571429  L 52 68.1428571428571  C 52 69.2142857142857  51.6840277777778 70.125  51.0520833333333 70.875  C 50.4201388888889 71.625  49.6527777777778 72  48.75 72  L 3.25 72  C 2.34722222222222 72  1.57986111111111 71.625  0.947916666666667 70.875  C 0.315972222222222 70.125  0 69.2142857142857  0 68.1428571428571  L 0 3.85714285714286  C 0 2.78571428571428  0.315972222222222 1.875  0.947916666666667 1.125  C 1.57986111111111 0.375000000000003  2.34722222222222 0  3.25 0  L 33.5833333333333 0  C 34.4861111111111 0  35.4791666666667 0.267857142857146  36.5625 0.80357142857143  C 37.6458333333333 1.33928571428571  38.5034722222222 1.98214285714285  39.1354166666667 2.73214285714286  Z M 36.0546875 6.34821428571429  C 35.7838541666667 6.02678571428571  35.3211805555556 5.73214285714285  34 5.46428571428571  L 34 21  L 47.3958333333333 21  C 47.1701388888889 19.7946428571428  46.921875 19.2455357142857  46.6510416666667 18.9241071428571  L 36.0546875 6.34821428571429  Z M 5 66  L 47 66  L 47 26  L 33.5833333333333 26  C 32.6805555555556 25.7142857142857  31.9131944444444 25.3392857142857  31.28125 24.5892857142857  C 30.6493055555556 23.8392857142857  30.3333333333333 22.9285714285714  30 21.8571428571429  L 30 6  L 5 6  L 5 66  Z M 16.8255208333333 57.4553571428571  L 14.5234375 57.4553571428571  L 14.5234375 61.7142857142857  L 24.0364583333333 61.7142857142857  L 24.0364583333333 57.4553571428571  L 21.4973958333333 57.4553571428571  L 24.984375 50.9866071428571  C 25.0972222222222 50.7991071428571  25.2100694444444 50.578125  25.3229166666667 50.3236607142857  C 25.4357638888889 50.0691964285714  25.5203993055556 49.8883928571428  25.5768229166667 49.78125  C 25.6332465277778 49.6741071428571  25.6727430555556 49.6205357142857  25.6953125 49.6205357142857  L 25.7630208333333 49.6205357142857  C 25.7855902777778 49.7276785714286  25.8420138888889 49.8616071428571  25.9322916666667 50.0223214285714  C 25.9774305555556 50.1294642857143  26.0282118055556 50.2299107142857  26.0846354166667 50.3236607142857  C 26.1410590277778 50.4174107142857  26.2087673611111 50.5245535714286  26.2877604166667 50.6450892857143  C 26.3667534722222 50.765625  26.4401041666667 50.8794642857143  26.5078125 50.9866071428571  L 30.1302083333333 57.4553571428571  L 27.5572916666667 57.4553571428571  L 27.5572916666667 61.7142857142857  L 37.4088541666667 61.7142857142857  L 37.4088541666667 57.4553571428571  L 35.1067708333333 57.4553571428571  L 28.6067708333333 46.4866071428571  L 35.2083333333333 35.15625  L 37.4765625 35.15625  L 37.4765625 30.8571428571429  L 28.03125 30.8571428571429  L 28.03125 35.15625  L 30.5364583333333 35.15625  L 27.0494791666667 41.5446428571429  C 26.9592013888889 41.7321428571429  26.8463541666667 41.953125  26.7109375 42.2075892857143  C 26.5755208333333 42.4620535714286  26.4739583333333 42.6428571428571  26.40625 42.75  L 26.3385416666667 42.8705357142857  L 26.2708333333333 42.8705357142857  C 26.2482638888889 42.7633928571429  26.1918402777778 42.6294642857143  26.1015625 42.46875  C 25.9661458333333 42.1741071428571  25.7743055555556 41.8660714285714  25.5260416666667 41.5446428571429  L 21.9375 35.15625  L 24.5104166666667 35.15625  L 24.5104166666667 30.8571428571429  L 14.6927083333333 30.8571428571429  L 14.6927083333333 35.15625  L 16.9947916666667 35.15625  L 23.3932291666667 46.0848214285714  L 16.8255208333333 57.4553571428571  Z " fill-rule="nonzero" fill="#000000" stroke="none" transform="matrix(1 0 0 1 178 901 )" />
  </g>
</svg>