<?xml version="1.0" encoding="utf-8"?>
<svg version="1.1" xmlns:xlink="http://www.w3.org/1999/xlink" width="52px" height="72px" xmlns="http://www.w3.org/2000/svg">
  <g transform="matrix(1 0 0 1 -412 -901 )">
    <path d="M 39.1354166666667 2.73214285714286  L 49.6979166666667 15.2678571428571  C 50.3298611111111 16.0178571428571  50.8715277777778 17.0357142857143  51.3229166666667 18.3214285714286  C 51.7743055555556 19.6071428571429  52 20.7857142857143  52 21.8571428571429  L 52 68.1428571428571  C 52 69.2142857142857  51.6840277777778 70.125  51.0520833333333 70.875  C 50.4201388888889 71.625  49.6527777777778 72  48.75 72  L 3.25 72  C 2.34722222222222 72  1.57986111111111 71.625  0.947916666666667 70.875  C 0.315972222222222 70.125  0 69.2142857142857  0 68.1428571428571  L 0 3.85714285714286  C 0 2.78571428571428  0.315972222222222 1.875  0.947916666666667 1.125  C 1.57986111111111 0.375000000000003  2.34722222222222 0  3.25 0  L 33.5833333333333 0  C 34.4861111111111 0  35.4791666666667 0.267857142857146  36.5625 0.80357142857143  C 37.6458333333333 1.33928571428571  38.5034722222222 1.98214285714285  39.1354166666667 2.73214285714286  Z M 36.0546875 6.34821428571429  C 35.7838541666667 6.02678571428571  35.3211805555556 5.73214285714285  34 5.46428571428571  L 34 21  L 47.3958333333333 21  C 47.1701388888889 19.7946428571428  46.921875 19.2455357142857  46.6510416666667 18.9241071428571  L 36.0546875 6.34821428571429  Z M 5 66  L 47 66  L 47 26  L 33.5833333333333 26  C 32.6805555555556 25.7142857142857  31.9131944444444 25.3392857142857  31.28125 24.5892857142857  C 30.6493055555556 23.8392857142857  30.3333333333333 22.9285714285714  30 21.8571428571429  L 30 6  L 5 6  L 5 66  Z M 32.5 36  L 43 48.8571428571429  L 43 61  L 8.66666666666667 61  L 8.66666666666667 54  L 15.1666666666667 46.2857142857143  L 19.5 51.4285714285714  L 32.5 36  Z M 19.7708333333333 38.8928571428571  C 18.5069444444444 40.3928571428571  16.9722222222222 41.1428571428571  15.1666666666667 41.1428571428571  C 13.3611111111111 41.1428571428571  11.8263888888889 40.3928571428571  10.5625 38.8928571428571  C 9.29861111111111 37.3928571428571  8.66666666666667 35.5714285714286  8.66666666666667 33.4285714285714  C 8.66666666666667 31.2857142857143  9.29861111111111 29.4642857142857  10.5625 27.9642857142857  C 11.8263888888889 26.4642857142857  13.3611111111111 25.7142857142857  15.1666666666667 25.7142857142857  C 16.9722222222222 25.7142857142857  18.5069444444444 26.4642857142857  19.7708333333333 27.9642857142857  C 21.0347222222222 29.4642857142857  21.6666666666667 31.2857142857143  21.6666666666667 33.4285714285714  C 21.6666666666667 35.5714285714286  21.0347222222222 37.3928571428571  19.7708333333333 38.8928571428571  Z " fill-rule="nonzero" fill="#000000" stroke="none" transform="matrix(1 0 0 1 412 901 )" />
  </g>
</svg>