<?xml version="1.0" encoding="utf-8"?>
<svg version="1.1" xmlns:xlink="http://www.w3.org/1999/xlink" width="52px" height="72px" xmlns="http://www.w3.org/2000/svg">
  <g transform="matrix(1 0 0 1 -334 -901 )">
    <path d="M 39.1354166666667 2.73214285714286  L 49.6979166666667 15.2678571428571  C 50.3298611111111 16.0178571428571  50.8715277777778 17.0357142857143  51.3229166666667 18.3214285714286  C 51.7743055555556 19.6071428571429  52 20.7857142857143  52 21.8571428571429  L 52 68.1428571428571  C 52 69.2142857142857  51.6840277777778 70.125  51.0520833333333 70.875  C 50.4201388888889 71.625  49.6527777777778 72  48.75 72  L 3.25 72  C 2.34722222222222 72  1.57986111111111 71.625  0.947916666666667 70.875  C 0.315972222222222 70.125  0 69.2142857142857  0 68.1428571428571  L 0 3.85714285714286  C 0 2.78571428571428  0.315972222222222 1.875  0.947916666666667 1.125  C 1.57986111111111 0.375000000000003  2.34722222222222 0  3.25 0  L 33.5833333333333 0  C 34.4861111111111 0  35.4791666666667 0.267857142857146  36.5625 0.80357142857143  C 37.6458333333333 1.33928571428571  38.5034722222222 1.98214285714285  39.1354166666667 2.73214285714286  Z M 36.0546875 6.34821428571429  C 35.7838541666667 6.02678571428571  35.3211805555556 5.73214285714285  34 5.46428571428571  L 34 21  L 47.3958333333333 21  C 47.1701388888889 19.7946428571428  46.921875 19.2455357142857  46.6510416666667 18.9241071428571  L 36.0546875 6.34821428571429  Z M 5 66  L 47 66  L 47 26  L 33.5833333333333 26  C 32.6805555555556 25.7142857142857  31.9131944444444 25.3392857142857  31.28125 24.5892857142857  C 30.6493055555556 23.8392857142857  30.3333333333333 22.9285714285714  30 21.8571428571429  L 30 6  L 5 6  L 5 66  Z M 18.0442708333333 31  L 7.88802083333333 31  L 7.88802083333333 35.15625  L 10.2578125 35.15625  L 15.8098958333333 61.7142857142857  L 21.1927083333333 61.7142857142857  L 25.5260416666667 42.2276785714286  C 25.6840277777778 41.6919642857143  25.796875 41.0758928571429  25.8645833333333 40.3794642857143  C 25.9097222222222 39.9508928571429  25.9322916666667 39.6294642857143  25.9322916666667 39.4151785714286  L 26.0677083333333 39.4151785714286  L 26.1692708333333 40.3794642857143  C 26.1918402777778 40.4598214285714  26.2313368055556 40.7276785714286  26.2877604166667 41.1830357142857  C 26.3441840277778 41.6383928571429  26.40625 41.9866071428571  26.4739583333333 42.2276785714286  L 30.8072916666667 61.7142857142857  L 36.1901041666667 61.7142857142857  L 41.7421875 35.15625  L 44.1119791666667 35.15625  L 44.1119791666667 31  L 33.9557291666667 31  L 33.9557291666667 35.15625  L 37.0026041666667 35.15625  L 33.6510416666667 52.7544642857143  C 33.5381944444444 53.2901785714286  33.4592013888889 53.90625  33.4140625 54.6026785714286  L 33.3463541666667 55.4464285714286  L 33.2109375 55.4464285714286  C 33.2109375 55.3660714285714  33.2052951388889 55.2790178571429  33.1940104166667 55.1852678571429  C 33.1827256944444 55.0915178571429  33.1657986111111 54.984375  33.1432291666667 54.8638392857143  C 33.1206597222222 54.7433035714286  33.109375 54.65625  33.109375 54.6026785714286  C 33.0868055555556 54.46875  33.0416666666667 54.1875  32.9739583333333 53.7589285714286  C 32.90625 53.3303571428571  32.8498263888889 52.9955357142857  32.8046875 52.7544642857143  L 27.9296875 30.8571428571429  L 24.0703125 30.8571428571429  L 19.1953125 52.7544642857143  C 19.1501736111111 52.9955357142857  19.0993923611111 53.3236607142857  19.04296875 53.7388392857143  C 18.9865451388889 54.1540178571429  18.9470486111111 54.4419642857143  18.9244791666667 54.6026785714286  L 18.7890625 55.4464285714286  L 18.6536458333333 55.4464285714286  L 18.5859375 54.6026785714286  C 18.5407986111111 53.90625  18.4618055555556 53.2901785714286  18.3489583333333 52.7544642857143  L 14.9973958333333 35.15625  L 18.0442708333333 35.15625  L 18.0442708333333 31  Z " fill-rule="nonzero" fill="#000000" stroke="none" transform="matrix(1 0 0 1 334 901 )" />
  </g>
</svg>