<?xml version="1.0" encoding="utf-8"?>
<svg version="1.1" xmlns:xlink="http://www.w3.org/1999/xlink" width="52px" height="72px" xmlns="http://www.w3.org/2000/svg">
  <g transform="matrix(1 0 0 1 -256 -901 )">
    <path d="M 39.1354166666667 2.73214285714286  L 49.6979166666667 15.2678571428571  C 50.3298611111111 16.0178571428571  50.8715277777778 17.0357142857143  51.3229166666667 18.3214285714286  C 51.7743055555556 19.6071428571429  52 20.7857142857143  52 21.8571428571429  L 52 68.1428571428571  C 52 69.2142857142857  51.6840277777778 70.125  51.0520833333333 70.875  C 50.4201388888889 71.625  49.6527777777778 72  48.75 72  L 3.25 72  C 2.34722222222222 72  1.57986111111111 71.625  0.947916666666667 70.875  C 0.315972222222222 70.125  0 69.2142857142857  0 68.1428571428571  L 0 3.85714285714286  C 0 2.78571428571428  0.315972222222222 1.875  0.947916666666667 1.125  C 1.57986111111111 0.375000000000003  2.34722222222222 0  3.25 0  L 33.5833333333333 0  C 34.4861111111111 0  35.4791666666667 0.267857142857146  36.5625 0.80357142857143  C 37.6458333333333 1.33928571428571  38.5034722222222 1.98214285714285  39.1354166666667 2.73214285714286  Z M 36.0546875 6.34821428571429  C 35.7838541666667 6.02678571428571  35.3211805555556 5.73214285714285  34 5.46428571428571  L 34 21  L 47.3958333333333 21  C 47.1701388888889 19.7946428571428  46.921875 19.2455357142857  46.6510416666667 18.9241071428571  L 36.0546875 6.34821428571429  Z M 5 66  L 47 66  L 47 26  L 33.5833333333333 26  C 32.6805555555556 25.7142857142857  31.9131944444444 25.3392857142857  31.28125 24.5892857142857  C 30.6493055555556 23.8392857142857  30.3333333333333 22.9285714285714  30 21.8571428571429  L 30 6  L 5 6  L 5 66  Z M 25.3229166666667 33.46875  C 26.5642361111111 37.8616071428571  28.2118055555556 41.0491071428571  30.265625 43.03125  C 31.0104166666667 43.7276785714286  31.9583333333333 44.4776785714286  33.109375 45.28125  C 34.4409722222222 45.09375  35.7612847222222 45  37.0703125 45  C 40.3880208333333 45  42.3854166666667 45.65625  43.0625 46.96875  C 43.4236111111111 47.5580357142857  43.4461805555556 48.2544642857143  43.1302083333333 49.0580357142857  C 43.1302083333333 49.0848214285714  43.1189236111111 49.1116071428571  43.0963541666667 49.1383928571429  L 43.0286458333333 49.21875  L 43.0286458333333 49.2589285714286  C 42.8932291666667 50.2767857142857  42.0920138888889 50.7857142857143  40.625 50.7857142857143  C 39.5416666666667 50.7857142857143  38.2439236111111 50.5178571428571  36.7317708333333 49.9821428571429  C 35.2196180555556 49.4464285714286  33.7526041666667 48.7366071428571  32.3307291666667 47.8526785714286  C 27.3428819444444 48.4955357142857  22.9192708333333 49.6071428571428  19.0598958333333 51.1875  C 15.6067708333333 58.2053571428571  12.8758680555556 61.7142857142857  10.8671875 61.7142857142857  C 10.5286458333333 61.7142857142857  10.2126736111111 61.6205357142857  9.91927083333333 61.4330357142857  L 9.10677083333333 60.9508928571429  C 9.08420138888889 60.9241071428571  9.01649305555556 60.8571428571429  8.90364583333333 60.75  C 8.67795138888889 60.4821428571429  8.61024305555556 60  8.70052083333333 59.3035714285714  C 8.90364583333333 58.2321428571429  9.53559027777778 57.0066964285714  10.5963541666667 55.6272321428571  C 11.6571180555556 54.2477678571429  13.1467013888889 52.9553571428571  15.0651041666667 51.75  C 15.3810763888889 51.5089285714286  15.640625 51.5892857142857  15.84375 51.9910714285714  C 15.8888888888889 52.0446428571429  15.9114583333333 52.0982142857143  15.9114583333333 52.1517857142857  C 17.0850694444444 49.875  18.2925347222222 47.2366071428571  19.5338541666667 44.2366071428571  C 21.0685763888889 40.59375  22.2421875 37.0848214285714  23.0546875 33.7098214285714  C 22.5130208333333 31.5133928571429  22.1688368055556 29.3772321428571  22.0221354166667 27.3013392857143  C 21.8754340277778 25.2254464285714  21.9487847222222 23.5178571428571  22.2421875 22.1785714285714  C 22.4904513888889 21.1071428571429  22.9644097222222 20.5714285714286  23.6640625 20.5714285714286  L 24.375 20.5714285714286  L 24.4088541666667 20.5714285714286  C 24.9279513888889 20.5714285714286  25.3229166666667 20.7723214285714  25.59375 21.1741071428571  C 26 21.7366071428571  26.1015625 22.6473214285714  25.8984375 23.90625  C 25.8532986111111 24.0669642857143  25.8081597222222 24.1741071428571  25.7630208333333 24.2276785714286  C 25.7855902777778 24.3080357142857  25.796875 24.4151785714286  25.796875 24.5491071428571  L 25.796875 25.7544642857143  C 25.7517361111111 29.0491071428571  25.59375 31.6205357142857  25.3229166666667 33.46875  Z M 12.44140625 56.5714285714286  C 11.6176215277778 57.75  11.0590277777778 58.7410714285714  10.765625 59.5446428571429  C 11.9392361111111 58.9017857142857  13.4852430555556 56.7857142857143  15.4036458333333 53.1964285714286  C 14.2526041666667 54.2678571428571  13.2651909722222 55.3928571428571  12.44140625 56.5714285714286  Z M 24.2395833333333 22.5  L 24.2395833333333 22.5803571428571  C 23.9010416666667 23.7053571428571  23.8784722222222 25.4732142857143  24.171875 27.8839285714286  C 24.1944444444444 27.6964285714286  24.2734375 27.1071428571428  24.4088541666667 26.1160714285714  C 24.4088541666667 26.0357142857143  24.4878472222222 25.4598214285714  24.6458333333333 24.3883928571429  C 24.6684027777778 24.28125  24.7135416666667 24.1741071428571  24.78125 24.0669642857143  C 24.7586805555556 24.0401785714286  24.7473958333333 24.0133928571428  24.7473958333333 23.9866071428571  C 24.7248263888889 23.9330357142857  24.7135416666667 23.8928571428571  24.7135416666667 23.8660714285714  C 24.6909722222222 23.2767857142857  24.5442708333333 22.7946428571429  24.2734375 22.4196428571429  C 24.2734375 22.4464285714286  24.2621527777778 22.4732142857143  24.2395833333333 22.5  Z M 21.5651041666667 45.8035714285714  C 20.8880208333333 47.3035714285714  20.3802083333333 48.4151785714286  20.0416666666667 49.1383928571429  C 23.0885416666667 47.6919642857143  26.2934027777778 46.6071428571429  29.65625 45.8839285714286  C 29.6111111111111 45.8571428571429  29.4644097222222 45.7299107142857  29.2161458333333 45.5022321428571  C 28.9678819444444 45.2745535714286  28.7873263888889 45.09375  28.6744791666667 44.9598214285714  C 26.9592013888889 43.1651785714286  25.5260416666667 40.8080357142857  24.375 37.8883928571429  C 23.765625 40.1919642857143  22.8289930555556 42.8303571428571  21.5651041666667 45.8035714285714  Z M 41.9791666666667 48.6160714285714  C 41.9791666666667 48.5892857142857  41.9565972222222 48.5491071428571  41.9114583333333 48.4955357142857  C 41.3697916666667 47.8526785714286  39.7899305555556 47.53125  37.171875 47.53125  C 38.8871527777778 48.28125  40.2864583333333 48.65625  41.3697916666667 48.65625  C 41.6857638888889 48.65625  41.8888888888889 48.6428571428571  41.9791666666667 48.6160714285714  Z " fill-rule="nonzero" fill="#000000" stroke="none" transform="matrix(1 0 0 1 256 901 )" />
  </g>
</svg>