<?xml version="1.0" encoding="utf-8"?>
<svg version="1.1" xmlns:xlink="http://www.w3.org/1999/xlink" width="19px" height="19px" xmlns="http://www.w3.org/2000/svg">
  <g transform="matrix(1 0 0 1 -36 -137 )">
    <path d="M 8.55 14.25  L 8.55 12.35  L 10.45 12.35  L 10.45 14.25  L 8.55 14.25  Z M 8.55 10.45  L 8.55 4.75  L 10.45 4.75  L 10.45 10.45  L 8.55 10.45  Z M 19 9.5  C 19 4.25125  14.744 0  9.49525 0  C 4.24650000000001 0  0 4.25125  0 9.5  C 0 14.74875  4.24650000000001 19  9.49525 19  C 14.744 19  19 14.74875  19 9.5  Z M 17.1 9.5  C 17.1 13.699  13.699 17.1  9.5 17.1  C 5.301 17.1  1.90000000000001 13.699  1.90000000000001 9.5  C 1.90000000000001 5.301  5.301 1.90000000000001  9.5 1.90000000000001  C 13.699 1.90000000000001  17.1 5.301  17.1 9.5  Z " fill-rule="nonzero" fill="#ffc71c" stroke="none" transform="matrix(1 0 0 1 36 137 )" />
  </g>
</svg>