<?xml version="1.0" encoding="utf-8"?>
<svg version="1.1" xmlns:xlink="http://www.w3.org/1999/xlink" width="10px" height="6px" xmlns="http://www.w3.org/2000/svg">
  <g transform="matrix(1 0 0 1 -40 -20 )">
    <path d="M 9.81445312499997 0.184722222222206  C 9.93815104166671 0.307870370370381  10 0.453703703703695  10 0.622222222222206  C 10 0.790740740740716  9.93815104166671 0.936574074074088  9.81445312499997 1.05972222222223  L 5.43945312500008 5.41527777777782  C 5.31575520833334 5.53842592592594  5.16927083333334 5.60000000000002  5.00000000000009 5.60000000000002  C 4.83072916666666 5.60000000000002  4.68424479166666 5.53842592592594  4.56054687499992 5.41527777777782  L 0.185546875000028 1.05972222222223  C 0.061848958333371 0.936574074074088  0 0.790740740740716  0 0.622222222222206  C 0 0.453703703703695  0.061848958333371 0.307870370370381  0.185546875000028 0.184722222222206  C 0.309244791666642 0.0615740740740591  0.455729166666642 0  0.625000000000027 0  L 9.37499999999997 0  C 9.54427083333327 0  9.69075520833327 0.0615740740740591  9.81445312499997 0.184722222222206  Z " fill-rule="nonzero" fill="#333333" stroke="none" fill-opacity="0.8" transform="matrix(1 0 0 1 40 20 )" />
  </g>
</svg>