<?xml version="1.0" encoding="utf-8"?>
<svg version="1.1" xmlns:xlink="http://www.w3.org/1999/xlink" width="11px" height="6px" xmlns="http://www.w3.org/2000/svg">
  <g transform="matrix(1 0 0 1 -38 -20 )">
    <path d="M 10.314453125 0.684722222222206  C 10.4381510416667 0.807870370370381  10.5 0.953703703703695  10.5 1.12222222222221  C 10.5 1.29074074074072  10.4381510416667 1.43657407407409  10.314453125 1.55972222222223  L 5.93945312500009 5.91527777777782  C 5.81575520833334 6.03842592592594  5.66927083333334 6.10000000000002  5.50000000000009 6.10000000000002  C 5.33072916666666 6.10000000000002  5.18424479166666 6.03842592592594  5.06054687499991 5.91527777777782  L 0.685546875000028 1.55972222222223  C 0.561848958333371 1.43657407407409  0.5 1.29074074074072  0.5 1.12222222222221  C 0.5 0.953703703703695  0.561848958333371 0.807870370370381  0.685546875000028 0.684722222222206  C 0.809244791666643 0.561574074074059  0.955729166666643 0.5  1.12500000000003 0.5  L 9.87499999999997 0.5  C 10.0442708333333 0.5  10.1907552083333 0.561574074074059  10.314453125 0.684722222222206  Z " fill-rule="nonzero" fill="#333333" stroke="none" fill-opacity="0.8" transform="matrix(1 0 0 1 38 20 )" />
  </g>
</svg>