<?xml version="1.0" encoding="utf-8"?>
<svg version="1.1" xmlns:xlink="http://www.w3.org/1999/xlink" width="408px" height="145px" xmlns="http://www.w3.org/2000/svg">
  <g transform="matrix(1 0 0 1 -20 -121 )">
    <path d="M 21 125  A 3 3 0 0 1 24 122 L 424 122  A 3 3 0 0 1 427 125 L 427 262  A 3 3 0 0 1 424 265 L 24 265  A 3 3 0 0 1 21 262 L 21 125  Z " fill-rule="nonzero" fill="#ffffff" stroke="none" />
    <path d="M 20.5 125  A 3.5 3.5 0 0 1 24 121.5 L 424 121.5  A 3.5 3.5 0 0 1 427.5 125 L 427.5 262  A 3.5 3.5 0 0 1 424 265.5 L 24 265.5  A 3.5 3.5 0 0 1 20.5 262 L 20.5 125  Z " stroke-width="1" stroke-dasharray="9,4" stroke="#e4e4e4" fill="none" stroke-dashoffset="0.5" />
  </g>
</svg>