<?xml version="1.0" encoding="utf-8"?>
<svg version="1.1" xmlns:xlink="http://www.w3.org/1999/xlink" width="34px" height="32px" xmlns="http://www.w3.org/2000/svg">
  <g transform="matrix(1 0 0 1 -207 -212 )">
    <path d="M 15.6190476190476 16.7619047782704  L 18.6666666666667 16.7619047782704  L 18.6666666666667 25.2723809596064  L 21.4521904761905 22.4868571530742  L 23.6083809523809 24.643047626949  L 17.1428571428571 31.1070476200067  L 10.6773333333333 24.643047626949  L 12.8335238095238 22.4868571530742  L 15.6190476190476 25.2723809596064  L 15.6190476190476 16.7619047782704  Z M 6.54628571428572 9.43847621470721  C 7.16992282947766 4.0582963134128  11.7266537772227 -0.00043124770598979  17.1428571428571 0  C 22.5587981025879 0.000257894012889892  27.1151371392787 4.05863637588706  27.7394285714286 9.43847621470721  C 31.3857438095062 10.4328400905845  33.915383456183 13.7446966452463  33.915383456183 17.5241641083326  C 33.915383456183 21.8611180120572  30.6066607065357 25.4816774414361  26.2872380952381 25.8712381018204  L 26.2857142857143 22.8571428669623  C 26.28571736436 22.8540797751461  26.2857189036831 22.8510166819804  26.2857189036831 22.8479535886171  C 26.2857189036831 17.7984930241586  22.1923223307075 13.7050964555793  17.142861760826 13.7050964555793  C 12.2232483207331 13.7050964555793  8.18563615020648 17.5979495471049  8.00609523809524 22.5142857244734  L 8 22.8571428669623  L 8 25.8712381018204  C 3.68008467780041 25.4822305742298  0.370709291559677 21.8614558702084  0.370709291559677 17.5240608907984  C 0.370709291559677 13.7447391468636  2.90015760671346 10.432972416764  6.54628571428572 9.43847621470721  Z " fill-rule="nonzero" fill="#999999" stroke="none" transform="matrix(1 0 0 1 207 212 )" />
  </g>
</svg>